<?xml version="1.0" standalone="no"?>
<!DOCTYPE svg PUBLIC "-//W3C//DTD SVG 1.1//EN" "http://www.w3.org/Graphics/SVG/1.1/DTD/svg11.dtd" >
<svg xmlns="http://www.w3.org/2000/svg" xmlns:xlink="http://www.w3.org/1999/xlink" version="1.1">
<metadata>
Created by FontForge 20170731 at Thu Nov 26 10:01:35 2020
 By Aleksey,,,
Copyright (c) 2018 by Alexander Pravdin. All rights reserved.
</metadata>
<defs>
<font id="SONGERCondensed" horiz-adv-x="915" >
  <font-face 
    font-family="SONGER Condensed"
    font-weight="400"
    font-stretch="condensed"
    units-per-em="2048"
    panose-1="2 0 5 6 2 0 0 2 0 4"
    ascent="1638"
    descent="-410"
    x-height="1458"
    cap-height="1458"
    bbox="-117 -557 1933 2005"
    underline-thickness="198"
    underline-position="-439"
    unicode-range="U+0020-F6C3"
  />
<missing-glyph horiz-adv-x="946" 
d="M104 0v1458h738v-1458h-738zM233 131h482v1198h-482v-1198z" />
    <glyph glyph-name=".notdef" horiz-adv-x="946" 
d="M104 0v1458h738v-1458h-738zM233 131h482v1198h-482v-1198z" />
    <glyph glyph-name=".null" horiz-adv-x="0" 
 />
    <glyph glyph-name="nonmarkingreturn" horiz-adv-x="682" 
 />
    <glyph glyph-name="space" unicode=" " horiz-adv-x="544" 
 />
    <glyph glyph-name="exclam" unicode="!" horiz-adv-x="436" 
d="M317 1458v-1069h-198v1069h198zM369 131q0 62 -43.5 106t-106.5 44t-106 -44t-43 -106q0 -63 43 -106t106 -43t106.5 43t43.5 106z" />
    <glyph glyph-name="quotedbl" unicode="&#x22;" horiz-adv-x="546" 
d="M45 1040v467h193v-467h-193zM309 1507v-467h193v467h-193z" />
    <glyph glyph-name="numbersign" unicode="#" horiz-adv-x="903" 
d="M104 0l27 289h-119v196h135l39 482h-102v194h121l24 297h187l-25 -297h195l28 297h187l-27 -297h119v-194h-135l-39 -482h102v-196h-125l-24 -289h-185l25 289h-197l-24 -289h-187zM336 485h196l39 482h-198z" />
    <glyph glyph-name="dollar" unicode="$" horiz-adv-x="817" 
d="M311 -227v227q-134 31 -278 172l135 145q138 -135 254 -135q72 0 114 58.5t42 134.5q0 56 -23 103t-61 78.5t-86.5 64t-99 60t-99 67t-86.5 83.5t-61 111t-23 148q0 140 75.5 244t196.5 130v226h181v-230q115 -29 253 -145l-133 -150q-125 111 -223 111q-72 0 -110.5 -53
t-38.5 -133q0 -49 18.5 -90t49.5 -71t71.5 -57.5t85 -53.5t89 -54t85 -65t71.5 -81t49.5 -106t18.5 -137q0 -138 -79 -248.5t-207 -136.5v-217h-181z" />
    <glyph glyph-name="percent" unicode="%" horiz-adv-x="1148" 
d="M889 -18q-111 0 -180.5 116t-69.5 293q0 179 69 293.5t181 114.5q106 0 176 -115.5t70 -292.5q0 -175 -70 -292t-176 -117zM258 659q-108 0 -177 116t-69 294t69 292t177 114t177 -114t69 -292t-69 -294t-177 -116zM735 1458l-495 -1458h163l504 1458h-172zM889 168
q45 0 72.5 61t27.5 162q0 99 -28 160t-72 61q-50 0 -77.5 -59.5t-27.5 -161.5q0 -103 27.5 -163t77.5 -60zM258 844q47 0 73.5 61.5t26.5 163.5q0 100 -26.5 160.5t-73.5 60.5t-73.5 -60.5t-26.5 -160.5q0 -102 26.5 -163.5t73.5 -61.5z" />
    <glyph glyph-name="ampersand" unicode="&#x26;" horiz-adv-x="929" 
d="M627 838h303v-201h-185q68 -108 68 -223q0 -82 -24.5 -158.5t-69.5 -138t-116.5 -98.5t-158.5 -37q-70 0 -130.5 24.5t-103.5 67t-73.5 98t-45.5 118.5t-15 128q0 101 33.5 189.5t101.5 144.5q-135 109 -135 313q0 105 38.5 196.5t118 152.5t185.5 61q155 0 299 -117
l-125 -158q-98 76 -172 76q-66 0 -106 -59.5t-40 -141.5q0 -53 15.5 -93t53.5 -74t109.5 -52t174.5 -18zM444 182q78 0 125 72t47 166q0 58 -17.5 107.5t-57.5 83.5t-97 34q-83 0 -126.5 -65.5t-43.5 -159.5q0 -93 47 -165.5t123 -72.5z" />
    <glyph glyph-name="quotesingle" unicode="'" horiz-adv-x="290" 
d="M45 1040v467h201v-467h-201z" />
    <glyph glyph-name="parenleft" unicode="(" horiz-adv-x="454" 
d="M469 -268l-182 -74q-90 228 -136.5 504t-46.5 565t46.5 565.5t136.5 507.5l182 -76q-168 -416 -168 -997q0 -270 43 -527.5t125 -467.5z" />
    <glyph glyph-name="parenright" unicode=")" horiz-adv-x="454" 
d="M168 -342l-182 74q82 210 125 467.5t43 527.5q0 581 -168 997l182 76q182 -468 182 -1073q0 -290 -46 -566t-136 -503z" />
    <glyph glyph-name="asterisk" unicode="*" horiz-adv-x="641" 
d="M78 977l133 164l-207 67l45 135l201 -71l-4 211h149l-2 -211l199 67l43 -135l-203 -63l127 -168l-117 -82l-120 172l-125 -172z" />
    <glyph glyph-name="plus" unicode="+" horiz-adv-x="688" 
d="M39 621v192h207v209h196v-209h207v-192h-207v-207h-196v207h-207z" />
    <glyph glyph-name="comma" unicode="," horiz-adv-x="380" 
d="M90 -270l-94 131q127 82 172 143q-52 -3 -90.5 33t-38.5 92q0 64 42 108t107 44q74 0 114 -59t40 -146q0 -104 -68 -187t-184 -159z" />
    <glyph glyph-name="hyphen" unicode="-" horiz-adv-x="466" 
d="M37 621v198h393v-198h-393z" />
    <glyph glyph-name="period" unicode="." horiz-adv-x="368" 
d="M35 131q0 62 42.5 106t106.5 44q62 0 106 -44.5t44 -105.5q0 -63 -44 -106t-106 -43q-64 0 -106.5 43t-42.5 106z" />
    <glyph glyph-name="slash" unicode="/" horiz-adv-x="557" 
d="M0 -43l365 1544h192l-360 -1544h-197z" />
    <glyph glyph-name="zero" unicode="0" horiz-adv-x="888" 
d="M449 182q82 0 128 153t46 396q0 242 -46 393.5t-128 151.5q-87 0 -133 -149.5t-46 -395.5q0 -161 19.5 -283t60.5 -194t99 -72zM68 731q0 215 43 381.5t130.5 264.5t207.5 98q118 0 203 -98t127 -264t42 -382q0 -218 -42 -385.5t-127 -265.5t-203 -98q-120 0 -207 98
t-130.5 265.5t-43.5 385.5z" />
    <glyph glyph-name="one" unicode="1" horiz-adv-x="524" 
d="M240 0v1227l-99 -66l-108 168l200 129h205v-1458h-198z" />
    <glyph glyph-name="two" unicode="2" horiz-adv-x="815" 
d="M86 0v227q59 43 119.5 99t123 130.5t110 152.5t78 168.5t30.5 174.5q0 150 -37 237t-94 87q-61 0 -101.5 -90t-48.5 -242l-198 14q8 128 39.5 228.5t79.5 162.5t106 94t123 32q137 0 234.5 -144t97.5 -393q0 -104 -34.5 -209.5t-95.5 -200t-132 -175t-156 -154.5h409
v-199h-653z" />
    <glyph glyph-name="three" unicode="3" horiz-adv-x="829" 
d="M63 385l197 33q14 -92 54 -164t96 -72q68 0 109.5 67.5t41.5 156.5q0 90 -40.5 157.5t-108.5 67.5h-97v198h95q62 0 103.5 65t41.5 157t-43 158.5t-106 66.5q-40 0 -86 -61.5t-64 -159.5l-197 35q19 103 58.5 181t89 120.5t99.5 63t100 20.5q152 0 250 -123.5t98 -300.5
q0 -95 -32 -178t-89 -140q129 -119 129 -327q0 -183 -102 -303.5t-250 -120.5q-38 0 -74 8.5t-79.5 35t-79 69t-67 117.5t-47.5 173z" />
    <glyph glyph-name="four" unicode="4" horiz-adv-x="888" 
d="M66 260v225l407 973h223v-999h129v-199h-129v-260h-198v260h-432zM256 459h242v610z" />
    <glyph glyph-name="five" unicode="5" horiz-adv-x="802" 
d="M61 438l199 15q23 -271 131 -271q68 0 108 95.5t40 224.5q0 84 -12.5 155t-40.5 118.5t-66 47.5q-35 0 -70.5 -41t-60.5 -118l-187 63l37 731h563v-201h-389l-14 -303q72 68 143 68q93 0 161.5 -73.5t101 -186.5t32.5 -246q0 -102 -22 -196t-64 -170.5t-109 -122
t-151 -45.5q-69 0 -124 27.5t-90.5 71.5t-60.5 105.5t-37.5 122.5t-17.5 129z" />
    <glyph glyph-name="six" unicode="6" horiz-adv-x="835" 
d="M272 1243l107 258l184 -71l-139 -357q62 11 125 -22t114.5 -100t84 -176t32.5 -240q0 -105 -23 -202.5t-66.5 -176.5t-114.5 -126.5t-158 -47.5q-115 0 -199 81.5t-123 204.5t-39 267q0 116 37 242t178 466zM418 182q51 0 88 53t54.5 131.5t17.5 168.5q0 144 -42.5 247
t-117.5 103q-50 0 -86.5 -51t-54 -129t-17.5 -170t17.5 -170.5t54 -130.5t86.5 -52z" />
    <glyph glyph-name="seven" unicode="7" horiz-adv-x="792" 
d="M182 10l346 1247h-460v201h665v-201l-354 -1300z" />
    <glyph glyph-name="eight" unicode="8" horiz-adv-x="839" 
d="M197 741q-109 97 -109 299q0 189 96 312t236 123q141 0 236.5 -122.5t95.5 -312.5q0 -203 -111 -303q61 -56 97 -135.5t36 -167.5q0 -199 -102 -325.5t-252 -126.5q-151 0 -251.5 126t-100.5 326q0 93 34 172.5t95 134.5zM420 182q61 0 107 71.5t46 166.5
q0 107 -44.5 171t-108.5 64q-65 0 -109.5 -64t-44.5 -171q0 -96 45.5 -167t108.5 -71zM420 834q59 0 97 57.5t38 157.5q0 101 -38.5 162t-96.5 61t-96.5 -65t-38.5 -158q0 -101 37.5 -158t97.5 -57z" />
    <glyph glyph-name="nine" unicode="9" horiz-adv-x="835" 
d="M272 27l140 356q-62 -11 -125 22t-115 100t-84.5 176.5t-32.5 240.5q0 142 39 265t123.5 205.5t200.5 82.5q87 0 157 -47t113.5 -125.5t66.5 -176t23 -204.5q0 -116 -37.5 -243t-177.5 -466l-106 -258zM418 573q50 0 86.5 51.5t53.5 129.5t17 170t-17 170.5t-53.5 130
t-86.5 51.5q-51 0 -88 -52.5t-54.5 -131t-17.5 -168.5q0 -144 42.5 -247.5t117.5 -103.5z" />
    <glyph glyph-name="colon" unicode=":" horiz-adv-x="360" 
d="M31 131q0 62 42.5 106t106.5 44q62 0 106 -44.5t44 -105.5q0 -63 -44 -106t-106 -43q-64 0 -106.5 43t-42.5 106zM31 924q0 62 42.5 105.5t106.5 43.5q62 0 106 -44t44 -105q0 -64 -44 -107t-106 -43q-64 0 -106.5 42.5t-42.5 107.5z" />
    <glyph glyph-name="semicolon" unicode=";" horiz-adv-x="360" 
d="M31 924q0 62 43 105.5t106 43.5q62 0 106 -44t44 -105q0 -64 -44 -107t-106 -43q-63 0 -106 43t-43 107zM82 -270l-94 131q127 82 172 143q-52 -3 -90.5 33t-38.5 92q0 64 42 108t107 44q74 0 114 -59t40 -146q0 -104 -68 -187t-184 -159z" />
    <glyph glyph-name="less" unicode="&#x3c;" horiz-adv-x="636" 
d="M8 645v160l596 457v-250l-381 -285l381 -274v-250z" />
    <glyph glyph-name="equal" unicode="=" horiz-adv-x="643" 
d="M49 776v197h545v-197h-545zM49 664v-197h545v197h-545z" />
    <glyph glyph-name="greater" unicode="&#x3e;" horiz-adv-x="636" 
d="M33 203v250l381 274l-381 285v250l596 -457v-160z" />
    <glyph glyph-name="question" unicode="?" horiz-adv-x="800" 
d="M221 131q0 -63 43 -106t107 -43q62 0 105.5 43t43.5 106q0 62 -44 106t-105 44q-64 0 -107 -44t-43 -106zM242 371v198h80q68 0 115.5 27.5t73 78.5t36 111t10.5 138q0 146 -47 249t-107 103q-17 0 -28.5 -2.5t-35 -23t-42 -58t-41 -116.5t-39.5 -189l-199 33
q10 64 20.5 114.5t27.5 110.5t37 105t49.5 89t64.5 72.5t82.5 46t103.5 17.5q100 0 181 -72t126.5 -197.5t45.5 -279.5q0 -116 -23 -212t-72 -175t-135.5 -123.5t-203.5 -44.5h-80z" />
    <glyph glyph-name="at" unicode="@" horiz-adv-x="1351" 
d="M864 -33l121 -139q-4 -5 -13 -14.5t-38.5 -32.5t-63 -41t-86 -32.5t-108.5 -14.5q-134 0 -251.5 73.5t-202 203.5t-133 317.5t-48.5 406.5q0 220 49 409t133.5 320.5t201.5 206t251 74.5t251 -74.5t201.5 -206t133.5 -320.5t49 -409q0 -164 -26 -290.5t-70 -200
t-97.5 -110t-113.5 -36.5q-72 0 -125 52t-78 147q-63 -127 -183 -127q-70 0 -126 48t-90.5 128t-53 180t-18.5 209q0 145 32.5 272.5t99 211.5t152.5 84q96 0 172 -129v90h183v-809q0 -164 39 -164q47 0 81.5 132.5t34.5 311.5q0 238 -58.5 427t-160.5 293t-229 104
q-122 0 -224.5 -103.5t-163.5 -293.5t-61 -427q0 -236 60 -423.5t162.5 -289.5t226.5 -102q49 0 96 22t70 44zM655 328q57 0 97.5 104.5t40.5 261.5q0 158 -40.5 263.5t-97.5 105.5q-46 0 -79.5 -55.5t-48.5 -137t-15 -176.5q0 -96 15 -177t48.5 -135t79.5 -54z" />
    <glyph glyph-name="A" unicode="A" 
d="M0 0l360 1458h195l360 -1458h-206l-39 160h-428l-39 -160h-203zM295 360h326l-164 723z" />
    <glyph glyph-name="B" unicode="B" horiz-adv-x="892" 
d="M115 0v1458h389q72 0 131.5 -35t97 -93.5t58 -131t20.5 -149.5q0 -90 -27 -171t-79 -135q62 -55 94 -142.5t32 -186.5q0 -61 -13 -121t-39 -112.5t-62 -93t-86.5 -64t-108.5 -23.5h-407zM315 199h203q55 0 85 65t30 154q0 86 -31 151.5t-84 65.5h-203v-436zM315 831h181
q54 0 84 64.5t30 153.5q0 87 -29 147.5t-85 60.5h-181v-426z" />
    <glyph glyph-name="C" unicode="C" horiz-adv-x="907" 
d="M672 492l198 -35q-39 -214 -138 -344.5t-251 -130.5q-103 0 -188 62t-138.5 167t-82.5 237.5t-29 278.5t29 279t82.5 238.5t138.5 168t188 62.5q78 0 143.5 -36.5t113 -102t80.5 -150.5t52 -187l-198 -34q-26 134 -74.5 221.5t-116.5 87.5q-61 0 -109 -58t-74.5 -146.5
t-40 -177.5t-13.5 -165q0 -89 15.5 -182.5t43.5 -175.5t75 -134.5t103 -52.5q48 0 88 46.5t63.5 112.5t39.5 151z" />
    <glyph glyph-name="D" unicode="D" horiz-adv-x="931" 
d="M115 0v1458h346q102 0 185 -62.5t135 -166t80 -232t28 -266.5q0 -141 -27.5 -270.5t-79 -233t-135 -165.5t-186.5 -62h-346zM315 199h152q69 0 120.5 78t76 197t24.5 257q0 135 -24.5 252.5t-76.5 195.5t-120 78h-152v-1058z" />
    <glyph glyph-name="E" unicode="E" horiz-adv-x="827" 
d="M115 0v1458h653v-201h-453v-426h314v-198h-314v-434h453v-199h-653z" />
    <glyph glyph-name="F" unicode="F" horiz-adv-x="798" 
d="M115 0v1458h653v-201h-451v-430h306v-198h-306v-629h-202z" />
    <glyph glyph-name="G" unicode="G" horiz-adv-x="960" 
d="M915 799q0 -13 1.5 -37t1.5 -37q0 -146 -28.5 -278t-81.5 -236.5t-137.5 -166.5t-187.5 -62t-188 62.5t-139 167.5t-83.5 237.5t-29.5 277.5q0 146 29 279.5t83.5 238.5t139.5 167.5t188 62.5q131 0 227.5 -97t151.5 -262l-188 -59q-31 100 -79.5 158.5t-111.5 58.5
q-56 0 -102.5 -49t-75.5 -128.5t-45 -176t-16 -195.5q0 -149 30.5 -274t85.5 -199t123 -74q85 0 149 115.5t89 304.5h-152v201h346z" />
    <glyph glyph-name="H" unicode="H" horiz-adv-x="1003" 
d="M115 0v1458h200v-627h371v627h203v-1458h-203v633h-371v-633h-200z" />
    <glyph glyph-name="I" unicode="I" horiz-adv-x="432" 
d="M115 0v1458h202v-1458h-202z" />
    <glyph glyph-name="J" unicode="J" horiz-adv-x="747" 
d="M-14 129l153 127q35 -40 61.5 -57t63.5 -17q74 0 124 100.5t50 258.5v917h199v-917q0 -140 -31 -249.5t-84.5 -176t-121 -100t-144.5 -33.5q-80 0 -143 36t-127 111z" />
    <glyph glyph-name="K" unicode="K" horiz-adv-x="942" 
d="M115 0v1458h200v-891l373 891h223l-346 -796l340 -662h-225l-227 444l-138 -274v-170h-200z" />
    <glyph glyph-name="L" unicode="L" horiz-adv-x="806" 
d="M115 0v1458h200v-1259h457v-199h-657z" />
    <glyph glyph-name="M" unicode="M" horiz-adv-x="1255" 
d="M115 0v1458h247l263 -1122l264 1122h252v-1458h-199v977l-219 -977h-195l-217 977v-977h-196z" />
    <glyph glyph-name="N" unicode="N" horiz-adv-x="1038" 
d="M115 0v1458h217l397 -1016v1016h195v-1458h-217l-396 1022v-1022h-196z" />
    <glyph glyph-name="O" unicode="O" horiz-adv-x="964" 
d="M483 1274q-56 0 -102.5 -48.5t-75.5 -127.5t-45 -175.5t-16 -195.5q0 -97 15.5 -192t44.5 -175.5t75.5 -130t103.5 -49.5q74 0 130.5 84t83 206.5t26.5 256.5q0 133 -26 255t-82.5 207t-131.5 85zM43 727q0 146 29 279.5t83.5 238.5t139.5 167.5t188 62.5t188 -62.5
t139 -168t83 -239t29 -278.5t-29 -278t-83 -238t-139 -167t-188 -62t-188 62.5t-139 167.5t-83.5 237.5t-29.5 277.5z" />
    <glyph glyph-name="P" unicode="P" horiz-adv-x="897" 
d="M115 0v1458h362q90 0 163 -47t119 -125t70.5 -175t24.5 -202t-24 -202t-69.5 -175t-119 -125t-164.5 -47h-162v-360h-200zM315 559h158q58 0 100.5 51.5t62 129.5t19.5 169q0 90 -21 167.5t-65 129t-104 51.5h-150v-698z" />
    <glyph glyph-name="Q" unicode="Q" horiz-adv-x="964" 
d="M922 727q0 -170 -39 -323.5t-113 -258.5l113 -133l-154 -129l-115 135q-61 -36 -131 -36q-103 0 -188 62.5t-139 167.5t-83.5 237.5t-29.5 277.5q0 146 29 279.5t83.5 238.5t139.5 167.5t188 62.5t188 -62.5t139 -168t83 -239t29 -278.5zM483 180q74 0 130.5 84t83 206.5
t26.5 256.5q0 133 -26 255t-82.5 207t-131.5 85q-56 0 -102.5 -48.5t-75.5 -127.5t-45 -175.5t-16 -195.5q0 -97 15.5 -192t44.5 -175.5t75.5 -130t103.5 -49.5z" />
    <glyph glyph-name="R" unicode="R" horiz-adv-x="921" 
d="M115 0v1458h366q90 0 163 -47t119 -125t70.5 -175t24.5 -202q0 -150 -48.5 -280.5t-137.5 -200.5l186 -428h-217l-158 360h-168v-360h-200zM315 559h162q58 0 100.5 51.5t62 129.5t19.5 169q0 90 -21 167.5t-65 129t-104 51.5h-154v-698z" />
    <glyph glyph-name="S" unicode="S" horiz-adv-x="819" 
d="M33 172l135 145q138 -135 252 -135q74 0 116 58t42 135q0 56 -23 103t-61 78.5t-86.5 64t-99 60t-99 67t-86.5 83.5t-61 111t-23 148q0 163 99 274t251 111q170 0 356 -160l-133 -150q-125 111 -223 111q-72 0 -110.5 -53t-38.5 -133q0 -62 29.5 -111.5t77 -84.5
t104.5 -67.5t114 -72t104.5 -87t77 -122.5t29.5 -170q0 -101 -43.5 -190.5t-126 -146t-186.5 -56.5q-191 0 -387 190z" />
    <glyph glyph-name="T" unicode="T" horiz-adv-x="856" 
d="M328 0v1257h-285v201h770v-201h-285v-1257h-200z" />
    <glyph glyph-name="U" unicode="U" horiz-adv-x="987" 
d="M109 524v934h200v-934q0 -160 53 -251t127 -91q77 0 134 90t57 252v934h199v-934q0 -132 -33.5 -238t-89.5 -171t-124.5 -99t-142.5 -34t-141 35t-121 100.5t-86 171t-32 235.5z" />
    <glyph glyph-name="V" unicode="V" horiz-adv-x="897" 
d="M334 0l-334 1458h209l240 -1093l243 1093h205l-330 -1458h-233z" />
    <glyph glyph-name="W" unicode="W" horiz-adv-x="1265" 
d="M1266 1458l-291 -1458h-203l-139 991l-139 -991h-203l-291 1458h211l176 -999l148 999h198l146 -999l176 999h211z" />
    <glyph glyph-name="X" unicode="X" horiz-adv-x="884" 
d="M557 745l315 -745h-219l-213 524l-213 -524h-217l316 745l-301 713h217l198 -489l199 489h219z" />
    <glyph glyph-name="Y" unicode="Y" horiz-adv-x="833" 
d="M317 0v371l-307 1087h209l199 -758l196 758h209l-307 -1087v-371h-199z" />
    <glyph glyph-name="Z" unicode="Z" horiz-adv-x="835" 
d="M66 0v199l483 1058h-483v201h704v-201l-483 -1058h483v-199h-704z" />
    <glyph glyph-name="bracketleft" unicode="[" horiz-adv-x="473" 
d="M102 -236v1928h347v-199h-150v-1528h150v-201h-347z" />
    <glyph glyph-name="backslash" unicode="\" horiz-adv-x="557" 
d="M360 -43l-360 1544h193l364 -1544h-197z" />
    <glyph glyph-name="bracketright" unicode="]" horiz-adv-x="473" 
d="M25 -236v201h149v1528h-149v199h346v-1928h-346z" />
    <glyph glyph-name="asciicircum" unicode="^" horiz-adv-x="645" 
d="M10 727l221 731h179l225 -731h-189l-124 469l-121 -469h-191z" />
    <glyph glyph-name="underscore" unicode="_" horiz-adv-x="792" 
d="M0 -342v199h793v-199h-793z" />
    <glyph glyph-name="grave" unicode="`" horiz-adv-x="436" 
d="M272 1503l-249 320l163 119l228 -336z" />
    <glyph glyph-name="a" unicode="a" 
d="M0 0l360 1458h195l360 -1458h-206l-39 160h-428l-39 -160h-203zM295 360h326l-164 723z" />
    <glyph glyph-name="b" unicode="b" horiz-adv-x="892" 
d="M115 0v1458h389q72 0 131.5 -35t97 -93.5t58 -131t20.5 -149.5q0 -90 -27 -171t-79 -135q62 -55 94 -142.5t32 -186.5q0 -61 -13 -121t-39 -112.5t-62 -93t-86.5 -64t-108.5 -23.5h-407zM315 199h203q55 0 85 65t30 154q0 86 -31 151.5t-84 65.5h-203v-436zM315 831h181
q54 0 84 64.5t30 153.5q0 87 -29 147.5t-85 60.5h-181v-426z" />
    <glyph glyph-name="c" unicode="c" horiz-adv-x="907" 
d="M672 492l198 -35q-39 -214 -138 -344.5t-251 -130.5q-103 0 -188 62t-138.5 167t-82.5 237.5t-29 278.5t29 279t82.5 238.5t138.5 168t188 62.5q78 0 143.5 -36.5t113 -102t80.5 -150.5t52 -187l-198 -34q-26 134 -74.5 221.5t-116.5 87.5q-61 0 -109 -58t-74.5 -146.5
t-40 -177.5t-13.5 -165q0 -89 15.5 -182.5t43.5 -175.5t75 -134.5t103 -52.5q48 0 88 46.5t63.5 112.5t39.5 151z" />
    <glyph glyph-name="d" unicode="d" horiz-adv-x="931" 
d="M115 0v1458h346q102 0 185 -62.5t135 -166t80 -232t28 -266.5q0 -141 -27.5 -270.5t-79 -233t-135 -165.5t-186.5 -62h-346zM315 199h152q69 0 120.5 78t76 197t24.5 257q0 135 -24.5 252.5t-76.5 195.5t-120 78h-152v-1058z" />
    <glyph glyph-name="e" unicode="e" horiz-adv-x="827" 
d="M115 0v1458h653v-201h-453v-426h314v-198h-314v-434h453v-199h-653z" />
    <glyph glyph-name="f" unicode="f" horiz-adv-x="798" 
d="M115 0v1458h653v-201h-451v-430h306v-198h-306v-629h-202z" />
    <glyph glyph-name="g" unicode="g" horiz-adv-x="960" 
d="M915 799q0 -13 1.5 -37t1.5 -37q0 -146 -28.5 -278t-81.5 -236.5t-137.5 -166.5t-187.5 -62t-188 62.5t-139 167.5t-83.5 237.5t-29.5 277.5q0 146 29 279.5t83.5 238.5t139.5 167.5t188 62.5q131 0 227.5 -97t151.5 -262l-188 -59q-31 100 -79.5 158.5t-111.5 58.5
q-56 0 -102.5 -49t-75.5 -128.5t-45 -176t-16 -195.5q0 -149 30.5 -274t85.5 -199t123 -74q85 0 149 115.5t89 304.5h-152v201h346z" />
    <glyph glyph-name="h" unicode="h" horiz-adv-x="1003" 
d="M115 0v1458h200v-627h371v627h203v-1458h-203v633h-371v-633h-200z" />
    <glyph glyph-name="i" unicode="i" horiz-adv-x="432" 
d="M115 0v1458h202v-1458h-202z" />
    <glyph glyph-name="j" unicode="j" horiz-adv-x="747" 
d="M-14 129l153 127q35 -40 61.5 -57t63.5 -17q74 0 124 100.5t50 258.5v917h199v-917q0 -140 -31 -249.5t-84.5 -176t-121 -100t-144.5 -33.5q-80 0 -143 36t-127 111z" />
    <glyph glyph-name="k" unicode="k" horiz-adv-x="944" 
d="M115 0v1458h200v-891l373 891h223l-346 -796l340 -662h-225l-227 444l-138 -274v-170h-200z" />
    <glyph glyph-name="l" unicode="l" horiz-adv-x="806" 
d="M115 0v1458h200v-1259h457v-199h-657z" />
    <glyph glyph-name="m" unicode="m" horiz-adv-x="1255" 
d="M115 0v1458h247l263 -1122l264 1122h252v-1458h-199v977l-219 -977h-195l-217 977v-977h-196z" />
    <glyph glyph-name="n" unicode="n" horiz-adv-x="1038" 
d="M115 0v1458h217l397 -1016v1016h195v-1458h-217l-396 1022v-1022h-196z" />
    <glyph glyph-name="o" unicode="o" horiz-adv-x="964" 
d="M483 1274q-56 0 -102.5 -48.5t-75.5 -127.5t-45 -175.5t-16 -195.5q0 -97 15.5 -192t44.5 -175.5t75.5 -130t103.5 -49.5q74 0 130.5 84t83 206.5t26.5 256.5q0 133 -26 255t-82.5 207t-131.5 85zM43 727q0 146 29 279.5t83.5 238.5t139.5 167.5t188 62.5t188 -62.5
t139 -168t83 -239t29 -278.5t-29 -278t-83 -238t-139 -167t-188 -62t-188 62.5t-139 167.5t-83.5 237.5t-29.5 277.5z" />
    <glyph glyph-name="p" unicode="p" horiz-adv-x="897" 
d="M115 0v1458h362q90 0 163 -47t119 -125t70.5 -175t24.5 -202t-24 -202t-69.5 -175t-119 -125t-164.5 -47h-162v-360h-200zM315 559h158q58 0 100.5 51.5t62 129.5t19.5 169q0 90 -21 167.5t-65 129t-104 51.5h-150v-698z" />
    <glyph glyph-name="q" unicode="q" horiz-adv-x="964" 
d="M922 727q0 -170 -39 -323.5t-113 -258.5l113 -133l-154 -129l-115 135q-61 -36 -131 -36q-103 0 -188 62.5t-139 167.5t-83.5 237.5t-29.5 277.5q0 146 29 279.5t83.5 238.5t139.5 167.5t188 62.5t188 -62.5t139 -168t83 -239t29 -278.5zM483 180q74 0 130.5 84t83 206.5
t26.5 256.5q0 133 -26 255t-82.5 207t-131.5 85q-56 0 -102.5 -48.5t-75.5 -127.5t-45 -175.5t-16 -195.5q0 -97 15.5 -192t44.5 -175.5t75.5 -130t103.5 -49.5z" />
    <glyph glyph-name="r" unicode="r" horiz-adv-x="921" 
d="M115 0v1458h366q90 0 163 -47t119 -125t70.5 -175t24.5 -202q0 -150 -48.5 -280.5t-137.5 -200.5l186 -428h-217l-158 360h-168v-360h-200zM315 559h162q58 0 100.5 51.5t62 129.5t19.5 169q0 90 -21 167.5t-65 129t-104 51.5h-154v-698z" />
    <glyph glyph-name="s" unicode="s" horiz-adv-x="819" 
d="M33 172l135 145q138 -135 252 -135q74 0 116 58t42 135q0 56 -23 103t-61 78.5t-86.5 64t-99 60t-99 67t-86.5 83.5t-61 111t-23 148q0 163 99 274t251 111q170 0 356 -160l-133 -150q-125 111 -223 111q-72 0 -110.5 -53t-38.5 -133q0 -62 29.5 -111.5t77 -84.5
t104.5 -67.5t114 -72t104.5 -87t77 -122.5t29.5 -170q0 -101 -43.5 -190.5t-126 -146t-186.5 -56.5q-191 0 -387 190z" />
    <glyph glyph-name="t" unicode="t" horiz-adv-x="856" 
d="M328 0v1257h-285v201h770v-201h-285v-1257h-200z" />
    <glyph glyph-name="u" unicode="u" horiz-adv-x="987" 
d="M109 524v934h200v-934q0 -160 53 -251t127 -91q77 0 134 90t57 252v934h199v-934q0 -132 -33.5 -238t-89.5 -171t-124.5 -99t-142.5 -34t-141 35t-121 100.5t-86 171t-32 235.5z" />
    <glyph glyph-name="v" unicode="v" horiz-adv-x="897" 
d="M334 0l-334 1458h209l240 -1093l243 1093h205l-330 -1458h-233z" />
    <glyph glyph-name="w" unicode="w" horiz-adv-x="1265" 
d="M1266 1458l-291 -1458h-203l-139 991l-139 -991h-203l-291 1458h211l176 -999l148 999h198l146 -999l176 999h211z" />
    <glyph glyph-name="x" unicode="x" horiz-adv-x="884" 
d="M557 745l315 -745h-219l-213 524l-213 -524h-217l316 745l-301 713h217l198 -489l199 489h219z" />
    <glyph glyph-name="y" unicode="y" horiz-adv-x="833" 
d="M317 0v371l-307 1087h209l199 -758l196 758h209l-307 -1087v-371h-199z" />
    <glyph glyph-name="z" unicode="z" horiz-adv-x="835" 
d="M66 0v199l483 1058h-483v201h704v-201l-483 -1058h483v-199h-704z" />
    <glyph glyph-name="braceleft" unicode="{" horiz-adv-x="512" 
d="M487 -35v-201q-77 0 -130 7.5t-90.5 29t-58.5 48.5t-33 78t-15.5 104.5t-3.5 140.5v127q0 183 -24.5 257.5t-100.5 74.5v196q76 0 100.5 73t24.5 255v127q0 87 3.5 140.5t15 105t33 78.5t59 49t90.5 29.5t130 7.5v-199q-35 0 -57 -2t-38 -11.5t-23.5 -17.5t-11.5 -32.5
t-4.5 -43t-0.5 -61.5v-213q0 -156 -24 -238t-86 -147q62 -65 86 -147t24 -238v-213v-47.5t2 -36.5t5 -29.5t10 -20t16 -16t24 -8t33.5 -5.5t44.5 -1z" />
    <glyph glyph-name="bar" unicode="|" horiz-adv-x="438" 
d="M119 -276v1892h200v-1892h-200z" />
    <glyph glyph-name="braceright" unicode="}" horiz-adv-x="512" 
d="M25 -236v201q26 0 44.5 1t33.5 5.5t24 8t16 16t10 20t5 29.5t2 36.5v47.5v213q0 156 24 238t86 147q-62 65 -86 147t-24 238v213q0 43 -0.5 61.5t-4.5 43t-11.5 32.5t-23.5 17.5t-38 11.5t-57 2v199q77 0 130 -7.5t90.5 -29.5t59 -49t33 -78.5t15 -105t3.5 -140.5v-127
q0 -182 24.5 -255t100.5 -73v-196q-76 0 -100.5 -74.5t-24.5 -257.5v-127q0 -87 -3.5 -140.5t-15.5 -104.5t-33 -78t-58.5 -48.5t-90.5 -29t-130 -7.5z" />
    <glyph glyph-name="asciitilde" unicode="~" horiz-adv-x="743" 
d="M182 573l-172 97q130 227 256 227q39 0 70.5 -16t51 -38.5t34.5 -45t29 -38.5t26 -16q31 0 86 111l170 -96q-130 -223 -252 -223q-39 0 -71 15.5t-52 37.5t-35.5 44.5t-30 38t-26.5 15.5q-33 0 -84 -113z" />
    <glyph glyph-name="exclamdown" unicode="&#xa1;" horiz-adv-x="436" 
d="M119 0v1069h198v-1069h-198zM68 1327q0 63 43 106.5t106 43.5t106.5 -43.5t43.5 -106.5q0 -62 -43.5 -105.5t-106.5 -43.5t-106 43.5t-43 105.5z" />
    <glyph glyph-name="cent" unicode="&#xa2;" horiz-adv-x="702" 
d="M274 -211v215q-107 49 -163 191t-56 321q0 177 56 319t163 191v217h172v-207q84 -22 134 -94t79 -186l-180 -47q-14 55 -28 88.5t-29.5 46.5t-24.5 15.5t-26 2.5q-60 0 -95.5 -104t-35.5 -244t34.5 -243t96.5 -103q15 0 24.5 3t25 16t30 47t28.5 88l180 -52
q-65 -237 -213 -276v-205h-172z" />
    <glyph glyph-name="sterling" unicode="&#xa3;" horiz-adv-x="784" 
d="M295 584q-18 -280 -59 -385h479v-199h-695v199q39 62 51.5 123.5t20.5 197.5l21 322q40 633 338 633q159 0 331 -240l-161 -115q-54 75 -100.5 115.5t-71.5 40.5t-46.5 -28.5t-36 -78t-25.5 -101.5t-18 -113.5t-10.5 -99.5t-5.5 -73h275v-198h-287z" />
    <glyph glyph-name="currency" unicode="&#xa4;" horiz-adv-x="833" 
d="M23 131l118 213q-41 131 -41 279q0 150 41 284l-118 211l170 96l59 -106q72 82 166 82q89 0 162 -80l59 104l170 -96l-121 -209q43 -130 43 -286q0 -155 -43 -285l121 -207l-170 -96l-59 100q-72 -78 -162 -78t-166 82l-59 -104zM418 246q65 0 102 112.5t37 264.5
q0 154 -37 266t-102 112q-67 0 -105.5 -112.5t-38.5 -267.5q0 -96 16 -180t49.5 -139.5t78.5 -55.5z" />
    <glyph glyph-name="yen" unicode="&#xa5;" horiz-adv-x="833" 
d="M115 184v191h202l-18 67h-184v193h131l-236 823h207l201 -721l198 721h207l-235 -823h135v-193h-188l-21 -67h209v-191h-207v-184h-199v184h-202z" />
    <glyph glyph-name="brokenbar" unicode="&#xa6;" horiz-adv-x="438" 
d="M119 827v789h200v-789h-200zM119 -276v790h200v-790h-200z" />
    <glyph glyph-name="section" unicode="&#xa7;" horiz-adv-x="821" 
d="M66 -143l133 149q122 -108 223 -108q72 0 110.5 52.5t38.5 131.5q0 62 -29.5 111.5t-77 84.5t-104.5 68t-114 72.5t-104.5 87.5t-77 123t-29.5 170q0 173 117 284q-103 115 -103 285q0 163 98.5 274t249.5 111q171 0 357 -160l-131 -149q-127 110 -226 110
q-72 0 -110.5 -53t-38.5 -133q0 -49 18.5 -90t49.5 -71.5t71.5 -57.5t85 -53.5t89 -55t85 -65t71.5 -80.5t49.5 -106.5t18.5 -137.5q0 -84 -30.5 -159.5t-87.5 -129.5q104 -116 104 -280q0 -162 -99.5 -273.5t-250.5 -111.5q-170 0 -356 160zM512 485q74 53 74 166
q0 34 -7 63t-25 55.5t-33 44.5t-47 41.5t-49.5 35.5t-58.5 37t-57 35q-76 -55 -76 -164q0 -27 4.5 -51t15.5 -45.5t20.5 -38.5t30.5 -36.5t33.5 -31t41 -30t41.5 -26.5t46.5 -28t45.5 -27z" />
    <glyph glyph-name="dieresis" unicode="&#xa8;" horiz-adv-x="692" 
d="M23 1704q0 62 42.5 105.5t106.5 43.5q61 0 104 -43.5t43 -105.5q0 -64 -42.5 -107t-104.5 -43q-64 0 -106.5 42.5t-42.5 107.5zM520 1554q62 0 106 43t44 107q0 61 -44 105t-106 44q-64 0 -105.5 -43.5t-41.5 -105.5q0 -65 41.5 -107.5t105.5 -42.5z" />
    <glyph glyph-name="copyright" unicode="&#xa9;" horiz-adv-x="1130" 
d="M842 549l-131 20q-45 -202 -144 -202q-48 0 -84 56t-53.5 137.5t-17.5 170.5q0 88 17.5 168.5t53.5 135.5t84 55q104 0 144 -205l135 24q-31 145 -99.5 231.5t-175.5 86.5q-71 0 -129 -41t-94 -111t-55 -158t-19 -186q0 -134 32 -245t101 -183t164 -72q110 0 176.5 85.5
t94.5 232.5zM563 106q98 0 176.5 57t126 149.5t72.5 200.5t25 218q0 109 -25 216t-72.5 198.5t-126 148t-176.5 56.5q-80 0 -147 -37.5t-112 -99.5t-76.5 -143t-45.5 -166.5t-14 -172.5q0 -86 14 -172t45.5 -168.5t76.5 -145t112 -101t147 -38.5zM563 -18q-97 0 -182 41
t-146 113t-105 167t-65.5 204t-21.5 224q0 144 35 277t99 237.5t164.5 167t221.5 62.5q122 0 223 -63t165.5 -168t100 -237.5t35.5 -275.5q0 -115 -22 -224t-66 -204t-106 -167t-147 -113t-183 -41z" />
    <glyph glyph-name="guillemotleft" unicode="&#xab;" horiz-adv-x="653" 
d="M467 270l170 68l-168 393l168 406l-170 67l-186 -473zM367 317l-168 -67l-193 481l193 492l168 -66l-172 -426z" />
    <glyph glyph-name="registered" unicode="&#xae;" horiz-adv-x="790" 
d="M14 1094q0 161 111 271t270 110q160 0 270.5 -110t110.5 -271q0 -156 -111 -266.5t-270 -110.5q-158 0 -269.5 110.5t-111.5 266.5zM113 1094q0 -127 77.5 -203t204.5 -76t206 76t79 203q0 130 -76 207t-209 77q-127 0 -204.5 -78t-77.5 -206zM219 897v397h201
q71 0 122.5 -47t51.5 -117q0 -80 -82 -124l76 -109h-133l-58 86h-73v-86h-105zM324 1087h96q61 0 61 43q0 56 -65 56h-92v-99z" />
    <glyph glyph-name="macron" unicode="&#xaf;" horiz-adv-x="512" 
d="M23 1577v192h466v-192h-466z" />
    <glyph glyph-name="degree" unicode="&#xb0;" horiz-adv-x="593" 
d="M297 920q-119 0 -199 80t-80 198q0 117 80.5 197t198.5 80t198 -80t80 -197q0 -118 -79.5 -198t-198.5 -80zM297 1075q51 0 86 36t35 87t-35 86t-86 35t-86 -35t-35 -86t35 -87t86 -36z" />
    <glyph glyph-name="plusminus" unicode="&#xb1;" horiz-adv-x="696" 
d="M49 444v-198h598v198h-598zM248 528v205h-199v193h199v211h196v-211h203v-193h-203v-205h-196z" />
    <glyph glyph-name="acute" unicode="&#xb4;" horiz-adv-x="436" 
d="M23 1606l227 336l164 -119l-250 -320z" />
    <glyph glyph-name="mu" unicode="&#xb5;" horiz-adv-x="765" 
d="M82 -492v1565h186v-696q0 -95 34 -150t79 -55q46 0 80.5 54.5t34.5 150.5v696h188v-1073h-188v57q-55 -67 -121 -67q-58 0 -107 43v-525h-186z" />
    <glyph glyph-name="paragraph" unicode="&#xb6;" horiz-adv-x="923" 
d="M395 0v350q-67 0 -130.5 40t-113 110t-79 174t-29.5 223q0 241 106 401t246 160h414v-1458h-172v1260h-70v-1260h-172z" />
    <glyph glyph-name="periodcentered" unicode="&#xb7;" horiz-adv-x="335" 
d="M18 731q0 62 43 106t107 44q61 0 105 -44t44 -106q0 -63 -43.5 -106t-105.5 -43q-64 0 -107 43t-43 106z" />
    <glyph glyph-name="cedilla" unicode="&#xb8;" horiz-adv-x="454" 
d="M23 -453l67 140q62 -41 109 -41q46 0 70 24t24 58q0 28 -18.5 49.5t-49.5 21.5q-35 0 -78 -22l-53 119q65 41 137 41q96 0 148.5 -61.5t52.5 -149.5q0 -94 -62 -165t-173 -71q-86 0 -174 57z" />
    <glyph glyph-name="guillemotright" unicode="&#xbb;" horiz-adv-x="653" 
d="M186 270l-170 68l168 393l-168 406l170 67l187 -473zM455 250l-168 67l172 414l-172 426l168 66l192 -492z" />
    <glyph glyph-name="questiondown" unicode="&#xbf;" horiz-adv-x="794" 
d="M580 1325q0 -62 -43 -105.5t-107 -43.5q-62 0 -105.5 44t-43.5 105q0 63 43.5 106.5t105.5 43.5q64 0 107 -43.5t43 -106.5zM559 1085v-198h-80q-68 0 -115.5 -27.5t-73 -78.5t-36 -111t-10.5 -138q0 -146 46.5 -249t106.5 -103q17 0 28.5 2.5t35.5 23t42.5 58t41 116.5
t39.5 189l198 -32q-10 -64 -20.5 -114.5t-27.5 -110.5t-37 -105t-49.5 -89t-64.5 -72.5t-82.5 -46t-103.5 -17.5q-100 0 -180.5 72t-126 197t-45.5 279q0 116 23 212t72 175t135.5 123.5t203.5 44.5h80z" />
    <glyph glyph-name="Agrave" unicode="&#xc0;" 
d="M0 0l360 1458h195l360 -1458h-206l-39 160h-428l-39 -160h-203zM295 360h326l-164 723zM457 1503l-250 320l164 119l227 -336z" />
    <glyph glyph-name="Aacute" unicode="&#xc1;" 
d="M0 0l360 1458h195l360 -1458h-206l-39 160h-428l-39 -160h-203zM295 360h326l-164 723zM315 1606l228 336l164 -119l-250 -320z" />
    <glyph glyph-name="Acircumflex" unicode="&#xc2;" 
d="M0 0l360 1458h195l360 -1458h-206l-39 160h-428l-39 -160h-203zM295 360h326l-164 723zM182 1626l273 320l276 -320l-141 -121l-133 181l-133 -179z" />
    <glyph glyph-name="Atilde" unicode="&#xc3;" 
d="M0 0l360 1458h195l360 -1458h-206l-39 160h-428l-39 -160h-203zM295 360h326l-164 723zM293 1554l-168 78q47 108 104 171t140 63q40 0 72 -20.5t47.5 -45t31.5 -45t29 -20.5q20 0 72 112l167 -78q-100 -231 -231 -231q-36 0 -65.5 13.5t-47 33t-31 38.5t-25.5 32.5
t-23 13.5q-20 0 -72 -115z" />
    <glyph glyph-name="Adieresis" unicode="&#xc4;" 
d="M0 0l360 1458h195l360 -1458h-206l-39 160h-428l-39 -160h-203zM295 360h326l-164 723zM133 1704q0 62 43 105.5t107 43.5q61 0 104 -43.5t43 -105.5q0 -64 -42.5 -107t-104.5 -43q-65 0 -107.5 43t-42.5 107zM631 1554q62 0 105.5 43t43.5 107q0 62 -44 105.5t-105 43.5
q-64 0 -106 -43.5t-42 -105.5q0 -65 42 -107.5t106 -42.5z" />
    <glyph glyph-name="Aring" unicode="&#xc5;" 
d="M0 0l360 1458h195l360 -1458h-206l-39 160h-428l-39 -160h-203zM295 360h326l-164 723zM365 1751q0 -37 27 -63.5t65 -26.5q36 0 63 27t27 63q0 37 -27.5 64.5t-62.5 27.5q-38 0 -65 -27.5t-27 -64.5zM219 1751q0 98 70 168t168 70t166.5 -69.5t68.5 -168.5
q0 -98 -68.5 -166.5t-166.5 -68.5q-99 0 -168.5 68.5t-69.5 166.5z" />
    <glyph glyph-name="AE" unicode="&#xc6;" horiz-adv-x="1292" 
d="M0 0l457 1458h778v-201h-444v-426h307v-198h-307v-434h444v-199h-639v217h-322l-63 -217h-211zM338 418h258v856z" />
    <glyph glyph-name="Ccedilla" unicode="&#xc7;" horiz-adv-x="933" 
d="M702 487l193 -34q-22 -102 -57 -185.5t-85 -148.5t-118.5 -101t-149.5 -36q-104 0 -189.5 63t-139.5 169t-83.5 239t-29.5 278t29.5 277.5t83.5 237t139.5 167t189.5 62.5q159 0 263.5 -130.5t148.5 -343.5l-195 -34q-66 309 -221 309q-57 0 -103.5 -49t-75.5 -128
t-44.5 -174.5t-15.5 -193.5q0 -99 15.5 -195t44.5 -176t75.5 -129t103.5 -49q153 0 221 305zM334 -313l-68 -140q88 -57 174 -57q111 0 173.5 71t62.5 165q0 88 -52.5 149.5t-148.5 61.5q-72 0 -137 -41l53 -119q43 22 78 22q31 0 49.5 -21.5t18.5 -49.5q0 -34 -24.5 -58
t-70.5 -24t-108 41z" />
    <glyph glyph-name="Egrave" unicode="&#xc8;" horiz-adv-x="827" 
d="M115 0v1458h653v-201h-453v-426h314v-198h-314v-434h453v-199h-653zM442 1503l-249 320l163 119l228 -336z" />
    <glyph glyph-name="Eacute" unicode="&#xc9;" horiz-adv-x="827" 
d="M115 0v1458h653v-201h-453v-426h314v-198h-314v-434h453v-199h-653zM301 1606l227 336l164 -119l-250 -320z" />
    <glyph glyph-name="Ecircumflex" unicode="&#xca;" horiz-adv-x="827" 
d="M115 0v1458h653v-201h-453v-426h314v-198h-314v-434h453v-199h-653zM166 1626l272 320l277 -320l-142 -121l-133 181l-133 -179z" />
    <glyph glyph-name="Edieresis" unicode="&#xcb;" horiz-adv-x="827" 
d="M115 0v1458h653v-201h-453v-426h314v-198h-314v-434h453v-199h-653zM117 1704q0 62 42.5 105.5t106.5 43.5q61 0 104.5 -43.5t43.5 -105.5q0 -64 -43 -107t-105 -43q-64 0 -106.5 42.5t-42.5 107.5zM614 1554q62 0 106 43t44 107q0 61 -44 105t-106 44
q-64 0 -105.5 -43.5t-41.5 -105.5q0 -65 41.5 -107.5t105.5 -42.5z" />
    <glyph glyph-name="Igrave" unicode="&#xcc;" horiz-adv-x="432" 
d="M115 0v1458h202v-1458h-202zM215 1520l-250 319l164 119l227 -336z" />
    <glyph glyph-name="Iacute" unicode="&#xcd;" horiz-adv-x="432" 
d="M115 0v1458h202v-1458h-202zM74 1606l227 336l164 -119l-250 -320z" />
    <glyph glyph-name="Icircumflex" unicode="&#xce;" horiz-adv-x="432" 
d="M115 0v1458h202v-1458h-202zM-57 1642l272 320l277 -320l-142 -120l-133 180l-133 -178z" />
    <glyph glyph-name="Idieresis" unicode="&#xcf;" horiz-adv-x="432" 
d="M115 0v1458h202v-1458h-202zM-109 1720q0 62 43 106t107 44q61 0 104 -44t43 -106q0 -64 -42.5 -106.5t-104.5 -42.5q-65 0 -107.5 42.5t-42.5 106.5zM389 1571q62 0 106 42.5t44 106.5q0 62 -44.5 106t-105.5 44q-64 0 -105.5 -43.5t-41.5 -106.5q0 -65 41.5 -107
t105.5 -42z" />
    <glyph glyph-name="Eth" unicode="&#xd0;" horiz-adv-x="931" 
d="M23 633v198h92v627h346q102 0 185 -62.5t135 -166t80 -232t28 -266.5q0 -141 -27.5 -270.5t-79 -233t-135 -165.5t-186.5 -62h-346v633h-92zM315 199h152q69 0 120.5 78t76 197t24.5 257q0 135 -24.5 252.5t-76.5 195.5t-120 78h-152v-426h199v-198h-199v-434z" />
    <glyph glyph-name="Ntilde" unicode="&#xd1;" horiz-adv-x="1038" 
d="M115 0v1458h217l397 -1016v1016h195v-1458h-217l-396 1022v-1022h-196zM360 1554l-167 78q47 109 103.5 171.5t139.5 62.5q40 0 72 -20.5t47.5 -45t31.5 -45t29 -20.5q20 0 72 112l168 -78q-100 -231 -231 -231q-45 0 -79.5 20.5t-51 45t-33 45t-29.5 20.5
q-20 0 -72 -115z" />
    <glyph glyph-name="Ograve" unicode="&#xd2;" horiz-adv-x="964" 
d="M483 1274q-56 0 -102.5 -48.5t-75.5 -127.5t-45 -175.5t-16 -195.5q0 -97 15.5 -192t44.5 -175.5t75.5 -130t103.5 -49.5q74 0 130.5 84t83 206.5t26.5 256.5q0 133 -26 255t-82.5 207t-131.5 85zM43 727q0 146 29 279.5t83.5 238.5t139.5 167.5t188 62.5t188 -62.5
t139 -168t83 -239t29 -278.5t-29 -278t-83 -238t-139 -167t-188 -62t-188 62.5t-139 167.5t-83.5 237.5t-29.5 277.5zM479 1503l-250 320l164 119l228 -336z" />
    <glyph glyph-name="Oacute" unicode="&#xd3;" horiz-adv-x="964" 
d="M483 1274q-56 0 -102.5 -48.5t-75.5 -127.5t-45 -175.5t-16 -195.5q0 -97 15.5 -192t44.5 -175.5t75.5 -130t103.5 -49.5q74 0 130.5 84t83 206.5t26.5 256.5q0 133 -26 255t-82.5 207t-131.5 85zM43 727q0 146 29 279.5t83.5 238.5t139.5 167.5t188 62.5t188 -62.5
t139 -168t83 -239t29 -278.5t-29 -278t-83 -238t-139 -167t-188 -62t-188 62.5t-139 167.5t-83.5 237.5t-29.5 277.5zM338 1606l227 336l164 -119l-250 -320z" />
    <glyph glyph-name="Ocircumflex" unicode="&#xd4;" horiz-adv-x="964" 
d="M483 1274q-56 0 -102.5 -48.5t-75.5 -127.5t-45 -175.5t-16 -195.5q0 -97 15.5 -192t44.5 -175.5t75.5 -130t103.5 -49.5q74 0 130.5 84t83 206.5t26.5 256.5q0 133 -26 255t-82.5 207t-131.5 85zM43 727q0 146 29 279.5t83.5 238.5t139.5 167.5t188 62.5t188 -62.5
t139 -168t83 -239t29 -278.5t-29 -278t-83 -238t-139 -167t-188 -62t-188 62.5t-139 167.5t-83.5 237.5t-29.5 277.5zM207 1626l272 320l277 -320l-142 -121l-133 181l-133 -179z" />
    <glyph glyph-name="Otilde" unicode="&#xd5;" horiz-adv-x="964" 
d="M483 1274q-56 0 -102.5 -48.5t-75.5 -127.5t-45 -175.5t-16 -195.5q0 -97 15.5 -192t44.5 -175.5t75.5 -130t103.5 -49.5q74 0 130.5 84t83 206.5t26.5 256.5q0 133 -26 255t-82.5 207t-131.5 85zM43 727q0 146 29 279.5t83.5 238.5t139.5 167.5t188 62.5t188 -62.5
t139 -168t83 -239t29 -278.5t-29 -278t-83 -238t-139 -167t-188 -62t-188 62.5t-139 167.5t-83.5 237.5t-29.5 277.5zM315 1554l-168 78q47 108 104 171t140 63q40 0 72 -20.5t47.5 -45t31.5 -45t29 -20.5q20 0 72 112l168 -78q-100 -231 -231 -231q-45 0 -79.5 20.5t-51 45
t-33 45t-29.5 20.5q-20 0 -72 -115z" />
    <glyph glyph-name="Odieresis" unicode="&#xd6;" horiz-adv-x="964" 
d="M483 1274q-56 0 -102.5 -48.5t-75.5 -127.5t-45 -175.5t-16 -195.5q0 -97 15.5 -192t44.5 -175.5t75.5 -130t103.5 -49.5q74 0 130.5 84t83 206.5t26.5 256.5q0 133 -26 255t-82.5 207t-131.5 85zM43 727q0 146 29 279.5t83.5 238.5t139.5 167.5t188 62.5t188 -62.5
t139 -168t83 -239t29 -278.5t-29 -278t-83 -238t-139 -167t-188 -62t-188 62.5t-139 167.5t-83.5 237.5t-29.5 277.5zM156 1704q0 62 42.5 105.5t106.5 43.5q61 0 104.5 -43.5t43.5 -105.5q0 -64 -43 -107t-105 -43q-64 0 -106.5 42.5t-42.5 107.5zM653 1554q62 0 106 43
t44 107q0 61 -44 105t-106 44q-64 0 -105.5 -43.5t-41.5 -105.5q0 -65 41.5 -107.5t105.5 -42.5z" />
    <glyph glyph-name="multiply" unicode="&#xd7;" horiz-adv-x="651" 
d="M41 569l152 148l-152 145l135 135l146 -153l149 157l139 -139l-157 -149l153 -146l-135 -135l-145 152l-148 -152z" />
    <glyph glyph-name="Oslash" unicode="&#xd8;" horiz-adv-x="972" 
d="M455 184q75 -21 139 49t100.5 203t36.5 293q0 256 -69 406zM520 1270q-80 25 -145.5 -49t-99 -206t-33.5 -286q0 -264 67 -410zM485 1475q32 0 78 -11l15 68h172l-35 -156q102 -98 158.5 -273t56.5 -374q0 -144 -30 -277.5t-85 -238.5t-141 -168t-189 -63q-27 0 -73 8
l-17 -66h-172l33 154q-102 97 -157.5 273t-55.5 378q0 145 29.5 277.5t83.5 238t139.5 168t189.5 62.5z" />
    <glyph glyph-name="Ugrave" unicode="&#xd9;" horiz-adv-x="987" 
d="M109 524v934h200v-934q0 -160 53 -251t127 -91q77 0 134 90t57 252v934h199v-934q0 -132 -33.5 -238t-89.5 -171t-124.5 -99t-142.5 -34t-141 35t-121 100.5t-86 171t-32 235.5zM489 1520l-249 319l163 119l228 -336z" />
    <glyph glyph-name="Uacute" unicode="&#xda;" horiz-adv-x="987" 
d="M109 524v934h200v-934q0 -160 53 -251t127 -91q77 0 134 90t57 252v934h199v-934q0 -132 -33.5 -238t-89.5 -171t-124.5 -99t-142.5 -34t-141 35t-121 100.5t-86 171t-32 235.5zM348 1606l227 336l164 -119l-250 -320z" />
    <glyph glyph-name="Ucircumflex" unicode="&#xdb;" horiz-adv-x="987" 
d="M109 524v934h200v-934q0 -160 53 -251t127 -91q77 0 134 90t57 252v934h199v-934q0 -132 -33.5 -238t-89.5 -171t-124.5 -99t-142.5 -34t-141 35t-121 100.5t-86 171t-32 235.5zM217 1642l272 320l277 -320l-141 -120l-133 180l-134 -178z" />
    <glyph glyph-name="Udieresis" unicode="&#xdc;" horiz-adv-x="987" 
d="M109 524v934h200v-934q0 -160 53 -251t127 -91q77 0 134 90t57 252v934h199v-934q0 -132 -33.5 -238t-89.5 -171t-124.5 -99t-142.5 -34t-141 35t-121 100.5t-86 171t-32 235.5zM170 1720q0 62 42.5 106t106.5 44q61 0 104.5 -44t43.5 -106q0 -64 -43 -106.5t-105 -42.5
q-65 0 -107 42.5t-42 106.5zM668 1571q62 0 105.5 42.5t43.5 106.5q0 62 -44 106t-105 44q-64 0 -106 -44t-42 -106q0 -65 42 -107t106 -42z" />
    <glyph glyph-name="Yacute" unicode="&#xdd;" horiz-adv-x="833" 
d="M317 0v371l-307 1087h209l199 -758l196 758h209l-307 -1087v-371h-199zM276 1606l228 336l164 -119l-250 -320z" />
    <glyph glyph-name="Thorn" unicode="&#xde;" horiz-adv-x="894" 
d="M115 0v1458h200v-182h162q90 0 163 -47t119 -125t70.5 -175t24.5 -202t-24 -202t-69.5 -175t-119 -125t-164.5 -47h-162v-178h-200zM315 377h158q58 0 100.5 52t62 130t19.5 168t-21 167.5t-65 129t-104 51.5h-150v-698z" />
    <glyph glyph-name="germandbls" unicode="&#xdf;" horiz-adv-x="1001" 
d="M96 0v651q0 84 5 162.5t18.5 162.5t34.5 155.5t54 136t76.5 109.5t103.5 71.5t132 26.5q138 0 253 -107t171 -293l-242 -248q133 -77 200 -198t67 -273q0 -163 -85.5 -268.5t-232.5 -105.5q-155 0 -313 178l149 133q50 -57 93.5 -84t70.5 -27q57 0 88 44.5t31 123.5
q0 130 -73 228.5t-228 138.5v155l258 254q-35 74 -78.5 112t-107.5 38q-246 0 -246 -625v-651h-199z" />
    <glyph glyph-name="agrave" unicode="&#xe0;" 
d="M0 0l360 1458h195l360 -1458h-206l-39 160h-428l-39 -160h-203zM295 360h326l-164 723zM457 1503l-250 320l164 119l227 -336z" />
    <glyph glyph-name="aacute" unicode="&#xe1;" 
d="M0 0l360 1458h195l360 -1458h-206l-39 160h-428l-39 -160h-203zM295 360h326l-164 723zM315 1606l228 336l164 -119l-250 -320z" />
    <glyph glyph-name="acircumflex" unicode="&#xe2;" 
d="M0 0l360 1458h195l360 -1458h-206l-39 160h-428l-39 -160h-203zM295 360h326l-164 723zM184 1626l273 320l276 -320l-141 -121l-133 181l-133 -179z" />
    <glyph glyph-name="atilde" unicode="&#xe3;" 
d="M0 0l360 1458h195l360 -1458h-206l-39 160h-428l-39 -160h-203zM295 360h326l-164 723zM293 1554l-168 78q47 108 104 171t140 63q40 0 72 -20.5t47.5 -45t31.5 -45t29 -20.5q20 0 72 112l167 -78q-100 -231 -231 -231q-36 0 -65.5 13.5t-47 33t-31 38.5t-25.5 32.5
t-23 13.5q-20 0 -72 -115z" />
    <glyph glyph-name="adieresis" unicode="&#xe4;" 
d="M0 0l360 1458h195l360 -1458h-206l-39 160h-428l-39 -160h-203zM295 360h326l-164 723zM133 1704q0 62 43 105.5t107 43.5q61 0 104 -43.5t43 -105.5q0 -64 -42.5 -107t-104.5 -43q-65 0 -107.5 43t-42.5 107zM631 1554q62 0 105.5 43t43.5 107q0 62 -44 105.5t-105 43.5
q-64 0 -106 -43.5t-42 -105.5q0 -65 42 -107.5t106 -42.5z" />
    <glyph glyph-name="aring" unicode="&#xe5;" 
d="M0 0l360 1458h195l360 -1458h-206l-39 160h-428l-39 -160h-203zM295 360h326l-164 723zM365 1751q0 -37 27 -63.5t65 -26.5q36 0 63 27t27 63q0 37 -27.5 64.5t-62.5 27.5q-38 0 -65 -27.5t-27 -64.5zM219 1751q0 98 70 168t168 70t166.5 -69.5t68.5 -168.5
q0 -98 -68.5 -166.5t-166.5 -68.5q-99 0 -168.5 68.5t-69.5 166.5z" />
    <glyph glyph-name="ae" unicode="&#xe6;" horiz-adv-x="1292" 
d="M0 0l457 1458h778v-201h-444v-426h307v-198h-307v-434h444v-199h-639v217h-322l-63 -217h-211zM338 418h258v856z" />
    <glyph glyph-name="ccedilla" unicode="&#xe7;" horiz-adv-x="933" 
d="M702 487l193 -34q-22 -102 -57 -185.5t-85 -148.5t-118.5 -101t-149.5 -36q-104 0 -189.5 63t-139.5 169t-83.5 239t-29.5 278t29.5 277.5t83.5 237t139.5 167t189.5 62.5q159 0 263.5 -130.5t148.5 -343.5l-195 -34q-66 309 -221 309q-57 0 -103.5 -49t-75.5 -128
t-44.5 -174.5t-15.5 -193.5q0 -99 15.5 -195t44.5 -176t75.5 -129t103.5 -49q153 0 221 305zM334 -313l-68 -140q88 -57 174 -57q111 0 173.5 71t62.5 165q0 88 -52.5 149.5t-148.5 61.5q-72 0 -137 -41l53 -119q43 22 78 22q31 0 49.5 -21.5t18.5 -49.5q0 -34 -24.5 -58
t-70.5 -24t-108 41z" />
    <glyph glyph-name="egrave" unicode="&#xe8;" horiz-adv-x="827" 
d="M115 0v1458h653v-201h-453v-426h314v-198h-314v-434h453v-199h-653zM442 1503l-249 320l163 119l228 -336z" />
    <glyph glyph-name="eacute" unicode="&#xe9;" horiz-adv-x="827" 
d="M115 0v1458h653v-201h-453v-426h314v-198h-314v-434h453v-199h-653zM301 1606l227 336l164 -119l-250 -320z" />
    <glyph glyph-name="ecircumflex" unicode="&#xea;" horiz-adv-x="827" 
d="M115 0v1458h653v-201h-453v-426h314v-198h-314v-434h453v-199h-653zM166 1626l272 320l277 -320l-142 -121l-133 181l-133 -179z" />
    <glyph glyph-name="edieresis" unicode="&#xeb;" horiz-adv-x="827" 
d="M115 0v1458h653v-201h-453v-426h314v-198h-314v-434h453v-199h-653zM117 1704q0 62 42.5 105.5t106.5 43.5q61 0 104.5 -43.5t43.5 -105.5q0 -64 -43 -107t-105 -43q-64 0 -106.5 42.5t-42.5 107.5zM614 1554q62 0 106 43t44 107q0 61 -44 105t-106 44
q-64 0 -105.5 -43.5t-41.5 -105.5q0 -65 41.5 -107.5t105.5 -42.5z" />
    <glyph glyph-name="igrave" unicode="&#xec;" horiz-adv-x="432" 
d="M115 0v1458h202v-1458h-202zM215 1520l-250 319l164 119l227 -336z" />
    <glyph glyph-name="iacute" unicode="&#xed;" horiz-adv-x="432" 
d="M115 0v1458h202v-1458h-202zM74 1606l227 336l164 -119l-250 -320z" />
    <glyph glyph-name="icircumflex" unicode="&#xee;" horiz-adv-x="432" 
d="M115 0v1458h202v-1458h-202zM-57 1642l272 320l277 -320l-142 -120l-133 180l-133 -178z" />
    <glyph glyph-name="idieresis" unicode="&#xef;" horiz-adv-x="432" 
d="M115 0v1458h202v-1458h-202zM-109 1720q0 62 43 106t107 44q61 0 104 -44t43 -106q0 -64 -42.5 -106.5t-104.5 -42.5q-65 0 -107.5 42.5t-42.5 106.5zM389 1571q62 0 106 42.5t44 106.5q0 62 -44.5 106t-105.5 44q-64 0 -105.5 -43.5t-41.5 -106.5q0 -65 41.5 -107
t105.5 -42z" />
    <glyph glyph-name="eth" unicode="&#xf0;" horiz-adv-x="931" 
d="M23 633v198h92v627h346q102 0 185 -62.5t135 -166t80 -232t28 -266.5q0 -141 -27.5 -270.5t-79 -233t-135 -165.5t-186.5 -62h-346v633h-92zM315 199h152q69 0 120.5 78t76 197t24.5 257q0 135 -24.5 252.5t-76.5 195.5t-120 78h-152v-426h199v-198h-199v-434z" />
    <glyph glyph-name="ntilde" unicode="&#xf1;" horiz-adv-x="1038" 
d="M115 0v1458h217l397 -1016v1016h195v-1458h-217l-396 1022v-1022h-196zM360 1554l-167 78q47 109 103.5 171.5t139.5 62.5q40 0 72 -20.5t47.5 -45t31.5 -45t29 -20.5q20 0 72 112l168 -78q-100 -231 -231 -231q-45 0 -79.5 20.5t-51 45t-33 45t-29.5 20.5
q-20 0 -72 -115z" />
    <glyph glyph-name="ograve" unicode="&#xf2;" horiz-adv-x="964" 
d="M483 1274q-56 0 -102.5 -48.5t-75.5 -127.5t-45 -175.5t-16 -195.5q0 -97 15.5 -192t44.5 -175.5t75.5 -130t103.5 -49.5q74 0 130.5 84t83 206.5t26.5 256.5q0 133 -26 255t-82.5 207t-131.5 85zM43 727q0 146 29 279.5t83.5 238.5t139.5 167.5t188 62.5t188 -62.5
t139 -168t83 -239t29 -278.5t-29 -278t-83 -238t-139 -167t-188 -62t-188 62.5t-139 167.5t-83.5 237.5t-29.5 277.5zM479 1503l-250 320l164 119l228 -336z" />
    <glyph glyph-name="oacute" unicode="&#xf3;" horiz-adv-x="964" 
d="M483 1274q-56 0 -102.5 -48.5t-75.5 -127.5t-45 -175.5t-16 -195.5q0 -97 15.5 -192t44.5 -175.5t75.5 -130t103.5 -49.5q74 0 130.5 84t83 206.5t26.5 256.5q0 133 -26 255t-82.5 207t-131.5 85zM43 727q0 146 29 279.5t83.5 238.5t139.5 167.5t188 62.5t188 -62.5
t139 -168t83 -239t29 -278.5t-29 -278t-83 -238t-139 -167t-188 -62t-188 62.5t-139 167.5t-83.5 237.5t-29.5 277.5zM338 1606l227 336l164 -119l-250 -320z" />
    <glyph glyph-name="ocircumflex" unicode="&#xf4;" horiz-adv-x="964" 
d="M483 1274q-56 0 -102.5 -48.5t-75.5 -127.5t-45 -175.5t-16 -195.5q0 -97 15.5 -192t44.5 -175.5t75.5 -130t103.5 -49.5q74 0 130.5 84t83 206.5t26.5 256.5q0 133 -26 255t-82.5 207t-131.5 85zM43 727q0 146 29 279.5t83.5 238.5t139.5 167.5t188 62.5t188 -62.5
t139 -168t83 -239t29 -278.5t-29 -278t-83 -238t-139 -167t-188 -62t-188 62.5t-139 167.5t-83.5 237.5t-29.5 277.5zM207 1626l272 320l277 -320l-142 -121l-133 181l-133 -179z" />
    <glyph glyph-name="otilde" unicode="&#xf5;" horiz-adv-x="964" 
d="M483 1274q-56 0 -102.5 -48.5t-75.5 -127.5t-45 -175.5t-16 -195.5q0 -97 15.5 -192t44.5 -175.5t75.5 -130t103.5 -49.5q74 0 130.5 84t83 206.5t26.5 256.5q0 133 -26 255t-82.5 207t-131.5 85zM43 727q0 146 29 279.5t83.5 238.5t139.5 167.5t188 62.5t188 -62.5
t139 -168t83 -239t29 -278.5t-29 -278t-83 -238t-139 -167t-188 -62t-188 62.5t-139 167.5t-83.5 237.5t-29.5 277.5zM315 1554l-168 78q47 108 104 171t140 63q40 0 72 -20.5t47.5 -45t31.5 -45t29 -20.5q20 0 72 112l168 -78q-100 -231 -231 -231q-45 0 -79.5 20.5t-51 45
t-33 45t-29.5 20.5q-20 0 -72 -115z" />
    <glyph glyph-name="odieresis" unicode="&#xf6;" horiz-adv-x="964" 
d="M483 1274q-56 0 -102.5 -48.5t-75.5 -127.5t-45 -175.5t-16 -195.5q0 -97 15.5 -192t44.5 -175.5t75.5 -130t103.5 -49.5q74 0 130.5 84t83 206.5t26.5 256.5q0 133 -26 255t-82.5 207t-131.5 85zM43 727q0 146 29 279.5t83.5 238.5t139.5 167.5t188 62.5t188 -62.5
t139 -168t83 -239t29 -278.5t-29 -278t-83 -238t-139 -167t-188 -62t-188 62.5t-139 167.5t-83.5 237.5t-29.5 277.5zM156 1704q0 62 42.5 105.5t106.5 43.5q61 0 104.5 -43.5t43.5 -105.5q0 -64 -43 -107t-105 -43q-64 0 -106.5 42.5t-42.5 107.5zM653 1554q62 0 106 43
t44 107q0 61 -44 105t-106 44q-64 0 -105.5 -43.5t-41.5 -105.5q0 -65 41.5 -107.5t105.5 -42.5z" />
    <glyph glyph-name="divide" unicode="&#xf7;" horiz-adv-x="659" 
d="M39 621h582v198h-582v-198zM188 1059q0 59 41 100t99 41q59 0 101 -41.5t42 -99.5q0 -59 -42 -99t-101 -40t-99.5 39.5t-40.5 99.5zM188 381q0 59 41 101t99 42t100.5 -42t42.5 -101q0 -58 -42 -98.5t-101 -40.5t-99.5 40.5t-40.5 98.5z" />
    <glyph glyph-name="oslash" unicode="&#xf8;" horiz-adv-x="972" 
d="M455 184q75 -21 139 49t100.5 203t36.5 293q0 256 -69 406zM520 1270q-80 25 -145.5 -49t-99 -206t-33.5 -286q0 -264 67 -410zM485 1475q32 0 78 -11l15 68h172l-35 -156q102 -98 158.5 -273t56.5 -374q0 -144 -30 -277.5t-85 -238.5t-141 -168t-189 -63q-27 0 -73 8
l-17 -66h-172l33 154q-102 97 -157.5 273t-55.5 378q0 145 29.5 277.5t83.5 238t139.5 168t189.5 62.5z" />
    <glyph glyph-name="ugrave" unicode="&#xf9;" horiz-adv-x="987" 
d="M109 524v934h200v-934q0 -160 53 -251t127 -91q77 0 134 90t57 252v934h199v-934q0 -132 -33.5 -238t-89.5 -171t-124.5 -99t-142.5 -34t-141 35t-121 100.5t-86 171t-32 235.5zM489 1520l-249 319l163 119l228 -336z" />
    <glyph glyph-name="uacute" unicode="&#xfa;" horiz-adv-x="987" 
d="M109 524v934h200v-934q0 -160 53 -251t127 -91q77 0 134 90t57 252v934h199v-934q0 -132 -33.5 -238t-89.5 -171t-124.5 -99t-142.5 -34t-141 35t-121 100.5t-86 171t-32 235.5zM348 1606l227 336l164 -119l-250 -320z" />
    <glyph glyph-name="ucircumflex" unicode="&#xfb;" horiz-adv-x="987" 
d="M109 524v934h200v-934q0 -160 53 -251t127 -91q77 0 134 90t57 252v934h199v-934q0 -132 -33.5 -238t-89.5 -171t-124.5 -99t-142.5 -34t-141 35t-121 100.5t-86 171t-32 235.5zM217 1642l272 320l277 -320l-141 -120l-133 180l-134 -178z" />
    <glyph glyph-name="udieresis" unicode="&#xfc;" horiz-adv-x="987" 
d="M109 524v934h200v-934q0 -160 53 -251t127 -91q77 0 134 90t57 252v934h199v-934q0 -132 -33.5 -238t-89.5 -171t-124.5 -99t-142.5 -34t-141 35t-121 100.5t-86 171t-32 235.5zM170 1720q0 62 42.5 106t106.5 44q61 0 104.5 -44t43.5 -106q0 -64 -43 -106.5t-105 -42.5
q-65 0 -107 42.5t-42 106.5zM668 1571q62 0 105.5 42.5t43.5 106.5q0 62 -44 106t-105 44q-64 0 -106 -44t-42 -106q0 -65 42 -107t106 -42z" />
    <glyph glyph-name="yacute" unicode="&#xfd;" horiz-adv-x="833" 
d="M317 0v371l-307 1087h209l199 -758l196 758h209l-307 -1087v-371h-199zM276 1606l228 336l164 -119l-250 -320z" />
    <glyph glyph-name="thorn" unicode="&#xfe;" horiz-adv-x="894" 
d="M115 0v1458h200v-182h162q90 0 163 -47t119 -125t70.5 -175t24.5 -202t-24 -202t-69.5 -175t-119 -125t-164.5 -47h-162v-178h-200zM315 377h158q58 0 100.5 52t62 130t19.5 168t-21 167.5t-65 129t-104 51.5h-150v-698z" />
    <glyph glyph-name="ydieresis" unicode="&#xff;" horiz-adv-x="833" 
d="M317 0v371l-307 1087h209l199 -758l196 758h209l-307 -1087v-371h-199zM94 1704q0 62 43 105.5t107 43.5q61 0 104 -43.5t43 -105.5q0 -64 -42.5 -107t-104.5 -43q-64 0 -107 43t-43 107zM592 1554q62 0 105.5 43t43.5 107q0 62 -43.5 105.5t-105.5 43.5
q-64 0 -106 -43.5t-42 -105.5q0 -65 42 -107.5t106 -42.5z" />
    <glyph glyph-name="Amacron" unicode="&#x100;" 
d="M0 0l360 1458h195l360 -1458h-206l-39 160h-428l-39 -160h-203zM295 360h326l-164 723zM223 1577v192h467v-192h-467z" />
    <glyph glyph-name="amacron" unicode="&#x101;" 
d="M0 0l360 1458h195l360 -1458h-206l-39 160h-428l-39 -160h-203zM295 360h326l-164 723zM223 1577v192h467v-192h-467z" />
    <glyph glyph-name="Abreve" unicode="&#x102;" 
d="M0 0l360 1458h195l360 -1458h-206l-39 160h-428l-39 -160h-203zM295 360h326l-164 723zM174 1839l176 64q34 -96 58 -141.5t47 -45.5t47.5 45t62.5 144l174 -68q-118 -305 -282 -305q-169 0 -283 307z" />
    <glyph glyph-name="abreve" unicode="&#x103;" 
d="M0 0l360 1458h195l360 -1458h-206l-39 160h-428l-39 -160h-203zM295 360h326l-164 723zM174 1839l176 64q34 -96 58 -141.5t47 -45.5t47.5 45t62.5 144l174 -68q-118 -305 -282 -305q-169 0 -283 307z" />
    <glyph glyph-name="Aogonek" unicode="&#x104;" 
d="M958 -131l89 -145q-116 -99 -224 -99q-87 0 -140.5 60.5t-53.5 146.5q0 95 80 168l-39 160h-428l-39 -160h-203l360 1458h195l360 -1458q-137 -87 -137 -154q0 -19 12.5 -31t28.5 -12q39 0 139 66zM295 360h326l-164 723z" />
    <glyph glyph-name="aogonek" unicode="&#x105;" 
d="M958 -131l89 -145q-116 -99 -224 -99q-87 0 -140.5 60.5t-53.5 146.5q0 95 80 168l-39 160h-428l-39 -160h-203l360 1458h195l360 -1458q-137 -87 -137 -154q0 -19 12.5 -31t28.5 -12q39 0 139 66zM295 360h326l-164 723z" />
    <glyph glyph-name="Cacute" unicode="&#x106;" horiz-adv-x="907" 
d="M672 492l198 -35q-39 -214 -138 -344.5t-251 -130.5q-103 0 -188 62t-138.5 167t-82.5 237.5t-29 278.5t29 279t82.5 238.5t138.5 168t188 62.5q78 0 143.5 -36.5t113 -102t80.5 -150.5t52 -187l-198 -34q-26 134 -74.5 221.5t-116.5 87.5q-61 0 -109 -58t-74.5 -146.5
t-40 -177.5t-13.5 -165q0 -89 15.5 -182.5t43.5 -175.5t75 -134.5t103 -52.5q48 0 88 46.5t63.5 112.5t39.5 151zM342 1606l227 336l164 -119l-250 -320z" />
    <glyph glyph-name="cacute" unicode="&#x107;" horiz-adv-x="907" 
d="M672 492l198 -35q-39 -214 -138 -344.5t-251 -130.5q-103 0 -188 62t-138.5 167t-82.5 237.5t-29 278.5t29 279t82.5 238.5t138.5 168t188 62.5q78 0 143.5 -36.5t113 -102t80.5 -150.5t52 -187l-198 -34q-26 134 -74.5 221.5t-116.5 87.5q-61 0 -109 -58t-74.5 -146.5
t-40 -177.5t-13.5 -165q0 -89 15.5 -182.5t43.5 -175.5t75 -134.5t103 -52.5q48 0 88 46.5t63.5 112.5t39.5 151zM342 1606l227 336l164 -119l-250 -320z" />
    <glyph glyph-name="Ccircumflex" unicode="&#x108;" horiz-adv-x="907" 
d="M672 492l198 -35q-39 -214 -138 -344.5t-251 -130.5q-103 0 -188 62t-138.5 167t-82.5 237.5t-29 278.5t29 279t82.5 238.5t138.5 168t188 62.5q78 0 143.5 -36.5t113 -102t80.5 -150.5t52 -187l-198 -34q-26 134 -74.5 221.5t-116.5 87.5q-61 0 -109 -58t-74.5 -146.5
t-40 -177.5t-13.5 -165q0 -89 15.5 -182.5t43.5 -175.5t75 -134.5t103 -52.5q48 0 88 46.5t63.5 112.5t39.5 151zM205 1626l272 320l277 -320l-142 -121l-133 181l-133 -179z" />
    <glyph glyph-name="ccircumflex" unicode="&#x109;" horiz-adv-x="907" 
d="M672 492l198 -35q-39 -214 -138 -344.5t-251 -130.5q-103 0 -188 62t-138.5 167t-82.5 237.5t-29 278.5t29 279t82.5 238.5t138.5 168t188 62.5q78 0 143.5 -36.5t113 -102t80.5 -150.5t52 -187l-198 -34q-26 134 -74.5 221.5t-116.5 87.5q-61 0 -109 -58t-74.5 -146.5
t-40 -177.5t-13.5 -165q0 -89 15.5 -182.5t43.5 -175.5t75 -134.5t103 -52.5q48 0 88 46.5t63.5 112.5t39.5 151zM205 1626l272 320l277 -320l-142 -121l-133 181l-133 -179z" />
    <glyph glyph-name="Cdotaccent" unicode="&#x10a;" horiz-adv-x="907" 
d="M672 492l198 -35q-39 -214 -138 -344.5t-251 -130.5q-103 0 -188 62t-138.5 167t-82.5 237.5t-29 278.5t29 279t82.5 238.5t138.5 168t188 62.5q78 0 143.5 -36.5t113 -102t80.5 -150.5t52 -187l-198 -34q-26 134 -74.5 221.5t-116.5 87.5q-61 0 -109 -58t-74.5 -146.5
t-40 -177.5t-13.5 -165q0 -89 15.5 -182.5t43.5 -175.5t75 -134.5t103 -52.5q48 0 88 46.5t63.5 112.5t39.5 151zM330 1704q0 62 42.5 105.5t106.5 43.5q62 0 106 -44t44 -105q0 -64 -44 -107t-106 -43q-64 0 -106.5 42.5t-42.5 107.5z" />
    <glyph glyph-name="cdotaccent" unicode="&#x10b;" horiz-adv-x="907" 
d="M672 492l198 -35q-39 -214 -138 -344.5t-251 -130.5q-103 0 -188 62t-138.5 167t-82.5 237.5t-29 278.5t29 279t82.5 238.5t138.5 168t188 62.5q78 0 143.5 -36.5t113 -102t80.5 -150.5t52 -187l-198 -34q-26 134 -74.5 221.5t-116.5 87.5q-61 0 -109 -58t-74.5 -146.5
t-40 -177.5t-13.5 -165q0 -89 15.5 -182.5t43.5 -175.5t75 -134.5t103 -52.5q48 0 88 46.5t63.5 112.5t39.5 151zM330 1704q0 62 42.5 105.5t106.5 43.5q62 0 106 -44t44 -105q0 -64 -44 -107t-106 -43q-64 0 -106.5 42.5t-42.5 107.5z" />
    <glyph glyph-name="Ccaron" unicode="&#x10c;" horiz-adv-x="907" 
d="M672 492l198 -35q-39 -214 -138 -344.5t-251 -130.5q-103 0 -188 62t-138.5 167t-82.5 237.5t-29 278.5t29 279t82.5 238.5t138.5 168t188 62.5q78 0 143.5 -36.5t113 -102t80.5 -150.5t52 -187l-198 -34q-26 134 -74.5 221.5t-116.5 87.5q-61 0 -109 -58t-74.5 -146.5
t-40 -177.5t-13.5 -165q0 -89 15.5 -182.5t43.5 -175.5t75 -134.5t103 -52.5q48 0 88 46.5t63.5 112.5t39.5 151zM477 1505l-272 320l141 119l133 -179l133 181l142 -121z" />
    <glyph glyph-name="ccaron" unicode="&#x10d;" horiz-adv-x="907" 
d="M672 492l198 -35q-39 -214 -138 -344.5t-251 -130.5q-103 0 -188 62t-138.5 167t-82.5 237.5t-29 278.5t29 279t82.5 238.5t138.5 168t188 62.5q78 0 143.5 -36.5t113 -102t80.5 -150.5t52 -187l-198 -34q-26 134 -74.5 221.5t-116.5 87.5q-61 0 -109 -58t-74.5 -146.5
t-40 -177.5t-13.5 -165q0 -89 15.5 -182.5t43.5 -175.5t75 -134.5t103 -52.5q48 0 88 46.5t63.5 112.5t39.5 151zM477 1505l-272 320l141 119l133 -179l133 181l142 -121z" />
    <glyph glyph-name="Dcaron" unicode="&#x10e;" horiz-adv-x="931" 
d="M115 0v1458h346q102 0 185 -62.5t135 -166t80 -232t28 -266.5q0 -141 -27.5 -270.5t-79 -233t-135 -165.5t-186.5 -62h-346zM315 199h152q69 0 120.5 78t76 197t24.5 257q0 135 -24.5 252.5t-76.5 195.5t-120 78h-152v-1058zM436 1505l-272 320l141 119l133 -179l133 181
l142 -121z" />
    <glyph glyph-name="dcaron" unicode="&#x10f;" horiz-adv-x="931" 
d="M115 0v1458h346q102 0 185 -62.5t135 -166t80 -232t28 -266.5q0 -141 -27.5 -270.5t-79 -233t-135 -165.5t-186.5 -62h-346zM315 199h152q69 0 120.5 78t76 197t24.5 257q0 135 -24.5 252.5t-76.5 195.5t-120 78h-152v-1058zM436 1505l-272 320l141 119l133 -179l133 181
l142 -121z" />
    <glyph glyph-name="Dcroat" unicode="&#x110;" horiz-adv-x="931" 
d="M23 633v198h92v627h346q102 0 185 -62.5t135 -166t80 -232t28 -266.5q0 -141 -27.5 -270.5t-79 -233t-135 -165.5t-186.5 -62h-346v633h-92zM315 199h152q69 0 120.5 78t76 197t24.5 257q0 135 -24.5 252.5t-76.5 195.5t-120 78h-152v-426h199v-198h-199v-434z" />
    <glyph glyph-name="dcroat" unicode="&#x111;" horiz-adv-x="931" 
d="M23 633v198h92v627h346q102 0 185 -62.5t135 -166t80 -232t28 -266.5q0 -141 -27.5 -270.5t-79 -233t-135 -165.5t-186.5 -62h-346v633h-92zM315 199h152q69 0 120.5 78t76 197t24.5 257q0 135 -24.5 252.5t-76.5 195.5t-120 78h-152v-426h199v-198h-199v-434z" />
    <glyph glyph-name="Emacron" unicode="&#x112;" horiz-adv-x="827" 
d="M115 0v1458h653v-201h-453v-426h314v-198h-314v-434h453v-199h-653zM207 1577v192h467v-192h-467z" />
    <glyph glyph-name="emacron" unicode="&#x113;" horiz-adv-x="827" 
d="M115 0v1458h653v-201h-453v-426h314v-198h-314v-434h453v-199h-653zM207 1577v192h467v-192h-467z" />
    <glyph glyph-name="Ebreve" unicode="&#x114;" horiz-adv-x="827" 
d="M115 0v1458h653v-201h-453v-426h314v-198h-314v-434h453v-199h-653zM158 1839l176 64q35 -98 58 -142.5t46 -44.5t48 45.5t63 143.5l174 -68q-118 -305 -283 -305q-168 0 -282 307z" />
    <glyph glyph-name="ebreve" unicode="&#x115;" horiz-adv-x="827" 
d="M115 0v1458h653v-201h-453v-426h314v-198h-314v-434h453v-199h-653zM158 1839l176 64q35 -98 58 -142.5t46 -44.5t48 45.5t63 143.5l174 -68q-118 -305 -283 -305q-168 0 -282 307z" />
    <glyph glyph-name="Edotaccent" unicode="&#x116;" horiz-adv-x="827" 
d="M115 0v1458h653v-201h-453v-426h314v-198h-314v-434h453v-199h-653zM291 1704q0 62 42.5 105.5t106.5 43.5q62 0 106 -44t44 -105q0 -64 -44 -107t-106 -43q-64 0 -106.5 42.5t-42.5 107.5z" />
    <glyph glyph-name="edotaccent" unicode="&#x117;" horiz-adv-x="827" 
d="M115 0v1458h653v-201h-453v-426h314v-198h-314v-434h453v-199h-653zM291 1704q0 62 42.5 105.5t106.5 43.5q62 0 106 -44t44 -105q0 -64 -44 -107t-106 -43q-64 0 -106.5 42.5t-42.5 107.5z" />
    <glyph glyph-name="Eogonek" unicode="&#x118;" horiz-adv-x="827" 
d="M115 0v1458h653v-201h-453v-426h314v-198h-314v-434h453v-199q-137 -87 -137 -154q0 -19 12.5 -31t28.5 -12q39 0 139 66l88 -145q-116 -99 -223 -99q-87 0 -141 60.5t-54 146.5q0 95 80 168h-446z" />
    <glyph glyph-name="eogonek" unicode="&#x119;" horiz-adv-x="827" 
d="M115 0v1458h653v-201h-453v-426h314v-198h-314v-434h453v-199q-137 -87 -137 -154q0 -19 12.5 -31t28.5 -12q39 0 139 66l88 -145q-116 -99 -223 -99q-87 0 -141 60.5t-54 146.5q0 95 80 168h-446z" />
    <glyph glyph-name="Ecaron" unicode="&#x11a;" horiz-adv-x="827" 
d="M115 0v1458h653v-201h-453v-426h314v-198h-314v-434h453v-199h-653zM438 1505l-272 320l141 119l133 -179l133 181l142 -121z" />
    <glyph glyph-name="ecaron" unicode="&#x11b;" horiz-adv-x="827" 
d="M115 0v1458h653v-201h-453v-426h314v-198h-314v-434h453v-199h-653zM438 1505l-272 320l141 119l133 -179l133 181l142 -121z" />
    <glyph glyph-name="Gcircumflex" unicode="&#x11c;" horiz-adv-x="960" 
d="M915 799q0 -13 1.5 -37t1.5 -37q0 -146 -28.5 -278t-81.5 -236.5t-137.5 -166.5t-187.5 -62t-188 62.5t-139 167.5t-83.5 237.5t-29.5 277.5q0 146 29 279.5t83.5 238.5t139.5 167.5t188 62.5q131 0 227.5 -97t151.5 -262l-188 -59q-31 100 -79.5 158.5t-111.5 58.5
q-56 0 -102.5 -49t-75.5 -128.5t-45 -176t-16 -195.5q0 -149 30.5 -274t85.5 -199t123 -74q85 0 149 115.5t89 304.5h-152v201h346zM207 1626l272 320l277 -320l-142 -121l-133 181l-133 -179z" />
    <glyph glyph-name="gcircumflex" unicode="&#x11d;" horiz-adv-x="960" 
d="M915 799q0 -13 1.5 -37t1.5 -37q0 -146 -28.5 -278t-81.5 -236.5t-137.5 -166.5t-187.5 -62t-188 62.5t-139 167.5t-83.5 237.5t-29.5 277.5q0 146 29 279.5t83.5 238.5t139.5 167.5t188 62.5q131 0 227.5 -97t151.5 -262l-188 -59q-31 100 -79.5 158.5t-111.5 58.5
q-56 0 -102.5 -49t-75.5 -128.5t-45 -176t-16 -195.5q0 -149 30.5 -274t85.5 -199t123 -74q85 0 149 115.5t89 304.5h-152v201h346zM207 1626l272 320l277 -320l-142 -121l-133 181l-133 -179z" />
    <glyph glyph-name="Gbreve" unicode="&#x11e;" horiz-adv-x="960" 
d="M915 799q0 -13 1.5 -37t1.5 -37q0 -146 -28.5 -278t-81.5 -236.5t-137.5 -166.5t-187.5 -62t-188 62.5t-139 167.5t-83.5 237.5t-29.5 277.5q0 146 29 279.5t83.5 238.5t139.5 167.5t188 62.5q131 0 227.5 -97t151.5 -262l-188 -59q-31 100 -79.5 158.5t-111.5 58.5
q-56 0 -102.5 -49t-75.5 -128.5t-45 -176t-16 -195.5q0 -149 30.5 -274t85.5 -199t123 -74q85 0 149 115.5t89 304.5h-152v201h346zM197 1839l176 64q35 -98 58 -142.5t46 -44.5t48 45.5t63 143.5l174 -68q-118 -305 -283 -305q-168 0 -282 307z" />
    <glyph glyph-name="gbreve" unicode="&#x11f;" horiz-adv-x="960" 
d="M915 799q0 -13 1.5 -37t1.5 -37q0 -146 -28.5 -278t-81.5 -236.5t-137.5 -166.5t-187.5 -62t-188 62.5t-139 167.5t-83.5 237.5t-29.5 277.5q0 146 29 279.5t83.5 238.5t139.5 167.5t188 62.5q131 0 227.5 -97t151.5 -262l-188 -59q-31 100 -79.5 158.5t-111.5 58.5
q-56 0 -102.5 -49t-75.5 -128.5t-45 -176t-16 -195.5q0 -149 30.5 -274t85.5 -199t123 -74q85 0 149 115.5t89 304.5h-152v201h346zM197 1839l176 64q35 -98 58 -142.5t46 -44.5t48 45.5t63 143.5l174 -68q-118 -305 -283 -305q-168 0 -282 307z" />
    <glyph glyph-name="Gdotaccent" unicode="&#x120;" horiz-adv-x="960" 
d="M915 799q0 -13 1.5 -37t1.5 -37q0 -146 -28.5 -278t-81.5 -236.5t-137.5 -166.5t-187.5 -62t-188 62.5t-139 167.5t-83.5 237.5t-29.5 277.5q0 146 29 279.5t83.5 238.5t139.5 167.5t188 62.5q131 0 227.5 -97t151.5 -262l-188 -59q-31 100 -79.5 158.5t-111.5 58.5
q-56 0 -102.5 -49t-75.5 -128.5t-45 -176t-16 -195.5q0 -149 30.5 -274t85.5 -199t123 -74q85 0 149 115.5t89 304.5h-152v201h346zM330 1704q0 62 42.5 105.5t106.5 43.5q62 0 106 -44t44 -105q0 -64 -44 -107t-106 -43q-64 0 -106.5 42.5t-42.5 107.5z" />
    <glyph glyph-name="gdotaccent" unicode="&#x121;" horiz-adv-x="960" 
d="M915 799q0 -13 1.5 -37t1.5 -37q0 -146 -28.5 -278t-81.5 -236.5t-137.5 -166.5t-187.5 -62t-188 62.5t-139 167.5t-83.5 237.5t-29.5 277.5q0 146 29 279.5t83.5 238.5t139.5 167.5t188 62.5q131 0 227.5 -97t151.5 -262l-188 -59q-31 100 -79.5 158.5t-111.5 58.5
q-56 0 -102.5 -49t-75.5 -128.5t-45 -176t-16 -195.5q0 -149 30.5 -274t85.5 -199t123 -74q85 0 149 115.5t89 304.5h-152v201h346zM330 1704q0 62 42.5 105.5t106.5 43.5q62 0 106 -44t44 -105q0 -64 -44 -107t-106 -43q-64 0 -106.5 42.5t-42.5 107.5z" />
    <glyph glyph-name="Gcommaaccent" unicode="&#x122;" horiz-adv-x="960" 
d="M915 799q0 -13 1.5 -37t1.5 -37q0 -146 -28.5 -278t-81.5 -236.5t-137.5 -166.5t-187.5 -62t-188 62.5t-139 167.5t-83.5 237.5t-29.5 277.5q0 146 29 279.5t83.5 238.5t139.5 167.5t188 62.5q131 0 227.5 -97t151.5 -262l-188 -59q-31 100 -79.5 158.5t-111.5 58.5
q-56 0 -102.5 -49t-75.5 -128.5t-45 -176t-16 -195.5q0 -149 30.5 -274t85.5 -199t123 -74q85 0 149 115.5t89 304.5h-152v201h346zM479 -63q-62 0 -100.5 -44t-38.5 -102q0 -48 32 -81t81 -34q-21 -23 -123 -84l88 -133q101 62 153 131t52 164q0 77 -38 130t-106 53z" />
    <glyph glyph-name="gcommaaccent" unicode="&#x123;" horiz-adv-x="960" 
d="M915 799q0 -13 1.5 -37t1.5 -37q0 -146 -28.5 -278t-81.5 -236.5t-137.5 -166.5t-187.5 -62t-188 62.5t-139 167.5t-83.5 237.5t-29.5 277.5q0 146 29 279.5t83.5 238.5t139.5 167.5t188 62.5q131 0 227.5 -97t151.5 -262l-188 -59q-31 100 -79.5 158.5t-111.5 58.5
q-56 0 -102.5 -49t-75.5 -128.5t-45 -176t-16 -195.5q0 -149 30.5 -274t85.5 -199t123 -74q85 0 149 115.5t89 304.5h-152v201h346zM479 -63q-62 0 -100.5 -44t-38.5 -102q0 -48 32 -81t81 -34q-21 -23 -123 -84l88 -133q101 62 153 131t52 164q0 77 -38 130t-106 53z" />
    <glyph glyph-name="Hcircumflex" unicode="&#x124;" horiz-adv-x="1003" 
d="M115 0v1458h200v-627h371v627h203v-1458h-203v633h-371v-633h-200zM227 1626l273 320l276 -320l-141 -121l-133 181l-133 -179z" />
    <glyph glyph-name="hcircumflex" unicode="&#x125;" horiz-adv-x="1003" 
d="M115 0v1458h200v-627h371v627h203v-1458h-203v633h-371v-633h-200zM227 1626l273 320l276 -320l-141 -121l-133 181l-133 -179z" />
    <glyph glyph-name="Hbar" unicode="&#x126;" horiz-adv-x="1003" 
d="M51 1028v191h64v239h200v-239h371v239h203v-239h65v-191h-65v-1028h-203v633h-371v-633h-200v1028h-64zM315 831h371v197h-371v-197z" />
    <glyph glyph-name="hbar" unicode="&#x127;" horiz-adv-x="1003" 
d="M51 1028v191h64v239h200v-239h371v239h203v-239h65v-191h-65v-1028h-203v633h-371v-633h-200v1028h-64zM315 831h371v197h-371v-197z" />
    <glyph glyph-name="Itilde" unicode="&#x128;" horiz-adv-x="432" 
d="M115 0v1458h202v-1458h-202zM51 1571l-168 78q47 108 104 170.5t140 62.5q40 0 72 -20.5t47.5 -45t31.5 -45t29 -20.5q20 0 72 113l168 -78q-101 -232 -232 -232q-36 0 -65.5 13.5t-47 33t-31 39t-25.5 33t-23 13.5q-20 0 -72 -115z" />
    <glyph glyph-name="itilde" unicode="&#x129;" horiz-adv-x="432" 
d="M115 0v1458h202v-1458h-202zM51 1571l-168 78q47 108 104 170.5t140 62.5q40 0 72 -20.5t47.5 -45t31.5 -45t29 -20.5q20 0 72 113l168 -78q-101 -232 -232 -232q-36 0 -65.5 13.5t-47 33t-31 39t-25.5 33t-23 13.5q-20 0 -72 -115z" />
    <glyph glyph-name="Imacron" unicode="&#x12a;" horiz-adv-x="432" 
d="M115 0v1458h202v-1458h-202zM-18 1593v193h467v-193h-467z" />
    <glyph glyph-name="imacron" unicode="&#x12b;" horiz-adv-x="432" 
d="M115 0v1458h202v-1458h-202zM-18 1593v193h467v-193h-467z" />
    <glyph glyph-name="Ibreve" unicode="&#x12c;" horiz-adv-x="432" 
d="M115 0v1458h202v-1458h-202zM-68 1855l177 64q35 -97 58 -141.5t46 -44.5t48.5 45.5t62.5 142.5l174 -68q-118 -305 -283 -305q-169 0 -283 307z" />
    <glyph glyph-name="ibreve" unicode="&#x12d;" horiz-adv-x="432" 
d="M115 0v1458h202v-1458h-202zM-68 1855l177 64q35 -97 58 -141.5t46 -44.5t48.5 45.5t62.5 142.5l174 -68q-118 -305 -283 -305q-169 0 -283 307z" />
    <glyph glyph-name="Iogonek" unicode="&#x12e;" horiz-adv-x="432" 
d="M360 -131l89 -145q-116 -99 -224 -99q-87 0 -140.5 60.5t-53.5 146.5q0 99 84 172v1454h202v-1458q-137 -87 -137 -154q0 -19 12.5 -31t28.5 -12q39 0 139 66z" />
    <glyph glyph-name="iogonek" unicode="&#x12f;" horiz-adv-x="432" 
d="M360 -131l89 -145q-116 -99 -224 -99q-87 0 -140.5 60.5t-53.5 146.5q0 99 84 172v1454h202v-1458q-137 -87 -137 -154q0 -19 12.5 -31t28.5 -12q39 0 139 66z" />
    <glyph glyph-name="Idotaccent" unicode="&#x130;" horiz-adv-x="432" 
d="M115 0v1458h202v-1458h-202zM66 1720q0 62 42.5 106t106.5 44q61 0 105.5 -44t44.5 -106q0 -64 -44 -106.5t-106 -42.5q-65 0 -107 42.5t-42 106.5z" />
    <glyph glyph-name="dotlessi" unicode="&#x131;" horiz-adv-x="432" 
d="M115 0v1458h202v-1458h-202z" />
    <glyph glyph-name="Jcircumflex" unicode="&#x134;" horiz-adv-x="747" 
d="M-14 129l153 127q35 -40 61.5 -57t63.5 -17q74 0 124 100.5t50 258.5v917h199v-917q0 -140 -31 -249.5t-84.5 -176t-121 -100t-144.5 -33.5q-80 0 -143 36t-127 111zM260 1626l272 320l277 -320l-141 -121l-133 181l-134 -179z" />
    <glyph glyph-name="jcircumflex" unicode="&#x135;" horiz-adv-x="747" 
d="M-14 129l153 127q35 -40 61.5 -57t63.5 -17q74 0 124 100.5t50 258.5v917h199v-917q0 -140 -31 -249.5t-84.5 -176t-121 -100t-144.5 -33.5q-80 0 -143 36t-127 111zM260 1626l272 320l277 -320l-141 -121l-133 181l-134 -179z" />
    <glyph glyph-name="Kcommaaccent" unicode="&#x136;" horiz-adv-x="942" 
d="M115 0v1458h200v-891l373 891h223l-346 -796l340 -662h-225l-227 444l-138 -274v-170h-200zM494 -63q-62 0 -101 -44t-39 -102q0 -48 32 -81t81 -34q-21 -23 -123 -84l88 -133q101 62 153 131t52 164q0 78 -37.5 130.5t-105.5 52.5z" />
    <glyph glyph-name="kcommaaccent" unicode="&#x137;" horiz-adv-x="944" 
d="M115 0v1458h200v-891l373 891h223l-346 -796l340 -662h-225l-227 444l-138 -274v-170h-200zM494 -63q-62 0 -101 -44t-39 -102q0 -48 32 -81t81 -34q-21 -23 -123 -84l88 -133q101 62 153 131t52 164q0 78 -37.5 130.5t-105.5 52.5z" />
    <glyph glyph-name="Lacute" unicode="&#x139;" horiz-adv-x="806" 
d="M115 0v1458h200v-1259h457v-199h-657zM78 1606l227 336l164 -119l-250 -320z" />
    <glyph glyph-name="lacute" unicode="&#x13a;" horiz-adv-x="806" 
d="M115 0v1458h200v-1259h457v-199h-657zM78 1606l227 336l164 -119l-250 -320z" />
    <glyph glyph-name="Lcommaaccent" unicode="&#x13b;" horiz-adv-x="806" 
d="M115 0v1458h200v-1259h457v-199h-657zM438 -63q-62 0 -100.5 -44t-38.5 -102q0 -48 32 -81t81 -34q-21 -23 -123 -84l88 -133q101 62 153 131t52 164q0 77 -38 130t-106 53z" />
    <glyph glyph-name="lcommaaccent" unicode="&#x13c;" horiz-adv-x="806" 
d="M115 0v1458h200v-1259h457v-199h-657zM438 -63q-62 0 -100.5 -44t-38.5 -102q0 -48 32 -81t81 -34q-21 -23 -123 -84l88 -133q101 62 153 131t52 164q0 77 -38 130t-106 53z" />
    <glyph glyph-name="Lcaron" unicode="&#x13d;" horiz-adv-x="800" 
d="M541 1475q67 0 105 -51t38 -128q0 -106 -60 -178t-178 -137l-79 137q104 58 143 94q-49 3 -80 36.5t-31 80.5q0 58 40 102t102 44zM115 0v1458h200v-1259h457v-199h-657z" />
    <glyph glyph-name="lcaron" unicode="&#x13e;" horiz-adv-x="800" 
d="M541 1475q67 0 105 -51t38 -128q0 -106 -60 -178t-178 -137l-79 137q104 58 143 94q-49 3 -80 36.5t-31 80.5q0 58 40 102t102 44zM115 0v1458h200v-1259h457v-199h-657z" />
    <glyph glyph-name="Ldot" unicode="&#x13f;" horiz-adv-x="806" 
d="M555 414q62 0 106 42.5t44 106.5q0 61 -44.5 105.5t-105.5 44.5q-64 0 -105.5 -43.5t-41.5 -106.5q0 -65 41.5 -107t105.5 -42zM115 0v1458h200v-1259h457v-199h-657z" />
    <glyph glyph-name="ldot" unicode="&#x140;" horiz-adv-x="806" 
d="M555 414q62 0 106 42.5t44 106.5q0 61 -44.5 105.5t-105.5 44.5q-64 0 -105.5 -43.5t-41.5 -106.5q0 -65 41.5 -107t105.5 -42zM115 0v1458h200v-1259h457v-199h-657z" />
    <glyph glyph-name="Lslash" unicode="&#x141;" horiz-adv-x="815" 
d="M66 362l-74 177l131 59v860h201v-770l133 60l78 -175l-211 -96v-278h456v-199h-657v387z" />
    <glyph glyph-name="lslash" unicode="&#x142;" horiz-adv-x="815" 
d="M66 362l-74 177l131 59v860h201v-770l133 60l78 -175l-211 -96v-278h456v-199h-657v387z" />
    <glyph glyph-name="Nacute" unicode="&#x143;" horiz-adv-x="1038" 
d="M115 0v1458h217l397 -1016v1016h195v-1458h-217l-396 1022v-1022h-196zM383 1606l227 336l164 -119l-250 -320z" />
    <glyph glyph-name="nacute" unicode="&#x144;" horiz-adv-x="1038" 
d="M115 0v1458h217l397 -1016v1016h195v-1458h-217l-396 1022v-1022h-196zM383 1606l227 336l164 -119l-250 -320z" />
    <glyph glyph-name="Ncommaaccent" unicode="&#x145;" horiz-adv-x="1038" 
d="M115 0v1458h217l397 -1016v1016h195v-1458h-217l-396 1022v-1022h-196zM514 -63q-62 0 -100.5 -44t-38.5 -102q0 -48 31.5 -81t80.5 -34q-22 -25 -122 -84l88 -133q101 62 152.5 131t51.5 164q0 78 -37.5 130.5t-105.5 52.5z" />
    <glyph glyph-name="ncommaaccent" unicode="&#x146;" horiz-adv-x="1038" 
d="M115 0v1458h217l397 -1016v1016h195v-1458h-217l-396 1022v-1022h-196zM514 -63q-62 0 -100.5 -44t-38.5 -102q0 -48 31.5 -81t80.5 -34q-22 -25 -122 -84l88 -133q101 62 152.5 131t51.5 164q0 78 -37.5 130.5t-105.5 52.5z" />
    <glyph glyph-name="Ncaron" unicode="&#x147;" horiz-adv-x="1038" 
d="M115 0v1458h217l397 -1016v1016h195v-1458h-217l-396 1022v-1022h-196zM524 1505l-272 320l141 119l133 -179l133 181l142 -121z" />
    <glyph glyph-name="ncaron" unicode="&#x148;" horiz-adv-x="1038" 
d="M115 0v1458h217l397 -1016v1016h195v-1458h-217l-396 1022v-1022h-196zM524 1505l-272 320l141 119l133 -179l133 181l142 -121z" />
    <glyph glyph-name="Eng" unicode="&#x14a;" horiz-adv-x="1038" 
d="M270 -184l156 127q35 -40 61.5 -57t63.5 -17q46 0 87 43t64 115l-391 989v-1016h-196v1458h215l399 -1005v1005h195v-1231q0 -140 -31 -249.5t-84.5 -176t-121 -100t-144.5 -33.5q-80 0 -144.5 36.5t-128.5 111.5z" />
    <glyph glyph-name="eng" unicode="&#x14b;" horiz-adv-x="1038" 
d="M270 -184l156 127q35 -40 61.5 -57t63.5 -17q46 0 87 43t64 115l-391 989v-1016h-196v1458h215l399 -1005v1005h195v-1231q0 -140 -31 -249.5t-84.5 -176t-121 -100t-144.5 -33.5q-80 0 -144.5 36.5t-128.5 111.5z" />
    <glyph glyph-name="Omacron" unicode="&#x14c;" horiz-adv-x="964" 
d="M483 1274q-56 0 -102.5 -48.5t-75.5 -127.5t-45 -175.5t-16 -195.5q0 -97 15.5 -192t44.5 -175.5t75.5 -130t103.5 -49.5q74 0 130.5 84t83 206.5t26.5 256.5q0 133 -26 255t-82.5 207t-131.5 85zM43 727q0 146 29 279.5t83.5 238.5t139.5 167.5t188 62.5t188 -62.5
t139 -168t83 -239t29 -278.5t-29 -278t-83 -238t-139 -167t-188 -62t-188 62.5t-139 167.5t-83.5 237.5t-29.5 277.5zM246 1577v192h467v-192h-467z" />
    <glyph glyph-name="omacron" unicode="&#x14d;" horiz-adv-x="964" 
d="M483 1274q-56 0 -102.5 -48.5t-75.5 -127.5t-45 -175.5t-16 -195.5q0 -97 15.5 -192t44.5 -175.5t75.5 -130t103.5 -49.5q74 0 130.5 84t83 206.5t26.5 256.5q0 133 -26 255t-82.5 207t-131.5 85zM43 727q0 146 29 279.5t83.5 238.5t139.5 167.5t188 62.5t188 -62.5
t139 -168t83 -239t29 -278.5t-29 -278t-83 -238t-139 -167t-188 -62t-188 62.5t-139 167.5t-83.5 237.5t-29.5 277.5zM246 1577v192h467v-192h-467z" />
    <glyph glyph-name="Obreve" unicode="&#x14e;" horiz-adv-x="964" 
d="M483 1274q-56 0 -102.5 -48.5t-75.5 -127.5t-45 -175.5t-16 -195.5q0 -97 15.5 -192t44.5 -175.5t75.5 -130t103.5 -49.5q74 0 130.5 84t83 206.5t26.5 256.5q0 133 -26 255t-82.5 207t-131.5 85zM43 727q0 146 29 279.5t83.5 238.5t139.5 167.5t188 62.5t188 -62.5
t139 -168t83 -239t29 -278.5t-29 -278t-83 -238t-139 -167t-188 -62t-188 62.5t-139 167.5t-83.5 237.5t-29.5 277.5zM197 1839l176 64q35 -98 58 -142.5t46 -44.5t48 45.5t63 143.5l174 -68q-118 -305 -283 -305q-168 0 -282 307z" />
    <glyph glyph-name="obreve" unicode="&#x14f;" horiz-adv-x="964" 
d="M483 1274q-56 0 -102.5 -48.5t-75.5 -127.5t-45 -175.5t-16 -195.5q0 -97 15.5 -192t44.5 -175.5t75.5 -130t103.5 -49.5q74 0 130.5 84t83 206.5t26.5 256.5q0 133 -26 255t-82.5 207t-131.5 85zM43 727q0 146 29 279.5t83.5 238.5t139.5 167.5t188 62.5t188 -62.5
t139 -168t83 -239t29 -278.5t-29 -278t-83 -238t-139 -167t-188 -62t-188 62.5t-139 167.5t-83.5 237.5t-29.5 277.5zM197 1839l176 64q35 -98 58 -142.5t46 -44.5t48 45.5t63 143.5l174 -68q-118 -305 -283 -305q-168 0 -282 307z" />
    <glyph glyph-name="Ohungarumlaut" unicode="&#x150;" horiz-adv-x="964" 
d="M483 1274q-56 0 -102.5 -48.5t-75.5 -127.5t-45 -175.5t-16 -195.5q0 -97 15.5 -192t44.5 -175.5t75.5 -130t103.5 -49.5q74 0 130.5 84t83 206.5t26.5 256.5q0 133 -26 255t-82.5 207t-131.5 85zM43 727q0 146 29 279.5t83.5 238.5t139.5 167.5t188 62.5t188 -62.5
t139 -168t83 -239t29 -278.5t-29 -278t-83 -238t-139 -167t-188 -62t-188 62.5t-139 167.5t-83.5 237.5t-29.5 277.5zM240 1581l161 373l181 -88l-187 -361zM653 1954l-159 -373l153 -76l187 361z" />
    <glyph glyph-name="ohungarumlaut" unicode="&#x151;" horiz-adv-x="964" 
d="M483 1274q-56 0 -102.5 -48.5t-75.5 -127.5t-45 -175.5t-16 -195.5q0 -97 15.5 -192t44.5 -175.5t75.5 -130t103.5 -49.5q74 0 130.5 84t83 206.5t26.5 256.5q0 133 -26 255t-82.5 207t-131.5 85zM43 727q0 146 29 279.5t83.5 238.5t139.5 167.5t188 62.5t188 -62.5
t139 -168t83 -239t29 -278.5t-29 -278t-83 -238t-139 -167t-188 -62t-188 62.5t-139 167.5t-83.5 237.5t-29.5 277.5zM240 1581l161 373l181 -88l-187 -361zM653 1954l-159 -373l153 -76l187 361z" />
    <glyph glyph-name="OE" unicode="&#x152;" horiz-adv-x="1280" 
d="M776 199h447v-199h-635q-48 -18 -107 -18q-104 0 -189 63t-139 169t-83 239t-29 278t29 277.5t83 237t139 167t189 62.5q44 0 107 -17h635v-201h-447v-426h307v-198h-307v-434zM578 221v1016q-45 39 -97 39q-57 0 -104 -49.5t-76 -129.5t-45 -175t-16 -191
q0 -97 15 -192.5t43.5 -176t75 -130.5t103.5 -50q56 0 101 39z" />
    <glyph glyph-name="oe" unicode="&#x153;" horiz-adv-x="1280" 
d="M776 199h447v-199h-635q-48 -18 -107 -18q-104 0 -189 63t-139 169t-83 239t-29 278t29 277.5t83 237t139 167t189 62.5q44 0 107 -17h635v-201h-447v-426h307v-198h-307v-434zM578 221v1016q-45 39 -97 39q-57 0 -104 -49.5t-76 -129.5t-45 -175t-16 -191
q0 -97 15 -192.5t43.5 -176t75 -130.5t103.5 -50q56 0 101 39z" />
    <glyph glyph-name="Racute" unicode="&#x154;" horiz-adv-x="921" 
d="M115 0v1458h366q90 0 163 -47t119 -125t70.5 -175t24.5 -202q0 -150 -48.5 -280.5t-137.5 -200.5l186 -428h-217l-158 360h-168v-360h-200zM315 559h162q58 0 100.5 51.5t62 129.5t19.5 169q0 90 -21 167.5t-65 129t-104 51.5h-154v-698zM326 1606l227 336l164 -119
l-250 -320z" />
    <glyph glyph-name="racute" unicode="&#x155;" horiz-adv-x="921" 
d="M115 0v1458h366q90 0 163 -47t119 -125t70.5 -175t24.5 -202q0 -150 -48.5 -280.5t-137.5 -200.5l186 -428h-217l-158 360h-168v-360h-200zM315 559h162q58 0 100.5 51.5t62 129.5t19.5 169q0 90 -21 167.5t-65 129t-104 51.5h-154v-698zM326 1606l227 336l164 -119
l-250 -320z" />
    <glyph glyph-name="Rcommaaccent" unicode="&#x156;" horiz-adv-x="921" 
d="M115 0v1458h366q90 0 163 -47t119 -125t70.5 -175t24.5 -202q0 -150 -48.5 -280.5t-137.5 -200.5l186 -428h-217l-158 360h-168v-360h-200zM315 559h162q58 0 100.5 51.5t62 129.5t19.5 169q0 90 -21 167.5t-65 129t-104 51.5h-154v-698zM467 -63q-62 0 -100.5 -44
t-38.5 -102q0 -48 31.5 -81t80.5 -34q-21 -23 -123 -84l89 -133q101 62 152.5 131t51.5 164q0 78 -37.5 130.5t-105.5 52.5z" />
    <glyph glyph-name="rcommaaccent" unicode="&#x157;" horiz-adv-x="921" 
d="M115 0v1458h366q90 0 163 -47t119 -125t70.5 -175t24.5 -202q0 -150 -48.5 -280.5t-137.5 -200.5l186 -428h-217l-158 360h-168v-360h-200zM315 559h162q58 0 100.5 51.5t62 129.5t19.5 169q0 90 -21 167.5t-65 129t-104 51.5h-154v-698zM467 -63q-62 0 -100.5 -44
t-38.5 -102q0 -48 31.5 -81t80.5 -34q-21 -23 -123 -84l89 -133q101 62 152.5 131t51.5 164q0 78 -37.5 130.5t-105.5 52.5z" />
    <glyph glyph-name="Rcaron" unicode="&#x158;" horiz-adv-x="921" 
d="M115 0v1458h366q90 0 163 -47t119 -125t70.5 -175t24.5 -202q0 -150 -48.5 -280.5t-137.5 -200.5l186 -428h-217l-158 360h-168v-360h-200zM315 559h162q58 0 100.5 51.5t62 129.5t19.5 169q0 90 -21 167.5t-65 129t-104 51.5h-154v-698zM463 1505l-273 320l142 119
l133 -179l133 181l141 -121z" />
    <glyph glyph-name="rcaron" unicode="&#x159;" horiz-adv-x="921" 
d="M115 0v1458h366q90 0 163 -47t119 -125t70.5 -175t24.5 -202q0 -150 -48.5 -280.5t-137.5 -200.5l186 -428h-217l-158 360h-168v-360h-200zM315 559h162q58 0 100.5 51.5t62 129.5t19.5 169q0 90 -21 167.5t-65 129t-104 51.5h-154v-698zM463 1505l-273 320l142 119
l133 -179l133 181l141 -121z" />
    <glyph glyph-name="Sacute" unicode="&#x15a;" horiz-adv-x="819" 
d="M33 172l135 145q138 -135 252 -135q74 0 116 58t42 135q0 56 -23 103t-61 78.5t-86.5 64t-99 60t-99 67t-86.5 83.5t-61 111t-23 148q0 163 99 274t251 111q170 0 356 -160l-133 -150q-125 111 -223 111q-72 0 -110.5 -53t-38.5 -133q0 -62 29.5 -111.5t77 -84.5
t104.5 -67.5t114 -72t104.5 -87t77 -122.5t29.5 -170q0 -101 -43.5 -190.5t-126 -146t-186.5 -56.5q-191 0 -387 190zM250 1606l227 336l164 -119l-250 -320z" />
    <glyph glyph-name="sacute" unicode="&#x15b;" horiz-adv-x="819" 
d="M33 172l135 145q138 -135 252 -135q74 0 116 58t42 135q0 56 -23 103t-61 78.5t-86.5 64t-99 60t-99 67t-86.5 83.5t-61 111t-23 148q0 163 99 274t251 111q170 0 356 -160l-133 -150q-125 111 -223 111q-72 0 -110.5 -53t-38.5 -133q0 -62 29.5 -111.5t77 -84.5
t104.5 -67.5t114 -72t104.5 -87t77 -122.5t29.5 -170q0 -101 -43.5 -190.5t-126 -146t-186.5 -56.5q-191 0 -387 190zM250 1606l227 336l164 -119l-250 -320z" />
    <glyph glyph-name="Scircumflex" unicode="&#x15c;" horiz-adv-x="819" 
d="M33 172l135 145q138 -135 252 -135q74 0 116 58t42 135q0 56 -23 103t-61 78.5t-86.5 64t-99 60t-99 67t-86.5 83.5t-61 111t-23 148q0 163 99 274t251 111q170 0 356 -160l-133 -150q-125 111 -223 111q-72 0 -110.5 -53t-38.5 -133q0 -62 29.5 -111.5t77 -84.5
t104.5 -67.5t114 -72t104.5 -87t77 -122.5t29.5 -170q0 -101 -43.5 -190.5t-126 -146t-186.5 -56.5q-191 0 -387 190zM119 1626l272 320l277 -320l-142 -121l-133 181l-133 -179z" />
    <glyph glyph-name="scircumflex" unicode="&#x15d;" horiz-adv-x="819" 
d="M33 172l135 145q138 -135 252 -135q74 0 116 58t42 135q0 56 -23 103t-61 78.5t-86.5 64t-99 60t-99 67t-86.5 83.5t-61 111t-23 148q0 163 99 274t251 111q170 0 356 -160l-133 -150q-125 111 -223 111q-72 0 -110.5 -53t-38.5 -133q0 -62 29.5 -111.5t77 -84.5
t104.5 -67.5t114 -72t104.5 -87t77 -122.5t29.5 -170q0 -101 -43.5 -190.5t-126 -146t-186.5 -56.5q-191 0 -387 190zM119 1626l272 320l277 -320l-142 -121l-133 181l-133 -179z" />
    <glyph glyph-name="Scedilla" unicode="&#x15e;" horiz-adv-x="819" 
d="M33 172l135 145q138 -135 252 -135q74 0 116 58t42 135q0 56 -23 103t-61 78.5t-86.5 64t-99 60t-99 67t-86.5 83.5t-61 111t-23 148q0 163 99 274t251 111q170 0 356 -160l-133 -150q-125 111 -223 111q-72 0 -110.5 -53t-38.5 -133q0 -62 29.5 -111.5t77 -84.5
t104.5 -67.5t114 -72t104.5 -87t77 -122.5t29.5 -170q0 -101 -43.5 -190.5t-126 -146t-186.5 -56.5q-191 0 -387 190zM186 -453l68 140q62 -41 108 -41t70.5 24t24.5 58q0 28 -18.5 49.5t-49.5 21.5q-35 0 -78 -22l-53 119q65 41 137 41q96 0 148.5 -61.5t52.5 -149.5
q0 -94 -62.5 -165t-173.5 -71q-86 0 -174 57z" />
    <glyph glyph-name="scedilla" unicode="&#x15f;" horiz-adv-x="819" 
d="M33 172l135 145q138 -135 252 -135q74 0 116 58t42 135q0 56 -23 103t-61 78.5t-86.5 64t-99 60t-99 67t-86.5 83.5t-61 111t-23 148q0 163 99 274t251 111q170 0 356 -160l-133 -150q-125 111 -223 111q-72 0 -110.5 -53t-38.5 -133q0 -62 29.5 -111.5t77 -84.5
t104.5 -67.5t114 -72t104.5 -87t77 -122.5t29.5 -170q0 -101 -43.5 -190.5t-126 -146t-186.5 -56.5q-191 0 -387 190zM186 -453l68 140q62 -41 108 -41t70.5 24t24.5 58q0 28 -18.5 49.5t-49.5 21.5q-35 0 -78 -22l-53 119q65 41 137 41q96 0 148.5 -61.5t52.5 -149.5
q0 -94 -62.5 -165t-173.5 -71q-86 0 -174 57z" />
    <glyph glyph-name="Scaron" unicode="&#x160;" horiz-adv-x="819" 
d="M33 172l135 145q138 -135 252 -135q74 0 116 58t42 135q0 56 -23 103t-61 78.5t-86.5 64t-99 60t-99 67t-86.5 83.5t-61 111t-23 148q0 163 99 274t251 111q170 0 356 -160l-133 -150q-125 111 -223 111q-72 0 -110.5 -53t-38.5 -133q0 -62 29.5 -111.5t77 -84.5
t104.5 -67.5t114 -72t104.5 -87t77 -122.5t29.5 -170q0 -101 -43.5 -190.5t-126 -146t-186.5 -56.5q-191 0 -387 190zM391 1505l-272 320l141 119l133 -179l133 181l142 -121z" />
    <glyph glyph-name="scaron" unicode="&#x161;" horiz-adv-x="819" 
d="M33 172l135 145q138 -135 252 -135q74 0 116 58t42 135q0 56 -23 103t-61 78.5t-86.5 64t-99 60t-99 67t-86.5 83.5t-61 111t-23 148q0 163 99 274t251 111q170 0 356 -160l-133 -150q-125 111 -223 111q-72 0 -110.5 -53t-38.5 -133q0 -62 29.5 -111.5t77 -84.5
t104.5 -67.5t114 -72t104.5 -87t77 -122.5t29.5 -170q0 -101 -43.5 -190.5t-126 -146t-186.5 -56.5q-191 0 -387 190zM391 1505l-272 320l141 119l133 -179l133 181l142 -121z" />
    <glyph glyph-name="Tcommaaccent" unicode="&#x162;" horiz-adv-x="856" 
d="M328 0v1257h-285v201h770v-201h-285v-1257h-200zM279 -313l-68 -140q88 -57 174 -57q111 0 173.5 71t62.5 165q0 88 -52.5 149.5t-148.5 61.5q-72 0 -137 -41l53 -119q43 22 78 22q31 0 49 -21.5t18 -49.5q0 -34 -24 -58t-70 -24t-108 41z" />
    <glyph glyph-name="tcommaaccent" unicode="&#x163;" horiz-adv-x="856" 
d="M328 0v1257h-285v201h770v-201h-285v-1257h-200zM279 -313l-68 -140q88 -57 174 -57q111 0 173.5 71t62.5 165q0 88 -52.5 149.5t-148.5 61.5q-72 0 -137 -41l53 -119q43 22 78 22q31 0 49 -21.5t18 -49.5q0 -34 -24 -58t-70 -24t-108 41z" />
    <glyph glyph-name="Tcaron" unicode="&#x164;" horiz-adv-x="856" 
d="M328 0v1257h-285v201h770v-201h-285v-1257h-200zM426 1505l-272 320l141 119l133 -179l133 181l141 -121z" />
    <glyph glyph-name="tcaron" unicode="&#x165;" horiz-adv-x="856" 
d="M328 0v1257h-285v201h770v-201h-285v-1257h-200zM428 1505l-272 320l141 119l133 -179l133 181l142 -121z" />
    <glyph glyph-name="Tbar" unicode="&#x166;" horiz-adv-x="856" 
d="M182 750v192h146v315h-285v201h770v-201h-285v-315h146v-192h-146v-750h-200v750h-146z" />
    <glyph glyph-name="tbar" unicode="&#x167;" horiz-adv-x="856" 
d="M182 750v192h146v315h-285v201h770v-201h-285v-315h146v-192h-146v-750h-200v750h-146z" />
    <glyph glyph-name="Utilde" unicode="&#x168;" horiz-adv-x="987" 
d="M109 524v934h200v-934q0 -160 53 -251t127 -91q77 0 134 90t57 252v934h199v-934q0 -132 -33.5 -238t-89.5 -171t-124.5 -99t-142.5 -34t-141 35t-121 100.5t-86 171t-32 235.5zM328 1571l-168 78q47 108 103.5 170.5t139.5 62.5q40 0 72 -20.5t48 -45t32 -45t29 -20.5
q11 0 27 26t44 87l168 -78q-45 -103 -100.5 -167.5t-130.5 -64.5q-36 0 -65.5 13.5t-47.5 33t-31.5 39t-25.5 33t-23 13.5t-27 -26.5t-44 -88.5z" />
    <glyph glyph-name="utilde" unicode="&#x169;" horiz-adv-x="987" 
d="M109 524v934h200v-934q0 -160 53 -251t127 -91q77 0 134 90t57 252v934h199v-934q0 -132 -33.5 -238t-89.5 -171t-124.5 -99t-142.5 -34t-141 35t-121 100.5t-86 171t-32 235.5zM328 1571l-168 78q47 108 103.5 170.5t139.5 62.5q40 0 72 -20.5t48 -45t32 -45t29 -20.5
q11 0 27 26t44 87l168 -78q-45 -103 -100.5 -167.5t-130.5 -64.5q-36 0 -65.5 13.5t-47.5 33t-31.5 39t-25.5 33t-23 13.5t-27 -26.5t-44 -88.5z" />
    <glyph glyph-name="Umacron" unicode="&#x16a;" horiz-adv-x="987" 
d="M109 524v934h200v-934q0 -160 53 -251t127 -91q77 0 134 90t57 252v934h199v-934q0 -132 -33.5 -238t-89.5 -171t-124.5 -99t-142.5 -34t-141 35t-121 100.5t-86 171t-32 235.5zM258 1593v193h467v-193h-467z" />
    <glyph glyph-name="umacron" unicode="&#x16b;" horiz-adv-x="987" 
d="M109 524v934h200v-934q0 -160 53 -251t127 -91q77 0 134 90t57 252v934h199v-934q0 -132 -33.5 -238t-89.5 -171t-124.5 -99t-142.5 -34t-141 35t-121 100.5t-86 171t-32 235.5zM258 1593v193h467v-193h-467z" />
    <glyph glyph-name="Ubreve" unicode="&#x16c;" horiz-adv-x="987" 
d="M109 524v934h200v-934q0 -160 53 -251t127 -91q77 0 134 90t57 252v934h199v-934q0 -132 -33.5 -238t-89.5 -171t-124.5 -99t-142.5 -34t-141 35t-121 100.5t-86 171t-32 235.5zM207 1855l176 64q35 -97 58 -141.5t46 -44.5t48.5 45.5t62.5 142.5l174 -68
q-118 -305 -283 -305q-168 0 -282 307z" />
    <glyph glyph-name="ubreve" unicode="&#x16d;" horiz-adv-x="987" 
d="M109 524v934h200v-934q0 -160 53 -251t127 -91q77 0 134 90t57 252v934h199v-934q0 -132 -33.5 -238t-89.5 -171t-124.5 -99t-142.5 -34t-141 35t-121 100.5t-86 171t-32 235.5zM207 1855l176 64q35 -97 58 -141.5t46 -44.5t48.5 45.5t62.5 142.5l174 -68
q-118 -305 -283 -305q-168 0 -282 307z" />
    <glyph glyph-name="Uring" unicode="&#x16e;" horiz-adv-x="987" 
d="M109 524v934h200v-934q0 -160 53 -251t127 -91q77 0 134 90t57 252v934h199v-934q0 -132 -33.5 -238t-89.5 -171t-124.5 -99t-142.5 -34t-141 35t-121 100.5t-86 171t-32 235.5zM403 1767q0 -37 27.5 -63.5t65.5 -26.5q36 0 63 27t27 63q0 37 -27.5 65t-62.5 28
q-38 0 -65.5 -28t-27.5 -65zM258 1767q0 98 70 168t168 70t166.5 -69.5t68.5 -168.5q0 -98 -68.5 -166.5t-166.5 -68.5q-99 0 -168.5 68.5t-69.5 166.5z" />
    <glyph glyph-name="uring" unicode="&#x16f;" horiz-adv-x="987" 
d="M109 524v934h200v-934q0 -160 53 -251t127 -91q77 0 134 90t57 252v934h199v-934q0 -132 -33.5 -238t-89.5 -171t-124.5 -99t-142.5 -34t-141 35t-121 100.5t-86 171t-32 235.5zM403 1767q0 -37 27.5 -63.5t65.5 -26.5q36 0 63 27t27 63q0 37 -27.5 65t-62.5 28
q-38 0 -65.5 -28t-27.5 -65zM258 1767q0 98 70 168t168 70t166.5 -69.5t68.5 -168.5q0 -98 -68.5 -166.5t-166.5 -68.5q-99 0 -168.5 68.5t-69.5 166.5z" />
    <glyph glyph-name="Uhungarumlaut" unicode="&#x170;" horiz-adv-x="987" 
d="M109 524v934h200v-934q0 -160 53 -251t127 -91q77 0 134 90t57 252v934h199v-934q0 -132 -33.5 -238t-89.5 -171t-124.5 -99t-142.5 -34t-141 35t-121 100.5t-86 171t-32 235.5zM250 1597l162 373l180 -88l-186 -360zM664 1970l-160 -373l153 -75l187 360z" />
    <glyph glyph-name="uhungarumlaut" unicode="&#x171;" horiz-adv-x="987" 
d="M109 524v934h200v-934q0 -160 53 -251t127 -91q77 0 134 90t57 252v934h199v-934q0 -132 -33.5 -238t-89.5 -171t-124.5 -99t-142.5 -34t-141 35t-121 100.5t-86 171t-32 235.5zM250 1597l162 373l180 -88l-186 -360zM664 1970l-160 -373l153 -75l187 360z" />
    <glyph glyph-name="Uogonek" unicode="&#x172;" horiz-adv-x="987" 
d="M616 -131l89 -145q-116 -99 -224 -99q-87 0 -140.5 60.5t-53.5 146.5q0 95 84 172q-115 47 -188.5 181t-73.5 339v934h200v-934q0 -160 53 -251t127 -91q77 0 134 90t57 252v934h199v-934q0 -229 -93.5 -367t-230.5 -167q-119 -81 -119 -144q0 -19 12.5 -31t28.5 -12
q39 0 139 66z" />
    <glyph glyph-name="uogonek" unicode="&#x173;" horiz-adv-x="987" 
d="M616 -131l89 -145q-116 -99 -224 -99q-87 0 -140.5 60.5t-53.5 146.5q0 95 84 172q-115 47 -188.5 181t-73.5 339v934h200v-934q0 -160 53 -251t127 -91q77 0 134 90t57 252v934h199v-934q0 -229 -93.5 -367t-230.5 -167q-119 -81 -119 -144q0 -19 12.5 -31t28.5 -12
q39 0 139 66z" />
    <glyph glyph-name="Wcircumflex" unicode="&#x174;" horiz-adv-x="1265" 
d="M1266 1458l-291 -1458h-203l-139 991l-139 -991h-203l-291 1458h211l176 -999l148 999h198l146 -999l176 999h211zM362 1626l273 320l276 -320l-141 -121l-133 181l-133 -179z" />
    <glyph glyph-name="wcircumflex" unicode="&#x175;" horiz-adv-x="1265" 
d="M1266 1458l-291 -1458h-203l-139 991l-139 -991h-203l-291 1458h211l176 -999l148 999h198l146 -999l176 999h211zM362 1626l273 320l276 -320l-141 -121l-133 181l-133 -179z" />
    <glyph glyph-name="Ycircumflex" unicode="&#x176;" horiz-adv-x="833" 
d="M317 0v371l-307 1087h209l199 -758l196 758h209l-307 -1087v-371h-199zM145 1626l273 320l276 -320l-141 -121l-133 181l-133 -179z" />
    <glyph glyph-name="ycircumflex" unicode="&#x177;" horiz-adv-x="833" 
d="M317 0v371l-307 1087h209l199 -758l196 758h209l-307 -1087v-371h-199zM145 1626l273 320l276 -320l-141 -121l-133 181l-133 -179z" />
    <glyph glyph-name="Ydieresis" unicode="&#x178;" horiz-adv-x="833" 
d="M317 0v371l-307 1087h209l199 -758l196 758h209l-307 -1087v-371h-199zM94 1704q0 62 43 105.5t107 43.5q61 0 104 -43.5t43 -105.5q0 -64 -42.5 -107t-104.5 -43q-64 0 -107 43t-43 107zM592 1554q62 0 105.5 43t43.5 107q0 62 -43.5 105.5t-105.5 43.5
q-64 0 -106 -43.5t-42 -105.5q0 -65 42 -107.5t106 -42.5z" />
    <glyph glyph-name="Zacute" unicode="&#x179;" horiz-adv-x="835" 
d="M66 0v199l483 1058h-483v201h704v-201l-483 -1058h483v-199h-704zM276 1606l228 336l164 -119l-250 -320z" />
    <glyph glyph-name="zacute" unicode="&#x17a;" horiz-adv-x="835" 
d="M66 0v199l483 1058h-483v201h704v-201l-483 -1058h483v-199h-704zM276 1606l228 336l164 -119l-250 -320z" />
    <glyph glyph-name="Zdotaccent" unicode="&#x17b;" horiz-adv-x="835" 
d="M66 0v199l483 1058h-483v201h704v-201l-483 -1058h483v-199h-704zM268 1704q0 62 43 105.5t107 43.5q62 0 105.5 -43.5t43.5 -105.5q0 -64 -43.5 -107t-105.5 -43q-64 0 -107 43t-43 107z" />
    <glyph glyph-name="zdotaccent" unicode="&#x17c;" horiz-adv-x="835" 
d="M66 0v199l483 1058h-483v201h704v-201l-483 -1058h483v-199h-704zM268 1704q0 62 43 105.5t107 43.5q62 0 105.5 -43.5t43.5 -105.5q0 -64 -43.5 -107t-105.5 -43q-64 0 -107 43t-43 107z" />
    <glyph glyph-name="Zcaron" unicode="&#x17d;" horiz-adv-x="835" 
d="M66 0v199l483 1058h-483v201h704v-201l-483 -1058h483v-199h-704zM418 1505l-273 320l142 119l133 -179l133 181l141 -121z" />
    <glyph glyph-name="zcaron" unicode="&#x17e;" horiz-adv-x="835" 
d="M66 0v199l483 1058h-483v201h704v-201l-483 -1058h483v-199h-704zM418 1505l-273 320l142 119l133 -179l133 181l141 -121z" />
    <glyph glyph-name="Gcaron" unicode="&#x1e6;" horiz-adv-x="960" 
d="M915 799q0 -13 1.5 -37t1.5 -37q0 -146 -28.5 -278t-81.5 -236.5t-137.5 -166.5t-187.5 -62t-188 62.5t-139 167.5t-83.5 237.5t-29.5 277.5q0 146 29 279.5t83.5 238.5t139.5 167.5t188 62.5q131 0 227.5 -97t151.5 -262l-188 -59q-31 100 -79.5 158.5t-111.5 58.5
q-56 0 -102.5 -49t-75.5 -128.5t-45 -176t-16 -195.5q0 -149 30.5 -274t85.5 -199t123 -74q85 0 149 115.5t89 304.5h-152v201h346zM479 1505l-272 320l141 119l133 -179l133 181l142 -121z" />
    <glyph glyph-name="gcaron" unicode="&#x1e7;" horiz-adv-x="960" 
d="M915 799q0 -13 1.5 -37t1.5 -37q0 -146 -28.5 -278t-81.5 -236.5t-137.5 -166.5t-187.5 -62t-188 62.5t-139 167.5t-83.5 237.5t-29.5 277.5q0 146 29 279.5t83.5 238.5t139.5 167.5t188 62.5q131 0 227.5 -97t151.5 -262l-188 -59q-31 100 -79.5 158.5t-111.5 58.5
q-56 0 -102.5 -49t-75.5 -128.5t-45 -176t-16 -195.5q0 -149 30.5 -274t85.5 -199t123 -74q85 0 149 115.5t89 304.5h-152v201h346zM479 1505l-272 320l141 119l133 -179l133 181l142 -121z" />
    <glyph glyph-name="uni01EA" unicode="&#x1ea;" horiz-adv-x="964" 
d="M600 -131l88 -145q-116 -99 -223 -99q-87 0 -141 60.5t-54 146.5q0 97 88 174q-148 65 -231.5 267t-83.5 454q0 146 29 279.5t83.5 238.5t139.5 167.5t188 62.5t188 -62.5t139 -168t83 -239t29 -278.5q0 -183 -43 -341t-133 -268t-211 -130q-115 -77 -115 -142
q0 -19 12.5 -31t28.5 -12q39 0 139 66zM483 1274q-56 0 -102.5 -48.5t-75.5 -127.5t-45 -175.5t-16 -195.5q0 -97 15.5 -192t44.5 -175.5t75.5 -130t103.5 -49.5q74 0 130.5 84t83 206.5t26.5 256.5q0 133 -26 255t-82.5 207t-131.5 85z" />
    <glyph glyph-name="uni01EB" unicode="&#x1eb;" horiz-adv-x="964" 
d="M600 -131l88 -145q-116 -99 -223 -99q-87 0 -141 60.5t-54 146.5q0 97 88 174q-148 65 -231.5 267t-83.5 454q0 146 29 279.5t83.5 238.5t139.5 167.5t188 62.5t188 -62.5t139 -168t83 -239t29 -278.5q0 -183 -43 -341t-133 -268t-211 -130q-115 -77 -115 -142
q0 -19 12.5 -31t28.5 -12q39 0 139 66zM483 1274q-56 0 -102.5 -48.5t-75.5 -127.5t-45 -175.5t-16 -195.5q0 -97 15.5 -192t44.5 -175.5t75.5 -130t103.5 -49.5q74 0 130.5 84t83 206.5t26.5 256.5q0 133 -26 255t-82.5 207t-131.5 85z" />
    <glyph glyph-name="AEacute" unicode="&#x1fc;" horiz-adv-x="1292" 
d="M0 0l457 1458h778v-201h-444v-426h307v-198h-307v-434h444v-199h-639v217h-322l-63 -217h-211zM338 418h258v856zM651 1606l228 336l163 -119l-249 -320z" />
    <glyph glyph-name="aeacute" unicode="&#x1fd;" horiz-adv-x="1292" 
d="M0 0l457 1458h778v-201h-444v-426h307v-198h-307v-434h444v-199h-639v217h-322l-63 -217h-211zM338 418h258v856zM651 1606l228 336l163 -119l-249 -320z" />
    <glyph glyph-name="Oslashacute" unicode="&#x1fe;" horiz-adv-x="972" 
d="M340 1638l227 336l164 -119l-250 -319zM455 184q75 -21 139 49t100.5 203t36.5 293q0 256 -69 406zM520 1270q-80 25 -145.5 -49t-99 -206t-33.5 -286q0 -264 67 -410zM485 1475q32 0 78 -11l15 68h172l-35 -156q102 -98 158.5 -273t56.5 -374q0 -144 -30 -277.5
t-85 -238.5t-141 -168t-189 -63q-27 0 -73 8l-17 -66h-172l33 154q-102 97 -157.5 273t-55.5 378q0 145 29.5 277.5t83.5 238t139.5 168t189.5 62.5z" />
    <glyph glyph-name="oslashacute" unicode="&#x1ff;" horiz-adv-x="972" 
d="M340 1638l227 336l164 -119l-250 -319zM455 184q75 -21 139 49t100.5 203t36.5 293q0 256 -69 406zM520 1270q-80 25 -145.5 -49t-99 -206t-33.5 -286q0 -264 67 -410zM485 1475q32 0 78 -11l15 68h172l-35 -156q102 -98 158.5 -273t56.5 -374q0 -144 -30 -277.5
t-85 -238.5t-141 -168t-189 -63q-27 0 -73 8l-17 -66h-172l33 154q-102 97 -157.5 273t-55.5 378q0 145 29.5 277.5t83.5 238t139.5 168t189.5 62.5z" />
    <glyph glyph-name="Scommaaccent" unicode="&#x218;" horiz-adv-x="819" 
d="M33 172l135 145q138 -135 252 -135q74 0 116 58t42 135q0 56 -23 103t-61 78.5t-86.5 64t-99 60t-99 67t-86.5 83.5t-61 111t-23 148q0 163 99 274t251 111q170 0 356 -160l-133 -150q-125 111 -223 111q-72 0 -110.5 -53t-38.5 -133q0 -62 29.5 -111.5t77 -84.5
t104.5 -67.5t114 -72t104.5 -87t77 -122.5t29.5 -170q0 -101 -43.5 -190.5t-126 -146t-186.5 -56.5q-191 0 -387 190zM403 -63q68 0 106 -53t38 -130q0 -95 -52 -164t-153 -131l-88 133q102 61 123 84q-49 1 -81 34t-32 81q0 58 38.5 102t100.5 44z" />
    <glyph glyph-name="scommaaccent" unicode="&#x219;" horiz-adv-x="819" 
d="M33 172l135 145q138 -135 252 -135q74 0 116 58t42 135q0 56 -23 103t-61 78.5t-86.5 64t-99 60t-99 67t-86.5 83.5t-61 111t-23 148q0 163 99 274t251 111q170 0 356 -160l-133 -150q-125 111 -223 111q-72 0 -110.5 -53t-38.5 -133q0 -62 29.5 -111.5t77 -84.5
t104.5 -67.5t114 -72t104.5 -87t77 -122.5t29.5 -170q0 -101 -43.5 -190.5t-126 -146t-186.5 -56.5q-191 0 -387 190zM403 -63q68 0 106 -53t38 -130q0 -95 -52 -164t-153 -131l-88 133q102 61 123 84q-49 1 -81 34t-32 81q0 58 38.5 102t100.5 44z" />
    <glyph glyph-name="uni021A" unicode="&#x21a;" horiz-adv-x="856" 
d="M328 0v1257h-285v201h770v-201h-285v-1257h-200zM428 -80q-62 0 -100.5 -43.5t-38.5 -101.5q0 -48 31.5 -81t80.5 -34q-22 -25 -122 -84l88 -133q101 62 152.5 131t51.5 164q0 78 -37.5 130t-105.5 52z" />
    <glyph glyph-name="uni021B" unicode="&#x21b;" horiz-adv-x="856" 
d="M328 0v1257h-285v201h770v-201h-285v-1257h-200zM428 -80q-62 0 -100.5 -43.5t-38.5 -101.5q0 -48 31.5 -81t80.5 -34q-22 -25 -122 -84l88 -133q101 62 152.5 131t51.5 164q0 78 -37.5 130t-105.5 52z" />
    <glyph glyph-name="uni0232" unicode="&#x232;" horiz-adv-x="833" 
d="M317 0v371l-307 1087h209l199 -758l196 758h209l-307 -1087v-371h-199zM184 1577v192h467v-192h-467z" />
    <glyph glyph-name="uni0233" unicode="&#x233;" horiz-adv-x="833" 
d="M317 0v371l-307 1087h209l199 -758l196 758h209l-307 -1087v-371h-199zM184 1577v192h467v-192h-467z" />
    <glyph glyph-name="circumflex" unicode="&#x2c6;" horiz-adv-x="593" 
d="M23 1626l272 320l276 -320l-141 -121l-133 181l-133 -179z" />
    <glyph glyph-name="caron" unicode="&#x2c7;" horiz-adv-x="593" 
d="M295 1505l-272 320l141 119l133 -179l133 181l141 -121z" />
    <glyph glyph-name="breve" unicode="&#x2d8;" horiz-adv-x="610" 
d="M23 1839l176 64q35 -98 58 -142.5t46 -44.5t48 45.5t63 143.5l174 -68q-118 -305 -283 -305q-168 0 -282 307z" />
    <glyph glyph-name="dotaccent" unicode="&#x2d9;" horiz-adv-x="344" 
d="M23 1704q0 62 42.5 105.5t106.5 43.5q62 0 106 -44t44 -105q0 -64 -44 -107t-106 -43q-64 0 -106.5 42.5t-42.5 107.5z" />
    <glyph glyph-name="ring" unicode="&#x2da;" horiz-adv-x="518" 
d="M168 1751q0 -37 27 -63.5t65 -26.5q36 0 63 27t27 63q0 37 -27.5 64.5t-62.5 27.5q-38 0 -65 -27.5t-27 -64.5zM23 1751q0 98 69.5 168t167.5 70t167 -70t69 -168t-69 -166.5t-167 -68.5t-167.5 68.5t-69.5 166.5z" />
    <glyph glyph-name="ogonek" unicode="&#x2db;" horiz-adv-x="462" 
d="M352 -131l88 -145q-116 -99 -223 -99q-87 0 -140.5 60.5t-53.5 146.5q0 83 60 148t122 81l104 -61q-137 -87 -137 -154q0 -19 12.5 -31t28.5 -12q39 0 139 66z" />
    <glyph glyph-name="tilde" unicode="&#x2dc;" horiz-adv-x="708" 
d="M190 1554l-167 78q47 109 103.5 171.5t139.5 62.5q40 0 72 -20.5t47.5 -45t31.5 -45t29 -20.5q20 0 72 112l168 -78q-100 -231 -231 -231q-45 0 -79.5 20.5t-51 45t-33 45t-29.5 20.5q-20 0 -72 -115z" />
    <glyph glyph-name="hungarumlaut" unicode="&#x2dd;" horiz-adv-x="638" 
d="M23 1581l161 373l181 -88l-187 -361zM436 1954l-160 -373l154 -76l186 361z" />
    <glyph glyph-name="tonos" unicode="&#x384;" horiz-adv-x="206" 
d="M12 1044v455h203l-47 -455h-156z" />
    <glyph glyph-name="Alphatonos" unicode="&#x386;" 
d="M51 1044v455h203l-47 -455h-156zM0 0l360 1458h195l360 -1458h-206l-39 160h-428l-39 -160h-203zM295 360h326l-164 723z" />
    <glyph glyph-name="Epsilontonos" unicode="&#x388;" horiz-adv-x="966" 
d="M12 1044v455h203l-47 -455h-156zM254 0v1458h653v-201h-452v-426h313v-198h-313v-434h452v-199h-653z" />
    <glyph glyph-name="Etatonos" unicode="&#x389;" horiz-adv-x="1142" 
d="M254 0v1458h201v-627h370v627h203v-1458h-203v633h-370v-633h-201zM12 1044v455h203l-47 -455h-156z" />
    <glyph glyph-name="Iotatonos" unicode="&#x38a;" horiz-adv-x="571" 
d="M254 0v1458h203v-1458h-203zM12 1044v455h203l-47 -455h-156z" />
    <glyph glyph-name="Omicrontonos" unicode="&#x38c;" horiz-adv-x="1099" 
d="M12 1044v455h203l-47 -455h-156zM618 1274q-56 0 -102.5 -48.5t-75.5 -127.5t-45 -175.5t-16 -195.5q0 -97 15.5 -192t44.5 -175.5t75.5 -130t103.5 -49.5q74 0 130.5 84t83 206.5t26.5 256.5q0 133 -26 255t-82.5 207t-131.5 85zM178 727q0 146 29 279.5t83.5 238.5
t139.5 167.5t188 62.5t188 -62.5t139 -168t83 -239t29 -278.5t-29 -278t-83 -238t-139 -167t-188 -62t-188 62.5t-139 167.5t-83.5 237.5t-29.5 277.5z" />
    <glyph glyph-name="Upsilontonos" unicode="&#x38e;" horiz-adv-x="1058" 
d="M12 1044v455h201l-45 -455h-156zM543 0v371l-307 1087h208l199 -758l197 758h209l-308 -1087v-371h-198z" />
    <glyph glyph-name="Omegatonos" unicode="&#x38f;" horiz-adv-x="1130" 
d="M12 1044v455h203l-47 -455h-156zM162 0v199h188q-84 98 -127 239.5t-43 306.5q0 141 24.5 261.5t66.5 205.5t98 145t119 89t130 29q83 0 160.5 -47t140 -135t100.5 -230.5t38 -317.5q0 -166 -43 -307.5t-129 -238.5h188v-199h-414v213q97 68 145 209.5t48 310.5
q0 256 -69 397.5t-165 141.5q-97 0 -166 -141.5t-69 -397.5q0 -168 48 -310t144 -210v-213h-413z" />
    <glyph glyph-name="Alpha" unicode="&#x391;" 
d="M0 0l360 1458h195l360 -1458h-206l-39 160h-428l-39 -160h-203zM295 360h326l-164 723z" />
    <glyph glyph-name="Beta" unicode="&#x392;" horiz-adv-x="892" 
d="M115 0v1458h389q72 0 131.5 -35t97 -93.5t58 -131t20.5 -149.5q0 -90 -27 -171t-79 -135q62 -55 94 -142.5t32 -186.5q0 -61 -13 -121t-39 -112.5t-62 -93t-86.5 -64t-108.5 -23.5h-407zM315 199h203q55 0 85 65t30 154q0 86 -31 151.5t-84 65.5h-203v-436zM315 831h181
q54 0 84 64.5t30 153.5q0 87 -29 147.5t-85 60.5h-181v-426z" />
    <glyph glyph-name="Gamma" unicode="&#x393;" horiz-adv-x="794" 
d="M115 0v1458h651v-201h-449v-1257h-202z" />
    <glyph glyph-name="uni0394" unicode="&#x394;" horiz-adv-x="882" 
d="M256 199h371l-185 964zM571 1458l258 -1259v-199h-776v199l260 1259h258z" />
    <glyph glyph-name="Epsilon" unicode="&#x395;" horiz-adv-x="827" 
d="M115 0v1458h653v-201h-453v-426h314v-198h-314v-434h453v-199h-653z" />
    <glyph glyph-name="Zeta" unicode="&#x396;" horiz-adv-x="835" 
d="M66 0v199l483 1058h-483v201h704v-201l-483 -1058h483v-199h-704z" />
    <glyph glyph-name="Eta" unicode="&#x397;" horiz-adv-x="1003" 
d="M115 0v1458h200v-627h371v627h203v-1458h-203v633h-371v-633h-200z" />
    <glyph glyph-name="Theta" unicode="&#x398;" horiz-adv-x="968" 
d="M313 827v-200h342v200h-342zM479 182q74 0 132 80.5t87 204.5t29 264q0 138 -28.5 260.5t-86.5 203.5t-133 81q-57 0 -103.5 -49.5t-75 -129.5t-43.5 -175t-15 -191q0 -97 15 -192.5t43.5 -176t75 -130.5t103.5 -50zM483 -18q-104 0 -189 63t-139 169t-83 239t-29 278
t29 277.5t83 237t139 167t189 62.5q103 0 188.5 -63t140.5 -168t84.5 -237.5t29.5 -275.5q0 -145 -29.5 -278.5t-84.5 -239t-140.5 -168.5t-188.5 -63z" />
    <glyph glyph-name="Iota" unicode="&#x399;" horiz-adv-x="432" 
d="M115 0v1458h202v-1458h-202z" />
    <glyph glyph-name="Kappa" unicode="&#x39a;" horiz-adv-x="923" 
d="M115 0v1458h200v-629h113l246 629h219l-289 -727l289 -731h-219l-246 631h-113v-631h-200z" />
    <glyph glyph-name="Lambda" unicode="&#x39b;" 
d="M0 0l344 1458h229l342 -1458h-210l-246 1139l-246 -1139h-213z" />
    <glyph glyph-name="Mu" unicode="&#x39c;" horiz-adv-x="1255" 
d="M115 0v1458h247l263 -1122l264 1122h252v-1458h-199v977l-219 -977h-195l-217 977v-977h-196z" />
    <glyph glyph-name="Nu" unicode="&#x39d;" horiz-adv-x="1038" 
d="M115 0v1458h217l397 -1012v1012h195v-1458h-217l-396 1018v-1018h-196z" />
    <glyph glyph-name="Xi" unicode="&#x39e;" horiz-adv-x="770" 
d="M57 0v199h656v-199h-656zM57 1257v201h656v-201h-656zM160 633v198h448v-198h-448z" />
    <glyph glyph-name="Omicron" unicode="&#x39f;" horiz-adv-x="964" 
d="M483 1274q-56 0 -102.5 -48.5t-75.5 -127.5t-45 -175.5t-16 -195.5q0 -97 15.5 -192t44.5 -175.5t75.5 -130t103.5 -49.5q74 0 130.5 84t83 206.5t26.5 256.5q0 133 -26 255t-82.5 207t-131.5 85zM43 727q0 146 29 279.5t83.5 238.5t139.5 167.5t188 62.5t188 -62.5
t139 -168t83 -239t29 -278.5t-29 -278t-83 -238t-139 -167t-188 -62t-188 62.5t-139 167.5t-83.5 237.5t-29.5 277.5z" />
    <glyph glyph-name="Pi" unicode="&#x3a0;" horiz-adv-x="999" 
d="M115 0v1458h770v-1458h-203v1257h-367v-1257h-200z" />
    <glyph glyph-name="Rho" unicode="&#x3a1;" horiz-adv-x="897" 
d="M115 0v1458h362q90 0 163 -47t119 -125t70.5 -175t24.5 -202t-24 -202t-69.5 -175t-119 -125t-164.5 -47h-162v-360h-200zM315 559h158q58 0 100.5 51.5t62 129.5t19.5 169q0 90 -21 167.5t-65 129t-104 51.5h-150v-698z" />
    <glyph glyph-name="Sigma" unicode="&#x3a3;" horiz-adv-x="833" 
d="M74 0v213l293 518l-293 512v215h702v-201h-481l301 -526l-301 -532h481v-199h-702z" />
    <glyph glyph-name="Tau" unicode="&#x3a4;" horiz-adv-x="856" 
d="M328 0v1257h-285v201h770v-201h-285v-1257h-200z" />
    <glyph glyph-name="Upsilon" unicode="&#x3a5;" horiz-adv-x="833" 
d="M317 0v371l-307 1087h209l199 -758l196 758h209l-307 -1087v-371h-199z" />
    <glyph glyph-name="Phi" unicode="&#x3a6;" horiz-adv-x="1048" 
d="M424 0v160q-180 40 -282.5 213t-102.5 440q0 302 131.5 482t353.5 180q221 0 352.5 -180.5t131.5 -481.5q0 -265 -103.5 -439t-281.5 -214v-160h-199zM623 1264v-906q83 42 134.5 159t51.5 296t-51.5 294t-134.5 157zM424 358v906q-81 -42 -132.5 -158.5t-51.5 -292.5
q0 -179 51.5 -296t132.5 -159z" />
    <glyph glyph-name="Chi" unicode="&#x3a7;" horiz-adv-x="884" 
d="M557 745l315 -745h-219l-213 524l-213 -524h-217l316 745l-301 713h217l198 -489l199 489h219z" />
    <glyph glyph-name="Psi" unicode="&#x3a8;" horiz-adv-x="1091" 
d="M446 0v178q-158 46 -257 228.5t-99 488.5v563h199v-565q0 -195 43.5 -323.5t113.5 -178.5v1067h199v-1067q71 50 114.5 178.5t43.5 323.5v565h198v-563q0 -304 -100 -487.5t-256 -229.5v-178h-199z" />
    <glyph glyph-name="uni03A9" unicode="&#x3a9;" horiz-adv-x="1026" 
d="M57 0v199h189q-84 98 -127 239.5t-43 306.5q0 141 24.5 261.5t66.5 205.5t98 145t119 89t130 29q66 0 129 -29t119 -89t98.5 -145t67 -205.5t24.5 -261.5q0 -166 -43 -307.5t-129 -238.5h189v-199h-414v213q97 68 145 209.5t48 310.5q0 256 -69 397.5t-165 141.5
q-97 0 -166 -141.5t-69 -397.5q0 -168 48 -310t144 -210v-213h-414z" />
    <glyph glyph-name="Iotadieresis" unicode="&#x3aa;" horiz-adv-x="432" 
d="M115 0v1458h202v-1458h-202zM-109 1720q0 62 43 106t107 44q61 0 104 -44t43 -106q0 -64 -42.5 -106.5t-104.5 -42.5q-65 0 -107.5 42.5t-42.5 106.5zM389 1571q62 0 106 42.5t44 106.5q0 62 -44.5 106t-105.5 44q-64 0 -105.5 -43.5t-41.5 -106.5q0 -65 41.5 -107
t105.5 -42z" />
    <glyph glyph-name="Upsilondieresis" unicode="&#x3ab;" horiz-adv-x="833" 
d="M317 0v371l-307 1087h209l199 -758l196 758h209l-307 -1087v-371h-199zM94 1704q0 62 43 105.5t107 43.5q61 0 104 -43.5t43 -105.5q0 -64 -42.5 -107t-104.5 -43q-64 0 -107 43t-43 107zM592 1554q62 0 105.5 43t43.5 107q0 62 -43.5 105.5t-105.5 43.5
q-64 0 -106 -43.5t-42 -105.5q0 -65 42 -107.5t106 -42.5z" />
    <glyph glyph-name="alphatonos" unicode="&#x3ac;" 
d="M51 1044v455h203l-47 -455h-156zM0 0l360 1458h195l360 -1458h-206l-39 160h-428l-39 -160h-203zM295 360h326l-164 723z" />
    <glyph glyph-name="epsilontonos" unicode="&#x3ad;" horiz-adv-x="966" 
d="M12 1044v455h203l-47 -455h-156zM254 0v1458h653v-201h-452v-426h313v-198h-313v-434h452v-199h-653z" />
    <glyph glyph-name="etatonos" unicode="&#x3ae;" horiz-adv-x="1142" 
d="M254 0v1458h201v-627h370v627h203v-1458h-203v633h-370v-633h-201zM12 1044v455h203l-47 -455h-156z" />
    <glyph glyph-name="iotatonos" unicode="&#x3af;" horiz-adv-x="571" 
d="M254 0v1458h203v-1458h-203zM12 1044v455h203l-47 -455h-156z" />
    <glyph glyph-name="alpha" unicode="&#x3b1;" 
d="M0 0l360 1458h195l360 -1458h-206l-39 160h-428l-39 -160h-203zM295 360h326l-164 723z" />
    <glyph glyph-name="beta" unicode="&#x3b2;" horiz-adv-x="892" 
d="M115 0v1458h389q72 0 131.5 -35t97 -93.5t58 -131t20.5 -149.5q0 -90 -27 -171t-79 -135q62 -55 94 -142.5t32 -186.5q0 -61 -13 -121t-39 -112.5t-62 -93t-86.5 -64t-108.5 -23.5h-407zM315 199h203q55 0 85 65t30 154q0 86 -31 151.5t-84 65.5h-203v-436zM315 831h181
q54 0 84 64.5t30 153.5q0 87 -29 147.5t-85 60.5h-181v-426z" />
    <glyph glyph-name="gamma" unicode="&#x3b3;" horiz-adv-x="794" 
d="M115 0v1458h651v-201h-449v-1257h-202z" />
    <glyph glyph-name="delta" unicode="&#x3b4;" horiz-adv-x="882" 
d="M256 199h371l-185 966zM571 1458l258 -1259v-199h-776v199l260 1259h258z" />
    <glyph glyph-name="epsilon" unicode="&#x3b5;" horiz-adv-x="827" 
d="M115 0v1458h653v-201h-453v-426h314v-198h-314v-434h453v-199h-653z" />
    <glyph glyph-name="zeta" unicode="&#x3b6;" horiz-adv-x="835" 
d="M66 0v199l483 1058h-483v201h704v-201l-483 -1058h483v-199h-704z" />
    <glyph glyph-name="eta" unicode="&#x3b7;" horiz-adv-x="1003" 
d="M115 0v1458h200v-627h371v627h203v-1458h-203v633h-371v-633h-200z" />
    <glyph glyph-name="theta" unicode="&#x3b8;" horiz-adv-x="968" 
d="M313 827v-200h342v200h-342zM479 182q74 0 132 80.5t87 204.5t29 264q0 138 -28.5 260.5t-86.5 203.5t-133 81q-57 0 -103.5 -49.5t-75 -129.5t-43.5 -175t-15 -191q0 -97 15 -192.5t43.5 -176t75 -130.5t103.5 -50zM483 -18q-104 0 -189 63t-139 169t-83 239t-29 278
t29 277.5t83 237t139 167t189 62.5q103 0 188.5 -63t140.5 -168t84.5 -237.5t29.5 -275.5q0 -145 -29.5 -278.5t-84.5 -239t-140.5 -168.5t-188.5 -63z" />
    <glyph glyph-name="iota" unicode="&#x3b9;" horiz-adv-x="432" 
d="M115 0v1458h202v-1458h-202z" />
    <glyph glyph-name="kappa" unicode="&#x3ba;" horiz-adv-x="923" 
d="M115 0v1458h200v-629h113l246 629h219l-289 -727l289 -731h-219l-246 631h-113v-631h-200z" />
    <glyph glyph-name="lambda" unicode="&#x3bb;" 
d="M0 0l344 1458h229l342 -1458h-210l-246 1139l-246 -1139h-213z" />
    <glyph glyph-name="uni03BC" unicode="&#x3bc;" horiz-adv-x="1255" 
d="M115 0v1458h247l263 -1122l264 1122h252v-1458h-199v977l-219 -977h-195l-217 977v-977h-196z" />
    <glyph glyph-name="nu" unicode="&#x3bd;" horiz-adv-x="1038" 
d="M115 0v1458h217l397 -1016v1016h195v-1458h-217l-396 1022v-1022h-196z" />
    <glyph glyph-name="xi" unicode="&#x3be;" horiz-adv-x="770" 
d="M57 0v199h656v-199h-656zM57 1257v201h656v-201h-656zM160 633v198h448v-198h-448z" />
    <glyph glyph-name="omicron" unicode="&#x3bf;" horiz-adv-x="964" 
d="M483 1274q-56 0 -102.5 -48.5t-75.5 -127.5t-45 -175.5t-16 -195.5q0 -97 15.5 -192t44.5 -175.5t75.5 -130t103.5 -49.5q74 0 130.5 84t83 206.5t26.5 256.5q0 133 -26 255t-82.5 207t-131.5 85zM43 727q0 146 29 279.5t83.5 238.5t139.5 167.5t188 62.5t188 -62.5
t139 -168t83 -239t29 -278.5t-29 -278t-83 -238t-139 -167t-188 -62t-188 62.5t-139 167.5t-83.5 237.5t-29.5 277.5z" />
    <glyph glyph-name="pi" unicode="&#x3c0;" horiz-adv-x="999" 
d="M115 0v1458h770v-1458h-203v1257h-367v-1257h-200z" />
    <glyph glyph-name="rho" unicode="&#x3c1;" horiz-adv-x="897" 
d="M115 0v1458h362q90 0 163 -47t119 -125t70.5 -175t24.5 -202t-24 -202t-69.5 -175t-119 -125t-164.5 -47h-162v-360h-200zM315 559h158q58 0 100.5 51.5t62 129.5t19.5 169q0 90 -21 167.5t-65 129t-104 51.5h-150v-698z" />
    <glyph glyph-name="uni03C2" unicode="&#x3c2;" horiz-adv-x="833" 
d="M74 0v213l293 518l-293 512v215h702v-201h-481l301 -526l-301 -532h481v-199h-702z" />
    <glyph glyph-name="sigma" unicode="&#x3c3;" horiz-adv-x="833" 
d="M74 0v213l293 518l-293 512v215h702v-201h-481l301 -526l-301 -532h481v-199h-702z" />
    <glyph glyph-name="tau" unicode="&#x3c4;" horiz-adv-x="856" 
d="M328 0v1257h-285v201h770v-201h-285v-1257h-200z" />
    <glyph glyph-name="upsilon" unicode="&#x3c5;" horiz-adv-x="833" 
d="M317 0v371l-307 1087h209l199 -758l196 758h209l-307 -1087v-371h-199z" />
    <glyph glyph-name="phi" unicode="&#x3c6;" horiz-adv-x="1048" 
d="M424 0v160q-180 40 -282.5 213t-102.5 440q0 302 131.5 482t353.5 180q221 0 352.5 -180.5t131.5 -481.5q0 -265 -103.5 -439t-281.5 -214v-160h-199zM623 1264v-906q83 42 134.5 159t51.5 296t-51.5 294t-134.5 157zM424 358v906q-81 -42 -132.5 -158.5t-51.5 -292.5
q0 -179 51.5 -296t132.5 -159z" />
    <glyph glyph-name="chi" unicode="&#x3c7;" horiz-adv-x="884" 
d="M557 745l315 -745h-219l-213 524l-213 -524h-217l316 745l-301 713h217l198 -489l199 489h219z" />
    <glyph glyph-name="psi" unicode="&#x3c8;" horiz-adv-x="1091" 
d="M446 0v178q-158 46 -257 228.5t-99 488.5v563h199v-565q0 -195 43.5 -323.5t113.5 -178.5v1067h199v-1067q71 50 114.5 178.5t43.5 323.5v565h198v-563q0 -304 -100 -487.5t-256 -229.5v-178h-199z" />
    <glyph glyph-name="omega" unicode="&#x3c9;" horiz-adv-x="1026" 
d="M57 0v199h189q-84 98 -127 239.5t-43 306.5q0 141 24.5 261.5t66.5 205.5t98 145t119 89t130 29q66 0 129 -29t119 -89t98.5 -145t67 -205.5t24.5 -261.5q0 -166 -43 -307.5t-129 -238.5h189v-199h-414v213q97 68 145 209.5t48 310.5q0 256 -69 397.5t-165 141.5
q-97 0 -166 -141.5t-69 -397.5q0 -168 48 -310t144 -210v-213h-414z" />
    <glyph glyph-name="iotadieresis" unicode="&#x3ca;" horiz-adv-x="432" 
d="M115 0v1458h202v-1458h-202zM-109 1720q0 62 43 106t107 44q61 0 104 -44t43 -106q0 -64 -42.5 -106.5t-104.5 -42.5q-65 0 -107.5 42.5t-42.5 106.5zM389 1571q62 0 106 42.5t44 106.5q0 62 -44.5 106t-105.5 44q-64 0 -105.5 -43.5t-41.5 -106.5q0 -65 41.5 -107
t105.5 -42z" />
    <glyph glyph-name="upsilondieresis" unicode="&#x3cb;" horiz-adv-x="833" 
d="M317 0v371l-307 1087h209l199 -758l196 758h209l-307 -1087v-371h-199zM94 1704q0 62 43 105.5t107 43.5q61 0 104 -43.5t43 -105.5q0 -64 -42.5 -107t-104.5 -43q-64 0 -107 43t-43 107zM592 1554q62 0 105.5 43t43.5 107q0 62 -43.5 105.5t-105.5 43.5
q-64 0 -106 -43.5t-42 -105.5q0 -65 42 -107.5t106 -42.5z" />
    <glyph glyph-name="omicrontonos" unicode="&#x3cc;" horiz-adv-x="1099" 
d="M12 1044v455h203l-47 -455h-156zM618 1274q-56 0 -102.5 -48.5t-75.5 -127.5t-45 -175.5t-16 -195.5q0 -97 15.5 -192t44.5 -175.5t75.5 -130t103.5 -49.5q74 0 130.5 84t83 206.5t26.5 256.5q0 133 -26 255t-82.5 207t-131.5 85zM178 727q0 146 29 279.5t83.5 238.5
t139.5 167.5t188 62.5t188 -62.5t139 -168t83 -239t29 -278.5t-29 -278t-83 -238t-139 -167t-188 -62t-188 62.5t-139 167.5t-83.5 237.5t-29.5 277.5z" />
    <glyph glyph-name="upsilontonos" unicode="&#x3cd;" horiz-adv-x="1058" 
d="M12 1044v455h201l-45 -455h-156zM543 0v371l-307 1087h208l199 -758l197 758h209l-308 -1087v-371h-198z" />
    <glyph glyph-name="omegatonos" unicode="&#x3ce;" horiz-adv-x="1130" 
d="M12 1044v455h203l-47 -455h-156zM162 0v199h188q-84 98 -127 239.5t-43 306.5q0 141 24.5 261.5t66.5 205.5t98 145t119 89t130 29q83 0 160.5 -47t140 -135t100.5 -230.5t38 -317.5q0 -166 -43 -307.5t-129 -238.5h188v-199h-414v213q97 68 145 209.5t48 310.5
q0 256 -69 397.5t-165 141.5q-97 0 -166 -141.5t-69 -397.5q0 -168 48 -310t144 -210v-213h-413z" />
    <glyph glyph-name="uni0401" unicode="&#x401;" horiz-adv-x="827" 
d="M115 0v1458h653v-201h-453v-426h314v-198h-314v-434h453v-199h-653zM123 1694q0 61 41.5 103t103.5 42q60 0 103 -42.5t43 -102.5q0 -62 -42.5 -104t-103.5 -42q-63 0 -104 41.5t-41 104.5zM610 1548q61 0 104.5 42t43.5 104q0 60 -44 102.5t-104 42.5q-62 0 -102.5 -42
t-40.5 -103q0 -63 40 -104.5t103 -41.5z" />
    <glyph glyph-name="uni0402" unicode="&#x402;" horiz-adv-x="1044" 
d="M309 0v1257h-270v201h741v-201h-270v-288q97 65 178 65q85 0 148 -45t97.5 -121t51 -163t16.5 -185q0 -86 -8 -157t-29.5 -141.5t-56.5 -118.5t-93.5 -77.5t-135.5 -29.5h-57v201h53q34 0 58 20.5t37 50.5t20.5 76.5t9.5 85t2 90.5q0 141 -34 227.5t-89 86.5
q-67 0 -168 -82v-752h-201z" />
    <glyph glyph-name="uni0403" unicode="&#x403;" horiz-adv-x="794" 
d="M115 0v1458h651v-201h-449v-1257h-202zM299 1595l227 336l164 -119l-250 -319z" />
    <glyph glyph-name="uni0404" unicode="&#x404;" horiz-adv-x="913" 
d="M483 1475q153 0 253 -131.5t141 -344.5l-199 -34q-17 88 -41.5 154t-65 110.5t-90.5 44.5t-93 -41t-71 -108.5t-46 -143t-25 -154.5h379v-200h-379q7 -83 25.5 -160.5t47.5 -142t71 -103.5t91 -39q38 0 70.5 25.5t56.5 70.5t41 97.5t29 116.5l199 -35
q-20 -103 -53.5 -187.5t-81.5 -150t-114.5 -101.5t-144.5 -36q-103 0 -188 62.5t-139 167.5t-83.5 237.5t-29.5 277.5t29.5 278.5t83.5 239t139 168t188 62.5z" />
    <glyph glyph-name="uni0405" unicode="&#x405;" horiz-adv-x="819" 
d="M33 172l135 145q138 -135 252 -135q74 0 116 58t42 135q0 56 -23 103t-61 78.5t-86.5 64t-99 60t-99 67t-86.5 83.5t-61 111t-23 148q0 163 99 274t251 111q170 0 356 -160l-133 -150q-125 111 -223 111q-72 0 -110.5 -53t-38.5 -133q0 -62 29.5 -111.5t77 -84.5
t104.5 -67.5t114 -72t104.5 -87t77 -122.5t29.5 -170q0 -101 -43.5 -190.5t-126 -146t-186.5 -56.5q-191 0 -387 190z" />
    <glyph glyph-name="uni0406" unicode="&#x406;" horiz-adv-x="432" 
d="M115 0v1458h202v-1458h-202z" />
    <glyph glyph-name="uni0407" unicode="&#x407;" horiz-adv-x="432" 
d="M115 0v1458h202v-1458h-202zM-109 1720q0 62 43 106t107 44q61 0 104 -44t43 -106q0 -64 -42.5 -106.5t-104.5 -42.5q-65 0 -107.5 42.5t-42.5 106.5zM389 1571q62 0 106 42.5t44 106.5q0 62 -44.5 106t-105.5 44q-64 0 -105.5 -43.5t-41.5 -106.5q0 -65 41.5 -107
t105.5 -42z" />
    <glyph glyph-name="uni0408" unicode="&#x408;" horiz-adv-x="747" 
d="M-14 129l153 127q35 -40 61.5 -57t63.5 -17q74 0 124 100.5t50 258.5v917h199v-917q0 -140 -31 -249.5t-84.5 -176t-121 -100t-144.5 -33.5q-80 0 -143 36t-127 111z" />
    <glyph glyph-name="uni0409" unicode="&#x409;" horiz-adv-x="1392" 
d="M1034 909q79 0 142 -38t101.5 -102t58.5 -142.5t20 -163.5q0 -87 -20.5 -169t-59 -148t-100 -106t-136.5 -40h-381v1257h-247q0 -278 -7 -459t-30 -321q-14 -88 -33 -156.5t-52.5 -137.5t-87.5 -123t-128 -91l-88 178q82 48 126.5 130.5t67.5 234.5q16 106 23.5 268.5
t8.5 290.5t1 387h647v-549h174zM1030 199q41 0 70.5 38.5t43 95.5t13.5 122q0 43 -7 86t-21.5 82t-39.5 63.5t-57 24.5h-172v-512h170z" />
    <glyph glyph-name="uni040A" unicode="&#x40a;" horiz-adv-x="1396" 
d="M115 0v1458h200v-627h357v627h200v-627h193q97 0 165.5 -60t99 -149.5t30.5 -195.5q0 -109 -31.5 -204t-99 -158.5t-158.5 -63.5h-399v633h-357v-633h-200zM872 199h189q48 0 74 65t26 152q0 31 -5 65t-15.5 70t-31.5 59t-48 23h-189v-434z" />
    <glyph glyph-name="uni040B" unicode="&#x40b;" horiz-adv-x="1044" 
d="M309 0v1257h-270v201h741v-201h-270v-237q88 45 154 45q56 0 100.5 -11.5t83.5 -41.5t65 -78.5t41 -124.5t15 -178v-631h-199v631q0 33 -0.5 51.5t-3 51t-9.5 52t-18 40t-30 30.5t-45 10q-57 0 -154 -65v-801h-201z" />
    <glyph glyph-name="uni040C" unicode="&#x40c;" horiz-adv-x="923" 
d="M115 0v1458h200v-629h113l246 629h219l-289 -727l289 -731h-219l-246 631h-113v-631h-200zM346 1587l227 336l164 -119l-250 -319z" />
    <glyph glyph-name="uni040E" unicode="&#x40e;" horiz-adv-x="837" 
d="M242 0l80 299l-308 1159h211l199 -809l199 809h211l-390 -1458h-202zM152 1776l170 59q33 -91 55.5 -134.5t44.5 -43.5t46 43.5t60 136.5l166 -63q-112 -293 -270 -293q-41 0 -79 19.5t-65 48t-53 71t-42 78t-33 78.5z" />
    <glyph glyph-name="uni040F" unicode="&#x40f;" horiz-adv-x="989" 
d="M115 0v1458h200v-1259h359v1259h200v-1458h-282v-164h-199v164h-278z" />
    <glyph glyph-name="uni0410" unicode="&#x410;" 
d="M0 0l360 1458h195l360 -1458h-206l-39 160h-428l-39 -160h-203zM295 360h326l-164 723z" />
    <glyph glyph-name="uni0411" unicode="&#x411;" horiz-adv-x="894" 
d="M315 199h185q73 0 113 93t40 222q0 81 -16 151t-50.5 117t-82.5 47h-189v-630zM115 0v1458h663v-201h-463v-227h189q113 0 194 -75.5t117.5 -188.5t36.5 -246q0 -98 -22.5 -189.5t-64 -166t-108.5 -119.5t-149 -45h-393z" />
    <glyph glyph-name="uni0412" unicode="&#x412;" horiz-adv-x="892" 
d="M115 0v1458h389q72 0 131.5 -35t97 -93.5t58 -131t20.5 -149.5q0 -90 -27 -171t-79 -135q62 -55 94 -142.5t32 -186.5q0 -61 -13 -121t-39 -112.5t-62 -93t-86.5 -64t-108.5 -23.5h-407zM315 199h203q55 0 85 65t30 154q0 86 -31 151.5t-84 65.5h-203v-436zM315 831h181
q54 0 84 64.5t30 153.5q0 87 -29 147.5t-85 60.5h-181v-426z" />
    <glyph glyph-name="uni0413" unicode="&#x413;" horiz-adv-x="794" 
d="M115 0v1458h651v-201h-449v-1257h-202z" />
    <glyph glyph-name="uni0414" unicode="&#x414;" horiz-adv-x="964" 
d="M20 -164v363h58q41 92 67 295t33.5 368.5t7.5 308.5v287h650v-1259h100v-363h-199v164h-518v-164h-199zM385 1171q0 -641 -102 -972h354v1058h-252v-86z" />
    <glyph glyph-name="uni0415" unicode="&#x415;" horiz-adv-x="827" 
d="M115 0v1458h653v-201h-453v-426h314v-198h-314v-434h453v-199h-653z" />
    <glyph glyph-name="uni0416" unicode="&#x416;" horiz-adv-x="1366" 
d="M29 0l288 731l-288 727h219l244 -629h90v629h200v-629h92l244 629h219l-288 -727l288 -731h-219l-244 631h-92v-631h-200v631h-90l-244 -631h-219z" />
    <glyph glyph-name="uni0417" unicode="&#x417;" horiz-adv-x="794" 
d="M6 295l180 82q55 -104 102 -149.5t105 -45.5q61 0 105.5 70.5t44.5 175.5q0 83 -42.5 146t-109.5 63h-176v201h168q57 0 98 54t41 144q0 114 -40 177t-103 63q-53 0 -87.5 -37.5t-78.5 -130.5l-182 82q66 145 153.5 215t202.5 70q137 0 235.5 -118t98.5 -313
q0 -203 -121 -296q74 -49 108.5 -137.5t34.5 -182.5q0 -103 -29.5 -188.5t-79 -141t-112 -86t-129.5 -30.5q-124 0 -218.5 76.5t-168.5 236.5z" />
    <glyph glyph-name="uni0418" unicode="&#x418;" horiz-adv-x="1038" 
d="M115 0v1458h196v-1022l400 1022h213v-1458h-195v1032l-399 -1032h-215z" />
    <glyph glyph-name="uni0419" unicode="&#x419;" horiz-adv-x="1038" 
d="M115 0v1458h196v-1022l400 1022h213v-1458h-195v1032l-399 -1032h-215zM244 1776l170 59q33 -91 55.5 -134.5t44.5 -43.5t47 44t60 136l165 -63q-112 -293 -270 -293q-41 0 -79 19.5t-65 48t-53 71t-42 78t-33 78.5z" />
    <glyph glyph-name="uni041A" unicode="&#x41a;" horiz-adv-x="923" 
d="M115 0v1458h200v-629h113l246 629h219l-289 -727l289 -731h-219l-246 631h-113v-631h-200z" />
    <glyph glyph-name="uni041B" unicode="&#x41b;" horiz-adv-x="983" 
d="M215 1458h653v-1458h-198v1257h-256q0 -278 -7 -459t-30 -321q-14 -88 -33 -156.5t-52.5 -137.5t-87.5 -123t-128 -91l-88 178q82 48 126.5 130.5t67.5 234.5q16 106 23.5 268.5t8.5 290.5t1 387z" />
    <glyph glyph-name="uni041C" unicode="&#x41c;" horiz-adv-x="1255" 
d="M115 0v1458h247l263 -1122l264 1122h252v-1458h-199v977l-219 -977h-195l-217 977v-977h-196z" />
    <glyph glyph-name="uni041D" unicode="&#x41d;" horiz-adv-x="1003" 
d="M115 0v1458h200v-627h371v627h203v-1458h-203v633h-371v-633h-200z" />
    <glyph glyph-name="uni041E" unicode="&#x41e;" horiz-adv-x="964" 
d="M483 1274q-56 0 -102.5 -48.5t-75.5 -127.5t-45 -175.5t-16 -195.5q0 -97 15.5 -192t44.5 -175.5t75.5 -130t103.5 -49.5q74 0 130.5 84t83 206.5t26.5 256.5q0 133 -26 255t-82.5 207t-131.5 85zM43 727q0 146 29 279.5t83.5 238.5t139.5 167.5t188 62.5t188 -62.5
t139 -168t83 -239t29 -278.5t-29 -278t-83 -238t-139 -167t-188 -62t-188 62.5t-139 167.5t-83.5 237.5t-29.5 277.5z" />
    <glyph glyph-name="uni041F" unicode="&#x41f;" horiz-adv-x="999" 
d="M115 0v1458h770v-1458h-203v1257h-367v-1257h-200z" />
    <glyph glyph-name="uni0420" unicode="&#x420;" horiz-adv-x="897" 
d="M115 0v1458h362q90 0 163 -47t119 -125t70.5 -175t24.5 -202t-24 -202t-69.5 -175t-119 -125t-164.5 -47h-162v-360h-200zM315 559h158q58 0 100.5 51.5t62 129.5t19.5 169q0 90 -21 167.5t-65 129t-104 51.5h-150v-698z" />
    <glyph glyph-name="uni0421" unicode="&#x421;" horiz-adv-x="907" 
d="M672 492l198 -35q-39 -214 -138 -344.5t-251 -130.5q-103 0 -188 62t-138.5 167t-82.5 237.5t-29 278.5t29 279t82.5 238.5t138.5 168t188 62.5q78 0 143.5 -36.5t113 -102t80.5 -150.5t52 -187l-198 -34q-26 134 -74.5 221.5t-116.5 87.5q-61 0 -109 -58t-74.5 -146.5
t-40 -177.5t-13.5 -165q0 -89 15.5 -182.5t43.5 -175.5t75 -134.5t103 -52.5q48 0 88 46.5t63.5 112.5t39.5 151z" />
    <glyph glyph-name="uni0422" unicode="&#x422;" horiz-adv-x="856" 
d="M328 0v1257h-285v201h770v-201h-285v-1257h-200z" />
    <glyph glyph-name="uni0423" unicode="&#x423;" horiz-adv-x="837" 
d="M242 0l80 299l-308 1159h211l199 -809l199 809h211l-390 -1458h-202z" />
    <glyph glyph-name="uni0424" unicode="&#x424;" horiz-adv-x="1048" 
d="M424 0v160q-180 40 -282.5 213t-102.5 440q0 302 131.5 482t353.5 180q221 0 352.5 -180.5t131.5 -481.5q0 -265 -103.5 -439t-281.5 -214v-160h-199zM623 1264v-906q83 42 134.5 159t51.5 296t-51.5 294t-134.5 157zM424 358v906q-81 -42 -132.5 -158.5t-51.5 -292.5
q0 -179 51.5 -296t132.5 -159z" />
    <glyph glyph-name="uni0425" unicode="&#x425;" horiz-adv-x="884" 
d="M557 745l315 -745h-219l-213 524l-213 -524h-217l316 745l-301 713h217l198 -489l199 489h219z" />
    <glyph glyph-name="uni0426" unicode="&#x426;" horiz-adv-x="991" 
d="M115 0v1458h200v-1259h349v1259h200v-1259h99v-363h-199v164h-649z" />
    <glyph glyph-name="uni0427" unicode="&#x427;" horiz-adv-x="923" 
d="M809 0h-201v477q-117 -86 -223 -86q-69 0 -121.5 20.5t-95 68t-64.5 135t-22 212.5v631h199v-631q0 -34 0.5 -51.5t3 -51t9.5 -52t18.5 -40t31 -31t45.5 -9.5q42 0 105 32.5t114 73.5v760h201v-1458z" />
    <glyph glyph-name="uni0428" unicode="&#x428;" horiz-adv-x="1380" 
d="M115 0v1458h200v-1259h275v1259h198v-1259h279v1259h199v-1458h-1151z" />
    <glyph glyph-name="uni0429" unicode="&#x429;" horiz-adv-x="1394" 
d="M115 0v1458h200v-1259h275v1259h198v-1259h279v1259h199v-1259h100v-363h-199v164h-1052z" />
    <glyph glyph-name="uni042A" unicode="&#x42a;" horiz-adv-x="886" 
d="M139 0v1257h-131v201h332v-471h160q85 0 153.5 -42.5t110 -113t63 -156.5t21.5 -179t-22.5 -180t-64 -158.5t-108.5 -114.5t-149 -43h-365zM340 199h156q50 0 85.5 44t51.5 109.5t16 143.5q0 116 -39.5 204t-109.5 88h-160v-589z" />
    <glyph glyph-name="uni042B" unicode="&#x42b;" horiz-adv-x="1198" 
d="M315 199h146q71 0 108 88t37 209q0 76 -14 140.5t-47 108t-80 43.5h-150v-589zM115 0v1458h200v-471h150q85 0 151.5 -41.5t106.5 -111.5t60 -155t20 -179t-21.5 -182t-61.5 -160t-106 -115t-147 -43h-352zM885 1458v-1458h198v1458h-198z" />
    <glyph glyph-name="uni042C" unicode="&#x42c;" horiz-adv-x="860" 
d="M315 199h156q73 0 113.5 89t40.5 208q0 75 -16 140t-51 108.5t-83 43.5h-160v-589zM115 0v1458h200v-471h160q85 0 153 -41.5t109 -111.5t62.5 -155.5t21.5 -178.5q0 -127 -38 -238.5t-117.5 -186.5t-186.5 -75h-364z" />
    <glyph glyph-name="uni042D" unicode="&#x42d;" horiz-adv-x="913" 
d="M430 1475q103 0 188 -62.5t139 -168t83.5 -239t29.5 -278.5t-29.5 -277.5t-83.5 -237.5t-139 -167.5t-188 -62.5q-104 0 -185.5 64t-131.5 168t-76 243l199 35q60 -310 196 -310q64 0 116.5 68t81.5 166t38 211h-379v200h379q-7 79 -25 154.5t-46.5 143t-71.5 108.5
t-93 41t-90 -44.5t-64.5 -110.5t-41.5 -154l-199 34q20 103 53.5 187.5t81 150t114 102t144.5 36.5z" />
    <glyph glyph-name="uni042E" unicode="&#x42e;" horiz-adv-x="1277" 
d="M803 182q70 0 124.5 83t81.5 206.5t27 259.5q0 134 -26 256.5t-81 205.5t-126 83q-69 0 -119.5 -84t-73 -205t-22.5 -256q0 -105 14 -202t40 -175t68 -125t93 -47zM115 0v1458h198v-629h88q7 132 34.5 246t75.5 205t123.5 143t170.5 52q102 0 185.5 -62.5t136.5 -167.5
t81.5 -237.5t28.5 -276.5q0 -145 -28.5 -278t-81.5 -239t-136.5 -169t-185.5 -63q-95 0 -170.5 52t-123.5 143.5t-75.5 205.5t-34.5 248h-88v-631h-198z" />
    <glyph glyph-name="uni042F" unicode="&#x42f;" horiz-adv-x="921" 
d="M807 1458v-1458h-201v360h-168l-157 -360h-218l187 428q-90 70 -138.5 200.5t-48.5 280.5q0 105 24.5 202t70.5 175t119 125t163 47h367zM444 559h162v698h-153q-60 0 -104.5 -51.5t-65.5 -129t-21 -167.5q0 -91 19.5 -169t62 -129.5t100.5 -51.5z" />
    <glyph glyph-name="uni0430" unicode="&#x430;" 
d="M0 0l360 1458h195l360 -1458h-206l-39 160h-428l-39 -160h-203zM295 360h326l-164 723z" />
    <glyph glyph-name="uni0431" unicode="&#x431;" horiz-adv-x="894" 
d="M315 199h185q73 0 113 93t40 222q0 81 -16 151t-50.5 117t-82.5 47h-189v-630zM115 0v1458h663v-201h-463v-227h189q113 0 194 -75.5t117.5 -188.5t36.5 -246q0 -98 -22.5 -189.5t-64 -166t-108.5 -119.5t-149 -45h-393z" />
    <glyph glyph-name="uni0432" unicode="&#x432;" horiz-adv-x="892" 
d="M115 0v1458h389q72 0 131.5 -35t97 -93.5t58 -131t20.5 -149.5q0 -90 -27 -171t-79 -135q62 -55 94 -142.5t32 -186.5q0 -61 -13 -121t-39 -112.5t-62 -93t-86.5 -64t-108.5 -23.5h-407zM315 199h203q55 0 85 65t30 154q0 86 -31 151.5t-84 65.5h-203v-436zM315 831h181
q54 0 84 64.5t30 153.5q0 87 -29 147.5t-85 60.5h-181v-426z" />
    <glyph glyph-name="uni0433" unicode="&#x433;" horiz-adv-x="794" 
d="M115 0v1458h651v-201h-449v-1257h-202z" />
    <glyph glyph-name="uni0434" unicode="&#x434;" horiz-adv-x="964" 
d="M20 -164v363h58q41 92 67 295t33.5 368.5t7.5 308.5v287h650v-1259h100v-363h-199v164h-518v-164h-199zM385 1171q0 -641 -102 -972h354v1058h-252v-86z" />
    <glyph glyph-name="uni0435" unicode="&#x435;" horiz-adv-x="827" 
d="M115 0v1458h653v-201h-453v-426h314v-198h-314v-434h453v-199h-653z" />
    <glyph glyph-name="uni0436" unicode="&#x436;" horiz-adv-x="1366" 
d="M29 0l288 731l-288 727h219l244 -629h90v629h200v-629h92l244 629h219l-288 -727l288 -731h-219l-244 631h-92v-631h-200v631h-90l-244 -631h-219z" />
    <glyph glyph-name="uni0437" unicode="&#x437;" horiz-adv-x="794" 
d="M6 295l180 82q55 -104 102 -149.5t105 -45.5q61 0 105.5 70.5t44.5 175.5q0 83 -42.5 146t-109.5 63h-176v201h168q57 0 98 54t41 144q0 114 -40 177t-103 63q-53 0 -87.5 -37.5t-78.5 -130.5l-182 82q66 145 153.5 215t202.5 70q137 0 235.5 -118t98.5 -313
q0 -203 -121 -296q74 -49 108.5 -137.5t34.5 -182.5q0 -103 -29.5 -188.5t-79 -141t-112 -86t-129.5 -30.5q-124 0 -218.5 76.5t-168.5 236.5z" />
    <glyph glyph-name="uni0438" unicode="&#x438;" horiz-adv-x="1038" 
d="M115 0v1458h196v-1022l400 1022h213v-1458h-195v1032l-399 -1032h-215z" />
    <glyph glyph-name="uni0439" unicode="&#x439;" horiz-adv-x="1038" 
d="M115 0v1458h196v-1022l400 1022h213v-1458h-195v1032l-399 -1032h-215zM244 1776l170 59q33 -91 55.5 -134.5t44.5 -43.5t47 44t60 136l165 -63q-112 -293 -270 -293q-41 0 -79 19.5t-65 48t-53 71t-42 78t-33 78.5z" />
    <glyph glyph-name="uni043A" unicode="&#x43a;" horiz-adv-x="923" 
d="M115 0v1458h200v-629h113l246 629h219l-289 -727l289 -731h-219l-246 631h-113v-631h-200z" />
    <glyph glyph-name="uni043B" unicode="&#x43b;" horiz-adv-x="983" 
d="M215 1458h653v-1458h-198v1257h-256q0 -278 -7 -459t-30 -321q-14 -88 -33 -156.5t-52.5 -137.5t-87.5 -123t-128 -91l-88 178q82 48 126.5 130.5t67.5 234.5q16 106 23.5 268.5t8.5 290.5t1 387z" />
    <glyph glyph-name="uni043C" unicode="&#x43c;" horiz-adv-x="1255" 
d="M115 0v1458h247l263 -1122l264 1122h252v-1458h-199v977l-219 -977h-195l-217 977v-977h-196z" />
    <glyph glyph-name="uni043D" unicode="&#x43d;" horiz-adv-x="1003" 
d="M115 0v1458h200v-627h371v627h203v-1458h-203v633h-371v-633h-200z" />
    <glyph glyph-name="uni043E" unicode="&#x43e;" horiz-adv-x="964" 
d="M483 1274q-56 0 -102.5 -48.5t-75.5 -127.5t-45 -175.5t-16 -195.5q0 -97 15.5 -192t44.5 -175.5t75.5 -130t103.5 -49.5q74 0 130.5 84t83 206.5t26.5 256.5q0 133 -26 255t-82.5 207t-131.5 85zM43 727q0 146 29 279.5t83.5 238.5t139.5 167.5t188 62.5t188 -62.5
t139 -168t83 -239t29 -278.5t-29 -278t-83 -238t-139 -167t-188 -62t-188 62.5t-139 167.5t-83.5 237.5t-29.5 277.5z" />
    <glyph glyph-name="uni043F" unicode="&#x43f;" horiz-adv-x="999" 
d="M115 0v1458h770v-1458h-203v1257h-367v-1257h-200z" />
    <glyph glyph-name="uni0440" unicode="&#x440;" horiz-adv-x="897" 
d="M115 0v1458h362q90 0 163 -47t119 -125t70.5 -175t24.5 -202t-24 -202t-69.5 -175t-119 -125t-164.5 -47h-162v-360h-200zM315 559h158q58 0 100.5 51.5t62 129.5t19.5 169q0 90 -21 167.5t-65 129t-104 51.5h-150v-698z" />
    <glyph glyph-name="uni0441" unicode="&#x441;" horiz-adv-x="907" 
d="M672 492l198 -35q-39 -214 -138 -344.5t-251 -130.5q-103 0 -188 62t-138.5 167t-82.5 237.5t-29 278.5t29 279t82.5 238.5t138.5 168t188 62.5q78 0 143.5 -36.5t113 -102t80.5 -150.5t52 -187l-198 -34q-26 134 -74.5 221.5t-116.5 87.5q-61 0 -109 -58t-74.5 -146.5
t-40 -177.5t-13.5 -165q0 -89 15.5 -182.5t43.5 -175.5t75 -134.5t103 -52.5q48 0 88 46.5t63.5 112.5t39.5 151z" />
    <glyph glyph-name="uni0442" unicode="&#x442;" horiz-adv-x="856" 
d="M328 0v1257h-285v201h770v-201h-285v-1257h-200z" />
    <glyph glyph-name="uni0443" unicode="&#x443;" horiz-adv-x="837" 
d="M242 0l80 299l-308 1159h211l199 -809l199 809h211l-390 -1458h-202z" />
    <glyph glyph-name="uni0444" unicode="&#x444;" horiz-adv-x="1048" 
d="M424 0v160q-180 40 -282.5 213t-102.5 440q0 302 131.5 482t353.5 180q221 0 352.5 -180.5t131.5 -481.5q0 -265 -103.5 -439t-281.5 -214v-160h-199zM623 1264v-906q83 42 134.5 159t51.5 296t-51.5 294t-134.5 157zM424 358v906q-81 -42 -132.5 -158.5t-51.5 -292.5
q0 -179 51.5 -296t132.5 -159z" />
    <glyph glyph-name="uni0445" unicode="&#x445;" horiz-adv-x="884" 
d="M557 745l315 -745h-219l-213 524l-213 -524h-217l316 745l-301 713h217l198 -489l199 489h219z" />
    <glyph glyph-name="uni0446" unicode="&#x446;" horiz-adv-x="991" 
d="M115 0v1458h200v-1259h349v1259h200v-1259h99v-363h-199v164h-649z" />
    <glyph glyph-name="uni0447" unicode="&#x447;" horiz-adv-x="923" 
d="M809 0h-201v477q-117 -86 -223 -86q-69 0 -121.5 20.5t-95 68t-64.5 135t-22 212.5v631h199v-631q0 -34 0.5 -51.5t3 -51t9.5 -52t18.5 -40t31 -31t45.5 -9.5q42 0 105 32.5t114 73.5v760h201v-1458z" />
    <glyph glyph-name="uni0448" unicode="&#x448;" horiz-adv-x="1380" 
d="M115 0v1458h200v-1259h275v1259h198v-1259h279v1259h199v-1458h-1151z" />
    <glyph glyph-name="uni0449" unicode="&#x449;" horiz-adv-x="1394" 
d="M115 0v1458h200v-1259h275v1259h198v-1259h279v1259h199v-1259h100v-363h-199v164h-1052z" />
    <glyph glyph-name="uni044A" unicode="&#x44a;" horiz-adv-x="886" 
d="M139 0v1257h-131v201h332v-471h160q85 0 153.5 -42.5t110 -113t63 -156.5t21.5 -179t-22.5 -180t-64 -158.5t-108.5 -114.5t-149 -43h-365zM340 199h156q50 0 85.5 44t51.5 109.5t16 143.5q0 116 -39.5 204t-109.5 88h-160v-589z" />
    <glyph glyph-name="uni044B" unicode="&#x44b;" horiz-adv-x="1198" 
d="M315 199h146q71 0 108 88t37 209q0 76 -14 140.5t-47 108t-80 43.5h-150v-589zM115 0v1458h200v-471h150q85 0 151.5 -41.5t106.5 -111.5t60 -155t20 -179t-21.5 -182t-61.5 -160t-106 -115t-147 -43h-352zM885 1458v-1458h198v1458h-198z" />
    <glyph glyph-name="uni044C" unicode="&#x44c;" horiz-adv-x="860" 
d="M315 199h156q73 0 113.5 89t40.5 208q0 75 -16 140t-51 108.5t-83 43.5h-160v-589zM115 0v1458h200v-471h160q85 0 153 -41.5t109 -111.5t62.5 -155.5t21.5 -178.5q0 -127 -38 -238.5t-117.5 -186.5t-186.5 -75h-364z" />
    <glyph glyph-name="uni044D" unicode="&#x44d;" horiz-adv-x="913" 
d="M430 1475q103 0 188 -62.5t139 -168t83.5 -239t29.5 -278.5t-29.5 -277.5t-83.5 -237.5t-139 -167.5t-188 -62.5q-104 0 -185.5 64t-131.5 168t-76 243l199 35q60 -310 196 -310q64 0 116.5 68t81.5 166t38 211h-379v200h379q-7 79 -25 154.5t-46.5 143t-71.5 108.5
t-93 41t-90 -44.5t-64.5 -110.5t-41.5 -154l-199 34q20 103 53.5 187.5t81 150t114 102t144.5 36.5z" />
    <glyph glyph-name="uni044E" unicode="&#x44e;" horiz-adv-x="1277" 
d="M803 182q70 0 124.5 83t81.5 206.5t27 259.5q0 134 -26 256.5t-81 205.5t-126 83q-69 0 -119.5 -84t-73 -205t-22.5 -256q0 -105 14 -202t40 -175t68 -125t93 -47zM115 0v1458h198v-629h88q7 132 34.5 246t75.5 205t123.5 143t170.5 52q102 0 185.5 -62.5t136.5 -167.5
t81.5 -237.5t28.5 -276.5q0 -145 -28.5 -278t-81.5 -239t-136.5 -169t-185.5 -63q-95 0 -170.5 52t-123.5 143.5t-75.5 205.5t-34.5 248h-88v-631h-198z" />
    <glyph glyph-name="uni044F" unicode="&#x44f;" horiz-adv-x="921" 
d="M807 1458v-1458h-201v360h-168l-157 -360h-218l187 428q-90 70 -138.5 200.5t-48.5 280.5q0 105 24.5 202t70.5 175t119 125t163 47h367zM444 559h162v698h-153q-60 0 -104.5 -51.5t-65.5 -129t-21 -167.5q0 -91 19.5 -169t62 -129.5t100.5 -51.5z" />
    <glyph glyph-name="uni0451" unicode="&#x451;" horiz-adv-x="827" 
d="M115 0v1458h653v-201h-453v-426h314v-198h-314v-434h453v-199h-653zM123 1694q0 61 41.5 103t103.5 42q60 0 103 -42.5t43 -102.5q0 -62 -42.5 -104t-103.5 -42q-63 0 -104 41.5t-41 104.5zM610 1548q61 0 104.5 42t43.5 104q0 60 -44 102.5t-104 42.5q-62 0 -102.5 -42
t-40.5 -103q0 -63 40 -104.5t103 -41.5z" />
    <glyph glyph-name="uni0452" unicode="&#x452;" horiz-adv-x="1044" 
d="M309 0v1257h-270v201h741v-201h-270v-288q97 65 178 65q85 0 148 -45t97.5 -121t51 -163t16.5 -185q0 -86 -8 -157t-29.5 -141.5t-56.5 -118.5t-93.5 -77.5t-135.5 -29.5h-57v201h53q34 0 58 20.5t37 50.5t20.5 76.5t9.5 85t2 90.5q0 141 -34 227.5t-89 86.5
q-67 0 -168 -82v-752h-201z" />
    <glyph glyph-name="uni0453" unicode="&#x453;" horiz-adv-x="794" 
d="M115 0v1458h651v-201h-449v-1257h-202zM299 1595l227 336l164 -119l-250 -319z" />
    <glyph glyph-name="uni0454" unicode="&#x454;" horiz-adv-x="913" 
d="M483 1475q153 0 253 -131.5t141 -344.5l-199 -34q-17 88 -41.5 154t-65 110.5t-90.5 44.5t-93 -41t-71 -108.5t-46 -143t-25 -154.5h379v-200h-379q7 -83 25.5 -160.5t47.5 -142t71 -103.5t91 -39q38 0 70.5 25.5t56.5 70.5t41 97.5t29 116.5l199 -35
q-20 -103 -53.5 -187.5t-81.5 -150t-114.5 -101.5t-144.5 -36q-103 0 -188 62.5t-139 167.5t-83.5 237.5t-29.5 277.5t29.5 278.5t83.5 239t139 168t188 62.5z" />
    <glyph glyph-name="uni0455" unicode="&#x455;" horiz-adv-x="819" 
d="M33 172l135 145q138 -135 252 -135q74 0 116 58t42 135q0 56 -23 103t-61 78.5t-86.5 64t-99 60t-99 67t-86.5 83.5t-61 111t-23 148q0 163 99 274t251 111q170 0 356 -160l-133 -150q-125 111 -223 111q-72 0 -110.5 -53t-38.5 -133q0 -62 29.5 -111.5t77 -84.5
t104.5 -67.5t114 -72t104.5 -87t77 -122.5t29.5 -170q0 -101 -43.5 -190.5t-126 -146t-186.5 -56.5q-191 0 -387 190z" />
    <glyph glyph-name="uni0456" unicode="&#x456;" horiz-adv-x="432" 
d="M115 0v1458h202v-1458h-202z" />
    <glyph glyph-name="uni0457" unicode="&#x457;" horiz-adv-x="432" 
d="M115 0v1458h202v-1458h-202zM-109 1720q0 62 43 106t107 44q61 0 104 -44t43 -106q0 -64 -42.5 -106.5t-104.5 -42.5q-65 0 -107.5 42.5t-42.5 106.5zM389 1571q62 0 106 42.5t44 106.5q0 62 -44.5 106t-105.5 44q-64 0 -105.5 -43.5t-41.5 -106.5q0 -65 41.5 -107
t105.5 -42z" />
    <glyph glyph-name="uni0458" unicode="&#x458;" horiz-adv-x="747" 
d="M-14 129l153 127q35 -40 61.5 -57t63.5 -17q74 0 124 100.5t50 258.5v917h199v-917q0 -140 -31 -249.5t-84.5 -176t-121 -100t-144.5 -33.5q-80 0 -143 36t-127 111z" />
    <glyph glyph-name="uni0459" unicode="&#x459;" horiz-adv-x="1392" 
d="M1034 909q79 0 142 -38t101.5 -102t58.5 -142.5t20 -163.5q0 -87 -20.5 -169t-59 -148t-100 -106t-136.5 -40h-381v1257h-247q0 -278 -7 -459t-30 -321q-14 -88 -33 -156.5t-52.5 -137.5t-87.5 -123t-128 -91l-88 178q82 48 126.5 130.5t67.5 234.5q16 106 23.5 268.5
t8.5 290.5t1 387h647v-549h174zM1030 199q41 0 70.5 38.5t43 95.5t13.5 122q0 43 -7 86t-21.5 82t-39.5 63.5t-57 24.5h-172v-512h170z" />
    <glyph glyph-name="uni045A" unicode="&#x45a;" horiz-adv-x="1396" 
d="M115 0v1458h200v-627h357v627h200v-627h193q97 0 165.5 -60t99 -149.5t30.5 -195.5q0 -109 -31.5 -204t-99 -158.5t-158.5 -63.5h-399v633h-357v-633h-200zM872 199h189q48 0 74 65t26 152q0 31 -5 65t-15.5 70t-31.5 59t-48 23h-189v-434z" />
    <glyph glyph-name="uni045B" unicode="&#x45b;" horiz-adv-x="1044" 
d="M309 0v1257h-270v201h741v-201h-270v-237q88 45 154 45q56 0 100.5 -11.5t83.5 -41.5t65 -78.5t41 -124.5t15 -178v-631h-199v631q0 33 -0.5 51.5t-3 51t-9.5 52t-18 40t-30 30.5t-45 10q-57 0 -154 -65v-801h-201z" />
    <glyph glyph-name="uni045C" unicode="&#x45c;" horiz-adv-x="923" 
d="M115 0v1458h200v-629h113l246 629h219l-289 -727l289 -731h-219l-246 631h-113v-631h-200zM346 1587l227 336l164 -119l-250 -319z" />
    <glyph glyph-name="uni045E" unicode="&#x45e;" horiz-adv-x="837" 
d="M242 0l80 299l-308 1159h211l199 -809l199 809h211l-390 -1458h-202zM152 1776l170 59q33 -91 55.5 -134.5t44.5 -43.5t46 43.5t60 136.5l166 -63q-112 -293 -270 -293q-41 0 -79 19.5t-65 48t-53 71t-42 78t-33 78.5z" />
    <glyph glyph-name="uni045F" unicode="&#x45f;" horiz-adv-x="989" 
d="M115 0v1458h200v-1259h359v1259h200v-1458h-282v-164h-199v164h-278z" />
    <glyph glyph-name="uni0490" unicode="&#x490;" horiz-adv-x="796" 
d="M115 0v1458h452v189h199v-390h-451v-1257h-200z" />
    <glyph glyph-name="uni0491" unicode="&#x491;" horiz-adv-x="796" 
d="M115 0v1458h452v189h199v-390h-451v-1257h-200z" />
    <glyph glyph-name="Wgrave" unicode="&#x1e80;" horiz-adv-x="1265" 
d="M1266 1458l-291 -1458h-203l-139 991l-139 -991h-203l-291 1458h211l176 -999l148 999h198l146 -999l176 999h211zM635 1503l-250 320l164 119l227 -336z" />
    <glyph glyph-name="wgrave" unicode="&#x1e81;" horiz-adv-x="1265" 
d="M1266 1458l-291 -1458h-203l-139 991l-139 -991h-203l-291 1458h211l176 -999l148 999h198l146 -999l176 999h211zM635 1503l-250 320l164 119l227 -336z" />
    <glyph glyph-name="Wacute" unicode="&#x1e82;" horiz-adv-x="1265" 
d="M1266 1458l-291 -1458h-203l-139 991l-139 -991h-203l-291 1458h211l176 -999l148 999h198l146 -999l176 999h211zM494 1606l227 336l164 -119l-250 -320z" />
    <glyph glyph-name="wacute" unicode="&#x1e83;" horiz-adv-x="1265" 
d="M1266 1458l-291 -1458h-203l-139 991l-139 -991h-203l-291 1458h211l176 -999l148 999h198l146 -999l176 999h211zM494 1606l227 336l164 -119l-250 -320z" />
    <glyph glyph-name="Wdieresis" unicode="&#x1e84;" horiz-adv-x="1265" 
d="M1266 1458l-291 -1458h-203l-139 991l-139 -991h-203l-291 1458h211l176 -999l148 999h198l146 -999l176 999h211zM809 1554q-64 0 -105.5 42.5t-41.5 107.5q0 62 41.5 105.5t105.5 43.5q61 0 105 -43.5t44 -105.5q0 -64 -43.5 -107t-105.5 -43zM311 1704q0 62 43 105.5
t107 43.5q61 0 104 -43.5t43 -105.5q0 -64 -42.5 -107t-104.5 -43q-65 0 -107.5 43t-42.5 107z" />
    <glyph glyph-name="wdieresis" unicode="&#x1e85;" horiz-adv-x="1265" 
d="M1266 1458l-291 -1458h-203l-139 991l-139 -991h-203l-291 1458h211l176 -999l148 999h198l146 -999l176 999h211zM809 1554q-64 0 -105.5 42.5t-41.5 107.5q0 62 41.5 105.5t105.5 43.5q61 0 105 -43.5t44 -105.5q0 -64 -43.5 -107t-105.5 -43zM311 1704q0 62 43 105.5
t107 43.5q61 0 104 -43.5t43 -105.5q0 -64 -42.5 -107t-104.5 -43q-65 0 -107.5 43t-42.5 107z" />
    <glyph glyph-name="uni1E9E" unicode="&#x1e9e;" horiz-adv-x="1001" 
d="M96 0v651q0 84 5 162.5t18.5 162.5t34.5 155.5t54 136t76.5 109.5t103.5 71.5t132 26.5q138 0 253 -107t171 -293l-242 -248q133 -77 200 -198t67 -273q0 -163 -85.5 -268.5t-232.5 -105.5q-155 0 -313 178l149 133q50 -57 93.5 -84t70.5 -27q57 0 88 44.5t31 123.5
q0 130 -73 228.5t-228 138.5v155l258 254q-35 74 -78.5 112t-107.5 38q-246 0 -246 -625v-651h-199z" />
    <glyph glyph-name="Ygrave" unicode="&#x1ef2;" horiz-adv-x="833" 
d="M317 0v371l-307 1087h209l199 -758l196 758h209l-307 -1087v-371h-199zM418 1503l-250 320l164 119l227 -336z" />
    <glyph glyph-name="ygrave" unicode="&#x1ef3;" horiz-adv-x="833" 
d="M317 0v371l-307 1087h209l199 -758l196 758h209l-307 -1087v-371h-199zM418 1503l-250 320l164 119l227 -336z" />
    <glyph glyph-name="endash" unicode="&#x2013;" horiz-adv-x="641" 
d="M37 621v198h567v-198h-567z" />
    <glyph glyph-name="emdash" unicode="&#x2014;" horiz-adv-x="897" 
d="M37 621v198h823v-198h-823z" />
    <glyph glyph-name="quoteleft" unicode="&#x2018;" horiz-adv-x="342" 
d="M289 1612l71 -142q-106 -55 -165 -106q49 -4 78.5 -38t29.5 -79q0 -58 -40 -101.5t-101 -43.5q-66 0 -105 49t-39 123q0 117 68 193t203 145z" />
    <glyph glyph-name="quoteright" unicode="&#x2019;" horiz-adv-x="339" 
d="M51 1040l-71 142q106 55 165 106q-49 4 -78.5 38t-29.5 79q0 58 40 101.5t101 43.5q66 0 105 -49t39 -123q0 -117 -68 -193t-203 -145z" />
    <glyph glyph-name="quotesinglbase" unicode="&#x201a;" horiz-adv-x="348" 
d="M53 -236l-71 142q106 55 165 106q-49 4 -78.5 38t-29.5 79q0 58 40 101.5t101 43.5q66 0 105 -49t39 -123q0 -117 -68 -193t-203 -145z" />
    <glyph glyph-name="quotedblleft" unicode="&#x201c;" horiz-adv-x="655" 
d="M602 1612l72 -142q-109 -56 -166 -106q49 -4 78.5 -38t29.5 -79q0 -58 -40 -101.5t-101 -43.5q-65 0 -102 48.5t-37 123.5q0 118 66.5 194t199.5 144zM289 1612l71 -142q-106 -55 -165 -106q49 -4 76.5 -38t27.5 -79q0 -58 -38 -101.5t-99 -43.5q-66 0 -105 49t-39 123
q0 117 68 193t203 145z" />
    <glyph glyph-name="quotedblright" unicode="&#x201d;" horiz-adv-x="653" 
d="M51 1040l-71 142q106 55 165 106q-49 4 -78.5 38t-29.5 79q0 58 40 101.5t101 43.5q65 0 102 -48.5t37 -123.5q0 -118 -66.5 -194t-199.5 -144zM293 1182l72 -142q135 69 202.5 145t67.5 193q0 74 -38.5 123t-104.5 49q-61 0 -99.5 -43.5t-38.5 -101.5q0 -45 28 -79
t77 -38q-57 -50 -166 -106z" />
    <glyph glyph-name="quotedblbase" unicode="&#x201e;" horiz-adv-x="661" 
d="M53 -236l-71 142q106 55 165 106q-49 4 -78.5 38t-29.5 79q0 58 40 101.5t101 43.5q65 0 102 -48.5t37 -123.5q0 -118 -66.5 -194t-199.5 -144zM295 -94l72 -142q135 69 202.5 145t67.5 193q0 74 -38.5 123t-104.5 49q-61 0 -99.5 -43.5t-38.5 -101.5q0 -45 28 -79
t77 -38q-57 -50 -166 -106z" />
    <glyph glyph-name="dagger" unicode="&#x2020;" horiz-adv-x="745" 
d="M274 -276v1445h-243v201h243v246h199v-246h242v-201h-242v-1445h-199z" />
    <glyph glyph-name="daggerdbl" unicode="&#x2021;" horiz-adv-x="778" 
d="M289 -276v245h-242v199h242v1001h-242v201h242v246h200v-246h242v-201h-242v-1001h242v-199h-242v-245h-200z" />
    <glyph glyph-name="bullet" unicode="&#x2022;" horiz-adv-x="591" 
d="M29 731q0 110 78 189t188 79t189 -79t79 -189t-79 -188t-189 -78t-188 78t-78 188z" />
    <glyph glyph-name="ellipsis" unicode="&#x2026;" horiz-adv-x="1067" 
d="M35 131q0 62 42.5 106t106.5 44q61 0 103.5 -44t42.5 -106q0 -63 -42 -106t-104 -43q-64 0 -106.5 43t-42.5 106zM532 -18q62 0 105 43t43 106q0 62 -43.5 106t-104.5 44q-62 0 -103.5 -44t-41.5 -106q0 -63 41 -106t104 -43zM883 -18q-64 0 -105 42.5t-41 106.5
q0 63 41.5 106.5t104.5 43.5q61 0 105 -44t44 -106q0 -63 -43.5 -106t-105.5 -43z" />
    <glyph glyph-name="perthousand" unicode="&#x2030;" horiz-adv-x="1691" 
d="M897 -18q-111 0 -180.5 116t-69.5 293q0 179 69 293.5t181 114.5q107 0 176.5 -115.5t69.5 -292.5q0 -176 -69.5 -292.5t-176.5 -116.5zM266 659q-108 0 -177 116t-69 294t69 292t177 114t177 -114t69 -292t-69 -294t-177 -116zM743 1458l-495 -1458h164l503 1458h-172z
M897 168q46 0 73 61t27 162q0 100 -27 160.5t-73 60.5q-50 0 -76 -59.5t-26 -161.5q0 -104 26 -163.5t76 -59.5zM266 844q47 0 74 61.5t27 163.5q0 99 -27 160t-74 61t-73.5 -60.5t-26.5 -160.5q0 -102 26.5 -163.5t73.5 -61.5zM1442 -18q-111 0 -179.5 116t-68.5 293
q0 179 68.5 293.5t179.5 114.5q107 0 176.5 -115.5t69.5 -292.5q0 -176 -69.5 -292.5t-176.5 -116.5zM1442 168q46 0 73 61t27 162q0 100 -27 160.5t-73 60.5q-50 0 -76.5 -59.5t-26.5 -161.5q0 -104 26.5 -163.5t76.5 -59.5z" />
    <glyph glyph-name="guilsinglleft" unicode="&#x2039;" horiz-adv-x="378" 
d="M362 338l-169 -68l-187 461l187 473l169 -67l-165 -406z" />
    <glyph glyph-name="guilsinglright" unicode="&#x203a;" horiz-adv-x="378" 
d="M186 270l-170 68l166 393l-166 406l170 67l187 -473z" />
    <glyph glyph-name="franc" unicode="&#x20a3;" horiz-adv-x="798" 
d="M47 283v194h68v981h653v-201h-451v-428h306v-198h-306v-154h127v-194h-127v-283h-202v283h-68z" />
    <glyph glyph-name="Euro" unicode="&#x20ac;" horiz-adv-x="972" 
d="M537 182q43 0 78 30t58.5 81.5t37.5 98.5t24 100l199 -35q-14 -74 -35 -138.5t-55 -128t-75.5 -108.5t-100.5 -72.5t-127 -27.5q-72 0 -135.5 30.5t-109.5 80.5t-83 118.5t-60 140.5t-36 150h-109v192h90v72h-90v192h109q17 99 50.5 187t84 164t125.5 121t164 45
q84 0 152.5 -41t115 -111.5t77 -150.5t48.5 -173l-199 -34q-10 54 -24 100.5t-37.5 98t-58.5 82t-78 30.5q-46 0 -85 -31t-64.5 -81.5t-42 -101.5t-26.5 -104h275v-192h-297v-72h297v-192h-275q10 -54 26.5 -105.5t42 -102t64.5 -81.5t85 -31z" />
    <glyph glyph-name="uni20BD" unicode="&#x20bd;" horiz-adv-x="868" 
d="M115 0v1458h372q107 0 186.5 -75t117.5 -186.5t38 -238.5q0 -93 -21.5 -178.5t-62.5 -155.5t-109 -111.5t-153 -41.5h-168v-100h246v-191h-246v-180h-200zM315 670h168q71 0 110.5 87t39.5 206t-40.5 206.5t-113.5 87.5h-164v-587z" />
    <glyph glyph-name="uni20BF" unicode="&#x20bf;" horiz-adv-x="886" 
d="M471 -227v227h-100v-227h-170v227h-86v1458h86v232h170v-232h100v232h170v-271q81 -51 125.5 -152t44.5 -218q0 -90 -27 -171t-79 -135q62 -55 94 -142.5t32 -186.5q0 -124 -50.5 -231.5t-139.5 -153.5v-256h-170zM315 199h203q55 0 85 65t30 154q0 86 -31 151.5
t-84 65.5h-203v-436zM315 831h181q54 0 84 64.5t30 153.5q0 87 -29 147.5t-85 60.5h-181v-426z" />
    <glyph glyph-name="afii61352" unicode="&#x2116;" horiz-adv-x="1583" 
d="M1257 625q43 0 68 89t25 240t-25 240.5t-68 89.5t-66.5 -87t-23.5 -243q0 -154 23.5 -241.5t66.5 -87.5zM1257 434q-127 0 -201.5 146.5t-74.5 373.5t74.5 374t201.5 147t205 -148t78 -373t-78 -372.5t-205 -147.5zM115 1458v-1458h196v1022l389 -1022h218v1458h-195
v-1012l-391 1012h-217zM1077 201v-201h365v201h-365z" />
    <glyph glyph-name="trademark" unicode="&#x2122;" horiz-adv-x="880" 
d="M403 905v553h129l91 -340l90 340h129v-553h-111v281l-72 -281h-77l-68 279v-279h-111zM137 905v443h-114v110h342v-110h-115v-443h-113z" />
    <glyph glyph-name="Omega" unicode="&#x2126;" horiz-adv-x="1026" 
d="M57 0v199h189q-84 98 -127 239.5t-43 306.5q0 141 24.5 261.5t66.5 205.5t98 145t119 89t130 29q66 0 129 -29t119 -89t98.5 -145t67 -205.5t24.5 -261.5q0 -166 -43 -307.5t-129 -238.5h189v-199h-414v213q97 68 145 209.5t48 310.5q0 256 -69 397.5t-165 141.5
q-97 0 -166 -141.5t-69 -397.5q0 -168 48 -310t144 -210v-213h-414z" />
    <glyph glyph-name="arrowleft" unicode="&#x2190;" horiz-adv-x="849" 
d="M430 -33l-393 680v164l393 680l170 -100l-334 -562h547v-198h-547l334 -563z" />
    <glyph glyph-name="arrowup" unicode="&#x2191;" horiz-adv-x="1028" 
d="M850 549l-238 436v-897h-196v895l-238 -434l-170 98l418 723h176l418 -723z" />
    <glyph glyph-name="arrowright" unicode="&#x2192;" horiz-adv-x="849" 
d="M250 68l334 563h-547v198h547l-334 562l170 100l393 -680v-164l-393 -680z" />
    <glyph glyph-name="arrowdown" unicode="&#x2193;" horiz-adv-x="1028" 
d="M426 88l-418 723l170 98l238 -434v895h196v-897l238 436l170 -98l-418 -723h-176z" />
    <glyph glyph-name="arrowboth" unicode="&#x2194;" horiz-adv-x="1316" 
d="M887 1491l393 -680v-164l-393 -680l-170 101l334 563h-785l334 -563l-170 -101l-393 680v164l393 680l170 -100l-334 -562h785l-334 562z" />
    <glyph glyph-name="arrowupdn" unicode="&#x2195;" horiz-adv-x="1101" 
d="M45 954l418 723h176l418 -723l-170 -98l-238 436v-1126l238 436l170 -98l-418 -723h-176l-418 723l170 98l238 -434v1122l-238 -434z" />
    <glyph glyph-name="uni2196" unicode="&#x2196;" horiz-adv-x="854" 
d="M217 1284h576v-194h-363l367 -730l-174 -88l-330 670v-768h-195v991z" />
    <glyph glyph-name="uni2197" unicode="&#x2197;" horiz-adv-x="854" 
d="M561 174v768l-330 -670l-174 88l367 730h-363v194h576l119 -119v-991h-195z" />
    <glyph glyph-name="uni2198" unicode="&#x2198;" horiz-adv-x="854" 
d="M637 174h-576v195h363l-367 729l174 88l330 -670v768h195v-991z" />
    <glyph glyph-name="uni2199" unicode="&#x2199;" horiz-adv-x="854" 
d="M793 174h-576l-119 119v991h195v-768l330 670l174 -88l-367 -729h363v-195z" />
    <glyph glyph-name="Delta" unicode="&#x2206;" horiz-adv-x="882" 
d="M256 199h371l-185 966zM571 1458l258 -1259v-199h-776v199l260 1259h258z" />
    <glyph glyph-name="minus" unicode="&#x2212;" horiz-adv-x="684" 
d="M37 621v198h610v-198h-610z" />
    <glyph glyph-name="uni2713" unicode="&#x2713;" horiz-adv-x="952" 
d="M408 403l397 1362l190 -57l-477 -1602h-194l-320 717l184 82z" />
    <glyph glyph-name="uni2715" unicode="&#x2715;" horiz-adv-x="1126" 
d="M682 729l430 -711l-174 -104l-375 627l-377 -627l-174 104l430 711l-430 713l174 104l377 -628l375 628l174 -104z" />
    <glyph glyph-name="uni2717" unicode="&#x2717;" horiz-adv-x="968" 
d="M600 729l354 -586l-168 -102l-303 500l-301 -500l-168 102l353 586l-353 586l168 102l301 -502l303 502l168 -102z" />
    <glyph glyph-name="songer" unicode="&#x2b24;" horiz-adv-x="2035" 
d="M1513 1853q108 -65 191.5 -191t132 -282.5t72.5 -322t24 -332.5q0 -166 -24 -331.5t-72.5 -322.5t-132 -283t-191.5 -191q-106 -64 -237 -64q-133 0 -266 31q-194 45 -363.5 153.5t-292.5 260t-193.5 345.5t-70.5 402t70.5 402t193.5 345.5t292.5 260.5t363.5 155
q139 29 266 29q131 0 237 -64z" />
    <glyph glyph-name="commaaccent" unicode="&#xf6c3;" horiz-adv-x="387" 
d="M219 -66q68 0 105.5 -52t37.5 -130q0 -95 -51.5 -164t-152.5 -131l-88 133q102 61 123 84q-49 1 -81 34t-32 81q0 58 38.5 101.5t100.5 43.5z" />
    <glyph glyph-name="uni0414.ss02" horiz-adv-x="993" 
d="M29 0v199h102l227 1259h281l223 -1259h105v-199h-938zM340 199h319l-159 981z" />
    <glyph glyph-name="uni041B.ss02" 
d="M0 0l344 1458h229l342 -1458h-210l-246 1139l-246 -1139h-213z" />
    <glyph glyph-name="uni0426.ss02" horiz-adv-x="1028" 
d="M115 0v1458h200v-1259h349v1259h200v-1259h146v-199h-895z" />
    <glyph glyph-name="uni0429.ss02" horiz-adv-x="1429" 
d="M115 0v1458h200v-1259h275v1259h198v-1259h279v1259h199v-1259h147v-199h-1298z" />
    <glyph glyph-name="zero.slash" horiz-adv-x="888" 
d="M449 -18q-120 0 -207 98t-130.5 265.5t-43.5 385.5q0 215 43 381.5t130.5 264.5t207.5 98q118 0 203 -98t127 -264t42 -382q0 -218 -42 -385.5t-127 -265.5t-203 -98zM295 352l199 916q-14 8 -45 8q-89 0 -138 -150.5t-49 -394.5q0 -221 33 -379zM594 1116l-199 -919
q26 -15 54 -15q85 0 133.5 153.5t48.5 395.5q0 246 -37 385z" />
    <glyph glyph-name="K.ss02" horiz-adv-x="923" 
d="M115 0v1458h200v-629h113l246 629h219l-289 -727l289 -731h-219l-246 631h-113v-631h-200z" />
    <glyph glyph-name="uni0414.loclBGR" horiz-adv-x="978" 
d="M20 -164v363h103l227 1259h281l223 -1259h104v-363h-198v164h-541v-164h-199zM332 199h319l-159 981z" />
    <glyph glyph-name="uni041B.loclBGR" 
d="M0 0l344 1458h229l342 -1458h-210l-246 1139l-246 -1139h-213z" />
    <glyph glyph-name="uni0424.loclBGR" horiz-adv-x="1050" 
d="M43 731q0 290 105.5 486.5t277.5 242.5v162h199v-162q172 -47 277.5 -243t105.5 -486q0 -293 -105.5 -490.5t-277.5 -244.5v-160h-199v160q-173 46 -278 243.5t-105 491.5zM809 731q0 154 -46.5 311.5t-137.5 219.5v-1069q91 62 137.5 221.5t46.5 316.5zM242 731
q0 -157 46.5 -316t137.5 -222v1067q-91 -62 -137.5 -218.5t-46.5 -310.5z" />
    <glyph glyph-name="Kcommaaccent.ss02" horiz-adv-x="923" 
d="M115 0v1458h200v-629h113l246 629h219l-289 -727l289 -731h-219l-246 631h-113v-631h-200zM483 -63q-62 0 -100.5 -44t-38.5 -102q0 -48 32 -81t81 -34q-21 -23 -123 -84l88 -133q101 62 153 131t52 164q0 77 -38 130t-106 53z" />
    <glyph glyph-name="brevecyr" horiz-adv-x="587" 
d="M23 1800l170 60q33 -92 55.5 -135.5t44.5 -43.5t46 44t60 137l166 -64q-112 -293 -270 -293q-41 0 -79 19.5t-65 48t-53 71t-42 78t-33 78.5z" />
    <glyph glyph-name="zero.tf" horiz-adv-x="845" 
d="M426 182q82 0 128 153t46 396q0 242 -46 393.5t-128 151.5q-58 0 -98.5 -71t-60 -192t-19.5 -282q0 -247 46 -398t132 -151zM45 731q0 215 43 381.5t130.5 264.5t207.5 98q118 0 203.5 -98t127.5 -264.5t42 -381.5q0 -218 -42 -385.5t-127.5 -265.5t-203.5 -98
q-120 0 -207 98t-130.5 265.5t-43.5 385.5z" />
    <glyph glyph-name="zeroslash.tf" horiz-adv-x="845" 
d="M426 -18q-120 0 -207 98t-130.5 265.5t-43.5 385.5q0 215 43 381.5t130.5 264.5t207.5 98q118 0 203.5 -98t127.5 -264.5t42 -381.5q0 -218 -42 -385.5t-127.5 -265.5t-203.5 -98zM272 352l199 916q-14 8 -45 8q-88 0 -137 -150t-49 -395q0 -225 32 -379zM571 1116
l-198 -919q26 -15 53 -15q85 0 133.5 153.5t48.5 395.5q0 246 -37 385z" />
    <glyph glyph-name="one.tf" horiz-adv-x="845" 
d="M522 199h215v-199h-628v199h215v1028l-103 -68l-108 168l204 131h205v-1259z" />
    <glyph glyph-name="two.tf" horiz-adv-x="845" 
d="M94 0v227q59 43 119.5 99t123 130.5t110 152.5t78 168.5t30.5 174.5q0 150 -37 237t-94 87q-61 0 -101.5 -90t-48.5 -242l-198 14q8 128 39.5 228.5t79.5 162.5t106 94t123 32q137 0 234.5 -144t97.5 -393q0 -104 -34.5 -209.5t-95.5 -200t-132 -175t-156 -154.5h410
v-199h-654z" />
    <glyph glyph-name="three.tf" horiz-adv-x="845" 
d="M49 385l197 33q9 -58 27.5 -110t51 -89t70.5 -37q69 0 110.5 67.5t41.5 156.5t-41 157t-109 68h-96v198h94q62 0 104 65t42 157t-43 158.5t-107 66.5q-40 0 -85.5 -61.5t-63.5 -159.5l-197 35q19 103 58 181t88.5 120.5t99.5 63t100 20.5q152 0 250 -123.5t98 -300.5
q0 -95 -32 -178t-89 -140q130 -120 130 -327q0 -182 -102.5 -303t-250.5 -121q-38 0 -73.5 8.5t-79.5 35t-79 69t-66.5 117.5t-47.5 173z" />
    <glyph glyph-name="four.tf" horiz-adv-x="845" 
d="M39 260v225l407 973h224v-999h129v-199h-129v-260h-199v260h-432zM229 459h242v610z" />
    <glyph glyph-name="five.tf" horiz-adv-x="845" 
d="M84 438l199 15q23 -271 131 -271q68 0 107.5 95.5t39.5 224.5q0 84 -12.5 155t-40.5 118.5t-66 47.5q-35 0 -70.5 -41t-60.5 -118l-186 63l37 731h563v-201h-389l-14 -303q72 68 143 68q93 0 161.5 -73.5t101 -186.5t32.5 -246q0 -102 -22 -196t-64 -170.5t-109 -122
t-151 -45.5q-69 0 -124 27.5t-90.5 71.5t-60.5 105.5t-37.5 122.5t-17.5 129z" />
    <glyph glyph-name="six.tf" horiz-adv-x="845" 
d="M279 1243l106 258l184 -71l-139 -357q62 11 125 -22t114.5 -100t84 -176t32.5 -240q0 -105 -23 -202.5t-66.5 -176.5t-114.5 -126.5t-158 -47.5q-115 0 -199 81.5t-123 204.5t-39 267q0 115 37.5 241t178.5 467zM424 182q51 0 88 53t54.5 131.5t17.5 168.5
q0 144 -42.5 247t-117.5 103q-50 0 -86.5 -51t-54 -129t-17.5 -170t17.5 -170.5t54 -130.5t86.5 -52z" />
    <glyph glyph-name="seven.tf" horiz-adv-x="845" 
d="M195 10l346 1247h-463v201h667v-201l-354 -1300z" />
    <glyph glyph-name="eight.tf" horiz-adv-x="845" 
d="M199 741q-109 97 -109 299q0 189 96 312t236 123q141 0 236.5 -122.5t95.5 -312.5q0 -203 -111 -303q61 -56 97 -135.5t36 -167.5q0 -199 -102 -325.5t-252 -126.5q-151 0 -251.5 126t-100.5 326q0 93 34 172.5t95 134.5zM422 182q61 0 107 71.5t46 166.5
q0 107 -44.5 171t-108.5 64q-65 0 -109.5 -64t-44.5 -171q0 -96 45.5 -167t108.5 -71zM422 834q59 0 97 57.5t38 157.5q0 101 -38.5 162t-96.5 61t-96.5 -65t-38.5 -158q0 -101 37.5 -158t97.5 -57z" />
    <glyph glyph-name="nine.tf" horiz-adv-x="845" 
d="M276 27l140 356q-62 -11 -125 22t-115 100t-84.5 176.5t-32.5 240.5q0 142 39 265t123.5 205.5t200.5 82.5q87 0 157 -47t113.5 -125.5t66.5 -176t23 -204.5q0 -116 -37.5 -243t-177.5 -466l-106 -258zM422 573q50 0 86.5 51.5t54 129.5t17.5 170t-17.5 170.5t-54 130
t-86.5 51.5q-51 0 -88 -52.5t-54.5 -131t-17.5 -168.5q0 -144 42.5 -247.5t117.5 -103.5z" />
    <glyph glyph-name="dollar.tf" horiz-adv-x="845" 
d="M326 -227v227q-136 32 -279 172l135 145q138 -135 254 -135q72 0 114 58.5t42 134.5q0 56 -23 103t-61 78.5t-86.5 64t-99 60t-99 67t-86.5 83.5t-61 111t-23 148q0 140 76 244t197 130v226h180v-230q117 -29 254 -145l-133 -150q-125 111 -224 111q-72 0 -110.5 -53
t-38.5 -133q0 -62 29.5 -111.5t77.5 -84.5t105.5 -67.5t114.5 -72t105 -87t77.5 -122.5t29.5 -170q0 -138 -79 -248.5t-208 -136.5v-217h-180z" />
    <glyph glyph-name="cent.tf" horiz-adv-x="845" 
d="M352 -211v215q-107 49 -163 191t-56 321q0 177 56 319t163 191v217h172v-207q84 -22 134 -94t79 -186l-180 -47q-14 55 -28 88.5t-29.5 46.5t-24.5 15.5t-26 2.5q-60 0 -96 -104.5t-36 -243.5q0 -140 35 -243t97 -103q15 0 24.5 3t25 16t30 47t28.5 88l180 -52
q-65 -237 -213 -276v-205h-172z" />
    <glyph glyph-name="sterling.tf" horiz-adv-x="845" 
d="M346 584q-18 -280 -59 -385h479v-199h-694v199q39 62 51 122.5t20 198.5l21 322q40 633 338 633q160 0 332 -240l-162 -115q-54 75 -100.5 115.5t-71.5 40.5t-46.5 -28.5t-36 -78t-25.5 -101.5t-18 -113.5t-10.5 -99.5t-5.5 -73h275v-198h-287z" />
    <glyph glyph-name="yen.tf" horiz-adv-x="845" 
d="M119 184v191h203l-19 67h-184v193h131l-236 823h207l201 -721l199 721h206l-235 -823h135v-193h-188l-21 -67h209v-191h-207v-184h-198v184h-203z" />
    <glyph glyph-name="space.tf" horiz-adv-x="845" 
 />
    <glyph glyph-name="uni041B.ss03" horiz-adv-x="1011" 
d="M-33 68l101 172q59 -41 75 -41q18 0 32 22t28 86t23 171t14.5 287.5t5.5 424.5v268h651v-1458h-199v1257h-254v-67q0 -155 -1 -251t-4.5 -224.5t-12 -207t-22 -171t-35 -146.5t-51 -103t-70 -70t-92.5 -21q-88 0 -189 72z" />
    <glyph glyph-name="uni0409.ss03" horiz-adv-x="1423" 
d="M-33 68l101 172q59 -41 75 -41q18 0 32 22t28 86t23 171t14.5 287.5t5.5 424.5v268h645v-549h174q79 0 142 -38t101 -102.5t58 -142.5t20 -163q0 -118 -34.5 -221.5t-108 -172.5t-172.5 -69h-381v1257h-246v-67q0 -155 -1 -251t-4.5 -224.5t-12 -207t-22 -171t-35 -146.5
t-51 -103t-70 -70t-92.5 -21q-88 0 -189 72zM891 199h170q41 0 70.5 38.5t43 95.5t13.5 122q0 43 -7 86t-21.5 82t-39.5 63.5t-57 24.5h-172v-512z" />
    <glyph glyph-name="dieresiscyr" horiz-adv-x="692" 
d="M29 1700q0 61 41.5 103t103.5 42q60 0 102.5 -42.5t42.5 -102.5q0 -62 -42 -104t-103 -42q-63 0 -104 41.5t-41 104.5zM516 1554q61 0 104.5 42t43.5 104q0 60 -44 102.5t-104 42.5q-62 0 -102.5 -42t-40.5 -103q0 -63 40 -104.5t103 -41.5z" />
    <glyph glyph-name="uni0409.ss02" horiz-adv-x="1310" 
d="M954 909q79 0 142 -38t101.5 -102t58.5 -142.5t20 -163.5q0 -118 -34.5 -221.5t-108 -172.5t-172.5 -69h-256l-246 1139l-246 -1139h-213l344 1458h229l127 -549h254zM950 199q41 0 70.5 38.5t43 95.5t13.5 122q0 43 -7 86t-21.5 82t-39.5 63.5t-57 24.5h-204l120 -512
h82z" />
    <glyph glyph-name="uni041A.ss02" horiz-adv-x="942" 
d="M115 0v1458h200v-891l373 891h223l-346 -796l340 -662h-225l-227 444l-138 -274v-170h-200z" />
    <glyph glyph-name="uni040C.ss02" horiz-adv-x="942" 
d="M115 0v1458h200v-891l373 891h223l-346 -796l340 -662h-225l-227 444l-138 -274v-170h-200zM352 1587l228 336l163 -119l-249 -319z" />
    <glyph glyph-name="uni0416.ss02" horiz-adv-x="1394" 
d="M598 592v866h201v-866l342 866h225l-330 -796l324 -662h-225l-213 430l-123 -242v-188h-201v188l-125 242l-211 -430h-227l325 662l-331 796h225z" />
    </font>
</defs>
</svg>
