<?xml version="1.0" standalone="no"?>
<!DOCTYPE svg PUBLIC "-//W3C//DTD SVG 1.1//EN" "http://www.w3.org/Graphics/SVG/1.1/DTD/svg11.dtd" >
<svg xmlns="http://www.w3.org/2000/svg" xmlns:xlink="http://www.w3.org/1999/xlink" version="1.1">
<metadata>
Created by FontForge 20170731 at Thu Nov 26 10:01:35 2020
 By Aleksey,,,
Copyright (c) 2018 by Alexander Pravdin. All rights reserved.
</metadata>
<defs>
<font id="SONGERCondensed-Medium" horiz-adv-x="839" >
  <font-face 
    font-family="SONGER Condensed"
    font-weight="500"
    font-stretch="condensed"
    units-per-em="2048"
    panose-1="2 0 6 6 2 0 0 2 0 4"
    ascent="1638"
    descent="-410"
    x-height="1458"
    cap-height="1458"
    bbox="-121 -578 1931 2021"
    underline-thickness="233"
    underline-position="-492"
    unicode-range="U+0020-F6C3"
  />
<missing-glyph horiz-adv-x="958" 
d="M100 0v1458h758v-1458h-758zM254 154h453v1151h-453v-1151z" />
    <glyph glyph-name=".notdef" horiz-adv-x="958" 
d="M100 0v1458h758v-1458h-758zM254 154h453v1151h-453v-1151z" />
    <glyph glyph-name=".null" horiz-adv-x="0" 
 />
    <glyph glyph-name="nonmarkingreturn" horiz-adv-x="682" 
 />
    <glyph glyph-name="space" unicode=" " horiz-adv-x="542" 
 />
    <glyph glyph-name="exclam" unicode="!" horiz-adv-x="458" 
d="M111 408v1050h235v-1050h-235zM61 150q0 69 49 118t119 49t119 -49t49 -118q0 -70 -48.5 -119t-119.5 -49t-119.5 49t-48.5 119z" />
    <glyph glyph-name="quotedbl" unicode="&#x22;" horiz-adv-x="579" 
d="M41 1010v495h217v-495h-217zM322 1010v495h217v-495h-217z" />
    <glyph glyph-name="numbersign" unicode="#" horiz-adv-x="919" 
d="M100 0l27 281h-115v229h133l35 432h-98v225h119l24 291h215l-22 -291h157l29 291h215l-24 -291h114v-225h-133l-37 -432h99v-229h-123l-23 -281h-215l25 281h-162l-25 -281h-215zM362 510h162l35 432h-164z" />
    <glyph glyph-name="dollar" unicode="$" horiz-adv-x="837" 
d="M303 -221v227q-135 40 -272 174l159 172q138 -135 242 -135q59 0 94 50.5t35 115.5q0 57 -29 104t-75 80.5t-101.5 66.5t-111 72t-101.5 87t-75 121t-29 165q0 138 73 243t191 136v225h217v-231q116 -34 252 -149l-158 -177q-127 113 -215 113q-60 0 -92.5 -45.5
t-32.5 -114.5q0 -44 18 -81.5t48.5 -65.5t69.5 -54t83 -51.5t87.5 -53.5t82.5 -65t69.5 -81.5t48.5 -107t18 -136.5q0 -135 -77 -246t-202 -143v-215h-217z" />
    <glyph glyph-name="percent" unicode="%" horiz-adv-x="1169" 
d="M993 391q0 94 -24 150.5t-64 56.5q-42 0 -65 -56t-23 -151t23 -151t65 -56q40 0 64 56.5t24 150.5zM653 391q0 172 71.5 291t180.5 119t180.5 -116t71.5 -294q0 -177 -71.5 -293t-180.5 -116q-113 0 -182.5 115t-69.5 294zM262 1272q-42 0 -65 -56.5t-23 -150.5
q0 -96 23 -152.5t65 -56.5q39 0 62.5 57.5t23.5 151.5q0 93 -23.5 150t-62.5 57zM262 655q-112 0 -182 116t-70 294q0 180 70 295t182 115q110 0 180 -115.5t70 -294.5q0 -172 -72 -291t-178 -119zM240 0l495 1458h193q-252 -737 -502 -1458h-186z" />
    <glyph glyph-name="ampersand" unicode="&#x26;" horiz-adv-x="952" 
d="M305 428q0 -83 41 -148t107 -65q67 0 108 64.5t41 148.5q0 81 -38.5 141t-110.5 60q-71 0 -109.5 -59.5t-38.5 -141.5zM631 854h315v-236h-176q61 -97 61 -208q0 -79 -24.5 -154t-70 -136.5t-119.5 -99.5t-164 -38t-163.5 38t-119.5 101t-71 141t-25 162q0 96 31.5 183
t95.5 143q-127 103 -127 305q0 79 23.5 153t67 134t112 96.5t151.5 36.5q156 0 320 -132l-148 -186q-106 82 -170 82q-55 0 -89 -51.5t-34 -122.5q0 -41 14 -75t47.5 -66.5t100.5 -51t162 -18.5z" />
    <glyph glyph-name="quotesingle" unicode="'" horiz-adv-x="317" 
d="M41 1010v495h235v-495h-235z" />
    <glyph glyph-name="parenleft" unicode="(" horiz-adv-x="477" 
d="M494 -252l-215 -86q-91 233 -139 508t-48 557q0 281 48 556.5t139 512.5l215 -88q-168 -422 -168 -981q0 -261 43 -514.5t125 -464.5z" />
    <glyph glyph-name="parenright" unicode=")" horiz-adv-x="477" 
d="M197 -338l-213 86q168 431 168 979q0 564 -170 981l215 88q92 -233 139 -509t47 -560q0 -599 -186 -1065z" />
    <glyph glyph-name="asterisk" unicode="*" horiz-adv-x="641" 
d="M53 1354l187 -68l-4 197h167q0 -33 -1 -98.5t-1 -98.5q54 21 185 64l49 -154q-158 -50 -189 -59q20 -26 59.5 -77.5t59.5 -76.5l-133 -94q-20 26 -57 79.5t-56 80.5q-69 -99 -114 -160q-131 94 -133 96q106 131 123 152l-193 61z" />
    <glyph glyph-name="plus" unicode="+" horiz-adv-x="706" 
d="M238 403v203h-201v225h201v205h229v-205h203v-225h-203v-203h-229z" />
    <glyph glyph-name="comma" unicode="," horiz-adv-x="411" 
d="M98 -285l-106 168q122 76 164 129q-52 5 -87.5 42.5t-35.5 92.5q0 70 49 121t123 51q83 0 128.5 -63.5t45.5 -159.5q0 -118 -75 -209.5t-206 -171.5z" />
    <glyph glyph-name="hyphen" unicode="-" horiz-adv-x="491" 
d="M35 604v234h422v-234h-422z" />
    <glyph glyph-name="period" unicode="." horiz-adv-x="403" 
d="M33 152q0 70 48.5 118.5t121.5 48.5q69 0 118.5 -49t49.5 -118q0 -72 -49.5 -121t-118.5 -49q-73 0 -121.5 49t-48.5 121z" />
    <glyph glyph-name="slash" unicode="/" horiz-adv-x="591" 
d="M0 -43l362 1542h230l-359 -1542h-233z" />
    <glyph glyph-name="zero" unicode="0" horiz-adv-x="903" 
d="M455 217q70 0 108.5 143t38.5 369q0 227 -38.5 368.5t-108.5 141.5q-74 0 -113 -139.5t-39 -370.5q0 -230 39 -371t113 -141zM455 -18q-124 0 -213.5 97.5t-134 265t-44.5 384.5q0 215 44.5 382t134 265.5t213.5 98.5q122 0 209.5 -98.5t130.5 -265t43 -382.5
q0 -218 -43 -384.5t-130.5 -264.5t-209.5 -98z" />
    <glyph glyph-name="one" unicode="1" horiz-adv-x="561" 
d="M139 1114q-20 34 -59.5 101.5t-59.5 101.5l228 141h223v-1458h-235v1176z" />
    <glyph glyph-name="two" unicode="2" horiz-adv-x="827" 
d="M80 0v252q82 59 159 136.5t143.5 169t107 195.5t40.5 199q0 133 -30 210t-78 77q-51 0 -85 -86.5t-40 -232.5l-236 18q18 262 118.5 399.5t242.5 137.5q140 0 241 -145t101 -390q0 -359 -383 -707h375v-233h-676z" />
    <glyph glyph-name="three" unicode="3" horiz-adv-x="841" 
d="M57 403l232 39q15 -95 49 -160t80 -65q58 0 91.5 60.5t33.5 136.5q0 81 -33 140.5t-94 59.5h-94v234h92q56 0 89.5 55t33.5 139q0 78 -34.5 137.5t-88.5 59.5q-34 0 -72.5 -58t-56.5 -155l-232 41q20 109 61.5 191.5t92.5 128t102.5 67t102.5 21.5q104 0 186.5 -59
t127 -157.5t44.5 -216.5q0 -191 -115 -309q123 -116 123 -319q0 -186 -105 -309t-257 -123q-38 0 -75 9t-82 36.5t-82 72t-70 122.5t-50 181z" />
    <glyph glyph-name="four" unicode="4" horiz-adv-x="903" 
d="M61 252v248l379 958h277v-973h127v-233h-127v-252h-232v252h-424zM279 485h208v562z" />
    <glyph glyph-name="five" unicode="5" horiz-adv-x="817" 
d="M455 1026q89 0 159 -70.5t106 -185t36 -250.5q0 -139 -38.5 -258.5t-122 -199.5t-198.5 -80q-87 0 -152.5 42t-103 114t-57.5 150t-27 169q38 2 116 8t116 8q22 -256 110 -256q57 0 90 88t33 207q0 122 -25.5 204.5t-72.5 82.5q-31 0 -62 -39.5t-55 -114.5l-211 70
l37 743h590v-237h-387q-1 -37 -3 -79t-5 -93.5t-4 -79.5q64 57 131 57z" />
    <glyph glyph-name="six" unicode="6" horiz-adv-x="847" 
d="M264 1235l111 270l217 -84l-137 -344q137 5 239.5 -147.5t102.5 -390.5q0 -106 -24 -204t-69 -177.5t-117.5 -127.5t-162.5 -48t-162 47t-117 126.5t-68.5 177.5t-23.5 206q0 113 38 240.5t173 455.5zM424 217q43 0 74.5 48.5t46 120.5t14.5 155q0 84 -14.5 155
t-46 117.5t-74.5 46.5q-42 0 -73.5 -46.5t-46.5 -118t-15 -154.5q0 -84 15 -156.5t46.5 -120t73.5 -47.5z" />
    <glyph glyph-name="seven" unicode="7" horiz-adv-x="804" 
d="M166 16q138 490 336 1205h-441v237h689v-221l-351 -1282z" />
    <glyph glyph-name="eight" unicode="8" horiz-adv-x="851" 
d="M309 1038q0 -90 32.5 -140t84.5 -50q49 0 82 50.5t33 139.5t-33.5 144t-81.5 55q-51 0 -84 -57.5t-33 -141.5zM293 428q0 -86 39 -149.5t94 -63.5q52 0 91.5 64t39.5 149q0 95 -38 153t-93 58q-57 0 -95 -57.5t-38 -153.5zM184 739q-43 39 -72.5 113.5t-29.5 177.5
q0 194 99 319.5t245 125.5q145 0 243.5 -125.5t98.5 -319.5q0 -104 -30 -179.5t-74 -113.5q51 -48 89 -126.5t38 -168.5q0 -204 -105 -332t-260 -128q-156 0 -260.5 128t-104.5 332q0 93 36.5 172.5t86.5 124.5z" />
    <glyph glyph-name="nine" unicode="9" horiz-adv-x="847" 
d="M424 1239q-43 0 -75 -47.5t-47 -119t-15 -154.5q0 -132 36.5 -227t100.5 -95q42 0 73 47t45.5 118.5t14.5 156.5q0 84 -14.5 155.5t-45.5 118.5t-73 47zM584 219l-111 -268q-33 13 -105.5 39.5t-111.5 42.5l135 346q-137 0 -238.5 148.5t-101.5 387.5q0 106 23.5 204
t68.5 178t118 128t163 48q89 0 161 -47.5t117 -126.5t69 -178t24 -206q0 -113 -38 -240.5t-173 -455.5z" />
    <glyph glyph-name="colon" unicode=":" horiz-adv-x="397" 
d="M31 152q0 70 48.5 118.5t119.5 48.5q69 0 118.5 -49t49.5 -118q0 -72 -49.5 -121t-118.5 -49q-72 0 -120 49t-48 121zM31 924q0 70 48.5 119t119.5 49q69 0 118.5 -49.5t49.5 -118.5q0 -73 -49 -121.5t-119 -48.5q-72 0 -120 48.5t-48 121.5z" />
    <glyph glyph-name="semicolon" unicode=";" horiz-adv-x="397" 
d="M31 924q0 69 49 118.5t119 49.5q69 0 118.5 -49.5t49.5 -118.5q0 -73 -49 -121.5t-119 -48.5q-71 0 -119.5 48.5t-48.5 121.5zM94 -283l-106 166q119 74 164 129q-52 5 -87.5 42.5t-35.5 92.5q0 70 49 121t121 51q84 0 129 -63.5t45 -159.5q0 -116 -74.5 -207.5
t-204.5 -171.5z" />
    <glyph glyph-name="less" unicode="&#x3c;" horiz-adv-x="649" 
d="M6 633v184l608 459v-287l-358 -262l358 -254v-287z" />
    <glyph glyph-name="equal" unicode="=" horiz-adv-x="663" 
d="M616 446h-571v228h571v-228zM616 768h-571v227h571v-227z" />
    <glyph glyph-name="greater" unicode="&#x3e;" horiz-adv-x="649" 
d="M35 186v287l358 254l-358 262v287l608 -459v-184z" />
    <glyph glyph-name="question" unicode="?" horiz-adv-x="815" 
d="M379 317q69 0 118.5 -49t49.5 -118q0 -70 -49.5 -119t-118.5 -49q-72 0 -120 48.5t-48 119.5q0 70 48.5 118.5t119.5 48.5zM412 1475q156 0 259 -157.5t103 -391.5q0 -90 -15 -168t-48.5 -146.5t-83.5 -117t-125.5 -76t-169.5 -27.5h-96v234h96q207 0 207 299
q0 131 -39 225t-88 94q-15 0 -25 -2.5t-30.5 -22t-36.5 -55.5t-36 -111.5t-36 -181.5l-234 39q10 65 20.5 116.5t28 112.5t38 107t51 91t67 74t86 47t107.5 18z" />
    <glyph glyph-name="at" unicode="@" horiz-adv-x="1353" 
d="M655 1040q-62 0 -95.5 -102t-33.5 -248t33.5 -249t95.5 -103q52 0 88.5 99.5t36.5 252.5q0 154 -36.5 252t-88.5 98zM776 1217h199v-805q0 -152 35 -152q43 0 74.5 129.5t31.5 304.5q0 228 -53 411.5t-154 291.5t-233 108q-90 0 -170.5 -59.5t-140 -164.5t-94.5 -257.5
t-35 -329.5q0 -230 56.5 -414t157.5 -286.5t226 -102.5q95 0 188 93l127 -146l-2 -2q-15 -16 -33 -31.5t-59 -44t-99 -46t-122 -17.5q-133 0 -249.5 71.5t-201.5 199.5t-134.5 316t-49.5 410q0 176 31.5 333.5t89 279.5t135.5 211t175 135.5t204 46.5q108 0 205.5 -46.5
t175.5 -135.5t135.5 -211t89 -279t31.5 -334q0 -133 -18 -241.5t-47.5 -181t-70 -121.5t-84.5 -71t-92 -22q-70 0 -123 50.5t-79 140.5q-66 -121 -181 -121q-93 0 -161 83t-99.5 209t-31.5 275t34 275t99.5 203t148.5 77q96 0 168 -119v87z" />
    <glyph glyph-name="A" unicode="A" horiz-adv-x="946" 
d="M0 0l358 1458h230l358 -1458h-241l-35 145h-398l-34 -145h-238zM330 379h284l-143 655z" />
    <glyph glyph-name="B" unicode="B" horiz-adv-x="913" 
d="M109 0v1458h405q98 0 172 -62t109.5 -156t35.5 -202q0 -190 -100 -295q60 -55 90.5 -140t30.5 -181q0 -63 -13.5 -123.5t-40.5 -114.5t-65 -95t-90.5 -65t-112.5 -24h-421zM344 233h178q47 0 73 57.5t26 137.5q0 76 -27.5 134.5t-71.5 58.5h-178v-388zM344 842h156
q45 0 71.5 58t26.5 136t-25 132.5t-73 54.5h-156v-381z" />
    <glyph glyph-name="C" unicode="C" horiz-adv-x="925" 
d="M487 217q32 0 60 25t49 69t35.5 93t25.5 106q117 -18 234 -39q-40 -224 -143.5 -356.5t-258.5 -132.5q-107 0 -193.5 62.5t-140.5 168t-83 237.5t-29 277q0 144 29 276.5t83 238.5t140.5 169.5t193.5 63.5q155 0 258.5 -133.5t143.5 -358.5q-117 -18 -234 -39
q-25 125 -68 209t-102 84q-51 0 -93 -51.5t-66 -131t-36.5 -164.5t-12.5 -163q0 -119 23 -233t72 -195.5t113 -81.5z" />
    <glyph glyph-name="D" unicode="D" horiz-adv-x="946" 
d="M109 0v1458h356q105 0 190 -62.5t138 -166t81.5 -232t28.5 -266.5q0 -141 -28 -270t-80.5 -233t-138 -166t-191.5 -62h-356zM346 233h125q61 0 106.5 73.5t67 184.5t21.5 240q0 126 -21.5 235.5t-67 182t-106.5 72.5h-125v-988z" />
    <glyph glyph-name="E" unicode="E" 
d="M109 0v1458h669v-237h-432v-373h299v-234h-299v-381h432v-233h-669z" />
    <glyph glyph-name="F" unicode="F" horiz-adv-x="815" 
d="M109 0v1458h671v-237h-432v-375h291v-236h-291v-610h-239z" />
    <glyph glyph-name="G" unicode="G" horiz-adv-x="978" 
d="M557 580v235h375q4 -58 4 -90q0 -113 -17.5 -220.5t-53.5 -202.5t-88 -166t-125.5 -112.5t-159.5 -41.5q-106 0 -193 62.5t-142 167.5t-84.5 237.5t-29.5 277.5q0 146 29.5 279t84.5 238.5t142 168t193 62.5q135 0 233.5 -100.5t157.5 -272.5l-221 -74q-31 96 -75 152.5
t-98 56.5q-64 0 -113.5 -78t-73 -193t-23.5 -241q0 -138 27 -254t76 -186t110 -70q73 0 132.5 101t82.5 264h-150z" />
    <glyph glyph-name="H" unicode="H" horiz-adv-x="1011" 
d="M109 0v1458h237v-608h318v608h239v-1458h-239v614h-318v-614h-237z" />
    <glyph glyph-name="I" unicode="I" horiz-adv-x="456" 
d="M109 0v1458h239v-1458h-239z" />
    <glyph glyph-name="J" unicode="J" horiz-adv-x="768" 
d="M-16 145l178 152q36 -41 61.5 -59.5t59.5 -18.5q63 0 103 89.5t40 246.5v903h236v-909q0 -147 -31 -259t-86 -177.5t-123.5 -98t-149.5 -32.5q-82 0 -150 40t-138 123z" />
    <glyph glyph-name="K" unicode="K" horiz-adv-x="970" 
d="M109 0v1458h237v-852l330 852h264l-332 -811l324 -647h-266l-201 410l-119 -244v-166h-237z" />
    <glyph glyph-name="L" unicode="L" horiz-adv-x="823" 
d="M109 0v1458h237v-1225h440v-233h-677z" />
    <glyph glyph-name="M" unicode="M" horiz-adv-x="1275" 
d="M109 0v1458h278l248 -1046l252 1046h280v-1458h-231v899q-191 -860 -199 -899h-200l-199 899v-899h-229z" />
    <glyph glyph-name="N" unicode="N" horiz-adv-x="1054" 
d="M944 1458v-1458h-246l-358 938v-938h-231v1458h245l361 -936v936h229z" />
    <glyph glyph-name="O" unicode="O" horiz-adv-x="983" 
d="M705 727q0 125 -24 239.5t-74 192.5t-115 78t-115 -78t-74 -192.5t-24 -239.5q0 -123 23.5 -237.5t73.5 -194.5t116 -80q64 0 114 77.5t74.5 192.5t24.5 242zM43 727q0 198 50 365t154 275t245 108q106 0 192.5 -63t141.5 -168.5t84.5 -238.5t29.5 -278
q0 -116 -18.5 -224.5t-56 -203t-90 -165.5t-125.5 -111.5t-158 -40.5q-106 0 -193 62.5t-142 167.5t-84.5 237.5t-29.5 277.5z" />
    <glyph glyph-name="P" unicode="P" horiz-adv-x="913" 
d="M109 0v1458h374q93 0 168 -48t122 -127.5t72 -179t25 -206.5q0 -108 -25 -207t-71.5 -178.5t-122.5 -126.5t-170 -47h-135v-338h-237zM346 571h133q75 0 116.5 96.5t41.5 229.5q0 84 -18 156t-56.5 120t-91.5 48h-125v-650z" />
    <glyph glyph-name="Q" unicode="Q" horiz-adv-x="983" 
d="M279 727q0 -123 23 -237.5t72.5 -194.5t114.5 -80t116 77.5t75.5 192.5t24.5 242q0 125 -24 239.5t-74 192.5t-115 78t-115 -78t-74 -192.5t-24 -239.5zM911 25q-44 -35 -180 -148q-21 23 -60 69t-59 68q-66 -32 -125 -32q-106 0 -192 62.5t-140 167.5t-83 237.5
t-29 277.5q0 198 50 365t154 275t245 108q106 0 192.5 -63t141.5 -168.5t84.5 -238.5t29.5 -278q0 -164 -37 -310.5t-108 -252.5q8 -10 51 -60.5t65 -78.5z" />
    <glyph glyph-name="R" unicode="R" horiz-adv-x="940" 
d="M109 0v1458h376q93 0 168.5 -48t122.5 -127.5t72.5 -179t25.5 -206.5q0 -147 -45 -272t-129 -197l185 -428h-256l-146 338h-139v-338h-235zM344 571h137q75 0 116.5 96.5t41.5 229.5q0 131 -43.5 227.5t-120.5 96.5h-131v-650z" />
    <glyph glyph-name="S" unicode="S" 
d="M29 180q14 15 72 76.5t89 95.5q138 -135 240 -135q61 0 96 49.5t35 116.5q0 45 -18 83.5t-48 67.5t-69 55.5t-82.5 52.5t-87 54t-82.5 65t-69 80t-48 104.5t-18 133.5q0 168 101.5 282t258.5 114q172 0 373 -172l-158 -179q-129 115 -215 115q-60 0 -92.5 -45.5
t-32.5 -114.5q0 -56 29 -101.5t75 -78t101.5 -64.5t111.5 -71.5t102 -87.5t75 -123.5t29 -169.5q0 -103 -45 -194t-130 -149t-192 -58q-193 0 -401 198z" />
    <glyph glyph-name="T" unicode="T" horiz-adv-x="876" 
d="M319 0v1221h-276v237h791v-237h-277v-1221h-238z" />
    <glyph glyph-name="U" unicode="U" horiz-adv-x="997" 
d="M104 522v936h236v-936q0 -146 46 -225.5t110 -79.5q65 0 114 78.5t49 226.5v936h234v-936q0 -134 -34 -240t-91 -170t-126.5 -97t-145.5 -33q-77 0 -146 33.5t-124.5 97.5t-88.5 170t-33 239z" />
    <glyph glyph-name="V" unicode="V" horiz-adv-x="923" 
d="M328 0l-328 1458h244l217 -1030l219 1030h242l-324 -1458h-270z" />
    <glyph glyph-name="W" unicode="W" horiz-adv-x="1302" 
d="M1303 1458l-297 -1458h-224q-39 256 -131 899l-133 -899h-223l-295 1458h246q129 -734 166 -936l135 936h209l135 -936l164 936h248z" />
    <glyph glyph-name="X" unicode="X" horiz-adv-x="923" 
d="M317 743l-294 715h256l180 -465l180 465h258l-293 -715q54 -134 157.5 -384.5t147.5 -358.5h-256l-194 494q-122 -317 -193 -494h-256z" />
    <glyph glyph-name="Y" unicode="Y" horiz-adv-x="864" 
d="M315 0v354l-305 1104h246l176 -708l176 708h246l-305 -1104v-354h-234z" />
    <glyph glyph-name="Z" unicode="Z" horiz-adv-x="862" 
d="M68 0v217l458 1004h-458v237h727v-221l-459 -1004h459v-233h-727z" />
    <glyph glyph-name="bracketleft" unicode="[" horiz-adv-x="495" 
d="M96 -229v1915h379v-236h-145v-1442h145v-237h-379z" />
    <glyph glyph-name="backslash" unicode="\" horiz-adv-x="591" 
d="M358 -43l-358 1542h229l363 -1542h-234z" />
    <glyph glyph-name="bracketright" unicode="]" horiz-adv-x="495" 
d="M20 -229v237h146v1442h-146v236h379v-1915h-379z" />
    <glyph glyph-name="asciicircum" unicode="^" horiz-adv-x="677" 
d="M10 713l226 745h202l230 -745h-222l-108 432l-105 -432h-223z" />
    <glyph glyph-name="underscore" unicode="_" horiz-adv-x="811" 
d="M0 -371v236h811v-236h-811z" />
    <glyph glyph-name="grave" unicode="`" horiz-adv-x="471" 
d="M287 1497l-264 340l184 133l242 -356z" />
    <glyph glyph-name="a" unicode="a" horiz-adv-x="946" 
d="M0 0l358 1458h230l358 -1458h-241l-35 145h-398l-34 -145h-238zM330 379h284l-143 655z" />
    <glyph glyph-name="b" unicode="b" horiz-adv-x="913" 
d="M109 0v1458h405q98 0 172 -62t109.5 -156t35.5 -202q0 -190 -100 -295q60 -55 90.5 -140t30.5 -181q0 -63 -13.5 -123.5t-40.5 -114.5t-65 -95t-90.5 -65t-112.5 -24h-421zM344 233h178q47 0 73 57.5t26 137.5q0 76 -27.5 134.5t-71.5 58.5h-178v-388zM344 842h156
q45 0 71.5 58t26.5 136t-25 132.5t-73 54.5h-156v-381z" />
    <glyph glyph-name="c" unicode="c" horiz-adv-x="925" 
d="M487 217q32 0 60 25t49 69t35.5 93t25.5 106q117 -18 234 -39q-40 -224 -143.5 -356.5t-258.5 -132.5q-107 0 -193.5 62.5t-140.5 168t-83 237.5t-29 277q0 144 29 276.5t83 238.5t140.5 169.5t193.5 63.5q155 0 258.5 -133.5t143.5 -358.5q-117 -18 -234 -39
q-25 125 -68 209t-102 84q-51 0 -93 -51.5t-66 -131t-36.5 -164.5t-12.5 -163q0 -119 23 -233t72 -195.5t113 -81.5z" />
    <glyph glyph-name="d" unicode="d" horiz-adv-x="946" 
d="M109 0v1458h356q105 0 190 -62.5t138 -166t81.5 -232t28.5 -266.5q0 -141 -28 -270t-80.5 -233t-138 -166t-191.5 -62h-356zM346 233h125q61 0 106.5 73.5t67 184.5t21.5 240q0 126 -21.5 235.5t-67 182t-106.5 72.5h-125v-988z" />
    <glyph glyph-name="e" unicode="e" 
d="M109 0v1458h669v-237h-432v-373h299v-234h-299v-381h432v-233h-669z" />
    <glyph glyph-name="f" unicode="f" horiz-adv-x="815" 
d="M109 0v1458h671v-237h-432v-375h291v-236h-291v-610h-239z" />
    <glyph glyph-name="g" unicode="g" horiz-adv-x="978" 
d="M557 580v235h375q4 -58 4 -90q0 -113 -17.5 -220.5t-53.5 -202.5t-88 -166t-125.5 -112.5t-159.5 -41.5q-106 0 -193 62.5t-142 167.5t-84.5 237.5t-29.5 277.5q0 146 29.5 279t84.5 238.5t142 168t193 62.5q135 0 233.5 -100.5t157.5 -272.5l-221 -74q-31 96 -75 152.5
t-98 56.5q-64 0 -113.5 -78t-73 -193t-23.5 -241q0 -138 27 -254t76 -186t110 -70q73 0 132.5 101t82.5 264h-150z" />
    <glyph glyph-name="h" unicode="h" horiz-adv-x="1011" 
d="M109 0v1458h237v-608h318v608h239v-1458h-239v614h-318v-614h-237z" />
    <glyph glyph-name="i" unicode="i" horiz-adv-x="456" 
d="M109 0v1458h239v-1458h-239z" />
    <glyph glyph-name="j" unicode="j" horiz-adv-x="768" 
d="M-16 145l178 152q36 -41 61.5 -59.5t59.5 -18.5q63 0 103 89.5t40 246.5v903h236v-909q0 -147 -31 -259t-86 -177.5t-123.5 -98t-149.5 -32.5q-82 0 -150 40t-138 123z" />
    <glyph glyph-name="k" unicode="k" horiz-adv-x="968" 
d="M106 0v1458h238v-852l330 852h264l-332 -811l324 -647h-266l-201 410l-119 -244v-166h-238z" />
    <glyph glyph-name="l" unicode="l" horiz-adv-x="823" 
d="M109 0v1458h237v-1225h440v-233h-677z" />
    <glyph glyph-name="m" unicode="m" horiz-adv-x="1275" 
d="M109 0v1458h278l248 -1046l252 1046h280v-1458h-231v899q-191 -860 -199 -899h-200l-199 899v-899h-229z" />
    <glyph glyph-name="n" unicode="n" horiz-adv-x="1054" 
d="M944 1458v-1458h-246l-358 938v-938h-231v1458h245l361 -936v936h229z" />
    <glyph glyph-name="o" unicode="o" horiz-adv-x="983" 
d="M705 727q0 125 -24 239.5t-74 192.5t-115 78t-115 -78t-74 -192.5t-24 -239.5q0 -123 23.5 -237.5t73.5 -194.5t116 -80q64 0 114 77.5t74.5 192.5t24.5 242zM43 727q0 198 50 365t154 275t245 108q106 0 192.5 -63t141.5 -168.5t84.5 -238.5t29.5 -278
q0 -116 -18.5 -224.5t-56 -203t-90 -165.5t-125.5 -111.5t-158 -40.5q-106 0 -193 62.5t-142 167.5t-84.5 237.5t-29.5 277.5z" />
    <glyph glyph-name="p" unicode="p" horiz-adv-x="913" 
d="M109 0v1458h374q93 0 168 -48t122 -127.5t72 -179t25 -206.5q0 -108 -25 -207t-71.5 -178.5t-122.5 -126.5t-170 -47h-135v-338h-237zM346 571h133q75 0 116.5 96.5t41.5 229.5q0 84 -18 156t-56.5 120t-91.5 48h-125v-650z" />
    <glyph glyph-name="q" unicode="q" horiz-adv-x="983" 
d="M279 727q0 -123 23 -237.5t72.5 -194.5t114.5 -80t116 77.5t75.5 192.5t24.5 242q0 125 -24 239.5t-74 192.5t-115 78t-115 -78t-74 -192.5t-24 -239.5zM911 25q-44 -35 -180 -148q-21 23 -60 69t-59 68q-66 -32 -125 -32q-106 0 -192 62.5t-140 167.5t-83 237.5
t-29 277.5q0 198 50 365t154 275t245 108q106 0 192.5 -63t141.5 -168.5t84.5 -238.5t29.5 -278q0 -164 -37 -310.5t-108 -252.5q8 -10 51 -60.5t65 -78.5z" />
    <glyph glyph-name="r" unicode="r" horiz-adv-x="940" 
d="M109 0v1458h376q93 0 168.5 -48t122.5 -127.5t72.5 -179t25.5 -206.5q0 -147 -45 -272t-129 -197l185 -428h-256l-146 338h-139v-338h-235zM344 571h137q75 0 116.5 96.5t41.5 229.5q0 131 -43.5 227.5t-120.5 96.5h-131v-650z" />
    <glyph glyph-name="s" unicode="s" 
d="M29 180q14 15 72 76.5t89 95.5q138 -135 240 -135q61 0 96 49.5t35 116.5q0 45 -18 83.5t-48 67.5t-69 55.5t-82.5 52.5t-87 54t-82.5 65t-69 80t-48 104.5t-18 133.5q0 168 101.5 282t258.5 114q172 0 373 -172l-158 -179q-129 115 -215 115q-60 0 -92.5 -45.5
t-32.5 -114.5q0 -56 29 -101.5t75 -78t101.5 -64.5t111.5 -71.5t102 -87.5t75 -123.5t29 -169.5q0 -103 -45 -194t-130 -149t-192 -58q-193 0 -401 198z" />
    <glyph glyph-name="t" unicode="t" horiz-adv-x="876" 
d="M319 0v1221h-276v237h791v-237h-277v-1221h-238z" />
    <glyph glyph-name="u" unicode="u" horiz-adv-x="997" 
d="M104 522v936h236v-936q0 -146 46 -225.5t110 -79.5q65 0 114 78.5t49 226.5v936h234v-936q0 -134 -34 -240t-91 -170t-126.5 -97t-145.5 -33q-77 0 -146 33.5t-124.5 97.5t-88.5 170t-33 239z" />
    <glyph glyph-name="v" unicode="v" horiz-adv-x="923" 
d="M328 0l-328 1458h244l217 -1030l219 1030h242l-324 -1458h-270z" />
    <glyph glyph-name="w" unicode="w" horiz-adv-x="1302" 
d="M1303 1458l-297 -1458h-224q-39 256 -131 899l-133 -899h-223l-295 1458h246q129 -734 166 -936l135 936h209l135 -936l164 936h248z" />
    <glyph glyph-name="x" unicode="x" horiz-adv-x="923" 
d="M317 743l-294 715h256l180 -465l180 465h258l-293 -715q54 -134 157.5 -384.5t147.5 -358.5h-256l-194 494q-122 -317 -193 -494h-256z" />
    <glyph glyph-name="y" unicode="y" horiz-adv-x="864" 
d="M315 0v354l-305 1104h246l176 -708l176 708h246l-305 -1104v-354h-234z" />
    <glyph glyph-name="z" unicode="z" horiz-adv-x="862" 
d="M68 0v217l458 1004h-458v237h727v-221l-459 -1004h459v-233h-727z" />
    <glyph glyph-name="braceleft" unicode="{" horiz-adv-x="532" 
d="M145 184v125q0 171 -22.5 237t-99.5 66v232q28 0 48 7.5t33.5 26.5t21.5 41.5t12.5 62t5.5 78t1 99.5v64q0 70 1.5 115.5t7.5 96t16.5 81.5t29 62.5t45 49t64.5 32.5t87.5 20.5t113.5 5.5v-236q-32 0 -53 -2.5t-36 -11t-23 -17.5t-12.5 -29.5t-5.5 -39.5t-1 -54v-194
q0 -155 -25.5 -233t-89.5 -142q64 -64 89.5 -142t25.5 -233v-194q0 -42 1.5 -61t7.5 -41t20.5 -30.5t38.5 -14t63 -5.5v-233q-83 0 -142.5 9.5t-100 33t-64.5 53t-37 80.5t-17 102.5t-4 132.5z" />
    <glyph glyph-name="bar" unicode="|" horiz-adv-x="460" 
d="M113 -276v1892h235v-1892h-235z" />
    <glyph glyph-name="braceright" unicode="}" horiz-adv-x="532" 
d="M385 309v-125q0 -81 -4 -132.5t-17 -102.5t-37 -80.5t-64.5 -53t-100 -33t-142.5 -9.5v233q38 0 61.5 5t38.5 13t21.5 29t8.5 42.5t2 62.5v194q0 156 25 233.5t89 141.5q-64 64 -89 141.5t-25 233.5v194q0 50 -2.5 73t-15 45t-39.5 29t-75 7v236q64 0 113.5 -5.5
t87.5 -20.5t64.5 -32.5t45 -49t29 -62.5t16.5 -81.5t7.5 -96t1.5 -115.5v-64q0 -61 1.5 -99.5t5.5 -78t12 -62t21.5 -41.5t34 -26.5t48.5 -7.5v-232q-77 0 -100 -66.5t-23 -236.5z" />
    <glyph glyph-name="asciitilde" unicode="~" horiz-adv-x="778" 
d="M209 553l-199 104q138 254 273 254q47 0 83.5 -22.5t53.5 -50t34.5 -50t30.5 -22.5q29 0 84 113l199 -105q-136 -252 -270 -252q-47 0 -84 22.5t-55 49.5t-36 49.5t-32 22.5q-31 0 -82 -113z" />
    <glyph glyph-name="exclamdown" unicode="&#xa1;" horiz-adv-x="458" 
d="M348 1051v-1051h-235v1051h235zM397 1309q0 -69 -49 -118.5t-119 -49.5t-119 49.5t-49 118.5q0 71 48.5 119.5t119.5 48.5t119.5 -48.5t48.5 -119.5z" />
    <glyph glyph-name="cent" unicode="&#xa2;" horiz-adv-x="720" 
d="M473 -205h-209v217q-104 55 -159.5 196.5t-55.5 313.5q0 171 55.5 312t159.5 194v221h209v-213q81 -26 130 -100t79 -191l-213 -55q-24 90 -45.5 118t-48.5 28q-49 0 -78 -99t-29 -217q0 -120 28 -217.5t79 -97.5q11 0 20.5 4.5t22 18t26 45t25.5 79.5q148 -42 213 -59
q-31 -113 -80.5 -187.5t-128.5 -101.5v-209z" />
    <glyph glyph-name="sterling" unicode="&#xa3;" horiz-adv-x="813" 
d="M270 233h475v-233h-725v227q37 60 49.5 118.5t20.5 184.5l19 306q4 65 10 120.5t18 123t29 121t44 106.5t61.5 88.5t83.5 57.5t108 22q175 0 348 -267l-195 -129q-50 74 -92 117t-63 43q-91 0 -121 -438h266v-236h-282q-18 -232 -54 -332z" />
    <glyph glyph-name="currency" unicode="&#xa4;" horiz-adv-x="872" 
d="M20 131l123 221q-39 121 -39 271t39 274l-125 219l205 117l62 -107q65 68 151 68q81 0 150 -66l59 105l205 -117l-125 -217q41 -131 41 -276q0 -144 -41 -275l125 -217l-205 -115l-59 101q-67 -64 -150 -64t-151 68l-60 -105zM436 270q38 0 66 52t40.5 130.5t12.5 170.5
t-12.5 170.5t-40.5 131t-66 52.5q-57 0 -90 -105.5t-33 -250.5q0 -142 33 -246.5t90 -104.5z" />
    <glyph glyph-name="yen" unicode="&#xa5;" horiz-adv-x="864" 
d="M119 178v207h190l-16 61h-174v211h117l-226 801h244l178 -663l178 663h244l-227 -801h123v-211h-181l-18 -61h199v-207h-201v-178h-236v178h-194z" />
    <glyph glyph-name="brokenbar" unicode="&#xa6;" horiz-adv-x="460" 
d="M113 803v813h235v-813h-235zM113 -276v815h235v-815h-235z" />
    <glyph glyph-name="section" unicode="&#xa7;" horiz-adv-x="847" 
d="M61 -131l158 178q127 -113 215 -113q60 0 92.5 45t32.5 113q0 57 -29 102.5t-75 78.5t-101.5 65t-111 71.5t-101.5 87t-75 122.5t-29 169q0 172 113 285q-99 117 -99 285q0 166 102 279.5t259 113.5q170 0 372 -170l-155 -178q-132 115 -217 115q-61 0 -93 -45.5
t-32 -114.5q0 -57 29 -102.5t75 -78t101.5 -65t111 -71.5t101.5 -87t75 -123t29 -169q0 -174 -115 -289q101 -116 101 -279q0 -167 -102.5 -281t-258.5 -114q-171 0 -373 170zM514 514q61 43 61 143q0 23 -3.5 43.5t-13.5 39t-18 33t-26.5 31.5t-29 27.5t-35.5 27.5
t-36.5 24.5t-40.5 25.5t-40 25q-64 -46 -64 -139q0 -48 15 -86t54.5 -73t64.5 -52t86 -54q17 -11 26 -16z" />
    <glyph glyph-name="dieresis" unicode="&#xa8;" horiz-adv-x="727" 
d="M182 1548q-69 0 -115.5 47.5t-46.5 116.5q0 67 47 114.5t115 47.5q66 0 112 -48t46 -114q0 -69 -46 -116.5t-112 -47.5zM545 1548q-68 0 -113 47t-45 117q0 67 45 114.5t113 47.5q66 0 114 -48t48 -114q0 -68 -47.5 -116t-114.5 -48z" />
    <glyph glyph-name="copyright" unicode="&#xa9;" horiz-adv-x="1134" 
d="M702 575l146 -24q-30 -149 -98 -236.5t-179 -87.5q-96 0 -165 72.5t-101.5 184.5t-32.5 247q0 132 32.5 243t102 183t164.5 72q109 0 178.5 -88t100.5 -236l-148 -26q-40 198 -135 198q-44 0 -77.5 -53t-49.5 -130.5t-16 -162.5q0 -87 16 -166t49.5 -132.5t77.5 -53.5
q90 0 135 196zM565 123q76 0 141 37t109.5 97.5t76 140t46 164t14.5 169.5q0 84 -14.5 167.5t-46 162t-76 139t-109.5 97t-141 36.5q-96 0 -172 -55t-120.5 -144.5t-67.5 -193t-23 -209.5q0 -107 23 -210.5t67.5 -194.5t120.5 -147t172 -56zM565 -18q-122 0 -222.5 63
t-165 168.5t-99.5 239t-35 278.5q0 144 35 277t99.5 237.5t165 167t222.5 62.5q123 0 224.5 -63t166.5 -168t100.5 -237.5t35.5 -275.5q0 -115 -22 -224t-66.5 -204t-106.5 -167t-147.5 -113t-184.5 -41z" />
    <glyph glyph-name="guillemotleft" unicode="&#xab;" horiz-adv-x="706" 
d="M494 262l-195 467q34 87 99.5 248t93.5 233l196 -77q-17 -40 -78.5 -183t-93.5 -221l172 -389q-149 -61 -194 -78zM203 246q-106 257 -195 483q46 122 195 496q51 -22 194 -76q-52 -123 -174 -420q85 -203 174 -405q-23 -10 -90.5 -36.5t-103.5 -41.5z" />
    <glyph glyph-name="registered" unicode="&#xae;" horiz-adv-x="794" 
d="M397 815q124 0 202.5 76t78.5 201q0 127 -76.5 203.5t-204.5 76.5q-125 0 -202.5 -77t-77.5 -203q0 -125 77.5 -201t202.5 -76zM12 1092q0 161 112.5 272t272.5 111t271.5 -111t111.5 -272q0 -157 -112 -269t-271 -112t-272 112t-113 269zM332 1087h88q55 0 55 41
q0 50 -59 50h-84v-91zM221 895v395h199q71 0 121.5 -47t50.5 -117q0 -81 -78 -122l74 -109h-137l-56 84h-63v-84h-111z" />
    <glyph glyph-name="macron" unicode="&#xaf;" horiz-adv-x="536" 
d="M23 1573v217h491v-217h-491z" />
    <glyph glyph-name="degree" unicode="&#xb0;" horiz-adv-x="589" 
d="M295 920q-119 0 -199 80t-80 198q0 117 80.5 197t198.5 80t198 -80t80 -197q0 -118 -79.5 -198t-198.5 -80zM295 1085q46 0 78.5 33.5t32.5 79.5t-32.5 78.5t-78.5 32.5t-78.5 -32.5t-32.5 -78.5t32.5 -79.5t78.5 -33.5z" />
    <glyph glyph-name="plusminus" unicode="&#xb1;" horiz-adv-x="716" 
d="M45 713v225h197v205h229v-205h199v-225h-199v-201h-229v201h-197zM670 209h-625v229h625v-229z" />
    <glyph glyph-name="acute" unicode="&#xb4;" horiz-adv-x="471" 
d="M23 1614l241 356l185 -133l-265 -340z" />
    <glyph glyph-name="mu" unicode="&#xb5;" horiz-adv-x="788" 
d="M78 -492v1565h219v-682q0 -85 28.5 -131.5t65.5 -46.5q40 0 69 46.5t29 131.5v682h222v-1073h-222v55q-43 -53 -104 -53q-47 0 -88 33v-527h-219z" />
    <glyph glyph-name="paragraph" unicode="&#xb6;" horiz-adv-x="956" 
d="M385 0v344q-139 9 -240.5 161.5t-101.5 385.5q0 123 30.5 230.5t81 180.5t116 114.5t135.5 41.5h442v-1458h-199v1243h-67v-1243h-197z" />
    <glyph glyph-name="periodcentered" unicode="&#xb7;" horiz-adv-x="372" 
d="M18 731q0 70 48.5 119t119.5 49q69 0 118.5 -49.5t49.5 -118.5q0 -70 -49.5 -119t-118.5 -49q-72 0 -120 48.5t-48 119.5z" />
    <glyph glyph-name="cedilla" unicode="&#xb8;" horiz-adv-x="483" 
d="M23 -455l77 156q67 -45 119 -45q41 0 63.5 21t22.5 51q0 26 -16.5 44.5t-44.5 18.5q-34 0 -80 -24q-24 52 -58 129q71 47 148 47q97 0 152 -64t55 -158q0 -98 -65 -169.5t-181 -71.5h-10q-90 3 -182 65z" />
    <glyph glyph-name="guillemotright" unicode="&#xbb;" horiz-adv-x="704" 
d="M406 729l-193 -467q-86 32 -197 78l174 389l-174 404l197 77q28 -72 93.5 -233t99.5 -248zM698 729l-196 -483l-193 78l172 405l-172 420q24 9 91 35t104 41q67 -177 194 -496z" />
    <glyph glyph-name="questiondown" unicode="&#xbf;" horiz-adv-x="811" 
d="M436 1139q-69 0 -118.5 49.5t-49.5 118.5q0 70 49.5 119t118.5 49q72 0 120 -48.5t48 -119.5q0 -70 -48.5 -119t-119.5 -49zM403 -18q-156 0 -259 157t-103 391q0 90 15 168t48.5 146.5t83.5 117t125.5 76t169.5 27.5h97v-234h-97q-207 0 -207 -299q0 -131 39 -225
t88 -94q15 0 25 2.5t30.5 22t36.5 55.5t36 111.5t36 181.5l234 -39q-12 -77 -25.5 -136t-34.5 -128.5t-50.5 -119.5t-69.5 -93t-95 -65.5t-123 -22.5z" />
    <glyph glyph-name="Agrave" unicode="&#xc0;" horiz-adv-x="946" 
d="M0 0l358 1458h230l358 -1458h-241l-35 145h-398l-34 -145h-238zM330 379h284l-143 655zM469 1501l-264 340l184 133l242 -356z" />
    <glyph glyph-name="Aacute" unicode="&#xc1;" horiz-adv-x="946" 
d="M0 0l358 1458h230l358 -1458h-241l-35 145h-398l-34 -145h-238zM330 379h284l-143 655zM313 1614l242 356l184 -133l-264 -340z" />
    <glyph glyph-name="Acircumflex" unicode="&#xc2;" horiz-adv-x="946" 
d="M0 0l358 1458h230l358 -1458h-241l-35 145h-398l-34 -145h-238zM330 379h284l-143 655zM180 1638l291 334l293 -334l-162 -137l-129 174l-131 -172z" />
    <glyph glyph-name="Atilde" unicode="&#xc3;" horiz-adv-x="946" 
d="M0 0l358 1458h230l358 -1458h-241l-35 145h-398l-34 -145h-238zM330 379h284l-143 655zM313 1544l-190 88q106 254 258 254q40 0 71.5 -20t46 -43.5t30 -43.5t28.5 -20q21 0 72 113l192 -88q-23 -51 -45.5 -90t-54 -78.5t-70 -61.5t-80.5 -22q-36 0 -64.5 13t-45.5 32
t-29.5 37.5t-24 31.5t-22.5 13t-26.5 -25.5t-45.5 -89.5z" />
    <glyph glyph-name="Adieresis" unicode="&#xc4;" horiz-adv-x="946" 
d="M0 0l358 1458h230l358 -1458h-241l-35 145h-398l-34 -145h-238zM330 379h284l-143 655zM291 1548q-69 0 -115.5 47.5t-46.5 116.5q0 67 47 114.5t115 47.5q66 0 112 -48t46 -114q0 -69 -46 -116.5t-112 -47.5zM653 1548q-68 0 -112.5 47t-44.5 117q0 67 44.5 114.5
t112.5 47.5q66 0 114 -48t48 -114q0 -68 -47.5 -116t-114.5 -48z" />
    <glyph glyph-name="Aring" unicode="&#xc5;" horiz-adv-x="946" 
d="M0 0l358 1458h230l358 -1458h-241l-35 145h-398l-34 -145h-238zM330 379h284l-143 655zM389 1757q0 -32 24 -56t58 -24q32 0 56 24t24 56q0 34 -24 59t-56 25q-34 0 -58 -25t-24 -59zM221 1757q0 104 73.5 178t176.5 74q104 0 176 -73.5t72 -178.5q0 -103 -72 -174.5
t-176 -71.5q-103 0 -176.5 72t-73.5 174z" />
    <glyph glyph-name="AE" unicode="&#xc6;" horiz-adv-x="1300" 
d="M0 0l446 1458h795v-237h-426v-373h295v-234h-295v-381h426v-233h-649v188h-289l-55 -188h-248zM369 422h223v770z" />
    <glyph glyph-name="Ccedilla" unicode="&#xc7;" horiz-adv-x="946" 
d="M487 217q128 0 193 291q108 -20 229 -39q-45 -224 -151 -354.5t-266 -130.5q-107 0 -194 63.5t-141.5 169t-84 237.5t-29.5 275q0 144 29.5 276t84 238t141.5 169t194 63q160 0 267 -132.5t152 -357.5q-135 -24 -231 -39q-62 293 -193 293q-64 0 -113 -77t-72 -191
t-23 -242t23 -242.5t72 -192t113 -77.5zM256 -455l78 156q67 -45 119 -45q41 0 63.5 21t22.5 51q0 26 -17 44.5t-45 18.5q-33 0 -80 -24q-7 14 -57 129q71 47 147 47q97 0 152 -64t55 -158q0 -98 -64.5 -169.5t-180.5 -71.5h-11q-90 3 -182 65z" />
    <glyph glyph-name="Egrave" unicode="&#xc8;" 
d="M109 0v1458h669v-237h-432v-373h299v-234h-299v-381h432v-233h-669zM442 1501l-264 340l184 133l242 -356z" />
    <glyph glyph-name="Eacute" unicode="&#xc9;" 
d="M109 0v1458h669v-237h-432v-373h299v-234h-299v-381h432v-233h-669zM287 1614l241 356l185 -133l-264 -340z" />
    <glyph glyph-name="Ecircumflex" unicode="&#xca;" 
d="M109 0v1458h669v-237h-432v-373h299v-234h-299v-381h432v-233h-669zM152 1638l290 334l293 -334l-162 -137l-129 174l-131 -172z" />
    <glyph glyph-name="Edieresis" unicode="&#xcb;" 
d="M109 0v1458h669v-237h-432v-373h299v-234h-299v-381h432v-233h-669zM262 1548q-69 0 -115.5 47.5t-46.5 116.5q0 67 47 114.5t115 47.5q66 0 112 -48t46 -114q0 -69 -46 -116.5t-112 -47.5zM625 1548q-68 0 -113 47t-45 117q0 67 45 114.5t113 47.5q66 0 113.5 -48
t47.5 -114q0 -69 -47.5 -116.5t-113.5 -47.5z" />
    <glyph glyph-name="Igrave" unicode="&#xcc;" horiz-adv-x="456" 
d="M109 0v1458h239v-1458h-239zM223 1513l-264 340l184 134l242 -357z" />
    <glyph glyph-name="Iacute" unicode="&#xcd;" horiz-adv-x="456" 
d="M109 0v1458h239v-1458h-239zM68 1614l241 356l185 -133l-265 -340z" />
    <glyph glyph-name="Icircumflex" unicode="&#xce;" horiz-adv-x="456" 
d="M109 0v1458h239v-1458h-239zM-63 1651l290 334l293 -334l-162 -138l-129 175l-131 -172z" />
    <glyph glyph-name="Idieresis" unicode="&#xcf;" horiz-adv-x="456" 
d="M109 0v1458h239v-1458h-239zM45 1561q-69 0 -115.5 47t-46.5 116q0 67 47 114.5t115 47.5q66 0 112 -48t46 -114q0 -69 -46 -116t-112 -47zM408 1561q-69 0 -113.5 46.5t-44.5 116.5q0 67 45 114.5t113 47.5q66 0 113.5 -48t47.5 -114q0 -68 -47.5 -115.5t-113.5 -47.5z
" />
    <glyph glyph-name="Eth" unicode="&#xd0;" horiz-adv-x="942" 
d="M16 616v232h90v610h357q104 0 188.5 -62.5t137.5 -166t81.5 -232t28.5 -266.5q0 -141 -28 -270.5t-80.5 -233t-137.5 -165.5t-190 -62h-357v616h-90zM342 233h127q61 0 106.5 73.5t67 184.5t21.5 240q0 126 -21.5 235.5t-67 182t-106.5 72.5h-127v-373h172v-232h-172
v-383z" />
    <glyph glyph-name="Ntilde" unicode="&#xd1;" horiz-adv-x="1054" 
d="M944 1458v-1458h-246l-358 938v-938h-231v1458h245l361 -936v936h229zM373 1544l-191 88q106 254 258 254q40 0 71.5 -20t46 -43.5t30 -43.5t28.5 -20q21 0 72 113l193 -88q-23 -51 -45.5 -90t-54 -78.5t-70 -61.5t-80.5 -22q-44 0 -77.5 20t-49 43.5t-31.5 43.5t-29 20
q-11 0 -26 -25t-45 -90z" />
    <glyph glyph-name="Ograve" unicode="&#xd2;" horiz-adv-x="983" 
d="M705 727q0 125 -24 239.5t-74 192.5t-115 78t-115 -78t-74 -192.5t-24 -239.5q0 -123 23.5 -237.5t73.5 -194.5t116 -80q64 0 114 77.5t74.5 192.5t24.5 242zM43 727q0 198 50 365t154 275t245 108q106 0 192.5 -63t141.5 -168.5t84.5 -238.5t29.5 -278
q0 -116 -18.5 -224.5t-56 -203t-90 -165.5t-125.5 -111.5t-158 -40.5q-106 0 -193 62.5t-142 167.5t-84.5 237.5t-29.5 277.5zM485 1501l-264 340l185 133l241 -356z" />
    <glyph glyph-name="Oacute" unicode="&#xd3;" horiz-adv-x="983" 
d="M705 727q0 125 -24 239.5t-74 192.5t-115 78t-115 -78t-74 -192.5t-24 -239.5q0 -123 23.5 -237.5t73.5 -194.5t116 -80q64 0 114 77.5t74.5 192.5t24.5 242zM43 727q0 198 50 365t154 275t245 108q106 0 192.5 -63t141.5 -168.5t84.5 -238.5t29.5 -278
q0 -116 -18.5 -224.5t-56 -203t-90 -165.5t-125.5 -111.5t-158 -40.5q-106 0 -193 62.5t-142 167.5t-84.5 237.5t-29.5 277.5zM330 1614l241 356l185 -133l-264 -340z" />
    <glyph glyph-name="Ocircumflex" unicode="&#xd4;" horiz-adv-x="983" 
d="M705 727q0 125 -24 239.5t-74 192.5t-115 78t-115 -78t-74 -192.5t-24 -239.5q0 -123 23.5 -237.5t73.5 -194.5t116 -80q64 0 114 77.5t74.5 192.5t24.5 242zM43 727q0 198 50 365t154 275t245 108q106 0 192.5 -63t141.5 -168.5t84.5 -238.5t29.5 -278
q0 -116 -18.5 -224.5t-56 -203t-90 -165.5t-125.5 -111.5t-158 -40.5q-106 0 -193 62.5t-142 167.5t-84.5 237.5t-29.5 277.5zM199 1638l290 334l293 -334l-161 -137l-129 174l-132 -172z" />
    <glyph glyph-name="Otilde" unicode="&#xd5;" horiz-adv-x="983" 
d="M705 727q0 125 -24 239.5t-74 192.5t-115 78t-115 -78t-74 -192.5t-24 -239.5q0 -123 23.5 -237.5t73.5 -194.5t116 -80q64 0 114 77.5t74.5 192.5t24.5 242zM43 727q0 198 50 365t154 275t245 108q106 0 192.5 -63t141.5 -168.5t84.5 -238.5t29.5 -278
q0 -116 -18.5 -224.5t-56 -203t-90 -165.5t-125.5 -111.5t-158 -40.5q-106 0 -193 62.5t-142 167.5t-84.5 237.5t-29.5 277.5zM330 1544l-191 88q106 254 258 254q40 0 71.5 -20t46 -43.5t30 -43.5t28.5 -20q21 0 72 113l193 -88q-23 -51 -45.5 -90t-54 -78.5t-70 -61.5
t-80.5 -22q-44 0 -77.5 20t-49 43.5t-31.5 43.5t-29 20q-11 0 -26 -25t-45 -90z" />
    <glyph glyph-name="Odieresis" unicode="&#xd6;" horiz-adv-x="983" 
d="M705 727q0 125 -24 239.5t-74 192.5t-115 78t-115 -78t-74 -192.5t-24 -239.5q0 -123 23.5 -237.5t73.5 -194.5t116 -80q64 0 114 77.5t74.5 192.5t24.5 242zM43 727q0 198 50 365t154 275t245 108q106 0 192.5 -63t141.5 -168.5t84.5 -238.5t29.5 -278
q0 -116 -18.5 -224.5t-56 -203t-90 -165.5t-125.5 -111.5t-158 -40.5q-106 0 -193 62.5t-142 167.5t-84.5 237.5t-29.5 277.5zM307 1548q-69 0 -115.5 47.5t-46.5 116.5q0 67 47 114.5t115 47.5q66 0 112 -48t46 -114q0 -69 -46 -116.5t-112 -47.5zM670 1548q-68 0 -113 47
t-45 117q0 67 45 114.5t113 47.5q66 0 113.5 -48t47.5 -114q0 -69 -47.5 -116.5t-113.5 -47.5z" />
    <glyph glyph-name="multiply" unicode="&#xd7;" horiz-adv-x="688" 
d="M201 410q-137 136 -164 163l149 142l-149 141q24 24 51 51.5t60 60t51 50.5l141 -150l145 154l164 -166l-153 -143l149 -142l-160 -161l-143 149z" />
    <glyph glyph-name="Oslash" unicode="&#xd8;" horiz-adv-x="991" 
d="M664 1071q-32 -143 -94 -429l-93 -429q6 -2 17 -2q65 0 117.5 72.5t81 190t28.5 253.5q0 215 -57 344zM514 1239q-10 2 -27 2q-61 0 -111.5 -69.5t-78 -180.5t-27.5 -235q0 -242 54 -375zM733 1370q102 -97 157.5 -270.5t55.5 -372.5q0 -144 -30.5 -277t-86 -237.5
t-142.5 -166.5t-193 -62q-37 0 -64 6q-5 -31 -14 -64h-197q31 137 35 158q-100 98 -155.5 271.5t-55.5 371.5q0 196 50.5 363t155 275t245.5 108q38 0 65 -9l14 66h197q-5 -20 -37 -160z" />
    <glyph glyph-name="Ugrave" unicode="&#xd9;" horiz-adv-x="997" 
d="M104 522v936h236v-936q0 -146 46 -225.5t110 -79.5q65 0 114 78.5t49 226.5v936h234v-936q0 -134 -34 -240t-91 -170t-126.5 -97t-145.5 -33q-77 0 -146 33.5t-124.5 97.5t-88.5 170t-33 239zM492 1513l-265 340l185 134l241 -357z" />
    <glyph glyph-name="Uacute" unicode="&#xda;" horiz-adv-x="997" 
d="M104 522v936h236v-936q0 -146 46 -225.5t110 -79.5q65 0 114 78.5t49 226.5v936h234v-936q0 -134 -34 -240t-91 -170t-126.5 -97t-145.5 -33q-77 0 -146 33.5t-124.5 97.5t-88.5 170t-33 239zM336 1614l242 356l184 -133l-264 -340z" />
    <glyph glyph-name="Ucircumflex" unicode="&#xdb;" horiz-adv-x="997" 
d="M104 522v936h236v-936q0 -146 46 -225.5t110 -79.5q65 0 114 78.5t49 226.5v936h234v-936q0 -134 -34 -240t-91 -170t-126.5 -97t-145.5 -33q-77 0 -146 33.5t-124.5 97.5t-88.5 170t-33 239zM205 1651l291 334l292 -334l-161 -138l-129 175l-131 -172z" />
    <glyph glyph-name="Udieresis" unicode="&#xdc;" horiz-adv-x="997" 
d="M104 522v936h236v-936q0 -146 46 -225.5t110 -79.5q65 0 114 78.5t49 226.5v936h234v-936q0 -134 -34 -240t-91 -170t-126.5 -97t-145.5 -33q-77 0 -146 33.5t-124.5 97.5t-88.5 170t-33 239zM317 1561q-69 0 -115 47t-46 116q0 67 46.5 114.5t114.5 47.5q66 0 112 -48
t46 -114q0 -69 -46 -116t-112 -47zM680 1561q-69 0 -113.5 46.5t-44.5 116.5q0 67 45 114.5t113 47.5q66 0 114 -48t48 -114q0 -68 -47.5 -115.5t-114.5 -47.5z" />
    <glyph glyph-name="Yacute" unicode="&#xdd;" horiz-adv-x="864" 
d="M315 0v354l-305 1104h246l176 -708l176 708h246l-305 -1104v-354h-234zM272 1614l242 356l184 -133l-264 -340z" />
    <glyph glyph-name="Thorn" unicode="&#xde;" horiz-adv-x="913" 
d="M109 0v1458h237v-170h137q93 0 168 -48t122 -127.5t72 -179t25 -206.5q0 -108 -25 -207t-71.5 -178.5t-122.5 -126.5t-170 -47h-135v-168h-237zM346 401h133q51 0 87.5 48.5t53.5 121t17 156.5t-18 156t-56.5 120t-91.5 48h-125v-650z" />
    <glyph glyph-name="germandbls" unicode="&#xdf;" horiz-adv-x="1032" 
d="M92 0v637q0 186 24 334.5t75.5 263.5t138.5 177.5t205 62.5q149 0 266 -118.5t172 -299.5l-238 -234q258 -155 258 -458q0 -166 -87.5 -273.5t-237.5 -107.5t-308 166q20 21 76 77t86 88q86 -96 144 -96q46 0 71 37t25 104q0 55 -15.5 104.5t-49 94.5t-91 80.5
t-135.5 56.5v176l248 244q-64 125 -164 125q-40 0 -73.5 -16.5t-56.5 -49.5t-40.5 -69.5t-28 -89t-17 -95.5t-9 -100.5t-3.5 -93t-1 -84.5v-643h-234z" />
    <glyph glyph-name="agrave" unicode="&#xe0;" horiz-adv-x="946" 
d="M0 0l358 1458h230l358 -1458h-241l-35 145h-398l-34 -145h-238zM330 379h284l-143 655zM469 1501l-264 340l184 133l242 -356z" />
    <glyph glyph-name="aacute" unicode="&#xe1;" horiz-adv-x="946" 
d="M0 0l358 1458h230l358 -1458h-241l-35 145h-398l-34 -145h-238zM330 379h284l-143 655zM313 1614l242 356l184 -133l-264 -340z" />
    <glyph glyph-name="acircumflex" unicode="&#xe2;" horiz-adv-x="946" 
d="M0 0l358 1458h230l358 -1458h-241l-35 145h-398l-34 -145h-238zM330 379h284l-143 655zM180 1638l291 334l293 -334l-162 -137l-129 174l-131 -172z" />
    <glyph glyph-name="atilde" unicode="&#xe3;" horiz-adv-x="946" 
d="M0 0l358 1458h230l358 -1458h-241l-35 145h-398l-34 -145h-238zM330 379h284l-143 655zM313 1544l-190 88q106 254 258 254q40 0 71.5 -20t46 -43.5t30 -43.5t28.5 -20q21 0 72 113l192 -88q-23 -51 -45.5 -90t-54 -78.5t-70 -61.5t-80.5 -22q-36 0 -64.5 13t-45.5 32
t-29.5 37.5t-24 31.5t-22.5 13t-26.5 -25.5t-45.5 -89.5z" />
    <glyph glyph-name="adieresis" unicode="&#xe4;" horiz-adv-x="946" 
d="M0 0l358 1458h230l358 -1458h-241l-35 145h-398l-34 -145h-238zM330 379h284l-143 655zM291 1548q-69 0 -115.5 47.5t-46.5 116.5q0 67 47 114.5t115 47.5q66 0 112 -48t46 -114q0 -69 -46 -116.5t-112 -47.5zM653 1548q-68 0 -112.5 47t-44.5 117q0 67 44.5 114.5
t112.5 47.5q66 0 114 -48t48 -114q0 -68 -47.5 -116t-114.5 -48z" />
    <glyph glyph-name="aring" unicode="&#xe5;" horiz-adv-x="946" 
d="M0 0l358 1458h230l358 -1458h-241l-35 145h-398l-34 -145h-238zM330 379h284l-143 655zM389 1757q0 -32 24 -56t58 -24q32 0 56 24t24 56q0 34 -24 59t-56 25q-34 0 -58 -25t-24 -59zM221 1757q0 104 73.5 178t176.5 74q104 0 176 -73.5t72 -178.5q0 -103 -72 -174.5
t-176 -71.5q-103 0 -176.5 72t-73.5 174z" />
    <glyph glyph-name="ae" unicode="&#xe6;" horiz-adv-x="1300" 
d="M0 0l446 1458h795v-237h-426v-373h295v-234h-295v-381h426v-233h-649v188h-289l-55 -188h-248zM369 422h223v770z" />
    <glyph glyph-name="ccedilla" unicode="&#xe7;" horiz-adv-x="946" 
d="M487 217q128 0 193 291q108 -20 229 -39q-45 -224 -151 -354.5t-266 -130.5q-107 0 -194 63.5t-141.5 169t-84 237.5t-29.5 275q0 144 29.5 276t84 238t141.5 169t194 63q160 0 267 -132.5t152 -357.5q-135 -24 -231 -39q-62 293 -193 293q-64 0 -113 -77t-72 -191
t-23 -242t23 -242.5t72 -192t113 -77.5zM256 -455l78 156q67 -45 119 -45q41 0 63.5 21t22.5 51q0 26 -17 44.5t-45 18.5q-33 0 -80 -24q-7 14 -57 129q71 47 147 47q97 0 152 -64t55 -158q0 -98 -64.5 -169.5t-180.5 -71.5h-11q-90 3 -182 65z" />
    <glyph glyph-name="egrave" unicode="&#xe8;" 
d="M109 0v1458h669v-237h-432v-373h299v-234h-299v-381h432v-233h-669zM442 1501l-264 340l184 133l242 -356z" />
    <glyph glyph-name="eacute" unicode="&#xe9;" 
d="M109 0v1458h669v-237h-432v-373h299v-234h-299v-381h432v-233h-669zM287 1614l241 356l185 -133l-264 -340z" />
    <glyph glyph-name="ecircumflex" unicode="&#xea;" 
d="M109 0v1458h669v-237h-432v-373h299v-234h-299v-381h432v-233h-669zM152 1638l290 334l293 -334l-162 -137l-129 174l-131 -172z" />
    <glyph glyph-name="edieresis" unicode="&#xeb;" 
d="M109 0v1458h669v-237h-432v-373h299v-234h-299v-381h432v-233h-669zM262 1548q-69 0 -115.5 47.5t-46.5 116.5q0 67 47 114.5t115 47.5q66 0 112 -48t46 -114q0 -69 -46 -116.5t-112 -47.5zM625 1548q-68 0 -113 47t-45 117q0 67 45 114.5t113 47.5q66 0 113.5 -48
t47.5 -114q0 -69 -47.5 -116.5t-113.5 -47.5z" />
    <glyph glyph-name="igrave" unicode="&#xec;" horiz-adv-x="456" 
d="M109 0v1458h239v-1458h-239zM223 1513l-264 340l184 134l242 -357z" />
    <glyph glyph-name="iacute" unicode="&#xed;" horiz-adv-x="456" 
d="M109 0v1458h239v-1458h-239zM68 1614l241 356l185 -133l-265 -340z" />
    <glyph glyph-name="icircumflex" unicode="&#xee;" horiz-adv-x="456" 
d="M109 0v1458h239v-1458h-239zM-63 1651l290 334l293 -334l-162 -138l-129 175l-131 -172z" />
    <glyph glyph-name="idieresis" unicode="&#xef;" horiz-adv-x="456" 
d="M109 0v1458h239v-1458h-239zM45 1561q-69 0 -115.5 47t-46.5 116q0 67 47 114.5t115 47.5q66 0 112 -48t46 -114q0 -69 -46 -116t-112 -47zM408 1561q-69 0 -113.5 46.5t-44.5 116.5q0 67 45 114.5t113 47.5q66 0 113.5 -48t47.5 -114q0 -68 -47.5 -115.5t-113.5 -47.5z
" />
    <glyph glyph-name="eth" unicode="&#xf0;" horiz-adv-x="942" 
d="M16 616v232h90v610h357q104 0 188.5 -62.5t137.5 -166t81.5 -232t28.5 -266.5q0 -141 -28 -270.5t-80.5 -233t-137.5 -165.5t-190 -62h-357v616h-90zM342 233h127q61 0 106.5 73.5t67 184.5t21.5 240q0 126 -21.5 235.5t-67 182t-106.5 72.5h-127v-373h172v-232h-172
v-383z" />
    <glyph glyph-name="ntilde" unicode="&#xf1;" horiz-adv-x="1054" 
d="M944 1458v-1458h-246l-358 938v-938h-231v1458h245l361 -936v936h229zM373 1544l-191 88q106 254 258 254q40 0 71.5 -20t46 -43.5t30 -43.5t28.5 -20q21 0 72 113l193 -88q-23 -51 -45.5 -90t-54 -78.5t-70 -61.5t-80.5 -22q-44 0 -77.5 20t-49 43.5t-31.5 43.5t-29 20
q-11 0 -26 -25t-45 -90z" />
    <glyph glyph-name="ograve" unicode="&#xf2;" horiz-adv-x="983" 
d="M705 727q0 125 -24 239.5t-74 192.5t-115 78t-115 -78t-74 -192.5t-24 -239.5q0 -123 23.5 -237.5t73.5 -194.5t116 -80q64 0 114 77.5t74.5 192.5t24.5 242zM43 727q0 198 50 365t154 275t245 108q106 0 192.5 -63t141.5 -168.5t84.5 -238.5t29.5 -278
q0 -116 -18.5 -224.5t-56 -203t-90 -165.5t-125.5 -111.5t-158 -40.5q-106 0 -193 62.5t-142 167.5t-84.5 237.5t-29.5 277.5zM485 1501l-264 340l185 133l241 -356z" />
    <glyph glyph-name="oacute" unicode="&#xf3;" horiz-adv-x="983" 
d="M705 727q0 125 -24 239.5t-74 192.5t-115 78t-115 -78t-74 -192.5t-24 -239.5q0 -123 23.5 -237.5t73.5 -194.5t116 -80q64 0 114 77.5t74.5 192.5t24.5 242zM43 727q0 198 50 365t154 275t245 108q106 0 192.5 -63t141.5 -168.5t84.5 -238.5t29.5 -278
q0 -116 -18.5 -224.5t-56 -203t-90 -165.5t-125.5 -111.5t-158 -40.5q-106 0 -193 62.5t-142 167.5t-84.5 237.5t-29.5 277.5zM330 1614l241 356l185 -133l-264 -340z" />
    <glyph glyph-name="ocircumflex" unicode="&#xf4;" horiz-adv-x="983" 
d="M705 727q0 125 -24 239.5t-74 192.5t-115 78t-115 -78t-74 -192.5t-24 -239.5q0 -123 23.5 -237.5t73.5 -194.5t116 -80q64 0 114 77.5t74.5 192.5t24.5 242zM43 727q0 198 50 365t154 275t245 108q106 0 192.5 -63t141.5 -168.5t84.5 -238.5t29.5 -278
q0 -116 -18.5 -224.5t-56 -203t-90 -165.5t-125.5 -111.5t-158 -40.5q-106 0 -193 62.5t-142 167.5t-84.5 237.5t-29.5 277.5zM199 1638l290 334l293 -334l-161 -137l-129 174l-132 -172z" />
    <glyph glyph-name="otilde" unicode="&#xf5;" horiz-adv-x="983" 
d="M705 727q0 125 -24 239.5t-74 192.5t-115 78t-115 -78t-74 -192.5t-24 -239.5q0 -123 23.5 -237.5t73.5 -194.5t116 -80q64 0 114 77.5t74.5 192.5t24.5 242zM43 727q0 198 50 365t154 275t245 108q106 0 192.5 -63t141.5 -168.5t84.5 -238.5t29.5 -278
q0 -116 -18.5 -224.5t-56 -203t-90 -165.5t-125.5 -111.5t-158 -40.5q-106 0 -193 62.5t-142 167.5t-84.5 237.5t-29.5 277.5zM330 1544l-191 88q106 254 258 254q40 0 71.5 -20t46 -43.5t30 -43.5t28.5 -20q21 0 72 113l193 -88q-23 -51 -45.5 -90t-54 -78.5t-70 -61.5
t-80.5 -22q-44 0 -77.5 20t-49 43.5t-31.5 43.5t-29 20q-11 0 -26 -25t-45 -90z" />
    <glyph glyph-name="odieresis" unicode="&#xf6;" horiz-adv-x="983" 
d="M705 727q0 125 -24 239.5t-74 192.5t-115 78t-115 -78t-74 -192.5t-24 -239.5q0 -123 23.5 -237.5t73.5 -194.5t116 -80q64 0 114 77.5t74.5 192.5t24.5 242zM43 727q0 198 50 365t154 275t245 108q106 0 192.5 -63t141.5 -168.5t84.5 -238.5t29.5 -278
q0 -116 -18.5 -224.5t-56 -203t-90 -165.5t-125.5 -111.5t-158 -40.5q-106 0 -193 62.5t-142 167.5t-84.5 237.5t-29.5 277.5zM307 1548q-69 0 -115.5 47.5t-46.5 116.5q0 67 47 114.5t115 47.5q66 0 112 -48t46 -114q0 -69 -46 -116.5t-112 -47.5zM670 1548q-68 0 -113 47
t-45 117q0 67 45 114.5t113 47.5q66 0 113.5 -48t47.5 -114q0 -69 -47.5 -116.5t-113.5 -47.5z" />
    <glyph glyph-name="divide" unicode="&#xf7;" horiz-adv-x="679" 
d="M643 606h-606v230h606v-230zM180 1073q0 66 46 113t112 47t114 -47t48 -113q0 -67 -47.5 -111t-114.5 -44t-112.5 44t-45.5 111zM180 369q0 66 46 112.5t112 46.5t114 -46.5t48 -112.5t-48 -112t-114 -46t-112 46t-46 112z" />
    <glyph glyph-name="oslash" unicode="&#xf8;" horiz-adv-x="991" 
d="M664 1071q-32 -143 -94 -429l-93 -429q6 -2 17 -2q65 0 117.5 72.5t81 190t28.5 253.5q0 215 -57 344zM514 1239q-10 2 -27 2q-61 0 -111.5 -69.5t-78 -180.5t-27.5 -235q0 -242 54 -375zM733 1370q102 -97 157.5 -270.5t55.5 -372.5q0 -144 -30.5 -277t-86 -237.5
t-142.5 -166.5t-193 -62q-37 0 -64 6q-5 -31 -14 -64h-197q31 137 35 158q-100 98 -155.5 271.5t-55.5 371.5q0 196 50.5 363t155 275t245.5 108q38 0 65 -9l14 66h197q-5 -20 -37 -160z" />
    <glyph glyph-name="ugrave" unicode="&#xf9;" horiz-adv-x="997" 
d="M104 522v936h236v-936q0 -146 46 -225.5t110 -79.5q65 0 114 78.5t49 226.5v936h234v-936q0 -134 -34 -240t-91 -170t-126.5 -97t-145.5 -33q-77 0 -146 33.5t-124.5 97.5t-88.5 170t-33 239zM492 1513l-265 340l185 134l241 -357z" />
    <glyph glyph-name="uacute" unicode="&#xfa;" horiz-adv-x="997" 
d="M104 522v936h236v-936q0 -146 46 -225.5t110 -79.5q65 0 114 78.5t49 226.5v936h234v-936q0 -134 -34 -240t-91 -170t-126.5 -97t-145.5 -33q-77 0 -146 33.5t-124.5 97.5t-88.5 170t-33 239zM336 1614l242 356l184 -133l-264 -340z" />
    <glyph glyph-name="ucircumflex" unicode="&#xfb;" horiz-adv-x="997" 
d="M104 522v936h236v-936q0 -146 46 -225.5t110 -79.5q65 0 114 78.5t49 226.5v936h234v-936q0 -134 -34 -240t-91 -170t-126.5 -97t-145.5 -33q-77 0 -146 33.5t-124.5 97.5t-88.5 170t-33 239zM205 1651l291 334l292 -334l-161 -138l-129 175l-131 -172z" />
    <glyph glyph-name="udieresis" unicode="&#xfc;" horiz-adv-x="997" 
d="M104 522v936h236v-936q0 -146 46 -225.5t110 -79.5q65 0 114 78.5t49 226.5v936h234v-936q0 -134 -34 -240t-91 -170t-126.5 -97t-145.5 -33q-77 0 -146 33.5t-124.5 97.5t-88.5 170t-33 239zM317 1561q-69 0 -115 47t-46 116q0 67 46.5 114.5t114.5 47.5q66 0 112 -48
t46 -114q0 -69 -46 -116t-112 -47zM680 1561q-69 0 -113.5 46.5t-44.5 116.5q0 67 45 114.5t113 47.5q66 0 114 -48t48 -114q0 -68 -47.5 -115.5t-114.5 -47.5z" />
    <glyph glyph-name="yacute" unicode="&#xfd;" horiz-adv-x="864" 
d="M315 0v354l-305 1104h246l176 -708l176 708h246l-305 -1104v-354h-234zM272 1614l242 356l184 -133l-264 -340z" />
    <glyph glyph-name="thorn" unicode="&#xfe;" horiz-adv-x="913" 
d="M109 0v1458h237v-170h137q93 0 168 -48t122 -127.5t72 -179t25 -206.5q0 -108 -25 -207t-71.5 -178.5t-122.5 -126.5t-170 -47h-135v-168h-237zM346 401h133q51 0 87.5 48.5t53.5 121t17 156.5t-18 156t-56.5 120t-91.5 48h-125v-650z" />
    <glyph glyph-name="ydieresis" unicode="&#xff;" horiz-adv-x="864" 
d="M315 0v354l-305 1104h246l176 -708l176 708h246l-305 -1104v-354h-234zM250 1548q-69 0 -115.5 47.5t-46.5 116.5q0 67 47 114.5t115 47.5q66 0 112 -48t46 -114q0 -69 -46 -116.5t-112 -47.5zM612 1548q-68 0 -112.5 47t-44.5 117q0 67 44.5 114.5t112.5 47.5
q66 0 114 -48t48 -114q0 -68 -48 -116t-114 -48z" />
    <glyph glyph-name="Amacron" unicode="&#x100;" horiz-adv-x="946" 
d="M0 0l358 1458h230l358 -1458h-241l-35 145h-398l-34 -145h-238zM330 379h284l-143 655zM225 1573v217h492v-217h-492z" />
    <glyph glyph-name="amacron" unicode="&#x101;" horiz-adv-x="946" 
d="M0 0l358 1458h230l358 -1458h-241l-35 145h-398l-34 -145h-238zM330 379h284l-143 655zM225 1573v217h492v-217h-492z" />
    <glyph glyph-name="Abreve" unicode="&#x102;" horiz-adv-x="946" 
d="M0 0l358 1458h230l358 -1458h-241l-35 145h-398l-34 -145h-238zM330 379h284l-143 655zM172 1853l199 74q4 -10 11.5 -30t11.5 -31t11 -28.5t11.5 -27t10.5 -23t11 -20.5t10.5 -14.5t10.5 -10.5t10 -3q21 0 43 44.5t54 131.5q3 9 5 14l199 -76q-123 -325 -299 -325
t-299 325z" />
    <glyph glyph-name="abreve" unicode="&#x103;" horiz-adv-x="946" 
d="M0 0l358 1458h230l358 -1458h-241l-35 145h-398l-34 -145h-238zM330 379h284l-143 655zM172 1853l199 74q4 -10 11.5 -30t11.5 -31t11 -28.5t11.5 -27t10.5 -23t11 -20.5t10.5 -14.5t10.5 -10.5t10 -3q21 0 43 44.5t54 131.5q3 9 5 14l199 -76q-123 -325 -299 -325
t-299 325z" />
    <glyph glyph-name="Aogonek" unicode="&#x104;" horiz-adv-x="946" 
d="M975 -117l100 -159q-126 -103 -239 -103q-93 0 -151 61.5t-58 151.5q0 92 78 170l-35 141h-398l-34 -145h-238l358 1458h230l358 -1458h-2q-147 -82 -147 -145q0 -18 11 -28.5t26 -10.5q42 0 141 67zM330 379h284l-143 655z" />
    <glyph glyph-name="aogonek" unicode="&#x105;" horiz-adv-x="946" 
d="M975 -117l100 -159q-126 -103 -239 -103q-93 0 -151 61.5t-58 151.5q0 92 78 170l-35 141h-398l-34 -145h-238l358 1458h230l358 -1458h-2q-147 -82 -147 -145q0 -18 11 -28.5t26 -10.5q42 0 141 67zM330 379h284l-143 655z" />
    <glyph glyph-name="Cacute" unicode="&#x106;" horiz-adv-x="925" 
d="M487 217q32 0 60 25t49 69t35.5 93t25.5 106q117 -18 234 -39q-40 -224 -143.5 -356.5t-258.5 -132.5q-107 0 -193.5 62.5t-140.5 168t-83 237.5t-29 277q0 144 29 276.5t83 238.5t140.5 169.5t193.5 63.5q155 0 258.5 -133.5t143.5 -358.5q-117 -18 -234 -39
q-25 125 -68 209t-102 84q-51 0 -93 -51.5t-66 -131t-36.5 -164.5t-12.5 -163q0 -119 23 -233t72 -195.5t113 -81.5zM332 1614l241 356l185 -133l-264 -340z" />
    <glyph glyph-name="cacute" unicode="&#x107;" horiz-adv-x="925" 
d="M487 217q32 0 60 25t49 69t35.5 93t25.5 106q117 -18 234 -39q-40 -224 -143.5 -356.5t-258.5 -132.5q-107 0 -193.5 62.5t-140.5 168t-83 237.5t-29 277q0 144 29 276.5t83 238.5t140.5 169.5t193.5 63.5q155 0 258.5 -133.5t143.5 -358.5q-117 -18 -234 -39
q-25 125 -68 209t-102 84q-51 0 -93 -51.5t-66 -131t-36.5 -164.5t-12.5 -163q0 -119 23 -233t72 -195.5t113 -81.5zM332 1614l241 356l185 -133l-264 -340z" />
    <glyph glyph-name="Ccircumflex" unicode="&#x108;" horiz-adv-x="925" 
d="M487 217q32 0 60 25t49 69t35.5 93t25.5 106q117 -18 234 -39q-40 -224 -143.5 -356.5t-258.5 -132.5q-107 0 -193.5 62.5t-140.5 168t-83 237.5t-29 277q0 144 29 276.5t83 238.5t140.5 169.5t193.5 63.5q155 0 258.5 -133.5t143.5 -358.5q-117 -18 -234 -39
q-25 125 -68 209t-102 84q-51 0 -93 -51.5t-66 -131t-36.5 -164.5t-12.5 -163q0 -119 23 -233t72 -195.5t113 -81.5zM195 1638l290 334l293 -334l-162 -137l-129 174l-131 -172z" />
    <glyph glyph-name="ccircumflex" unicode="&#x109;" horiz-adv-x="925" 
d="M487 217q32 0 60 25t49 69t35.5 93t25.5 106q117 -18 234 -39q-40 -224 -143.5 -356.5t-258.5 -132.5q-107 0 -193.5 62.5t-140.5 168t-83 237.5t-29 277q0 144 29 276.5t83 238.5t140.5 169.5t193.5 63.5q155 0 258.5 -133.5t143.5 -358.5q-117 -18 -234 -39
q-25 125 -68 209t-102 84q-51 0 -93 -51.5t-66 -131t-36.5 -164.5t-12.5 -163q0 -119 23 -233t72 -195.5t113 -81.5zM195 1638l290 334l293 -334l-162 -137l-129 174l-131 -172z" />
    <glyph glyph-name="Cdotaccent" unicode="&#x10a;" horiz-adv-x="925" 
d="M487 217q32 0 60 25t49 69t35.5 93t25.5 106q117 -18 234 -39q-40 -224 -143.5 -356.5t-258.5 -132.5q-107 0 -193.5 62.5t-140.5 168t-83 237.5t-29 277q0 144 29 276.5t83 238.5t140.5 169.5t193.5 63.5q155 0 258.5 -133.5t143.5 -358.5q-117 -18 -234 -39
q-25 125 -68 209t-102 84q-51 0 -93 -51.5t-66 -131t-36.5 -164.5t-12.5 -163q0 -119 23 -233t72 -195.5t113 -81.5zM326 1712q0 67 46.5 114.5t114.5 47.5q67 0 114.5 -48t47.5 -114q0 -70 -47 -116t-115 -46q-69 0 -115 46t-46 116z" />
    <glyph glyph-name="cdotaccent" unicode="&#x10b;" horiz-adv-x="925" 
d="M487 217q32 0 60 25t49 69t35.5 93t25.5 106q117 -18 234 -39q-40 -224 -143.5 -356.5t-258.5 -132.5q-107 0 -193.5 62.5t-140.5 168t-83 237.5t-29 277q0 144 29 276.5t83 238.5t140.5 169.5t193.5 63.5q155 0 258.5 -133.5t143.5 -358.5q-117 -18 -234 -39
q-25 125 -68 209t-102 84q-51 0 -93 -51.5t-66 -131t-36.5 -164.5t-12.5 -163q0 -119 23 -233t72 -195.5t113 -81.5zM326 1712q0 67 46.5 114.5t114.5 47.5q67 0 114.5 -48t47.5 -114q0 -70 -47 -116t-115 -46q-69 0 -115 46t-46 116z" />
    <glyph glyph-name="Ccaron" unicode="&#x10c;" horiz-adv-x="925" 
d="M487 217q32 0 60 25t49 69t35.5 93t25.5 106q117 -18 234 -39q-40 -224 -143.5 -356.5t-258.5 -132.5q-107 0 -193.5 62.5t-140.5 168t-83 237.5t-29 277q0 144 29 276.5t83 238.5t140.5 169.5t193.5 63.5q155 0 258.5 -133.5t143.5 -358.5q-117 -18 -234 -39
q-25 125 -68 209t-102 84q-51 0 -93 -51.5t-66 -131t-36.5 -164.5t-12.5 -163q0 -119 23 -233t72 -195.5t113 -81.5zM485 1501l-290 334l161 135l131 -172l129 174l162 -137z" />
    <glyph glyph-name="ccaron" unicode="&#x10d;" horiz-adv-x="925" 
d="M487 217q32 0 60 25t49 69t35.5 93t25.5 106q117 -18 234 -39q-40 -224 -143.5 -356.5t-258.5 -132.5q-107 0 -193.5 62.5t-140.5 168t-83 237.5t-29 277q0 144 29 276.5t83 238.5t140.5 169.5t193.5 63.5q155 0 258.5 -133.5t143.5 -358.5q-117 -18 -234 -39
q-25 125 -68 209t-102 84q-51 0 -93 -51.5t-66 -131t-36.5 -164.5t-12.5 -163q0 -119 23 -233t72 -195.5t113 -81.5zM485 1501l-290 334l161 135l131 -172l129 174l162 -137z" />
    <glyph glyph-name="Dcaron" unicode="&#x10e;" horiz-adv-x="946" 
d="M109 0v1458h356q105 0 190 -62.5t138 -166t81.5 -232t28.5 -266.5q0 -141 -28 -270t-80.5 -233t-138 -166t-191.5 -62h-356zM346 233h125q61 0 106.5 73.5t67 184.5t21.5 240q0 126 -21.5 235.5t-67 182t-106.5 72.5h-125v-988zM442 1501l-290 334l161 135l131 -172
l129 174l162 -137z" />
    <glyph glyph-name="dcaron" unicode="&#x10f;" horiz-adv-x="946" 
d="M109 0v1458h356q105 0 190 -62.5t138 -166t81.5 -232t28.5 -266.5q0 -141 -28 -270t-80.5 -233t-138 -166t-191.5 -62h-356zM346 233h125q61 0 106.5 73.5t67 184.5t21.5 240q0 126 -21.5 235.5t-67 182t-106.5 72.5h-125v-988zM442 1501l-290 334l161 135l131 -172
l129 174l162 -137z" />
    <glyph glyph-name="Dcroat" unicode="&#x110;" horiz-adv-x="942" 
d="M16 616v232h90v610h357q104 0 188.5 -62.5t137.5 -166t81.5 -232t28.5 -266.5q0 -141 -28 -270.5t-80.5 -233t-137.5 -165.5t-190 -62h-357v616h-90zM342 233h127q61 0 106.5 73.5t67 184.5t21.5 240q0 126 -21.5 235.5t-67 182t-106.5 72.5h-127v-373h172v-232h-172
v-383z" />
    <glyph glyph-name="dcroat" unicode="&#x111;" horiz-adv-x="942" 
d="M16 616v232h90v610h357q104 0 188.5 -62.5t137.5 -166t81.5 -232t28.5 -266.5q0 -141 -28 -270.5t-80.5 -233t-137.5 -165.5t-190 -62h-357v616h-90zM342 233h127q61 0 106.5 73.5t67 184.5t21.5 240q0 126 -21.5 235.5t-67 182t-106.5 72.5h-127v-373h172v-232h-172
v-383z" />
    <glyph glyph-name="Emacron" unicode="&#x112;" 
d="M109 0v1458h669v-237h-432v-373h299v-234h-299v-381h432v-233h-669zM197 1573v217h491v-217h-491z" />
    <glyph glyph-name="emacron" unicode="&#x113;" 
d="M109 0v1458h669v-237h-432v-373h299v-234h-299v-381h432v-233h-669zM197 1573v217h491v-217h-491z" />
    <glyph glyph-name="Ebreve" unicode="&#x114;" 
d="M109 0v1458h669v-237h-432v-373h299v-234h-299v-381h432v-233h-669zM143 1853l199 74q4 -10 11.5 -30t11.5 -31t11 -28.5t11.5 -27t10.5 -23t11 -20.5t10.5 -14.5t10.5 -10.5t10 -3q12 0 24 14t27.5 48t24.5 56.5t27 71.5l198 -76q-123 -325 -299 -325t-299 325z" />
    <glyph glyph-name="ebreve" unicode="&#x115;" 
d="M109 0v1458h669v-237h-432v-373h299v-234h-299v-381h432v-233h-669zM143 1853l199 74q4 -10 11.5 -30t11.5 -31t11 -28.5t11.5 -27t10.5 -23t11 -20.5t10.5 -14.5t10.5 -10.5t10 -3q12 0 24 14t27.5 48t24.5 56.5t27 71.5l198 -76q-123 -325 -299 -325t-299 325z" />
    <glyph glyph-name="Edotaccent" unicode="&#x116;" 
d="M109 0v1458h669v-237h-432v-373h299v-234h-299v-381h432v-233h-669zM281 1712q0 67 46.5 114.5t114.5 47.5q67 0 114.5 -48t47.5 -114q0 -70 -47 -116t-115 -46q-69 0 -115 46t-46 116z" />
    <glyph glyph-name="edotaccent" unicode="&#x117;" 
d="M109 0v1458h669v-237h-432v-373h299v-234h-299v-381h432v-233h-669zM281 1712q0 67 46.5 114.5t114.5 47.5q67 0 114.5 -48t47.5 -114q0 -70 -47 -116t-115 -46q-69 0 -115 46t-46 116z" />
    <glyph glyph-name="Eogonek" unicode="&#x118;" 
d="M109 0v1458h669v-237h-432v-373h299v-234h-299v-381h432v-233q-147 -82 -147 -145q0 -18 11 -28.5t26 -10.5q42 0 141 67l100 -159q-126 -103 -239 -103q-93 0 -151 61.5t-58 151.5q0 95 74 166h-426z" />
    <glyph glyph-name="eogonek" unicode="&#x119;" 
d="M109 0v1458h669v-237h-432v-373h299v-234h-299v-381h432v-233q-147 -82 -147 -145q0 -18 11 -28.5t26 -10.5q42 0 141 67l100 -159q-126 -103 -239 -103q-93 0 -151 61.5t-58 151.5q0 95 74 166h-426z" />
    <glyph glyph-name="Ecaron" unicode="&#x11a;" 
d="M109 0v1458h669v-237h-432v-373h299v-234h-299v-381h432v-233h-669zM442 1501l-290 334l161 135l131 -172l129 174l162 -137z" />
    <glyph glyph-name="ecaron" unicode="&#x11b;" 
d="M109 0v1458h669v-237h-432v-373h299v-234h-299v-381h432v-233h-669zM442 1501l-290 334l161 135l131 -172l129 174l162 -137z" />
    <glyph glyph-name="Gcircumflex" unicode="&#x11c;" horiz-adv-x="978" 
d="M557 580v235h375q4 -58 4 -90q0 -113 -17.5 -220.5t-53.5 -202.5t-88 -166t-125.5 -112.5t-159.5 -41.5q-106 0 -193 62.5t-142 167.5t-84.5 237.5t-29.5 277.5q0 146 29.5 279t84.5 238.5t142 168t193 62.5q135 0 233.5 -100.5t157.5 -272.5l-221 -74q-31 96 -75 152.5
t-98 56.5q-64 0 -113.5 -78t-73 -193t-23.5 -241q0 -138 27 -254t76 -186t110 -70q73 0 132.5 101t82.5 264h-150zM199 1638l290 334l293 -334l-161 -137l-129 174l-132 -172z" />
    <glyph glyph-name="gcircumflex" unicode="&#x11d;" horiz-adv-x="978" 
d="M557 580v235h375q4 -58 4 -90q0 -113 -17.5 -220.5t-53.5 -202.5t-88 -166t-125.5 -112.5t-159.5 -41.5q-106 0 -193 62.5t-142 167.5t-84.5 237.5t-29.5 277.5q0 146 29.5 279t84.5 238.5t142 168t193 62.5q135 0 233.5 -100.5t157.5 -272.5l-221 -74q-31 96 -75 152.5
t-98 56.5q-64 0 -113.5 -78t-73 -193t-23.5 -241q0 -138 27 -254t76 -186t110 -70q73 0 132.5 101t82.5 264h-150zM199 1638l290 334l293 -334l-161 -137l-129 174l-132 -172z" />
    <glyph glyph-name="Gbreve" unicode="&#x11e;" horiz-adv-x="978" 
d="M557 580v235h375q4 -58 4 -90q0 -113 -17.5 -220.5t-53.5 -202.5t-88 -166t-125.5 -112.5t-159.5 -41.5q-106 0 -193 62.5t-142 167.5t-84.5 237.5t-29.5 277.5q0 146 29.5 279t84.5 238.5t142 168t193 62.5q135 0 233.5 -100.5t157.5 -272.5l-221 -74q-31 96 -75 152.5
t-98 56.5q-64 0 -113.5 -78t-73 -193t-23.5 -241q0 -138 27 -254t76 -186t110 -70q73 0 132.5 101t82.5 264h-150zM190 1853l199 74q4 -10 11.5 -30t11.5 -31t11 -28.5t11.5 -27t10.5 -23t11 -20.5t10.5 -14.5t10.5 -10.5t10 -3q12 0 24 14t27.5 48t24.5 56.5t27 71.5
l198 -76q-123 -325 -299 -325t-299 325z" />
    <glyph glyph-name="gbreve" unicode="&#x11f;" horiz-adv-x="978" 
d="M557 580v235h375q4 -58 4 -90q0 -113 -17.5 -220.5t-53.5 -202.5t-88 -166t-125.5 -112.5t-159.5 -41.5q-106 0 -193 62.5t-142 167.5t-84.5 237.5t-29.5 277.5q0 146 29.5 279t84.5 238.5t142 168t193 62.5q135 0 233.5 -100.5t157.5 -272.5l-221 -74q-31 96 -75 152.5
t-98 56.5q-64 0 -113.5 -78t-73 -193t-23.5 -241q0 -138 27 -254t76 -186t110 -70q73 0 132.5 101t82.5 264h-150zM190 1853l199 74q4 -10 11.5 -30t11.5 -31t11 -28.5t11.5 -27t10.5 -23t11 -20.5t10.5 -14.5t10.5 -10.5t10 -3q12 0 24 14t27.5 48t24.5 56.5t27 71.5
l198 -76q-123 -325 -299 -325t-299 325z" />
    <glyph glyph-name="Gdotaccent" unicode="&#x120;" horiz-adv-x="978" 
d="M557 580v235h375q4 -58 4 -90q0 -113 -17.5 -220.5t-53.5 -202.5t-88 -166t-125.5 -112.5t-159.5 -41.5q-106 0 -193 62.5t-142 167.5t-84.5 237.5t-29.5 277.5q0 146 29.5 279t84.5 238.5t142 168t193 62.5q135 0 233.5 -100.5t157.5 -272.5l-221 -74q-31 96 -75 152.5
t-98 56.5q-64 0 -113.5 -78t-73 -193t-23.5 -241q0 -138 27 -254t76 -186t110 -70q73 0 132.5 101t82.5 264h-150zM326 1712q0 67 46.5 114.5t114.5 47.5q67 0 114.5 -48t47.5 -114q0 -70 -47 -116t-115 -46q-69 0 -115 46t-46 116z" />
    <glyph glyph-name="gdotaccent" unicode="&#x121;" horiz-adv-x="978" 
d="M557 580v235h375q4 -58 4 -90q0 -113 -17.5 -220.5t-53.5 -202.5t-88 -166t-125.5 -112.5t-159.5 -41.5q-106 0 -193 62.5t-142 167.5t-84.5 237.5t-29.5 277.5q0 146 29.5 279t84.5 238.5t142 168t193 62.5q135 0 233.5 -100.5t157.5 -272.5l-221 -74q-31 96 -75 152.5
t-98 56.5q-64 0 -113.5 -78t-73 -193t-23.5 -241q0 -138 27 -254t76 -186t110 -70q73 0 132.5 101t82.5 264h-150zM326 1712q0 67 46.5 114.5t114.5 47.5q67 0 114.5 -48t47.5 -114q0 -70 -47 -116t-115 -46q-69 0 -115 46t-46 116z" />
    <glyph glyph-name="Gcommaaccent" unicode="&#x122;" horiz-adv-x="978" 
d="M557 580v235h375q4 -58 4 -90q0 -113 -17.5 -220.5t-53.5 -202.5t-88 -166t-125.5 -112.5t-159.5 -41.5q-106 0 -193 62.5t-142 167.5t-84.5 237.5t-29.5 277.5q0 146 29.5 279t84.5 238.5t142 168t193 62.5q135 0 233.5 -100.5t157.5 -272.5l-221 -74q-31 96 -75 152.5
t-98 56.5q-64 0 -113.5 -78t-73 -193t-23.5 -241q0 -138 27 -254t76 -186t110 -70q73 0 132.5 101t82.5 264h-150zM487 -61q74 0 116 -55.5t42 -137.5q0 -102 -58 -175.5t-169 -139.5l-96 155q101 63 114 76q-44 8 -72 40.5t-28 78.5q0 63 42.5 110.5t108.5 47.5z" />
    <glyph glyph-name="gcommaaccent" unicode="&#x123;" horiz-adv-x="978" 
d="M557 580v235h375q4 -58 4 -90q0 -113 -17.5 -220.5t-53.5 -202.5t-88 -166t-125.5 -112.5t-159.5 -41.5q-106 0 -193 62.5t-142 167.5t-84.5 237.5t-29.5 277.5q0 146 29.5 279t84.5 238.5t142 168t193 62.5q135 0 233.5 -100.5t157.5 -272.5l-221 -74q-31 96 -75 152.5
t-98 56.5q-64 0 -113.5 -78t-73 -193t-23.5 -241q0 -138 27 -254t76 -186t110 -70q73 0 132.5 101t82.5 264h-150zM487 -61q74 0 116 -55.5t42 -137.5q0 -102 -58 -175.5t-169 -139.5l-96 155q101 63 114 76q-44 8 -72 40.5t-28 78.5q0 63 42.5 110.5t108.5 47.5z" />
    <glyph glyph-name="Hcircumflex" unicode="&#x124;" horiz-adv-x="1011" 
d="M109 0v1458h237v-608h318v608h239v-1458h-239v614h-318v-614h-237zM213 1638l291 334l293 -334l-162 -137l-129 174l-131 -172z" />
    <glyph glyph-name="hcircumflex" unicode="&#x125;" horiz-adv-x="1011" 
d="M109 0v1458h237v-608h318v608h239v-1458h-239v614h-318v-614h-237zM213 1638l291 334l293 -334l-162 -137l-129 174l-131 -172z" />
    <glyph glyph-name="Hbar" unicode="&#x126;" horiz-adv-x="1011" 
d="M43 1010v223h66v225h237v-225h318v225h239v-225h66v-223h-66v-1010h-239v614h-318v-614h-237v1010h-66zM346 848h318v164h-318v-164z" />
    <glyph glyph-name="hbar" unicode="&#x127;" horiz-adv-x="1011" 
d="M43 1010v223h66v225h237v-225h318v225h239v-225h66v-223h-66v-1010h-239v614h-318v-614h-237v1010h-66zM346 848h318v164h-318v-164z" />
    <glyph glyph-name="Itilde" unicode="&#x128;" horiz-adv-x="456" 
d="M109 0v1458h239v-1458h-239zM70 1556l-191 89q22 53 45.5 94t55 79t71.5 59t86 21q33 0 59.5 -13t42.5 -31.5t28.5 -37t23.5 -31.5t22 -13q22 0 72 112l193 -88q-23 -51 -45.5 -90t-54 -78.5t-70 -61.5t-80.5 -22q-44 0 -77.5 20t-49 43.5t-31.5 43.5t-29 20
q-11 0 -26 -25t-45 -90z" />
    <glyph glyph-name="itilde" unicode="&#x129;" horiz-adv-x="456" 
d="M109 0v1458h239v-1458h-239zM70 1556l-191 89q22 53 45.5 94t55 79t71.5 59t86 21q33 0 59.5 -13t42.5 -31.5t28.5 -37t23.5 -31.5t22 -13q22 0 72 112l193 -88q-23 -51 -45.5 -90t-54 -78.5t-70 -61.5t-80.5 -22q-44 0 -77.5 20t-49 43.5t-31.5 43.5t-29 20
q-11 0 -26 -25t-45 -90z" />
    <glyph glyph-name="Imacron" unicode="&#x12a;" horiz-adv-x="456" 
d="M109 0v1458h239v-1458h-239zM-18 1585v217h491v-217h-491z" />
    <glyph glyph-name="imacron" unicode="&#x12b;" horiz-adv-x="456" 
d="M109 0v1458h239v-1458h-239zM-18 1585v217h491v-217h-491z" />
    <glyph glyph-name="Ibreve" unicode="&#x12c;" horiz-adv-x="456" 
d="M109 0v1458h239v-1458h-239zM-72 1866l199 73q4 -10 11.5 -30t11.5 -31t11 -28.5t11.5 -27t10.5 -23t11 -20.5t10.5 -14.5t10.5 -10.5t10 -3q12 0 24 14t27.5 49t24 56t27.5 72l198 -76q-123 -326 -299 -326t-299 326z" />
    <glyph glyph-name="ibreve" unicode="&#x12d;" horiz-adv-x="456" 
d="M109 0v1458h239v-1458h-239zM-72 1866l199 73q4 -10 11.5 -30t11.5 -31t11 -28.5t11.5 -27t10.5 -23t11 -20.5t10.5 -14.5t10.5 -10.5t10 -3q12 0 24 14t27.5 49t24 56t27.5 72l198 -76q-123 -326 -299 -326t-299 326z" />
    <glyph glyph-name="Iogonek" unicode="&#x12e;" horiz-adv-x="456" 
d="M377 -117l100 -159q-126 -103 -239 -103q-93 0 -151 61.5t-58 151.5q0 96 80 172v1452h239v-1458h-2q-147 -82 -147 -145q0 -18 11 -28.5t26 -10.5q42 0 141 67z" />
    <glyph glyph-name="iogonek" unicode="&#x12f;" horiz-adv-x="456" 
d="M377 -117l100 -159q-126 -103 -239 -103q-93 0 -151 61.5t-58 151.5q0 96 80 172v1452h239v-1458h-2q-147 -82 -147 -145q0 -18 11 -28.5t26 -10.5q42 0 141 67z" />
    <glyph glyph-name="Idotaccent" unicode="&#x130;" horiz-adv-x="456" 
d="M109 0v1458h239v-1458h-239zM66 1724q0 67 46.5 114.5t114.5 47.5q67 0 114.5 -48t47.5 -114q0 -70 -47 -115.5t-115 -45.5q-69 0 -115 45.5t-46 115.5z" />
    <glyph glyph-name="dotlessi" unicode="&#x131;" horiz-adv-x="456" 
d="M109 0v1458h239v-1458h-239z" />
    <glyph glyph-name="Jcircumflex" unicode="&#x134;" horiz-adv-x="768" 
d="M-16 145l178 152q36 -41 61.5 -59.5t59.5 -18.5q63 0 103 89.5t40 246.5v903h236v-909q0 -147 -31 -259t-86 -177.5t-123.5 -98t-149.5 -32.5q-82 0 -150 40t-138 123zM250 1638l291 334l293 -334l-162 -137l-129 174l-131 -172z" />
    <glyph glyph-name="jcircumflex" unicode="&#x135;" horiz-adv-x="768" 
d="M-16 145l178 152q36 -41 61.5 -59.5t59.5 -18.5q63 0 103 89.5t40 246.5v903h236v-909q0 -147 -31 -259t-86 -177.5t-123.5 -98t-149.5 -32.5q-82 0 -150 40t-138 123zM250 1638l291 334l293 -334l-162 -137l-129 174l-131 -172z" />
    <glyph glyph-name="Kcommaaccent" unicode="&#x136;" horiz-adv-x="970" 
d="M109 0v1458h237v-852l330 852h264l-332 -811l324 -647h-266l-201 410l-119 -244v-166h-237zM504 -57q74 0 116 -55.5t42 -137.5q0 -102 -58.5 -175.5t-169.5 -139.5l-96 155q103 64 115 76q-45 8 -73 41t-28 78q0 63 43 110.5t109 47.5z" />
    <glyph glyph-name="kcommaaccent" unicode="&#x137;" horiz-adv-x="968" 
d="M106 0v1458h238v-852l330 852h264l-332 -811l324 -647h-266l-201 410l-119 -244v-166h-238zM502 -57q74 0 115.5 -55.5t41.5 -137.5q0 -102 -58 -175.5t-169 -139.5l-96 155q103 64 115 76q-45 8 -73 41t-28 78q0 63 43 110.5t109 47.5z" />
    <glyph glyph-name="Lacute" unicode="&#x139;" horiz-adv-x="823" 
d="M109 0v1458h237v-1225h440v-233h-677zM72 1614l241 356l185 -133l-265 -340z" />
    <glyph glyph-name="lacute" unicode="&#x13a;" horiz-adv-x="823" 
d="M109 0v1458h237v-1225h440v-233h-677zM72 1614l241 356l185 -133l-265 -340z" />
    <glyph glyph-name="Lcommaaccent" unicode="&#x13b;" horiz-adv-x="823" 
d="M109 0v1458h237v-1225h440v-233h-677zM444 -61q74 0 116 -55.5t42 -137.5q0 -102 -58 -175.5t-169 -139.5l-96 155q101 63 114 76q-44 8 -72 40.5t-28 78.5q0 63 42.5 110.5t108.5 47.5z" />
    <glyph glyph-name="lcommaaccent" unicode="&#x13c;" horiz-adv-x="823" 
d="M109 0v1458h237v-1225h440v-233h-677zM444 -61q74 0 116 -55.5t42 -137.5q0 -102 -58 -175.5t-169 -139.5l-96 155q101 63 114 76q-44 8 -72 40.5t-28 78.5q0 63 42.5 110.5t108.5 47.5z" />
    <glyph glyph-name="Lcaron" unicode="&#x13d;" horiz-adv-x="825" 
d="M729 1280q0 -108 -62.5 -184.5t-183.5 -145.5q-7 11 -41 68.5t-53 87.5q92 54 131 88q-45 7 -72.5 41.5t-27.5 79.5q0 63 42.5 111.5t110.5 48.5q73 0 114.5 -55t41.5 -140zM109 0v1458h237v-1225h442v-233h-679z" />
    <glyph glyph-name="lcaron" unicode="&#x13e;" horiz-adv-x="825" 
d="M729 1280q0 -108 -62.5 -184.5t-183.5 -145.5q-7 11 -41 68.5t-53 87.5q92 54 131 88q-45 7 -72.5 41.5t-27.5 79.5q0 63 42.5 111.5t110.5 48.5q73 0 114.5 -55t41.5 -140zM109 0v1458h237v-1225h442v-233h-679z" />
    <glyph glyph-name="Ldot" unicode="&#x13f;" horiz-adv-x="831" 
d="M422 569q0 68 46 115t114 47t115.5 -47.5t47.5 -114.5q0 -68 -47.5 -114.5t-115.5 -46.5q-69 0 -114.5 46t-45.5 115zM109 0v1458h237v-1225h442v-233h-679z" />
    <glyph glyph-name="ldot" unicode="&#x140;" horiz-adv-x="831" 
d="M422 569q0 68 46 115t114 47t115.5 -47.5t47.5 -114.5q0 -68 -47.5 -114.5t-115.5 -46.5q-69 0 -114.5 46t-45.5 115zM109 0v1458h237v-1225h442v-233h-679z" />
    <glyph glyph-name="Lslash" unicode="&#x141;" horiz-adv-x="837" 
d="M70 365l-84 210l137 62v821h237v-717l117 54l90 -209l-207 -92v-261h441v-233h-678v387z" />
    <glyph glyph-name="lslash" unicode="&#x142;" horiz-adv-x="837" 
d="M70 365l-84 210l137 62v821h237v-717l117 54l90 -209l-207 -92v-261h441v-233h-678v387z" />
    <glyph glyph-name="Nacute" unicode="&#x143;" horiz-adv-x="1054" 
d="M944 1458v-1458h-246l-358 938v-938h-231v1458h245l361 -936v936h229zM371 1614l241 356l185 -133l-265 -340z" />
    <glyph glyph-name="nacute" unicode="&#x144;" horiz-adv-x="1054" 
d="M944 1458v-1458h-246l-358 938v-938h-231v1458h245l361 -936v936h229zM371 1614l241 356l185 -133l-265 -340z" />
    <glyph glyph-name="Ncommaaccent" unicode="&#x145;" horiz-adv-x="1054" 
d="M944 1458v-1458h-246l-358 938v-938h-231v1458h245l361 -936v936h229zM522 -61q74 0 116 -55.5t42 -137.5q0 -102 -58 -175.5t-169 -139.5l-97 155q103 64 115 76q-44 8 -72 40.5t-28 78.5q0 63 42.5 110.5t108.5 47.5z" />
    <glyph glyph-name="ncommaaccent" unicode="&#x146;" horiz-adv-x="1054" 
d="M944 1458v-1458h-246l-358 938v-938h-231v1458h245l361 -936v936h229zM522 -61q74 0 116 -55.5t42 -137.5q0 -102 -58 -175.5t-169 -139.5l-97 155q103 64 115 76q-44 8 -72 40.5t-28 78.5q0 63 42.5 110.5t108.5 47.5z" />
    <glyph glyph-name="Ncaron" unicode="&#x147;" horiz-adv-x="1054" 
d="M944 1458v-1458h-246l-358 938v-938h-231v1458h245l361 -936v936h229zM530 1501l-290 334l161 135l131 -172l130 174l161 -137z" />
    <glyph glyph-name="ncaron" unicode="&#x148;" horiz-adv-x="1054" 
d="M944 1458v-1458h-246l-358 938v-938h-231v1458h245l361 -936v936h229zM530 1501l-290 334l161 135l131 -172l130 174l161 -137z" />
    <glyph glyph-name="Eng" unicode="&#x14a;" horiz-adv-x="1054" 
d="M715 1458h229v-1214q0 -143 -31.5 -253.5t-86 -177t-123 -99.5t-148.5 -33q-77 0 -143 36t-131 109q25 24 54.5 50t65.5 58t56 50q31 -36 53.5 -51t54.5 -15q38 0 72 34t53 91q-29 74 -155 396t-195 495v-934h-231v1458h245q102 -267 361 -928v928z" />
    <glyph glyph-name="eng" unicode="&#x14b;" horiz-adv-x="1054" 
d="M715 1458h229v-1214q0 -143 -31.5 -253.5t-86 -177t-123 -99.5t-148.5 -33q-77 0 -143 36t-131 109q25 24 54.5 50t65.5 58t56 50q31 -36 53.5 -51t54.5 -15q38 0 72 34t53 91q-29 74 -155 396t-195 495v-934h-231v1458h245q102 -267 361 -928v928z" />
    <glyph glyph-name="Omacron" unicode="&#x14c;" horiz-adv-x="983" 
d="M705 727q0 125 -24 239.5t-74 192.5t-115 78t-115 -78t-74 -192.5t-24 -239.5q0 -123 23.5 -237.5t73.5 -194.5t116 -80q64 0 114 77.5t74.5 192.5t24.5 242zM43 727q0 198 50 365t154 275t245 108q106 0 192.5 -63t141.5 -168.5t84.5 -238.5t29.5 -278
q0 -116 -18.5 -224.5t-56 -203t-90 -165.5t-125.5 -111.5t-158 -40.5q-106 0 -193 62.5t-142 167.5t-84.5 237.5t-29.5 277.5zM244 1573v217h491v-217h-491z" />
    <glyph glyph-name="omacron" unicode="&#x14d;" horiz-adv-x="983" 
d="M705 727q0 125 -24 239.5t-74 192.5t-115 78t-115 -78t-74 -192.5t-24 -239.5q0 -123 23.5 -237.5t73.5 -194.5t116 -80q64 0 114 77.5t74.5 192.5t24.5 242zM43 727q0 198 50 365t154 275t245 108q106 0 192.5 -63t141.5 -168.5t84.5 -238.5t29.5 -278
q0 -116 -18.5 -224.5t-56 -203t-90 -165.5t-125.5 -111.5t-158 -40.5q-106 0 -193 62.5t-142 167.5t-84.5 237.5t-29.5 277.5zM244 1573v217h491v-217h-491z" />
    <glyph glyph-name="Obreve" unicode="&#x14e;" horiz-adv-x="983" 
d="M705 727q0 125 -24 239.5t-74 192.5t-115 78t-115 -78t-74 -192.5t-24 -239.5q0 -123 23.5 -237.5t73.5 -194.5t116 -80q64 0 114 77.5t74.5 192.5t24.5 242zM43 727q0 198 50 365t154 275t245 108q106 0 192.5 -63t141.5 -168.5t84.5 -238.5t29.5 -278
q0 -116 -18.5 -224.5t-56 -203t-90 -165.5t-125.5 -111.5t-158 -40.5q-106 0 -193 62.5t-142 167.5t-84.5 237.5t-29.5 277.5zM190 1853l199 74q4 -10 11.5 -30t11.5 -31t11 -28.5t11.5 -27t10.5 -23t11 -20.5t10.5 -14.5t10.5 -10.5t10 -3q12 0 24 14t27.5 48t24.5 56.5
t27 71.5l198 -76q-123 -325 -299 -325t-299 325z" />
    <glyph glyph-name="obreve" unicode="&#x14f;" horiz-adv-x="983" 
d="M705 727q0 125 -24 239.5t-74 192.5t-115 78t-115 -78t-74 -192.5t-24 -239.5q0 -123 23.5 -237.5t73.5 -194.5t116 -80q64 0 114 77.5t74.5 192.5t24.5 242zM43 727q0 198 50 365t154 275t245 108q106 0 192.5 -63t141.5 -168.5t84.5 -238.5t29.5 -278
q0 -116 -18.5 -224.5t-56 -203t-90 -165.5t-125.5 -111.5t-158 -40.5q-106 0 -193 62.5t-142 167.5t-84.5 237.5t-29.5 277.5zM190 1853l199 74q4 -10 11.5 -30t11.5 -31t11 -28.5t11.5 -27t10.5 -23t11 -20.5t10.5 -14.5t10.5 -10.5t10 -3q12 0 24 14t27.5 48t24.5 56.5
t27 71.5l198 -76q-123 -325 -299 -325t-299 325z" />
    <glyph glyph-name="Ohungarumlaut" unicode="&#x150;" horiz-adv-x="983" 
d="M705 727q0 125 -24 239.5t-74 192.5t-115 78t-115 -78t-74 -192.5t-24 -239.5q0 -123 23.5 -237.5t73.5 -194.5t116 -80q64 0 114 77.5t74.5 192.5t24.5 242zM43 727q0 198 50 365t154 275t245 108q106 0 192.5 -63t141.5 -168.5t84.5 -238.5t29.5 -278
q0 -116 -18.5 -224.5t-56 -203t-90 -165.5t-125.5 -111.5t-158 -40.5q-106 0 -193 62.5t-142 167.5t-84.5 237.5t-29.5 277.5zM225 1585l168 395l197 -96l-189 -383zM498 1585l170 393l200 -98l-196 -379z" />
    <glyph glyph-name="ohungarumlaut" unicode="&#x151;" horiz-adv-x="983" 
d="M705 727q0 125 -24 239.5t-74 192.5t-115 78t-115 -78t-74 -192.5t-24 -239.5q0 -123 23.5 -237.5t73.5 -194.5t116 -80q64 0 114 77.5t74.5 192.5t24.5 242zM43 727q0 198 50 365t154 275t245 108q106 0 192.5 -63t141.5 -168.5t84.5 -238.5t29.5 -278
q0 -116 -18.5 -224.5t-56 -203t-90 -165.5t-125.5 -111.5t-158 -40.5q-106 0 -193 62.5t-142 167.5t-84.5 237.5t-29.5 277.5zM225 1585l168 395l197 -96l-189 -383zM498 1585l170 393l200 -98l-196 -379z" />
    <glyph glyph-name="OE" unicode="&#x152;" horiz-adv-x="1284" 
d="M797 233h428v-233h-629q-49 -16 -107 -16q-106 0 -193 63t-141.5 168t-84 237.5t-29.5 276.5q0 146 29.5 278.5t84 237t141.5 166.5t193 62q38 0 107 -15h629v-237h-428v-373h293v-234h-293v-381zM561 248v962q-32 29 -72 29q-67 0 -117.5 -79.5t-74 -193.5t-23.5 -237
t23 -237.5t72.5 -194.5t115.5 -80q42 0 76 31z" />
    <glyph glyph-name="oe" unicode="&#x153;" horiz-adv-x="1284" 
d="M797 233h428v-233h-629q-49 -16 -107 -16q-106 0 -193 63t-141.5 168t-84 237.5t-29.5 276.5q0 146 29.5 278.5t84 237t141.5 166.5t193 62q38 0 107 -15h629v-237h-428v-373h293v-234h-293v-381zM561 248v962q-32 29 -72 29q-67 0 -117.5 -79.5t-74 -193.5t-23.5 -237
t23 -237.5t72.5 -194.5t115.5 -80q42 0 76 31z" />
    <glyph glyph-name="Racute" unicode="&#x154;" horiz-adv-x="940" 
d="M109 0v1458h376q93 0 168.5 -48t122.5 -127.5t72.5 -179t25.5 -206.5q0 -147 -45 -272t-129 -197l185 -428h-256l-146 338h-139v-338h-235zM344 571h137q75 0 116.5 96.5t41.5 229.5q0 131 -43.5 227.5t-120.5 96.5h-131v-650zM309 1614l242 356l184 -133l-264 -340z" />
    <glyph glyph-name="racute" unicode="&#x155;" horiz-adv-x="940" 
d="M109 0v1458h376q93 0 168.5 -48t122.5 -127.5t72.5 -179t25.5 -206.5q0 -147 -45 -272t-129 -197l185 -428h-256l-146 338h-139v-338h-235zM344 571h137q75 0 116.5 96.5t41.5 229.5q0 131 -43.5 227.5t-120.5 96.5h-131v-650zM309 1614l242 356l184 -133l-264 -340z" />
    <glyph glyph-name="Rcommaaccent" unicode="&#x156;" horiz-adv-x="940" 
d="M109 0v1458h376q93 0 168.5 -48t122.5 -127.5t72.5 -179t25.5 -206.5q0 -147 -45 -272t-129 -197l185 -428h-256l-146 338h-139v-338h-235zM344 571h137q75 0 116.5 96.5t41.5 229.5q0 131 -43.5 227.5t-120.5 96.5h-131v-650zM477 -61q74 0 116 -55.5t42 -137.5
q0 -102 -58 -175.5t-169 -139.5l-97 155q103 64 115 76q-44 8 -72 40.5t-28 78.5q0 63 42.5 110.5t108.5 47.5z" />
    <glyph glyph-name="rcommaaccent" unicode="&#x157;" horiz-adv-x="940" 
d="M109 0v1458h376q93 0 168.5 -48t122.5 -127.5t72.5 -179t25.5 -206.5q0 -147 -45 -272t-129 -197l185 -428h-256l-146 338h-139v-338h-235zM344 571h137q75 0 116.5 96.5t41.5 229.5q0 131 -43.5 227.5t-120.5 96.5h-131v-650zM477 -61q74 0 116 -55.5t42 -137.5
q0 -102 -58 -175.5t-169 -139.5l-97 155q103 64 115 76q-44 8 -72 40.5t-28 78.5q0 63 42.5 110.5t108.5 47.5z" />
    <glyph glyph-name="Rcaron" unicode="&#x158;" horiz-adv-x="940" 
d="M109 0v1458h376q93 0 168.5 -48t122.5 -127.5t72.5 -179t25.5 -206.5q0 -147 -45 -272t-129 -197l185 -428h-256l-146 338h-139v-338h-235zM344 571h137q75 0 116.5 96.5t41.5 229.5q0 131 -43.5 227.5t-120.5 96.5h-131v-650zM467 1501l-291 334l162 135l131 -172
l129 174l162 -137z" />
    <glyph glyph-name="rcaron" unicode="&#x159;" horiz-adv-x="940" 
d="M109 0v1458h376q93 0 168.5 -48t122.5 -127.5t72.5 -179t25.5 -206.5q0 -147 -45 -272t-129 -197l185 -428h-256l-146 338h-139v-338h-235zM344 571h137q75 0 116.5 96.5t41.5 229.5q0 131 -43.5 227.5t-120.5 96.5h-131v-650zM467 1501l-291 334l162 135l131 -172
l129 174l162 -137z" />
    <glyph glyph-name="Sacute" unicode="&#x15a;" 
d="M29 180q14 15 72 76.5t89 95.5q138 -135 240 -135q61 0 96 49.5t35 116.5q0 45 -18 83.5t-48 67.5t-69 55.5t-82.5 52.5t-87 54t-82.5 65t-69 80t-48 104.5t-18 133.5q0 168 101.5 282t258.5 114q172 0 373 -172l-158 -179q-129 115 -215 115q-60 0 -92.5 -45.5
t-32.5 -114.5q0 -56 29 -101.5t75 -78t101.5 -64.5t111.5 -71.5t102 -87.5t75 -123.5t29 -169.5q0 -103 -45 -194t-130 -149t-192 -58q-193 0 -401 198zM242 1614l241 356l185 -133l-265 -340z" />
    <glyph glyph-name="sacute" unicode="&#x15b;" 
d="M29 180q14 15 72 76.5t89 95.5q138 -135 240 -135q61 0 96 49.5t35 116.5q0 45 -18 83.5t-48 67.5t-69 55.5t-82.5 52.5t-87 54t-82.5 65t-69 80t-48 104.5t-18 133.5q0 168 101.5 282t258.5 114q172 0 373 -172l-158 -179q-129 115 -215 115q-60 0 -92.5 -45.5
t-32.5 -114.5q0 -56 29 -101.5t75 -78t101.5 -64.5t111.5 -71.5t102 -87.5t75 -123.5t29 -169.5q0 -103 -45 -194t-130 -149t-192 -58q-193 0 -401 198zM242 1614l241 356l185 -133l-265 -340z" />
    <glyph glyph-name="Scircumflex" unicode="&#x15c;" 
d="M29 180q14 15 72 76.5t89 95.5q138 -135 240 -135q61 0 96 49.5t35 116.5q0 45 -18 83.5t-48 67.5t-69 55.5t-82.5 52.5t-87 54t-82.5 65t-69 80t-48 104.5t-18 133.5q0 168 101.5 282t258.5 114q172 0 373 -172l-158 -179q-129 115 -215 115q-60 0 -92.5 -45.5
t-32.5 -114.5q0 -56 29 -101.5t75 -78t101.5 -64.5t111.5 -71.5t102 -87.5t75 -123.5t29 -169.5q0 -103 -45 -194t-130 -149t-192 -58q-193 0 -401 198zM111 1638l290 334l293 -334l-162 -137l-129 174l-131 -172z" />
    <glyph glyph-name="scircumflex" unicode="&#x15d;" 
d="M29 180q14 15 72 76.5t89 95.5q138 -135 240 -135q61 0 96 49.5t35 116.5q0 45 -18 83.5t-48 67.5t-69 55.5t-82.5 52.5t-87 54t-82.5 65t-69 80t-48 104.5t-18 133.5q0 168 101.5 282t258.5 114q172 0 373 -172l-158 -179q-129 115 -215 115q-60 0 -92.5 -45.5
t-32.5 -114.5q0 -56 29 -101.5t75 -78t101.5 -64.5t111.5 -71.5t102 -87.5t75 -123.5t29 -169.5q0 -103 -45 -194t-130 -149t-192 -58q-193 0 -401 198zM111 1638l290 334l293 -334l-162 -137l-129 174l-131 -172z" />
    <glyph glyph-name="Scedilla" unicode="&#x15e;" 
d="M31 180l159 172q138 -135 240 -135q62 0 96.5 50t34.5 116q0 58 -29 104.5t-75 80.5t-101.5 67t-111 72t-101.5 86.5t-75 120.5t-29 165q0 168 101.5 282t258.5 114q172 0 373 -172l-158 -177q-127 113 -215 113q-60 0 -92.5 -45.5t-32.5 -114.5q0 -57 29 -102t75 -78
t101.5 -65t111.5 -71t102 -87t75 -123.5t29 -169.5q0 -103 -45 -194t-130 -149t-192 -58q-191 0 -399 198zM180 -455l78 156q67 -45 119 -45q41 0 63.5 21t22.5 51q0 26 -17 44.5t-45 18.5q-33 0 -79 -24q-24 52 -58 129q71 47 148 47q97 0 151.5 -64t54.5 -158
q0 -98 -64.5 -169.5t-180.5 -71.5h-11q-90 3 -182 65z" />
    <glyph glyph-name="scedilla" unicode="&#x15f;" 
d="M31 180l159 172q138 -135 240 -135q62 0 96.5 50t34.5 116q0 58 -29 104.5t-75 80.5t-101.5 67t-111 72t-101.5 86.5t-75 120.5t-29 165q0 168 101.5 282t258.5 114q172 0 373 -172l-158 -177q-127 113 -215 113q-60 0 -92.5 -45.5t-32.5 -114.5q0 -57 29 -102t75 -78
t101.5 -65t111.5 -71t102 -87t75 -123.5t29 -169.5q0 -103 -45 -194t-130 -149t-192 -58q-191 0 -399 198zM180 -455l78 156q67 -45 119 -45q41 0 63.5 21t22.5 51q0 26 -17 44.5t-45 18.5q-33 0 -79 -24q-24 52 -58 129q71 47 148 47q97 0 151.5 -64t54.5 -158
q0 -98 -64.5 -169.5t-180.5 -71.5h-11q-90 3 -182 65z" />
    <glyph glyph-name="Scaron" unicode="&#x160;" 
d="M29 180q14 15 72 76.5t89 95.5q138 -135 240 -135q61 0 96 49.5t35 116.5q0 45 -18 83.5t-48 67.5t-69 55.5t-82.5 52.5t-87 54t-82.5 65t-69 80t-48 104.5t-18 133.5q0 168 101.5 282t258.5 114q172 0 373 -172l-158 -179q-129 115 -215 115q-60 0 -92.5 -45.5
t-32.5 -114.5q0 -56 29 -101.5t75 -78t101.5 -64.5t111.5 -71.5t102 -87.5t75 -123.5t29 -169.5q0 -103 -45 -194t-130 -149t-192 -58q-193 0 -401 198zM401 1501l-290 334l161 135l131 -172l129 174l162 -137z" />
    <glyph glyph-name="scaron" unicode="&#x161;" 
d="M29 180q14 15 72 76.5t89 95.5q138 -135 240 -135q61 0 96 49.5t35 116.5q0 45 -18 83.5t-48 67.5t-69 55.5t-82.5 52.5t-87 54t-82.5 65t-69 80t-48 104.5t-18 133.5q0 168 101.5 282t258.5 114q172 0 373 -172l-158 -179q-129 115 -215 115q-60 0 -92.5 -45.5
t-32.5 -114.5q0 -56 29 -101.5t75 -78t101.5 -64.5t111.5 -71.5t102 -87.5t75 -123.5t29 -169.5q0 -103 -45 -194t-130 -149t-192 -58q-193 0 -401 198zM401 1501l-290 334l161 135l131 -172l129 174l162 -137z" />
    <glyph glyph-name="Tcommaaccent" unicode="&#x162;" horiz-adv-x="876" 
d="M319 0v1221h-276v237h791v-237h-277v-1221h-238zM203 -455l78 156q67 -45 118 -45q41 0 63.5 21t22.5 51q0 26 -16.5 44.5t-44.5 18.5q-34 0 -80 -24q-7 14 -57 129q71 47 147 47q97 0 152 -64t55 -158q0 -98 -65 -169.5t-181 -71.5h-10q-90 3 -182 65z" />
    <glyph glyph-name="tcommaaccent" unicode="&#x163;" horiz-adv-x="876" 
d="M319 0v1221h-276v237h791v-237h-277v-1221h-238zM203 -455l78 156q67 -45 118 -45q41 0 63.5 21t22.5 51q0 26 -16.5 44.5t-44.5 18.5q-34 0 -80 -24q-7 14 -57 129q71 47 147 47q97 0 152 -64t55 -158q0 -98 -65 -169.5t-181 -71.5h-10q-90 3 -182 65z" />
    <glyph glyph-name="Tcaron" unicode="&#x164;" horiz-adv-x="876" 
d="M319 0v1221h-276v237h791v-237h-277v-1221h-238zM436 1501l-291 334l162 135l131 -172l129 174l162 -137z" />
    <glyph glyph-name="tcaron" unicode="&#x165;" horiz-adv-x="876" 
d="M319 0v1221h-276v237h791v-237h-277v-1221h-238zM438 1501l-291 334l162 135l131 -172l129 174l162 -137z" />
    <glyph glyph-name="Tbar" unicode="&#x166;" horiz-adv-x="876" 
d="M178 729v227h141v265h-276v237h791v-237h-279v-265h143v-227h-143v-729h-236v729h-141z" />
    <glyph glyph-name="tbar" unicode="&#x167;" horiz-adv-x="876" 
d="M178 729v227h141v265h-276v237h791v-237h-279v-265h143v-227h-143v-729h-236v729h-141z" />
    <glyph glyph-name="Utilde" unicode="&#x168;" horiz-adv-x="997" 
d="M104 522v936h236v-936q0 -146 46 -225.5t110 -79.5q65 0 114 78.5t49 226.5v936h234v-936q0 -134 -34 -240t-91 -170t-126.5 -97t-145.5 -33q-77 0 -146 33.5t-124.5 97.5t-88.5 170t-33 239zM338 1556l-191 89q106 253 259 253q33 0 59.5 -13t42.5 -31.5t28.5 -37
t23.5 -31.5t22 -13q21 0 71 112l193 -88q-23 -51 -45.5 -90t-54 -78.5t-70 -61.5t-80.5 -22q-36 0 -64.5 13t-45.5 32t-29.5 37.5t-24 31.5t-22.5 13t-26.5 -25.5t-45.5 -89.5z" />
    <glyph glyph-name="utilde" unicode="&#x169;" horiz-adv-x="997" 
d="M104 522v936h236v-936q0 -146 46 -225.5t110 -79.5q65 0 114 78.5t49 226.5v936h234v-936q0 -134 -34 -240t-91 -170t-126.5 -97t-145.5 -33q-77 0 -146 33.5t-124.5 97.5t-88.5 170t-33 239zM338 1556l-191 89q106 253 259 253q33 0 59.5 -13t42.5 -31.5t28.5 -37
t23.5 -31.5t22 -13q21 0 71 112l193 -88q-23 -51 -45.5 -90t-54 -78.5t-70 -61.5t-80.5 -22q-36 0 -64.5 13t-45.5 32t-29.5 37.5t-24 31.5t-22.5 13t-26.5 -25.5t-45.5 -89.5z" />
    <glyph glyph-name="Umacron" unicode="&#x16a;" horiz-adv-x="997" 
d="M104 522v936h236v-936q0 -146 46 -225.5t110 -79.5q65 0 114 78.5t49 226.5v936h234v-936q0 -134 -34 -240t-91 -170t-126.5 -97t-145.5 -33q-77 0 -146 33.5t-124.5 97.5t-88.5 170t-33 239zM250 1585v217h491v-217h-491z" />
    <glyph glyph-name="umacron" unicode="&#x16b;" horiz-adv-x="997" 
d="M104 522v936h236v-936q0 -146 46 -225.5t110 -79.5q65 0 114 78.5t49 226.5v936h234v-936q0 -134 -34 -240t-91 -170t-126.5 -97t-145.5 -33q-77 0 -146 33.5t-124.5 97.5t-88.5 170t-33 239zM250 1585v217h491v-217h-491z" />
    <glyph glyph-name="Ubreve" unicode="&#x16c;" horiz-adv-x="997" 
d="M104 522v936h236v-936q0 -146 46 -225.5t110 -79.5q65 0 114 78.5t49 226.5v936h234v-936q0 -134 -34 -240t-91 -170t-126.5 -97t-145.5 -33q-77 0 -146 33.5t-124.5 97.5t-88.5 170t-33 239zM197 1866l198 73q51 -135 69 -163q16 -25 30 -25q11 0 22.5 12.5t25.5 44
t22.5 51.5t25.5 67q2 5 3.5 8.5t2.5 7.5l199 -76q-123 -326 -299 -326t-299 326z" />
    <glyph glyph-name="ubreve" unicode="&#x16d;" horiz-adv-x="997" 
d="M104 522v936h236v-936q0 -146 46 -225.5t110 -79.5q65 0 114 78.5t49 226.5v936h234v-936q0 -134 -34 -240t-91 -170t-126.5 -97t-145.5 -33q-77 0 -146 33.5t-124.5 97.5t-88.5 170t-33 239zM197 1866l198 73q51 -135 69 -163q16 -25 30 -25q11 0 22.5 12.5t25.5 44
t22.5 51.5t25.5 67q2 5 3.5 8.5t2.5 7.5l199 -76q-123 -326 -299 -326t-299 326z" />
    <glyph glyph-name="Uring" unicode="&#x16e;" horiz-adv-x="997" 
d="M104 522v936h236v-936q0 -146 46 -225.5t110 -79.5q65 0 114 78.5t49 226.5v936h234v-936q0 -134 -34 -240t-91 -170t-126.5 -97t-145.5 -33q-77 0 -146 33.5t-124.5 97.5t-88.5 170t-33 239zM418 1769q0 -32 24 -55.5t58 -23.5q32 0 56 23.5t24 55.5q0 34 -24 59t-56 25
q-34 0 -58 -25t-24 -59zM250 1769q0 104 73.5 178t176.5 74q104 0 176 -73.5t72 -178.5q0 -103 -72 -174t-176 -71q-103 0 -176.5 71.5t-73.5 173.5z" />
    <glyph glyph-name="uring" unicode="&#x16f;" horiz-adv-x="997" 
d="M104 522v936h236v-936q0 -146 46 -225.5t110 -79.5q65 0 114 78.5t49 226.5v936h234v-936q0 -134 -34 -240t-91 -170t-126.5 -97t-145.5 -33q-77 0 -146 33.5t-124.5 97.5t-88.5 170t-33 239zM418 1769q0 -32 24 -55.5t58 -23.5q32 0 56 23.5t24 55.5q0 34 -24 59t-56 25
q-34 0 -58 -25t-24 -59zM250 1769q0 104 73.5 178t176.5 74q104 0 176 -73.5t72 -178.5q0 -103 -72 -174t-176 -71q-103 0 -176.5 71.5t-73.5 173.5z" />
    <glyph glyph-name="Uhungarumlaut" unicode="&#x170;" horiz-adv-x="997" 
d="M104 522v936h236v-936q0 -146 46 -225.5t110 -79.5q65 0 114 78.5t49 226.5v936h234v-936q0 -134 -34 -240t-91 -170t-126.5 -97t-145.5 -33q-77 0 -146 33.5t-124.5 97.5t-88.5 170t-33 239zM231 1597l168 396l197 -97l-188 -383zM504 1597l170 394l200 -99l-196 -379z
" />
    <glyph glyph-name="uhungarumlaut" unicode="&#x171;" horiz-adv-x="997" 
d="M104 522v936h236v-936q0 -146 46 -225.5t110 -79.5q65 0 114 78.5t49 226.5v936h234v-936q0 -134 -34 -240t-91 -170t-126.5 -97t-145.5 -33q-77 0 -146 33.5t-124.5 97.5t-88.5 170t-33 239zM231 1597l168 396l197 -97l-188 -383zM504 1597l170 394l200 -99l-196 -379z
" />
    <glyph glyph-name="Uogonek" unicode="&#x172;" horiz-adv-x="997" 
d="M618 -117l101 -159q-126 -103 -240 -103q-93 0 -151 61.5t-58 151.5q0 101 86 176q-113 50 -182.5 180.5t-69.5 331.5v936h236v-936q0 -146 46 -225.5t110 -79.5q65 0 114 78.5t49 226.5v936h234v-936q0 -117 -26.5 -213.5t-72 -160.5t-102.5 -104t-123 -54
q-129 -76 -129 -135q0 -18 11 -28.5t26 -10.5q42 0 141 67z" />
    <glyph glyph-name="uogonek" unicode="&#x173;" horiz-adv-x="997" 
d="M618 -117l101 -159q-126 -103 -240 -103q-93 0 -151 61.5t-58 151.5q0 101 86 176q-113 50 -182.5 180.5t-69.5 331.5v936h236v-936q0 -146 46 -225.5t110 -79.5q65 0 114 78.5t49 226.5v936h234v-936q0 -117 -26.5 -213.5t-72 -160.5t-102.5 -104t-123 -54
q-129 -76 -129 -135q0 -18 11 -28.5t26 -10.5q42 0 141 67z" />
    <glyph glyph-name="Wcircumflex" unicode="&#x174;" horiz-adv-x="1302" 
d="M1303 1458l-297 -1458h-224q-39 256 -131 899l-133 -899h-223l-295 1458h246q129 -734 166 -936l135 936h209l135 -936l164 936h248zM362 1638l291 334l293 -334l-162 -137l-129 174l-131 -172z" />
    <glyph glyph-name="wcircumflex" unicode="&#x175;" horiz-adv-x="1302" 
d="M1303 1458l-297 -1458h-224q-39 256 -131 899l-133 -899h-223l-295 1458h246q129 -734 166 -936l135 936h209l135 -936l164 936h248zM362 1638l291 334l293 -334l-162 -137l-129 174l-131 -172z" />
    <glyph glyph-name="Ycircumflex" unicode="&#x176;" horiz-adv-x="864" 
d="M315 0v354l-305 1104h246l176 -708l176 708h246l-305 -1104v-354h-234zM141 1638l291 334l293 -334l-162 -137l-129 174l-131 -172z" />
    <glyph glyph-name="ycircumflex" unicode="&#x177;" horiz-adv-x="864" 
d="M315 0v354l-305 1104h246l176 -708l176 708h246l-305 -1104v-354h-234zM141 1638l291 334l293 -334l-162 -137l-129 174l-131 -172z" />
    <glyph glyph-name="Ydieresis" unicode="&#x178;" horiz-adv-x="864" 
d="M315 0v354l-305 1104h246l176 -708l176 708h246l-305 -1104v-354h-234zM250 1548q-69 0 -115.5 47.5t-46.5 116.5q0 67 47 114.5t115 47.5q66 0 112 -48t46 -114q0 -69 -46 -116.5t-112 -47.5zM612 1548q-68 0 -112.5 47t-44.5 117q0 67 44.5 114.5t112.5 47.5
q66 0 114 -48t48 -114q0 -68 -48 -116t-114 -48z" />
    <glyph glyph-name="Zacute" unicode="&#x179;" horiz-adv-x="862" 
d="M68 0v217l458 1004h-458v237h727v-221l-459 -1004h459v-233h-727zM272 1614l242 356l184 -133l-264 -340z" />
    <glyph glyph-name="zacute" unicode="&#x17a;" horiz-adv-x="862" 
d="M68 0v217l458 1004h-458v237h727v-221l-459 -1004h459v-233h-727zM272 1614l242 356l184 -133l-264 -340z" />
    <glyph glyph-name="Zdotaccent" unicode="&#x17b;" horiz-adv-x="862" 
d="M68 0v217l458 1004h-458v237h727v-221l-459 -1004h459v-233h-727zM268 1712q0 67 47 114.5t115 47.5q67 0 114.5 -48t47.5 -114q0 -70 -47 -116t-115 -46q-69 0 -115.5 46t-46.5 116z" />
    <glyph glyph-name="zdotaccent" unicode="&#x17c;" horiz-adv-x="862" 
d="M68 0v217l458 1004h-458v237h727v-221l-459 -1004h459v-233h-727zM268 1712q0 67 47 114.5t115 47.5q67 0 114.5 -48t47.5 -114q0 -70 -47 -116t-115 -46q-69 0 -115.5 46t-46.5 116z" />
    <glyph glyph-name="Zcaron" unicode="&#x17d;" horiz-adv-x="862" 
d="M68 0v217l458 1004h-458v237h727v-221l-459 -1004h459v-233h-727zM432 1501l-291 334l162 135l131 -172l129 174l162 -137z" />
    <glyph glyph-name="zcaron" unicode="&#x17e;" horiz-adv-x="862" 
d="M68 0v217l458 1004h-458v237h727v-221l-459 -1004h459v-233h-727zM432 1501l-291 334l162 135l131 -172l129 174l162 -137z" />
    <glyph glyph-name="Gcaron" unicode="&#x1e6;" horiz-adv-x="978" 
d="M557 580v235h375q4 -58 4 -90q0 -113 -17.5 -220.5t-53.5 -202.5t-88 -166t-125.5 -112.5t-159.5 -41.5q-106 0 -193 62.5t-142 167.5t-84.5 237.5t-29.5 277.5q0 146 29.5 279t84.5 238.5t142 168t193 62.5q135 0 233.5 -100.5t157.5 -272.5l-221 -74q-31 96 -75 152.5
t-98 56.5q-64 0 -113.5 -78t-73 -193t-23.5 -241q0 -138 27 -254t76 -186t110 -70q73 0 132.5 101t82.5 264h-150zM489 1501l-290 334l161 135l132 -172l129 174l161 -137z" />
    <glyph glyph-name="gcaron" unicode="&#x1e7;" horiz-adv-x="978" 
d="M557 580v235h375q4 -58 4 -90q0 -113 -17.5 -220.5t-53.5 -202.5t-88 -166t-125.5 -112.5t-159.5 -41.5q-106 0 -193 62.5t-142 167.5t-84.5 237.5t-29.5 277.5q0 146 29.5 279t84.5 238.5t142 168t193 62.5q135 0 233.5 -100.5t157.5 -272.5l-221 -74q-31 96 -75 152.5
t-98 56.5q-64 0 -113.5 -78t-73 -193t-23.5 -241q0 -138 27 -254t76 -186t110 -70q73 0 132.5 101t82.5 264h-150zM489 1501l-290 334l161 135l132 -172l129 174l161 -137z" />
    <glyph glyph-name="uni01EA" unicode="&#x1ea;" horiz-adv-x="983" 
d="M604 -117l101 -159q-126 -103 -240 -103q-93 0 -151 61.5t-58 151.5q0 105 90 180q-144 71 -223.5 269.5t-79.5 443.5q0 198 50 365t154 275t245 108q106 0 192.5 -63t141.5 -168.5t84.5 -238.5t29.5 -278q0 -182 -43.5 -339.5t-133.5 -267.5t-212 -132
q-125 -76 -125 -133q0 -18 11 -28.5t26 -10.5q42 0 141 67zM705 727q0 125 -24 239.5t-74 192.5t-115 78t-115 -78t-74 -192.5t-24 -239.5q0 -123 23.5 -237.5t73.5 -194.5t116 -80q64 0 114 77.5t74.5 192.5t24.5 242z" />
    <glyph glyph-name="uni01EB" unicode="&#x1eb;" horiz-adv-x="983" 
d="M604 -117l101 -159q-126 -103 -240 -103q-93 0 -151 61.5t-58 151.5q0 105 90 180q-144 71 -223.5 269.5t-79.5 443.5q0 198 50 365t154 275t245 108q106 0 192.5 -63t141.5 -168.5t84.5 -238.5t29.5 -278q0 -182 -43.5 -339.5t-133.5 -267.5t-212 -132
q-125 -76 -125 -133q0 -18 11 -28.5t26 -10.5q42 0 141 67zM705 727q0 125 -24 239.5t-74 192.5t-115 78t-115 -78t-74 -192.5t-24 -239.5q0 -123 23.5 -237.5t73.5 -194.5t116 -80q64 0 114 77.5t74.5 192.5t24.5 242z" />
    <glyph glyph-name="AEacute" unicode="&#x1fc;" horiz-adv-x="1300" 
d="M0 0l446 1458h795v-237h-426v-373h295v-234h-295v-381h426v-233h-649v188h-289l-55 -188h-248zM369 422h223v770zM639 1614l242 356l184 -133l-264 -340z" />
    <glyph glyph-name="aeacute" unicode="&#x1fd;" horiz-adv-x="1300" 
d="M0 0l446 1458h795v-237h-426v-373h295v-234h-295v-381h426v-233h-649v188h-289l-55 -188h-248zM369 422h223v770zM639 1614l242 356l184 -133l-264 -340z" />
    <glyph glyph-name="Oslashacute" unicode="&#x1fe;" horiz-adv-x="991" 
d="M477 213q6 -2 17 -2q65 0 117.5 72.5t81 190t28.5 253.5q0 215 -57 344q-32 -143 -94 -429zM324 381l190 858q-10 2 -27 2q-61 0 -111.5 -69.5t-78 -180.5t-27.5 -235q0 -251 54 -375zM737 1364q99 -97 154 -267.5t55 -369.5q0 -144 -30.5 -277t-86 -237.5t-142.5 -166.5
t-193 -62q-37 0 -64 6q-5 -31 -14 -64h-197q31 137 35 158q-100 98 -155.5 271.5t-55.5 371.5q0 196 50.5 363t155 275t245.5 108q19 0 71 -9l15 66h196q-7 -27 -19.5 -82.5t-19.5 -83.5zM754 1860q-45 -57 -133.5 -169.5t-133.5 -168.5l-159 116q200 298 241 357z" />
    <glyph glyph-name="oslashacute" unicode="&#x1ff;" horiz-adv-x="991" 
d="M477 213q6 -2 17 -2q65 0 117.5 72.5t81 190t28.5 253.5q0 215 -57 344q-32 -143 -94 -429zM324 381l190 858q-10 2 -27 2q-61 0 -111.5 -69.5t-78 -180.5t-27.5 -235q0 -251 54 -375zM737 1364q99 -97 154 -267.5t55 -369.5q0 -144 -30.5 -277t-86 -237.5t-142.5 -166.5
t-193 -62q-37 0 -64 6q-5 -31 -14 -64h-197q31 137 35 158q-100 98 -155.5 271.5t-55.5 371.5q0 196 50.5 363t155 275t245.5 108q19 0 71 -9l15 66h196q-7 -27 -19.5 -82.5t-19.5 -83.5zM754 1860q-45 -57 -133.5 -169.5t-133.5 -168.5l-159 116q200 298 241 357z" />
    <glyph glyph-name="Scommaaccent" unicode="&#x218;" 
d="M29 180q14 15 72 76.5t89 95.5q138 -135 240 -135q61 0 96 49.5t35 116.5q0 45 -18 83.5t-48 67.5t-69 55.5t-82.5 52.5t-87 54t-82.5 65t-69 80t-48 104.5t-18 133.5q0 168 101.5 282t258.5 114q172 0 373 -172l-158 -179q-129 115 -215 115q-60 0 -92.5 -45.5
t-32.5 -114.5q0 -56 29 -101.5t75 -78t101.5 -64.5t111.5 -71.5t102 -87.5t75 -123.5t29 -169.5q0 -103 -45 -194t-130 -149t-192 -58q-193 0 -401 198zM416 -61q74 0 115.5 -55.5t41.5 -137.5q0 -102 -58 -175.5t-169 -139.5l-96 155q103 64 115 76q-45 8 -73 41t-28 78
q0 63 43 110.5t109 47.5z" />
    <glyph glyph-name="scommaaccent" unicode="&#x219;" 
d="M29 180q14 15 72 76.5t89 95.5q138 -135 240 -135q61 0 96 49.5t35 116.5q0 45 -18 83.5t-48 67.5t-69 55.5t-82.5 52.5t-87 54t-82.5 65t-69 80t-48 104.5t-18 133.5q0 168 101.5 282t258.5 114q172 0 373 -172l-158 -179q-129 115 -215 115q-60 0 -92.5 -45.5
t-32.5 -114.5q0 -56 29 -101.5t75 -78t101.5 -64.5t111.5 -71.5t102 -87.5t75 -123.5t29 -169.5q0 -103 -45 -194t-130 -149t-192 -58q-193 0 -401 198zM416 -61q74 0 115.5 -55.5t41.5 -137.5q0 -102 -58 -175.5t-169 -139.5l-96 155q103 64 115 76q-45 8 -73 41t-28 78
q0 63 43 110.5t109 47.5z" />
    <glyph glyph-name="uni021A" unicode="&#x21a;" horiz-adv-x="876" 
d="M319 0v1221h-276v237h791v-237h-277v-1221h-238zM438 -70q74 0 116 -55t42 -137q0 -102 -58 -176t-169 -140l-97 156q103 64 115 76q-44 8 -72 40.5t-28 78.5q0 63 42.5 110t108.5 47z" />
    <glyph glyph-name="uni021B" unicode="&#x21b;" horiz-adv-x="876" 
d="M319 0v1221h-276v237h791v-237h-277v-1221h-238zM438 -70q74 0 116 -55t42 -137q0 -102 -58 -176t-169 -140l-97 156q103 64 115 76q-44 8 -72 40.5t-28 78.5q0 63 42.5 110t108.5 47z" />
    <glyph glyph-name="uni0232" unicode="&#x232;" horiz-adv-x="864" 
d="M315 0v354l-305 1104h246l176 -708l176 708h246l-305 -1104v-354h-234zM186 1573v217h492v-217h-492z" />
    <glyph glyph-name="uni0233" unicode="&#x233;" horiz-adv-x="864" 
d="M315 0v354l-305 1104h246l176 -708l176 708h246l-305 -1104v-354h-234zM186 1573v217h492v-217h-492z" />
    <glyph glyph-name="circumflex" unicode="&#x2c6;" horiz-adv-x="628" 
d="M23 1638l290 334l293 -334l-162 -137l-129 174l-131 -172z" />
    <glyph glyph-name="caron" unicode="&#x2c7;" horiz-adv-x="628" 
d="M313 1501l-290 334l161 135l131 -172l129 174l162 -137z" />
    <glyph glyph-name="breve" unicode="&#x2d8;" horiz-adv-x="643" 
d="M23 1853l198 74q4 -10 11.5 -30t11.5 -31t11 -28.5t11.5 -27t10.5 -23t11 -20.5t10.5 -14.5t10.5 -10.5t10 -3q12 0 24 14t27.5 48t24.5 56.5t27 71.5l199 -76q-123 -325 -299 -325t-299 325z" />
    <glyph glyph-name="dotaccent" unicode="&#x2d9;" horiz-adv-x="368" 
d="M23 1712q0 67 46.5 114.5t114.5 47.5q67 0 114.5 -48t47.5 -114q0 -70 -47 -116t-115 -46q-69 0 -115 46t-46 116z" />
    <glyph glyph-name="ring" unicode="&#x2da;" horiz-adv-x="542" 
d="M190 1757q0 -32 24 -56t58 -24q32 0 56 24t24 56q0 34 -24 59t-56 25q-34 0 -58 -25t-24 -59zM23 1757q0 104 73 178t176 74q104 0 176 -73.5t72 -178.5q0 -103 -72 -174.5t-176 -71.5q-103 0 -176 72t-73 174z" />
    <glyph glyph-name="ogonek" unicode="&#x2db;" horiz-adv-x="485" 
d="M367 -117l100 -159q-126 -103 -240 -103q-93 0 -151 61.5t-58 151.5q0 82 56.5 146.5t124.5 89.5l137 -70q-148 -83 -148 -145q0 -18 11 -28.5t26 -10.5q43 0 142 67z" />
    <glyph glyph-name="tilde" unicode="&#x2dc;" horiz-adv-x="743" 
d="M213 1544l-190 88q106 254 258 254q40 0 71.5 -20t46 -43.5t30 -43.5t28.5 -20q20 0 71 113l193 -88q-23 -51 -45.5 -90t-54 -78.5t-70 -61.5t-80.5 -22q-36 0 -64.5 13t-45.5 32t-29.5 37.5t-24 31.5t-22.5 13t-26.5 -25.5t-45.5 -89.5z" />
    <glyph glyph-name="hungarumlaut" unicode="&#x2dd;" horiz-adv-x="684" 
d="M20 1585l168 395l197 -96l-188 -383zM293 1585l170 393l201 -98l-197 -379z" />
    <glyph glyph-name="tonos" unicode="&#x384;" horiz-adv-x="231" 
d="M12 1032v467h228l-50 -467h-178z" />
    <glyph glyph-name="Alphatonos" unicode="&#x386;" horiz-adv-x="954" 
d="M41 1032v467h227l-49 -467h-178zM8 0l359 1458h229l358 -1458h-241l-35 145h-397l-35 -145h-238zM338 379h285l-144 655z" />
    <glyph glyph-name="Epsilontonos" unicode="&#x388;" horiz-adv-x="1003" 
d="M12 1032v467h228l-50 -467h-178zM272 0v1458h670v-237h-434v-373h299v-234h-299v-381h434v-233h-670z" />
    <glyph glyph-name="Etatonos" unicode="&#x389;" horiz-adv-x="1173" 
d="M272 0v1458h236v-608h319v608h238v-1458h-238v614h-319v-614h-236zM12 1032v467h228l-50 -467h-178z" />
    <glyph glyph-name="Iotatonos" unicode="&#x38a;" horiz-adv-x="620" 
d="M272 0v1458h240v-1458h-240zM12 1032v467h228l-50 -467h-178z" />
    <glyph glyph-name="Omicrontonos" unicode="&#x38c;" horiz-adv-x="1136" 
d="M645 215q49 0 90.5 45t67.5 119t40.5 164t14.5 184q0 125 -24 239.5t-74 192.5t-115 78t-114.5 -78t-73 -192.5t-23.5 -239.5q0 -123 23.5 -237.5t73 -194.5t114.5 -80zM647 -18q-106 0 -193 62.5t-142.5 167.5t-85 237.5t-29.5 277.5q0 146 29.5 279.5t85 238.5
t142.5 167.5t193 62.5q105 0 192 -63t141.5 -168.5t84 -238.5t29.5 -278q0 -146 -29.5 -278.5t-84.5 -237.5t-141 -167t-192 -62zM12 1030v469h228q-9 -78 -26 -234.5t-26 -234.5h-176z" />
    <glyph glyph-name="Upsilontonos" unicode="&#x38e;" horiz-adv-x="1112" 
d="M12 1032v467h226l-48 -467h-178zM561 0v354l-305 1104h248l176 -708l174 708h248l-305 -1104v-354h-236z" />
    <glyph glyph-name="Omegatonos" unicode="&#x38f;" horiz-adv-x="1159" 
d="M12 1030v469h228q-9 -78 -26 -234.5t-26 -234.5h-176zM606 0h-424v233h174q-76 97 -115.5 231.5t-39.5 287.5q0 170 37 309t99 228.5t142 137.5t168 48q87 0 166.5 -48t142.5 -137t100.5 -229t37.5 -309q0 -153 -40.5 -287.5t-117.5 -231.5h174v-233h-426v248
q86 66 127 198t41 289q0 234 -60.5 368t-144.5 134q-87 0 -148 -133.5t-61 -368.5q0 -156 41.5 -288.5t126.5 -198.5v-248z" />
    <glyph glyph-name="Alpha" unicode="&#x391;" horiz-adv-x="946" 
d="M0 0l358 1458h230l358 -1458h-241l-35 145h-398l-34 -145h-238zM330 379h284l-143 655z" />
    <glyph glyph-name="Beta" unicode="&#x392;" horiz-adv-x="913" 
d="M109 0v1458h405q98 0 172 -62t109.5 -156t35.5 -202q0 -190 -100 -295q60 -55 90.5 -140t30.5 -181q0 -63 -13.5 -123.5t-40.5 -114.5t-65 -95t-90.5 -65t-112.5 -24h-421zM344 233h178q47 0 73 57.5t26 137.5q0 76 -27.5 134.5t-71.5 58.5h-178v-388zM344 842h156
q45 0 71.5 58t26.5 136t-25 132.5t-73 54.5h-156v-381z" />
    <glyph glyph-name="Gamma" unicode="&#x393;" horiz-adv-x="813" 
d="M109 0v1458h671v-237h-432v-1221h-239z" />
    <glyph glyph-name="uni0394" unicode="&#x394;" horiz-adv-x="899" 
d="M291 231h317q-106 574 -157 861zM49 0v215q179 863 256 1243h291l252 -1241v-217h-799z" />
    <glyph glyph-name="Epsilon" unicode="&#x395;" 
d="M109 0v1458h669v-237h-432v-373h299v-234h-299v-381h432v-233h-669z" />
    <glyph glyph-name="Zeta" unicode="&#x396;" horiz-adv-x="862" 
d="M68 0v217l458 1004h-458v237h727v-221l-459 -1004h459v-233h-727z" />
    <glyph glyph-name="Eta" unicode="&#x397;" horiz-adv-x="1011" 
d="M109 0v1458h237v-608h318v608h239v-1458h-239v614h-318v-614h-237z" />
    <glyph glyph-name="Theta" unicode="&#x398;" horiz-adv-x="985" 
d="M487 217q67 0 119.5 74.5t79.5 190t27 247.5q0 130 -27 245.5t-79.5 190t-119.5 74.5t-117.5 -79t-74 -193t-23.5 -238t23.5 -238.5t74 -194t117.5 -79.5zM492 -18q-106 0 -193 63t-142 168.5t-84.5 238.5t-29.5 277q0 146 29.5 278.5t84.5 237.5t142 167.5t193 62.5
q105 0 192 -63t142.5 -168.5t85.5 -238.5t30 -276q0 -144 -30 -277t-85.5 -238.5t-142.5 -168.5t-192 -63zM645 610h-305v234h305v-234z" />
    <glyph glyph-name="Iota" unicode="&#x399;" horiz-adv-x="456" 
d="M109 0v1458h239v-1458h-239z" />
    <glyph glyph-name="Kappa" unicode="&#x39a;" horiz-adv-x="948" 
d="M109 0v1458h237v-610h90l223 610h259l-277 -727l277 -731h-259l-223 612h-90v-612h-237z" />
    <glyph glyph-name="Lambda" unicode="&#x39b;" horiz-adv-x="942" 
d="M0 0l338 1458h268l336 -1458h-250l-221 1065l-221 -1065h-250z" />
    <glyph glyph-name="Mu" unicode="&#x39c;" horiz-adv-x="1275" 
d="M109 0v1458h278l248 -1046l252 1046h280v-1458h-231v899q-191 -860 -199 -899h-200l-199 899v-899h-229z" />
    <glyph glyph-name="Nu" unicode="&#x39d;" horiz-adv-x="1054" 
d="M944 1458v-1458h-246q-335 876 -358 936v-936h-231v1458h245l361 -932v932h229z" />
    <glyph glyph-name="Xi" unicode="&#x39e;" horiz-adv-x="788" 
d="M57 0v236h672v-236h-672zM57 1221v237h672v-237h-672zM158 614v234h471v-234h-471z" />
    <glyph glyph-name="Omicron" unicode="&#x39f;" horiz-adv-x="983" 
d="M492 215q64 0 114 77.5t74.5 192.5t24.5 242q0 125 -24 239.5t-74 192.5t-115 78t-115 -78t-74 -192.5t-24 -239.5q0 -123 23.5 -237.5t73.5 -194.5t116 -80zM492 -18q-106 0 -193 62.5t-142 167.5t-84.5 237.5t-29.5 277.5q0 198 50 365t154 275t245 108
q106 0 192.5 -63t141.5 -168.5t84.5 -238.5t29.5 -278q0 -116 -18.5 -224.5t-56 -203t-90 -165.5t-125.5 -111.5t-158 -40.5z" />
    <glyph glyph-name="Pi" unicode="&#x3a0;" horiz-adv-x="1007" 
d="M109 0v1458h790v-1458h-240v1221h-313v-1221h-237z" />
    <glyph glyph-name="Rho" unicode="&#x3a1;" horiz-adv-x="913" 
d="M109 0v1458h374q93 0 168 -48t122 -127.5t72 -179t25 -206.5q0 -108 -25 -207t-71.5 -178.5t-122.5 -126.5t-170 -47h-135v-338h-237zM346 571h133q75 0 116.5 96.5t41.5 229.5q0 84 -18 156t-56.5 120t-91.5 48h-125v-650z" />
    <glyph glyph-name="Sigma" unicode="&#x3a3;" horiz-adv-x="858" 
d="M76 0v233l282 498l-282 492v235h723v-237h-453l281 -490l-281 -498h453v-233h-723z" />
    <glyph glyph-name="Tau" unicode="&#x3a4;" horiz-adv-x="876" 
d="M319 0v1221h-276v237h791v-237h-277v-1221h-238z" />
    <glyph glyph-name="Upsilon" unicode="&#x3a5;" horiz-adv-x="864" 
d="M315 0v354l-305 1104h246l176 -708l176 708h246l-305 -1104v-354h-234z" />
    <glyph glyph-name="Phi" unicode="&#x3a6;" horiz-adv-x="1087" 
d="M659 1233v-854q71 44 116.5 154t45.5 274t-45.5 272.5t-116.5 153.5zM426 379v854q-71 -44 -115.5 -153.5t-44.5 -272.5q0 -165 45 -274t115 -154zM543 1475q232 0 369 -180t137 -488q0 -267 -104.5 -438.5t-285.5 -216.5v-152h-233v152q-183 45 -286 216t-103 439
q0 308 137 488t369 180z" />
    <glyph glyph-name="Chi" unicode="&#x3a7;" horiz-adv-x="923" 
d="M317 743l-294 715h256l180 -465l180 465h258l-293 -715q54 -134 157.5 -384.5t147.5 -358.5h-256l-194 494q-122 -317 -193 -494h-256z" />
    <glyph glyph-name="Psi" unicode="&#x3a8;" horiz-adv-x="1128" 
d="M446 0v174q-77 23 -142 76.5t-116.5 139.5t-80.5 213.5t-29 285.5v569h231v-584q0 -174 41 -292t99 -164v1040h231v-1040q58 45 97.5 163.5t39.5 292.5v584h232v-569q0 -157 -29.5 -285.5t-81.5 -214t-117 -139t-141 -76.5v-174h-234z" />
    <glyph glyph-name="uni03A9" unicode="&#x3a9;" horiz-adv-x="1026" 
d="M473 0h-424v233h172q-76 97 -115.5 231.5t-39.5 287.5q0 170 37 309.5t99.5 228.5t142 137t167.5 48t167.5 -48t142 -137t99.5 -228.5t37 -309.5q0 -153 -40 -287.5t-117 -231.5h174v-233h-424v248q86 66 127 198t41 289q0 234 -61 368t-146 134t-146 -134t-61 -368
q0 -156 41.5 -288.5t126.5 -198.5v-248z" />
    <glyph glyph-name="Iotadieresis" unicode="&#x3aa;" horiz-adv-x="456" 
d="M109 0v1458h239v-1458h-239zM45 1561q-69 0 -115.5 47t-46.5 116q0 67 47 114.5t115 47.5q66 0 112 -48t46 -114q0 -69 -46 -116t-112 -47zM408 1561q-69 0 -113.5 46.5t-44.5 116.5q0 67 45 114.5t113 47.5q66 0 113.5 -48t47.5 -114q0 -68 -47.5 -115.5t-113.5 -47.5z
" />
    <glyph glyph-name="Upsilondieresis" unicode="&#x3ab;" horiz-adv-x="864" 
d="M315 0v354l-305 1104h246l176 -708l176 708h246l-305 -1104v-354h-234zM250 1548q-69 0 -115.5 47.5t-46.5 116.5q0 67 47 114.5t115 47.5q66 0 112 -48t46 -114q0 -69 -46 -116.5t-112 -47.5zM612 1548q-68 0 -112.5 47t-44.5 117q0 67 44.5 114.5t112.5 47.5
q66 0 114 -48t48 -114q0 -68 -48 -116t-114 -48z" />
    <glyph glyph-name="alphatonos" unicode="&#x3ac;" horiz-adv-x="954" 
d="M41 1032v467h227l-49 -467h-178zM8 0l359 1458h229l358 -1458h-241l-35 145h-397l-35 -145h-238zM338 379h285l-144 655z" />
    <glyph glyph-name="epsilontonos" unicode="&#x3ad;" horiz-adv-x="1003" 
d="M12 1032v467h228l-50 -467h-178zM272 0v1458h670v-237h-434v-373h299v-234h-299v-381h434v-233h-670z" />
    <glyph glyph-name="etatonos" unicode="&#x3ae;" horiz-adv-x="1173" 
d="M272 0v1458h236v-608h319v608h238v-1458h-238v614h-319v-614h-236zM12 1032v467h228l-50 -467h-178z" />
    <glyph glyph-name="iotatonos" unicode="&#x3af;" horiz-adv-x="620" 
d="M272 0v1458h240v-1458h-240zM12 1032v467h228l-50 -467h-178z" />
    <glyph glyph-name="alpha" unicode="&#x3b1;" horiz-adv-x="946" 
d="M0 0l358 1458h230l358 -1458h-241l-35 145h-398l-34 -145h-238zM330 379h284l-143 655z" />
    <glyph glyph-name="beta" unicode="&#x3b2;" horiz-adv-x="913" 
d="M109 0v1458h405q98 0 172 -62t109.5 -156t35.5 -202q0 -190 -100 -295q60 -55 90.5 -140t30.5 -181q0 -63 -13.5 -123.5t-40.5 -114.5t-65 -95t-90.5 -65t-112.5 -24h-421zM344 233h178q47 0 73 57.5t26 137.5q0 76 -27.5 134.5t-71.5 58.5h-178v-388zM344 842h156
q45 0 71.5 58t26.5 136t-25 132.5t-73 54.5h-156v-381z" />
    <glyph glyph-name="gamma" unicode="&#x3b3;" horiz-adv-x="813" 
d="M109 0v1458h671v-237h-432v-1221h-239z" />
    <glyph glyph-name="delta" unicode="&#x3b4;" horiz-adv-x="899" 
d="M291 231h317q-97 523 -157 863zM49 0v215q179 863 256 1243h291l252 -1241v-217h-799z" />
    <glyph glyph-name="epsilon" unicode="&#x3b5;" 
d="M109 0v1458h669v-237h-432v-373h299v-234h-299v-381h432v-233h-669z" />
    <glyph glyph-name="zeta" unicode="&#x3b6;" horiz-adv-x="862" 
d="M68 0v217l458 1004h-458v237h727v-221l-459 -1004h459v-233h-727z" />
    <glyph glyph-name="eta" unicode="&#x3b7;" horiz-adv-x="1011" 
d="M109 0v1458h237v-608h318v608h239v-1458h-239v614h-318v-614h-237z" />
    <glyph glyph-name="theta" unicode="&#x3b8;" horiz-adv-x="985" 
d="M487 217q67 0 119.5 74.5t79.5 190t27 247.5q0 130 -27 245.5t-79.5 190t-119.5 74.5t-117.5 -79t-74 -193t-23.5 -238t23.5 -238.5t74 -194t117.5 -79.5zM492 -18q-106 0 -193 63t-142 168.5t-84.5 238.5t-29.5 277q0 146 29.5 278.5t84.5 237.5t142 167.5t193 62.5
q105 0 192 -63t142.5 -168.5t85.5 -238.5t30 -276q0 -144 -30 -277t-85.5 -238.5t-142.5 -168.5t-192 -63zM645 610h-305v234h305v-234z" />
    <glyph glyph-name="iota" unicode="&#x3b9;" horiz-adv-x="456" 
d="M109 0v1458h239v-1458h-239z" />
    <glyph glyph-name="kappa" unicode="&#x3ba;" horiz-adv-x="948" 
d="M109 0v1458h237v-610h90l223 610h259l-277 -727l277 -731h-259l-223 612h-90v-612h-237z" />
    <glyph glyph-name="lambda" unicode="&#x3bb;" horiz-adv-x="942" 
d="M0 0l338 1458h268l336 -1458h-250l-221 1065l-221 -1065h-250z" />
    <glyph glyph-name="uni03BC" unicode="&#x3bc;" horiz-adv-x="1275" 
d="M109 0v1458h278l248 -1046l252 1046h280v-1458h-231v899q-191 -860 -199 -899h-200l-199 899v-899h-229z" />
    <glyph glyph-name="nu" unicode="&#x3bd;" horiz-adv-x="1054" 
d="M944 1458v-1458h-246l-358 938v-938h-231v1458h245l361 -936v936h229z" />
    <glyph glyph-name="xi" unicode="&#x3be;" horiz-adv-x="788" 
d="M57 0v236h672v-236h-672zM57 1221v237h672v-237h-672zM158 614v234h471v-234h-471z" />
    <glyph glyph-name="omicron" unicode="&#x3bf;" horiz-adv-x="983" 
d="M705 727q0 125 -24 239.5t-74 192.5t-115 78t-115 -78t-74 -192.5t-24 -239.5q0 -123 23.5 -237.5t73.5 -194.5t116 -80q64 0 114 77.5t74.5 192.5t24.5 242zM43 727q0 198 50 365t154 275t245 108q106 0 192.5 -63t141.5 -168.5t84.5 -238.5t29.5 -278
q0 -116 -18.5 -224.5t-56 -203t-90 -165.5t-125.5 -111.5t-158 -40.5q-106 0 -193 62.5t-142 167.5t-84.5 237.5t-29.5 277.5z" />
    <glyph glyph-name="pi" unicode="&#x3c0;" horiz-adv-x="1007" 
d="M109 0v1458h790v-1458h-240v1221h-313v-1221h-237z" />
    <glyph glyph-name="rho" unicode="&#x3c1;" horiz-adv-x="913" 
d="M109 0v1458h374q93 0 168 -48t122 -127.5t72 -179t25 -206.5q0 -108 -25 -207t-71.5 -178.5t-122.5 -126.5t-170 -47h-135v-338h-237zM346 571h133q75 0 116.5 96.5t41.5 229.5q0 84 -18 156t-56.5 120t-91.5 48h-125v-650z" />
    <glyph glyph-name="uni03C2" unicode="&#x3c2;" horiz-adv-x="858" 
d="M76 0v233l282 498l-282 492v235h723v-237h-453l281 -490l-281 -498h453v-233h-723z" />
    <glyph glyph-name="sigma" unicode="&#x3c3;" horiz-adv-x="858" 
d="M76 0v233l282 498l-282 492v235h723v-237h-453l281 -490l-281 -498h453v-233h-723z" />
    <glyph glyph-name="tau" unicode="&#x3c4;" horiz-adv-x="876" 
d="M319 0v1221h-276v237h791v-237h-277v-1221h-238z" />
    <glyph glyph-name="upsilon" unicode="&#x3c5;" horiz-adv-x="864" 
d="M315 0v354l-305 1104h246l176 -708l176 708h246l-305 -1104v-354h-234z" />
    <glyph glyph-name="phi" unicode="&#x3c6;" horiz-adv-x="1087" 
d="M659 1233v-854q71 44 116.5 154t45.5 274t-45.5 272.5t-116.5 153.5zM426 379v854q-71 -44 -115.5 -153.5t-44.5 -272.5q0 -165 45 -274t115 -154zM543 1475q232 0 369 -180t137 -488q0 -267 -104.5 -438.5t-285.5 -216.5v-152h-233v152q-183 45 -286 216t-103 439
q0 308 137 488t369 180z" />
    <glyph glyph-name="chi" unicode="&#x3c7;" horiz-adv-x="923" 
d="M317 743l-294 715h256l180 -465l180 465h258l-293 -715q54 -134 157.5 -384.5t147.5 -358.5h-256l-194 494q-122 -317 -193 -494h-256z" />
    <glyph glyph-name="psi" unicode="&#x3c8;" horiz-adv-x="1128" 
d="M446 0v174q-77 23 -142 76.5t-116.5 139.5t-80.5 213.5t-29 285.5v569h231v-584q0 -174 41 -292t99 -164v1040h231v-1040q58 45 97.5 163.5t39.5 292.5v584h232v-569q0 -157 -29.5 -285.5t-81.5 -214t-117 -139t-141 -76.5v-174h-234z" />
    <glyph glyph-name="omega" unicode="&#x3c9;" horiz-adv-x="1026" 
d="M49 0v233h174q-77 97 -117 231.5t-40 287.5q0 170 37 309.5t99.5 228.5t142 137t167.5 48t167.5 -48t142 -137t99.5 -228.5t37 -309.5q0 -153 -40 -287.5t-117 -231.5h174v-233h-424v248q86 66 127 198.5t41 288.5q0 234 -61 368t-146 134t-146 -134t-61 -368
q0 -154 41.5 -287.5t126.5 -199.5v-248h-424z" />
    <glyph glyph-name="iotadieresis" unicode="&#x3ca;" horiz-adv-x="456" 
d="M109 0v1458h239v-1458h-239zM45 1561q-69 0 -115.5 47t-46.5 116q0 67 47 114.5t115 47.5q66 0 112 -48t46 -114q0 -69 -46 -116t-112 -47zM408 1561q-69 0 -113.5 46.5t-44.5 116.5q0 67 45 114.5t113 47.5q66 0 113.5 -48t47.5 -114q0 -68 -47.5 -115.5t-113.5 -47.5z
" />
    <glyph glyph-name="upsilondieresis" unicode="&#x3cb;" horiz-adv-x="864" 
d="M315 0v354l-305 1104h246l176 -708l176 708h246l-305 -1104v-354h-234zM250 1548q-69 0 -115.5 47.5t-46.5 116.5q0 67 47 114.5t115 47.5q66 0 112 -48t46 -114q0 -69 -46 -116.5t-112 -47.5zM612 1548q-68 0 -112.5 47t-44.5 117q0 67 44.5 114.5t112.5 47.5
q66 0 114 -48t48 -114q0 -68 -48 -116t-114 -48z" />
    <glyph glyph-name="omicrontonos" unicode="&#x3cc;" horiz-adv-x="1136" 
d="M645 215q49 0 90.5 45t67.5 119t40.5 164t14.5 184q0 125 -24 239.5t-74 192.5t-115 78t-114.5 -78t-73 -192.5t-23.5 -239.5q0 -123 23.5 -237.5t73 -194.5t114.5 -80zM647 -18q-106 0 -193 62.5t-142.5 167.5t-85 237.5t-29.5 277.5q0 146 29.5 279.5t85 238.5
t142.5 167.5t193 62.5q105 0 192 -63t141.5 -168.5t84 -238.5t29.5 -278q0 -146 -29.5 -278.5t-84.5 -237.5t-141 -167t-192 -62zM12 1030v469h228q-9 -78 -26 -234.5t-26 -234.5h-176z" />
    <glyph glyph-name="upsilontonos" unicode="&#x3cd;" horiz-adv-x="1112" 
d="M12 1032v467h226l-48 -467h-178zM561 0v354l-305 1104h248l176 -708l174 708h248l-305 -1104v-354h-236z" />
    <glyph glyph-name="omegatonos" unicode="&#x3ce;" horiz-adv-x="1159" 
d="M12 1030v469h228q-9 -78 -26 -234.5t-26 -234.5h-176zM606 0h-424v233h174q-76 97 -115.5 231.5t-39.5 287.5q0 170 37 309t99 228.5t142 137.5t168 48q87 0 166.5 -48t142.5 -137t100.5 -229t37.5 -309q0 -153 -40.5 -287.5t-117.5 -231.5h174v-233h-426v248
q86 66 127 198t41 289q0 234 -60.5 368t-144.5 134q-87 0 -148 -133.5t-61 -368.5q0 -156 41.5 -288.5t126.5 -198.5v-248z" />
    <glyph glyph-name="uni0401" unicode="&#x401;" 
d="M109 0v1458h669v-237h-432v-373h299v-234h-299v-381h432v-233h-669zM618 1540q-66 0 -108.5 45t-42.5 113q0 65 43 111t108 46t111.5 -46.5t46.5 -110.5q0 -67 -46.5 -112.5t-111.5 -45.5zM264 1855q64 0 110 -46t46 -111q0 -67 -45.5 -112.5t-110.5 -45.5
q-66 0 -109.5 45t-43.5 113q0 65 44 111t109 46z" />
    <glyph glyph-name="uni0402" unicode="&#x402;" horiz-adv-x="1062" 
d="M301 0v1223h-262v235h762v-235h-266v-236q85 55 159 55q87 0 152 -45t101.5 -121t53.5 -164t17 -186q0 -88 -7.5 -159.5t-30 -143t-58.5 -119.5t-97 -78t-143 -30h-51v237h47q29 0 49.5 18.5t31.5 45.5t17.5 69.5t8 77t1.5 82.5q0 128 -29.5 204.5t-78.5 76.5
q-58 0 -143 -66v-741h-234z" />
    <glyph glyph-name="uni0403" unicode="&#x403;" horiz-adv-x="813" 
d="M285 1606l241 356l185 -133l-265 -340zM109 0v1458h671v-237h-432v-1221h-239z" />
    <glyph glyph-name="uni0404" unicode="&#x404;" horiz-adv-x="935" 
d="M494 -18q-106 0 -193.5 62.5t-142.5 167.5t-85 237.5t-30 277.5q0 146 30 279t85 238.5t142.5 168t193.5 62.5q157 0 260 -133.5t147 -356.5l-231 -41q-26 130 -70.5 211.5t-107.5 81.5q-43 0 -80.5 -35.5t-63 -93.5t-42 -124.5t-23.5 -137.5h338v-238h-338
q15 -158 71 -274.5t138 -116.5q119 0 178 295l231 -43q-44 -223 -147 -355t-260 -132z" />
    <glyph glyph-name="uni0405" unicode="&#x405;" 
d="M31 180l159 172q138 -135 240 -135q61 0 96 50.5t35 115.5q0 57 -29 104t-75 80.5t-101.5 66.5t-111 72t-101.5 87t-75 121t-29 165q0 168 101.5 282t258.5 114q172 0 373 -172l-158 -177q-127 113 -215 113q-60 0 -92.5 -45.5t-32.5 -114.5q0 -56 29 -101.5t75 -78
t101.5 -64.5t111.5 -71.5t102 -87.5t75 -123.5t29 -169.5q0 -103 -45 -194t-130 -149t-192 -58q-191 0 -399 198z" />
    <glyph glyph-name="uni0406" unicode="&#x406;" horiz-adv-x="456" 
d="M109 0v1458h239v-1458h-239z" />
    <glyph glyph-name="uni0407" unicode="&#x407;" horiz-adv-x="456" 
d="M109 0v1458h239v-1458h-239zM406 1559q-68 0 -112 45t-44 114q0 67 44.5 113.5t111.5 46.5q66 0 112.5 -47t46.5 -113q0 -68 -46 -113.5t-113 -45.5zM47 1878q66 0 112 -47t46 -113q0 -68 -45.5 -113.5t-112.5 -45.5q-66 0 -111 45t-45 114q0 66 45 113t111 47z" />
    <glyph glyph-name="uni0408" unicode="&#x408;" horiz-adv-x="768" 
d="M-16 145l178 152q37 -40 63 -59t58 -19q65 0 105 89t40 247v903h236v-909q0 -118 -21 -213.5t-57 -160.5t-85.5 -109t-106 -64t-120.5 -20q-83 0 -150 39.5t-140 123.5z" />
    <glyph glyph-name="uni0409" unicode="&#x409;" horiz-adv-x="1394" 
d="M207 1458h670v-534h149q82 0 147 -39t104.5 -104.5t60 -145t20.5 -166.5q0 -71 -13 -138.5t-40 -127.5t-65 -105t-91.5 -71.5t-116.5 -26.5h-391v1221h-203q0 -518 -39 -748q-31 -189 -98 -314.5t-205 -199.5l-114 199q79 54 122.5 132t67.5 226q23 147 29 358.5t6 583.5
zM1020 233q35 0 60 34.5t35.5 84.5t10.5 109q0 54 -9.5 103.5t-34 87.5t-60.5 38h-148v-457h146z" />
    <glyph glyph-name="uni040A" unicode="&#x40a;" horiz-adv-x="1396" 
d="M885 233h157q41 0 63.5 57.5t22.5 135.5q0 39 -7 80t-28 76.5t-51 35.5h-157v-385zM1051 854q77 0 137.5 -35.5t97 -95.5t55.5 -133t19 -154q0 -83 -19.5 -160t-56 -139t-95.5 -99.5t-132 -37.5h-408v618h-305v-618h-235v1458h235v-604h305v604h238v-604h164z" />
    <glyph glyph-name="uni040B" unicode="&#x40b;" horiz-adv-x="1062" 
d="M301 0v1223h-262v235h762v-235h-264v-197q83 37 141 37q150 0 228.5 -100t78.5 -338v-625h-233v625q0 43 -2 70.5t-10.5 62.5t-28.5 53t-52 18q-46 0 -122 -49v-780h-236z" />
    <glyph glyph-name="uni040C" unicode="&#x40c;" horiz-adv-x="948" 
d="M336 1595l242 357l184 -133l-264 -340zM109 0v1458h237v-610h90l223 610h259l-277 -727l277 -731h-259l-223 612h-90v-612h-237z" />
    <glyph glyph-name="uni040E" unicode="&#x40e;" horiz-adv-x="864" 
d="M231 0l84 311l-303 1147h248q14 -59 78.5 -326t97.5 -411q159 661 176 737h250l-389 -1458h-242zM145 1782l193 71q33 -86 54.5 -129t41.5 -43t42.5 42.5t58.5 131.5l190 -73q-118 -303 -289 -303t-291 303z" />
    <glyph glyph-name="uni040F" unicode="&#x40f;" horiz-adv-x="997" 
d="M109 0v1458h237v-1225h305v1225h238v-1458h-275v-160h-235v160h-270z" />
    <glyph glyph-name="uni0410" unicode="&#x410;" horiz-adv-x="946" 
d="M0 0l358 1458h230l358 -1458h-241l-35 145h-398l-34 -145h-238zM330 379h284l-143 655z" />
    <glyph glyph-name="uni0411" unicode="&#x411;" horiz-adv-x="915" 
d="M344 233h160q62 0 95.5 85t33.5 202q0 115 -33 200t-92 85h-164v-572zM109 0v1458h686v-235h-451v-187h164q117 0 200 -75t120.5 -188t37.5 -247q0 -100 -22.5 -192.5t-65.5 -167.5t-112 -120.5t-154 -45.5h-403z" />
    <glyph glyph-name="uni0412" unicode="&#x412;" horiz-adv-x="913" 
d="M109 0v1458h405q98 0 172 -62t109.5 -156t35.5 -202q0 -190 -100 -295q60 -55 90.5 -140t30.5 -181q0 -63 -13.5 -123.5t-40.5 -114.5t-65 -95t-90.5 -65t-112.5 -24h-421zM344 233h178q47 0 73 57.5t26 137.5q0 76 -27.5 134.5t-71.5 58.5h-178v-388zM344 842h156
q45 0 71.5 58t26.5 136t-25 132.5t-73 54.5h-156v-381z" />
    <glyph glyph-name="uni0413" unicode="&#x413;" horiz-adv-x="813" 
d="M109 0v1458h671v-237h-432v-1221h-239z" />
    <glyph glyph-name="uni0414" unicode="&#x414;" horiz-adv-x="980" 
d="M313 233h308v988h-207v-35q0 -636 -101 -953zM18 -158v391h60q39 94 64 285t31.5 344.5t6.5 294.5v301h674v-1225h98v-391h-233v158h-465v-158h-236z" />
    <glyph glyph-name="uni0415" unicode="&#x415;" 
d="M109 0v1458h669v-237h-432v-373h299v-234h-299v-381h432v-233h-669z" />
    <glyph glyph-name="uni0416" unicode="&#x416;" horiz-adv-x="1396" 
d="M1092 729l276 -729h-256q-144 398 -223 612h-74v-612h-235v612h-74q-144 -398 -223 -612h-254l274 729l-274 729h254q79 -214 223 -612h74v612h235v-612h74q79 214 223 612h256z" />
    <glyph glyph-name="uni0417" unicode="&#x417;" horiz-adv-x="817" 
d="M629 748q64 -45 99.5 -130.5t35.5 -183.5q0 -204 -107.5 -328t-255.5 -124q-254 0 -397 335l217 86q48 -97 89.5 -141.5t90.5 -44.5q53 0 90 63t37 154q0 72 -37 127t-96 55h-178v238h170q50 0 85.5 47.5t35.5 126.5q0 96 -33.5 153.5t-85.5 57.5q-44 0 -75 -38.5
t-70 -127.5l-219 86q133 316 370 316q149 0 247.5 -125t98.5 -332q0 -80 -28 -152.5t-84 -117.5z" />
    <glyph glyph-name="uni0418" unicode="&#x418;" horiz-adv-x="1054" 
d="M109 0v1458h231v-942q112 291 360 942h244v-1458h-229v948q-279 -730 -361 -948h-245z" />
    <glyph glyph-name="uni0419" unicode="&#x419;" horiz-adv-x="1054" 
d="M109 0v1458h231v-942q112 291 360 942h244v-1458h-229v948q-279 -730 -361 -948h-245zM231 1782l193 71q33 -86 54.5 -129t41.5 -43t42.5 42.5t58.5 131.5l190 -73q-118 -303 -289 -303t-291 303z" />
    <glyph glyph-name="uni041A" unicode="&#x41a;" horiz-adv-x="948" 
d="M109 0v1458h237v-610h90l223 610h259l-277 -727l277 -731h-259l-223 612h-90v-612h-237z" />
    <glyph glyph-name="uni041B" unicode="&#x41b;" horiz-adv-x="993" 
d="M209 1458h676v-1458h-234v1221h-211q0 -518 -39 -748q-14 -90 -34.5 -161t-54.5 -139t-87 -121.5t-125 -92.5l-118 201q82 52 126 130t66 226q23 148 29 359.5t6 582.5z" />
    <glyph glyph-name="uni041C" unicode="&#x41c;" horiz-adv-x="1275" 
d="M109 0v1458h278l248 -1046l252 1046h280v-1458h-231v899q-191 -860 -199 -899h-200l-199 899v-899h-229z" />
    <glyph glyph-name="uni041D" unicode="&#x41d;" horiz-adv-x="1011" 
d="M109 0v1458h237v-608h318v608h239v-1458h-239v614h-318v-614h-237z" />
    <glyph glyph-name="uni041E" unicode="&#x41e;" horiz-adv-x="983" 
d="M705 727q0 125 -24 239.5t-74 192.5t-115 78t-115 -78t-74 -192.5t-24 -239.5q0 -123 23.5 -237.5t73.5 -194.5t116 -80q64 0 114 77.5t74.5 192.5t24.5 242zM43 727q0 198 50 365t154 275t245 108q106 0 192.5 -63t141.5 -168.5t84.5 -238.5t29.5 -278
q0 -116 -18.5 -224.5t-56 -203t-90 -165.5t-125.5 -111.5t-158 -40.5q-106 0 -193 62.5t-142 167.5t-84.5 237.5t-29.5 277.5z" />
    <glyph glyph-name="uni041F" unicode="&#x41f;" horiz-adv-x="1007" 
d="M109 0v1458h790v-1458h-240v1221h-313v-1221h-237z" />
    <glyph glyph-name="uni0420" unicode="&#x420;" horiz-adv-x="913" 
d="M109 0v1458h374q93 0 168 -48t122 -127.5t72 -179t25 -206.5q0 -108 -25 -207t-71.5 -178.5t-122.5 -126.5t-170 -47h-135v-338h-237zM346 571h133q75 0 116.5 96.5t41.5 229.5q0 84 -18 156t-56.5 120t-91.5 48h-125v-650z" />
    <glyph glyph-name="uni0421" unicode="&#x421;" horiz-adv-x="925" 
d="M487 217q32 0 60 25t49 69t35.5 93t25.5 106q117 -18 234 -39q-40 -224 -143.5 -356.5t-258.5 -132.5q-107 0 -193.5 62.5t-140.5 168t-83 237.5t-29 277q0 144 29 276.5t83 238.5t140.5 169.5t193.5 63.5q155 0 258.5 -133.5t143.5 -358.5q-117 -18 -234 -39
q-25 125 -68 209t-102 84q-51 0 -93 -51.5t-66 -131t-36.5 -164.5t-12.5 -163q0 -119 23 -233t72 -195.5t113 -81.5z" />
    <glyph glyph-name="uni0422" unicode="&#x422;" horiz-adv-x="876" 
d="M319 0v1221h-276v237h791v-237h-277v-1221h-238z" />
    <glyph glyph-name="uni0423" unicode="&#x423;" horiz-adv-x="864" 
d="M231 0l84 311l-303 1147h248q14 -59 78.5 -326t97.5 -411q159 661 176 737h250l-389 -1458h-242z" />
    <glyph glyph-name="uni0424" unicode="&#x424;" horiz-adv-x="1087" 
d="M659 1233v-854q71 44 116.5 154t45.5 274t-45.5 272.5t-116.5 153.5zM426 379v854q-71 -44 -115.5 -153.5t-44.5 -272.5q0 -165 45 -274t115 -154zM543 1475q232 0 369 -180t137 -488q0 -267 -104.5 -438.5t-285.5 -216.5v-152h-233v152q-183 45 -286 216t-103 439
q0 308 137 488t369 180z" />
    <glyph glyph-name="uni0425" unicode="&#x425;" horiz-adv-x="923" 
d="M317 743l-294 715h256l180 -465l180 465h258l-293 -715q54 -134 157.5 -384.5t147.5 -358.5h-256l-194 494q-122 -317 -193 -494h-256z" />
    <glyph glyph-name="uni0426" unicode="&#x426;" horiz-adv-x="1001" 
d="M109 0v1458h237v-1225h297v1225h236v-1225h96v-393h-236v160h-630z" />
    <glyph glyph-name="uni0427" unicode="&#x427;" horiz-adv-x="937" 
d="M592 1458h237v-1458h-237v457q-109 -76 -209 -76q-69 0 -122 22t-95 71t-64 137t-22 212v635h235v-635q0 -37 1 -60t6 -54.5t14.5 -49t28 -30.5t45.5 -13q36 0 87.5 27.5t94.5 63.5v751z" />
    <glyph glyph-name="uni0428" unicode="&#x428;" horiz-adv-x="1380" 
d="M109 0v1458h235v-1225h227v1225h234v-1225h233v1225h232v-1458h-1161z" />
    <glyph glyph-name="uni0429" unicode="&#x429;" horiz-adv-x="1394" 
d="M109 0v1458h235v-1225h229v1225h232v-1225h233v1225h232v-1225h98v-393h-233v160h-1026z" />
    <glyph glyph-name="uni042A" unicode="&#x42a;" horiz-adv-x="909" 
d="M139 0v1221h-127v237h363v-459h137q71 0 130.5 -28t101 -76t70.5 -112t42.5 -135t13.5 -146q0 -94 -23 -182.5t-66 -160.5t-112 -115.5t-153 -43.5h-377zM375 233h133q62 0 95.5 80t33.5 189q0 106 -33 185t-92 79h-137v-533z" />
    <glyph glyph-name="uni042B" unicode="&#x42b;" horiz-adv-x="1232" 
d="M342 233h123q61 0 93 79.5t32 187.5q0 116 -31.5 191t-95.5 75h-121v-533zM109 0v1458h235v-459h125q90 0 159 -42t108.5 -113t59 -156.5t19.5 -181.5q0 -97 -21 -185t-61.5 -161t-108 -116.5t-153.5 -43.5h-362zM889 1458h235v-1458h-235v1458z" />
    <glyph glyph-name="uni042C" unicode="&#x42c;" horiz-adv-x="876" 
d="M344 233h133q42 0 72.5 40.5t44.5 100.5t14 128t-14 126.5t-43.5 98t-69.5 39.5h-137v-533zM109 0v1458h237v-459h135q88 0 158 -42t112.5 -112.5t64.5 -157t22 -181.5t-23 -184.5t-66 -162t-111.5 -116t-152.5 -43.5h-376z" />
    <glyph glyph-name="uni042D" unicode="&#x42d;" horiz-adv-x="935" 
d="M440 -18q-156 0 -260 132.5t-147 354.5l233 43q56 -295 178 -295q82 0 138 116.5t71 274.5h-338v238h338q-7 71 -23.5 137.5t-42 124.5t-63 93.5t-80.5 35.5q-44 0 -80.5 -42t-59.5 -105t-38 -146l-233 41q44 222 147.5 356t259.5 134q141 0 246 -108.5t156 -276
t51 -363.5q0 -145 -30 -277.5t-86 -237.5t-143.5 -167.5t-193.5 -62.5z" />
    <glyph glyph-name="uni042E" unicode="&#x42e;" horiz-adv-x="1314" 
d="M831 1239q-60 0 -104.5 -78.5t-64 -191.5t-19.5 -240q0 -97 12 -187.5t35 -163.5t59.5 -117t81.5 -44q62 0 110 76.5t71.5 192t23.5 243.5t-23 242.5t-71 191t-111 76.5zM109 0v1458h233v-612h80q9 130 38 241t78.5 199t125.5 138.5t170 50.5q104 0 189 -62.5t138.5 -168
t82 -238t28.5 -277.5t-28.5 -278t-82 -238t-138.5 -168t-189 -63q-94 0 -170 50.5t-125.5 138.5t-78.5 199.5t-38 241.5h-80v-612h-233z" />
    <glyph glyph-name="uni042F" unicode="&#x42f;" horiz-adv-x="940" 
d="M829 1458v-1458h-235v338h-139l-146 -338h-256l187 428q-86 72 -131.5 197t-45.5 272q0 107 25.5 206.5t73 179t123 127.5t168.5 48h376zM457 571h137v650h-129q-53 0 -91.5 -48t-56.5 -120t-18 -156q0 -133 41.5 -229.5t116.5 -96.5z" />
    <glyph glyph-name="uni0430" unicode="&#x430;" horiz-adv-x="946" 
d="M0 0l358 1458h230l358 -1458h-241l-35 145h-398l-34 -145h-238zM330 379h284l-143 655z" />
    <glyph glyph-name="uni0431" unicode="&#x431;" horiz-adv-x="915" 
d="M344 233h160q62 0 95.5 85t33.5 202q0 115 -33 200t-92 85h-164v-572zM109 0v1458h686v-235h-451v-187h164q117 0 200 -75t120.5 -188t37.5 -247q0 -100 -22.5 -192.5t-65.5 -167.5t-112 -120.5t-154 -45.5h-403z" />
    <glyph glyph-name="uni0432" unicode="&#x432;" horiz-adv-x="913" 
d="M109 0v1458h405q98 0 172 -62t109.5 -156t35.5 -202q0 -190 -100 -295q60 -55 90.5 -140t30.5 -181q0 -63 -13.5 -123.5t-40.5 -114.5t-65 -95t-90.5 -65t-112.5 -24h-421zM344 233h178q47 0 73 57.5t26 137.5q0 76 -27.5 134.5t-71.5 58.5h-178v-388zM344 842h156
q45 0 71.5 58t26.5 136t-25 132.5t-73 54.5h-156v-381z" />
    <glyph glyph-name="uni0433" unicode="&#x433;" horiz-adv-x="813" 
d="M109 0v1458h671v-237h-432v-1221h-239z" />
    <glyph glyph-name="uni0434" unicode="&#x434;" horiz-adv-x="980" 
d="M313 233h308v988h-207v-35q0 -636 -101 -953zM18 -158v391h60q39 94 64 285t31.5 344.5t6.5 294.5v301h674v-1225h98v-391h-233v158h-465v-158h-236z" />
    <glyph glyph-name="uni0435" unicode="&#x435;" 
d="M109 0v1458h669v-237h-432v-373h299v-234h-299v-381h432v-233h-669z" />
    <glyph glyph-name="uni0436" unicode="&#x436;" horiz-adv-x="1396" 
d="M1092 729l276 -729h-256q-144 398 -223 612h-74v-612h-235v612h-74q-144 -398 -223 -612h-254l274 729l-274 729h254q79 -214 223 -612h74v612h235v-612h74q79 214 223 612h256z" />
    <glyph glyph-name="uni0437" unicode="&#x437;" horiz-adv-x="817" 
d="M629 748q64 -45 99.5 -130.5t35.5 -183.5q0 -204 -107.5 -328t-255.5 -124q-254 0 -397 335l217 86q48 -97 89.5 -141.5t90.5 -44.5q53 0 90 63t37 154q0 72 -37 127t-96 55h-178v238h170q50 0 85.5 47.5t35.5 126.5q0 96 -33.5 153.5t-85.5 57.5q-44 0 -75 -38.5
t-70 -127.5l-219 86q133 316 370 316q149 0 247.5 -125t98.5 -332q0 -80 -28 -152.5t-84 -117.5z" />
    <glyph glyph-name="uni0438" unicode="&#x438;" horiz-adv-x="1054" 
d="M109 0v1458h231v-942q112 291 360 942h244v-1458h-229v948q-279 -730 -361 -948h-245z" />
    <glyph glyph-name="uni0439" unicode="&#x439;" horiz-adv-x="1054" 
d="M109 0v1458h231v-942q112 291 360 942h244v-1458h-229v948q-279 -730 -361 -948h-245zM231 1782l193 71q33 -86 54.5 -129t41.5 -43t42.5 42.5t58.5 131.5l190 -73q-118 -303 -289 -303t-291 303z" />
    <glyph glyph-name="uni043A" unicode="&#x43a;" horiz-adv-x="948" 
d="M109 0v1458h237v-610h90l223 610h259l-277 -727l277 -731h-259l-223 612h-90v-612h-237z" />
    <glyph glyph-name="uni043B" unicode="&#x43b;" horiz-adv-x="993" 
d="M209 1458h676v-1458h-234v1221h-211q0 -518 -39 -748q-14 -90 -34.5 -161t-54.5 -139t-87 -121.5t-125 -92.5l-118 201q82 52 126 130t66 226q23 148 29 359.5t6 582.5z" />
    <glyph glyph-name="uni043C" unicode="&#x43c;" horiz-adv-x="1275" 
d="M109 0v1458h278l248 -1046l252 1046h280v-1458h-231v899q-191 -860 -199 -899h-200l-199 899v-899h-229z" />
    <glyph glyph-name="uni043D" unicode="&#x43d;" horiz-adv-x="1011" 
d="M109 0v1458h237v-608h318v608h239v-1458h-239v614h-318v-614h-237z" />
    <glyph glyph-name="uni043E" unicode="&#x43e;" horiz-adv-x="983" 
d="M705 727q0 125 -24 239.5t-74 192.5t-115 78t-115 -78t-74 -192.5t-24 -239.5q0 -123 23.5 -237.5t73.5 -194.5t116 -80q64 0 114 77.5t74.5 192.5t24.5 242zM43 727q0 198 50 365t154 275t245 108q106 0 192.5 -63t141.5 -168.5t84.5 -238.5t29.5 -278
q0 -116 -18.5 -224.5t-56 -203t-90 -165.5t-125.5 -111.5t-158 -40.5q-106 0 -193 62.5t-142 167.5t-84.5 237.5t-29.5 277.5z" />
    <glyph glyph-name="uni043F" unicode="&#x43f;" horiz-adv-x="1007" 
d="M109 0v1458h790v-1458h-240v1221h-313v-1221h-237z" />
    <glyph glyph-name="uni0440" unicode="&#x440;" horiz-adv-x="913" 
d="M109 0v1458h374q93 0 168 -48t122 -127.5t72 -179t25 -206.5q0 -108 -25 -207t-71.5 -178.5t-122.5 -126.5t-170 -47h-135v-338h-237zM346 571h133q75 0 116.5 96.5t41.5 229.5q0 84 -18 156t-56.5 120t-91.5 48h-125v-650z" />
    <glyph glyph-name="uni0441" unicode="&#x441;" horiz-adv-x="925" 
d="M487 217q32 0 60 25t49 69t35.5 93t25.5 106q117 -18 234 -39q-40 -224 -143.5 -356.5t-258.5 -132.5q-107 0 -193.5 62.5t-140.5 168t-83 237.5t-29 277q0 144 29 276.5t83 238.5t140.5 169.5t193.5 63.5q155 0 258.5 -133.5t143.5 -358.5q-117 -18 -234 -39
q-25 125 -68 209t-102 84q-51 0 -93 -51.5t-66 -131t-36.5 -164.5t-12.5 -163q0 -119 23 -233t72 -195.5t113 -81.5z" />
    <glyph glyph-name="uni0442" unicode="&#x442;" horiz-adv-x="876" 
d="M319 0v1221h-276v237h791v-237h-277v-1221h-238z" />
    <glyph glyph-name="uni0443" unicode="&#x443;" horiz-adv-x="864" 
d="M231 0l84 311l-303 1147h248q14 -59 78.5 -326t97.5 -411q159 661 176 737h250l-389 -1458h-242z" />
    <glyph glyph-name="uni0444" unicode="&#x444;" horiz-adv-x="1087" 
d="M659 1233v-854q71 44 116.5 154t45.5 274t-45.5 272.5t-116.5 153.5zM426 379v854q-71 -44 -115.5 -153.5t-44.5 -272.5q0 -165 45 -274t115 -154zM543 1475q232 0 369 -180t137 -488q0 -267 -104.5 -438.5t-285.5 -216.5v-152h-233v152q-183 45 -286 216t-103 439
q0 308 137 488t369 180z" />
    <glyph glyph-name="uni0445" unicode="&#x445;" horiz-adv-x="923" 
d="M317 743l-294 715h256l180 -465l180 465h258l-293 -715q54 -134 157.5 -384.5t147.5 -358.5h-256l-194 494q-122 -317 -193 -494h-256z" />
    <glyph glyph-name="uni0446" unicode="&#x446;" horiz-adv-x="1001" 
d="M109 0v1458h237v-1225h297v1225h236v-1225h96v-393h-236v160h-630z" />
    <glyph glyph-name="uni0447" unicode="&#x447;" horiz-adv-x="937" 
d="M592 1458h237v-1458h-237v457q-109 -76 -209 -76q-69 0 -122 22t-95 71t-64 137t-22 212v635h235v-635q0 -37 1 -60t6 -54.5t14.5 -49t28 -30.5t45.5 -13q36 0 87.5 27.5t94.5 63.5v751z" />
    <glyph glyph-name="uni0448" unicode="&#x448;" horiz-adv-x="1380" 
d="M109 0v1458h235v-1225h227v1225h234v-1225h233v1225h232v-1458h-1161z" />
    <glyph glyph-name="uni0449" unicode="&#x449;" horiz-adv-x="1394" 
d="M109 0v1458h235v-1225h229v1225h232v-1225h233v1225h232v-1225h98v-393h-233v160h-1026z" />
    <glyph glyph-name="uni044A" unicode="&#x44a;" horiz-adv-x="909" 
d="M139 0v1221h-127v237h363v-459h137q71 0 130.5 -28t101 -76t70.5 -112t42.5 -135t13.5 -146q0 -94 -23 -182.5t-66 -160.5t-112 -115.5t-153 -43.5h-377zM375 233h133q62 0 95.5 80t33.5 189q0 106 -33 185t-92 79h-137v-533z" />
    <glyph glyph-name="uni044B" unicode="&#x44b;" horiz-adv-x="1232" 
d="M342 233h123q61 0 93 79.5t32 187.5q0 116 -31.5 191t-95.5 75h-121v-533zM109 0v1458h235v-459h125q90 0 159 -42t108.5 -113t59 -156.5t19.5 -181.5q0 -97 -21 -185t-61.5 -161t-108 -116.5t-153.5 -43.5h-362zM889 1458h235v-1458h-235v1458z" />
    <glyph glyph-name="uni044C" unicode="&#x44c;" horiz-adv-x="876" 
d="M344 233h133q42 0 72.5 40.5t44.5 100.5t14 128t-14 126.5t-43.5 98t-69.5 39.5h-137v-533zM109 0v1458h237v-459h135q88 0 158 -42t112.5 -112.5t64.5 -157t22 -181.5t-23 -184.5t-66 -162t-111.5 -116t-152.5 -43.5h-376z" />
    <glyph glyph-name="uni044D" unicode="&#x44d;" horiz-adv-x="935" 
d="M440 -18q-156 0 -260 132.5t-147 354.5l233 43q56 -295 178 -295q82 0 138 116.5t71 274.5h-338v238h338q-7 71 -23.5 137.5t-42 124.5t-63 93.5t-80.5 35.5q-44 0 -80.5 -42t-59.5 -105t-38 -146l-233 41q44 222 147.5 356t259.5 134q141 0 246 -108.5t156 -276
t51 -363.5q0 -145 -30 -277.5t-86 -237.5t-143.5 -167.5t-193.5 -62.5z" />
    <glyph glyph-name="uni044E" unicode="&#x44e;" horiz-adv-x="1314" 
d="M831 1239q-60 0 -104.5 -78.5t-64 -191.5t-19.5 -240q0 -97 12 -187.5t35 -163.5t59.5 -117t81.5 -44q62 0 110 76.5t71.5 192t23.5 243.5t-23 242.5t-71 191t-111 76.5zM109 0v1458h233v-612h80q9 130 38 241t78.5 199t125.5 138.5t170 50.5q104 0 189 -62.5t138.5 -168
t82 -238t28.5 -277.5t-28.5 -278t-82 -238t-138.5 -168t-189 -63q-94 0 -170 50.5t-125.5 138.5t-78.5 199.5t-38 241.5h-80v-612h-233z" />
    <glyph glyph-name="uni044F" unicode="&#x44f;" horiz-adv-x="940" 
d="M829 1458v-1458h-235v338h-139l-146 -338h-256l187 428q-86 72 -131.5 197t-45.5 272q0 107 25.5 206.5t73 179t123 127.5t168.5 48h376zM457 571h137v650h-129q-53 0 -91.5 -48t-56.5 -120t-18 -156q0 -133 41.5 -229.5t116.5 -96.5z" />
    <glyph glyph-name="uni0451" unicode="&#x451;" 
d="M109 0v1458h669v-237h-432v-373h299v-234h-299v-381h432v-233h-669zM618 1540q-66 0 -108.5 45t-42.5 113q0 65 43 111t108 46t111.5 -46.5t46.5 -110.5q0 -67 -46.5 -112.5t-111.5 -45.5zM264 1855q64 0 110 -46t46 -111q0 -67 -45.5 -112.5t-110.5 -45.5
q-66 0 -109.5 45t-43.5 113q0 65 44 111t109 46z" />
    <glyph glyph-name="uni0452" unicode="&#x452;" horiz-adv-x="1062" 
d="M301 0v1223h-262v235h762v-235h-266v-236q85 55 159 55q87 0 152 -45t101.5 -121t53.5 -164t17 -186q0 -88 -7.5 -159.5t-30 -143t-58.5 -119.5t-97 -78t-143 -30h-51v237h47q29 0 49.5 18.5t31.5 45.5t17.5 69.5t8 77t1.5 82.5q0 128 -29.5 204.5t-78.5 76.5
q-58 0 -143 -66v-741h-234z" />
    <glyph glyph-name="uni0453" unicode="&#x453;" horiz-adv-x="813" 
d="M285 1606l241 356l185 -133l-265 -340zM109 0v1458h671v-237h-432v-1221h-239z" />
    <glyph glyph-name="uni0454" unicode="&#x454;" horiz-adv-x="935" 
d="M494 -18q-106 0 -193.5 62.5t-142.5 167.5t-85 237.5t-30 277.5q0 146 30 279t85 238.5t142.5 168t193.5 62.5q157 0 260 -133.5t147 -356.5l-231 -41q-26 130 -70.5 211.5t-107.5 81.5q-43 0 -80.5 -35.5t-63 -93.5t-42 -124.5t-23.5 -137.5h338v-238h-338
q15 -158 71 -274.5t138 -116.5q119 0 178 295l231 -43q-44 -223 -147 -355t-260 -132z" />
    <glyph glyph-name="uni0455" unicode="&#x455;" 
d="M29 180q14 15 72 76.5t89 95.5q138 -135 240 -135q61 0 96 49.5t35 116.5q0 45 -18 83.5t-48 67.5t-69 55.5t-82.5 52.5t-87 54t-82.5 65t-69 80t-48 104.5t-18 133.5q0 168 101.5 282t258.5 114q172 0 373 -172l-158 -179q-129 115 -215 115q-60 0 -92.5 -45.5
t-32.5 -114.5q0 -56 29 -101.5t75 -78t101.5 -64.5t111.5 -71.5t102 -87.5t75 -123.5t29 -169.5q0 -103 -45 -194t-130 -149t-192 -58q-193 0 -401 198z" />
    <glyph glyph-name="uni0456" unicode="&#x456;" horiz-adv-x="456" 
d="M109 0v1458h239v-1458h-239z" />
    <glyph glyph-name="uni0457" unicode="&#x457;" horiz-adv-x="456" 
d="M109 0v1458h239v-1458h-239zM406 1559q-68 0 -112 45t-44 114q0 67 44.5 113.5t111.5 46.5q66 0 112.5 -47t46.5 -113q0 -68 -46 -113.5t-113 -45.5zM47 1878q66 0 112 -47t46 -113q0 -68 -45.5 -113.5t-112.5 -45.5q-66 0 -111 45t-45 114q0 66 45 113t111 47z" />
    <glyph glyph-name="uni0458" unicode="&#x458;" horiz-adv-x="768" 
d="M-16 145l178 152q36 -41 61.5 -59.5t59.5 -18.5q63 0 103 89.5t40 246.5v903h236v-909q0 -147 -31 -259t-86 -177.5t-123.5 -98t-149.5 -32.5q-82 0 -150 40t-138 123z" />
    <glyph glyph-name="uni0459" unicode="&#x459;" horiz-adv-x="1394" 
d="M207 1458h670v-534h149q82 0 147 -39t104.5 -104.5t60 -145t20.5 -166.5q0 -71 -13 -138.5t-40 -127.5t-65 -105t-91.5 -71.5t-116.5 -26.5h-391v1221h-203q0 -518 -39 -748q-31 -189 -98 -314.5t-205 -199.5l-114 199q79 54 122.5 132t67.5 226q23 147 29 358.5t6 583.5
zM1020 233q35 0 60 34.5t35.5 84.5t10.5 109q0 54 -9.5 103.5t-34 87.5t-60.5 38h-148v-457h146z" />
    <glyph glyph-name="uni045A" unicode="&#x45a;" horiz-adv-x="1396" 
d="M885 233h157q41 0 63.5 57.5t22.5 135.5q0 39 -7 80t-28 76.5t-51 35.5h-157v-385zM1051 854q77 0 137.5 -35.5t97 -95.5t55.5 -133t19 -154q0 -83 -19.5 -160t-56 -139t-95.5 -99.5t-132 -37.5h-408v618h-305v-618h-235v1458h235v-604h305v604h238v-604h164z" />
    <glyph glyph-name="uni045B" unicode="&#x45b;" horiz-adv-x="1060" 
d="M301 0v1223h-262v235h762v-235h-264v-197q83 37 141 37q150 0 228.5 -100t78.5 -338v-625h-233v625q0 43 -2 70.5t-10.5 62.5t-28.5 53t-52 18q-46 0 -122 -49v-780h-236z" />
    <glyph glyph-name="uni045C" unicode="&#x45c;" horiz-adv-x="948" 
d="M336 1595l242 357l184 -133l-264 -340zM109 0v1458h237v-610h90l223 610h259l-277 -727l277 -731h-259l-223 612h-90v-612h-237z" />
    <glyph glyph-name="uni045E" unicode="&#x45e;" horiz-adv-x="864" 
d="M231 0l84 311l-303 1147h248q14 -59 78.5 -326t97.5 -411q159 661 176 737h250l-389 -1458h-242zM145 1782l193 71q33 -86 54.5 -129t41.5 -43t42.5 42.5t58.5 131.5l190 -73q-118 -303 -289 -303t-291 303z" />
    <glyph glyph-name="uni045F" unicode="&#x45f;" horiz-adv-x="997" 
d="M109 0v1458h237v-1225h305v1225h238v-1458h-275v-160h-235v160h-270z" />
    <glyph glyph-name="uni0490" unicode="&#x490;" horiz-adv-x="815" 
d="M109 0v1458h436v182h235v-419h-434v-1221h-237z" />
    <glyph glyph-name="uni0491" unicode="&#x491;" horiz-adv-x="815" 
d="M109 0v1458h436v182h235v-419h-434v-1221h-237z" />
    <glyph glyph-name="Wgrave" unicode="&#x1e80;" horiz-adv-x="1302" 
d="M1303 1458l-297 -1458h-224q-39 256 -131 899l-133 -899h-223l-295 1458h246q129 -734 166 -936l135 936h209l135 -936l164 936h248zM649 1501l-264 340l184 133l242 -356z" />
    <glyph glyph-name="wgrave" unicode="&#x1e81;" horiz-adv-x="1302" 
d="M1303 1458l-297 -1458h-224q-39 256 -131 899l-133 -899h-223l-295 1458h246q129 -734 166 -936l135 936h209l135 -936l164 936h248zM649 1501l-264 340l184 133l242 -356z" />
    <glyph glyph-name="Wacute" unicode="&#x1e82;" horiz-adv-x="1302" 
d="M1303 1458l-297 -1458h-224q-39 256 -131 899l-133 -899h-223l-295 1458h246q129 -734 166 -936l135 936h209l135 -936l164 936h248zM494 1614l241 356l185 -133l-265 -340z" />
    <glyph glyph-name="wacute" unicode="&#x1e83;" horiz-adv-x="1302" 
d="M1303 1458l-297 -1458h-224q-39 256 -131 899l-133 -899h-223l-295 1458h246q129 -734 166 -936l135 936h209l135 -936l164 936h248zM494 1614l241 356l185 -133l-265 -340z" />
    <glyph glyph-name="Wdieresis" unicode="&#x1e84;" horiz-adv-x="1302" 
d="M1303 1458l-297 -1458h-224q-39 256 -131 899l-133 -899h-223l-295 1458h246q129 -734 166 -936l135 936h209l135 -936l164 936h248zM471 1548q-69 0 -115.5 47.5t-46.5 116.5q0 67 47 114.5t115 47.5q66 0 112 -48t46 -114q0 -69 -46 -116.5t-112 -47.5zM834 1548
q-68 0 -113 47t-45 117q0 67 45 114.5t113 47.5q66 0 113.5 -48t47.5 -114q0 -69 -47.5 -116.5t-113.5 -47.5z" />
    <glyph glyph-name="wdieresis" unicode="&#x1e85;" horiz-adv-x="1302" 
d="M1303 1458l-297 -1458h-224q-39 256 -131 899l-133 -899h-223l-295 1458h246q129 -734 166 -936l135 936h209l135 -936l164 936h248zM471 1548q-69 0 -115.5 47.5t-46.5 116.5q0 67 47 114.5t115 47.5q66 0 112 -48t46 -114q0 -69 -46 -116.5t-112 -47.5zM834 1548
q-68 0 -113 47t-45 117q0 67 45 114.5t113 47.5q66 0 113.5 -48t47.5 -114q0 -69 -47.5 -116.5t-113.5 -47.5z" />
    <glyph glyph-name="uni1E9E" unicode="&#x1e9e;" horiz-adv-x="1032" 
d="M92 0v637q0 186 24 334.5t75.5 263.5t138.5 177.5t205 62.5q149 0 266 -118.5t172 -299.5l-238 -234q258 -155 258 -458q0 -166 -87.5 -273.5t-237.5 -107.5t-308 166q20 21 76 77t86 88q86 -96 144 -96q46 0 71 37t25 104q0 55 -15.5 104.5t-49 94.5t-91 80.5
t-135.5 56.5v176l248 244q-64 125 -164 125q-40 0 -73.5 -16.5t-56.5 -49.5t-40.5 -69.5t-28 -89t-17 -95.5t-9 -100.5t-3.5 -93t-1 -84.5v-643h-234z" />
    <glyph glyph-name="Ygrave" unicode="&#x1ef2;" horiz-adv-x="864" 
d="M315 0v354l-305 1104h246l176 -708l176 708h246l-305 -1104v-354h-234zM428 1501l-264 340l184 133l242 -356z" />
    <glyph glyph-name="ygrave" unicode="&#x1ef3;" horiz-adv-x="864" 
d="M315 0v354l-305 1104h246l176 -708l176 708h246l-305 -1104v-354h-234zM428 1501l-264 340l184 133l242 -356z" />
    <glyph glyph-name="endash" unicode="&#x2013;" horiz-adv-x="659" 
d="M33 604v234h594v-234h-594z" />
    <glyph glyph-name="emdash" unicode="&#x2014;" horiz-adv-x="909" 
d="M33 602v236h841v-236h-841z" />
    <glyph glyph-name="quoteleft" unicode="&#x2018;" horiz-adv-x="380" 
d="M309 1634l88 -170q-98 -52 -157 -100q49 -10 77.5 -46.5t28.5 -82.5q0 -65 -46.5 -114.5t-115.5 -49.5q-76 0 -121 55t-45 140q0 126 73.5 209.5t217.5 158.5z" />
    <glyph glyph-name="quoteright" unicode="&#x2019;" horiz-adv-x="380" 
d="M70 983l-88 172q108 57 157 100q-49 9 -77.5 45t-28.5 82q0 65 47 115.5t117 50.5q75 0 119 -55.5t44 -140.5q0 -125 -73.5 -209.5t-216.5 -159.5z" />
    <glyph glyph-name="quotesinglbase" unicode="&#x201a;" horiz-adv-x="385" 
d="M70 -256l-86 170q102 54 155 100q-48 10 -76 46.5t-28 82.5q0 65 46 114.5t116 49.5q76 0 119.5 -54t43.5 -140q0 -126 -73 -210t-217 -159z" />
    <glyph glyph-name="quotedblleft" unicode="&#x201c;" horiz-adv-x="724" 
d="M653 1634l86 -170q-97 -53 -155 -100q49 -10 77.5 -46.5t28.5 -82.5q0 -65 -47 -114.5t-117 -49.5q-74 0 -114.5 54.5t-40.5 140.5q0 87 36.5 156t94.5 116t151 96zM309 1634l86 -170q-102 -54 -155 -100q47 -10 72.5 -46t25.5 -83q0 -66 -43.5 -115t-112.5 -49
q-75 0 -119.5 55t-44.5 140q0 126 73.5 209.5t217.5 158.5z" />
    <glyph glyph-name="quotedblright" unicode="&#x201d;" horiz-adv-x="722" 
d="M70 983l-88 172q108 57 157 100q-49 9 -77.5 45t-28.5 82q0 65 47 115.5t115 50.5q74 0 115.5 -55t41.5 -141q0 -125 -71 -210t-211 -159zM414 983l-86 172q103 54 155 100q-47 9 -72.5 44.5t-25.5 82.5q0 66 43.5 116t112.5 50q75 0 118 -55t43 -141q0 -125 -73 -210
t-215 -159z" />
    <glyph glyph-name="quotedblbase" unicode="&#x201e;" horiz-adv-x="727" 
d="M70 -256l-86 170q97 53 155 100q-49 10 -77.5 46.5t-28.5 82.5q0 65 47 114.5t117 49.5q74 0 114.5 -54t40.5 -140q0 -127 -70.5 -211t-211.5 -158zM414 -256l-86 170q102 54 155 100q-47 10 -72.5 46t-25.5 83q0 66 43.5 115t112.5 49q75 0 119.5 -54.5t44.5 -139.5
q0 -126 -73.5 -210t-217.5 -159z" />
    <glyph glyph-name="dagger" unicode="&#x2020;" horiz-adv-x="761" 
d="M264 -276v1417h-235v235h235v240h236v-240h233v-235h-233v-1417h-236z" />
    <glyph glyph-name="daggerdbl" unicode="&#x2021;" horiz-adv-x="792" 
d="M279 -276v237h-236v236h236v944h-236v235h236v240h235v-240h236v-235h-236v-944h236v-236h-236v-237h-235z" />
    <glyph glyph-name="bullet" unicode="&#x2022;" horiz-adv-x="624" 
d="M27 729q0 119 83 204t201 85t202.5 -85t84.5 -204q0 -118 -84 -201.5t-203 -83.5q-118 0 -201 83t-83 202z" />
    <glyph glyph-name="ellipsis" unicode="&#x2026;" horiz-adv-x="1157" 
d="M33 152q0 70 48.5 118.5t121.5 48.5q69 0 115.5 -49t46.5 -118q0 -72 -46.5 -121t-115.5 -49q-73 0 -121.5 49t-48.5 121zM580 -18q-72 0 -119 49t-47 121q0 70 47.5 118.5t118.5 48.5q69 0 116 -49t47 -118q0 -72 -47 -121t-116 -49zM956 -18q-71 0 -117 48.5t-46 121.5
q0 70 46 118.5t117 48.5q69 0 119.5 -49t50.5 -118q0 -71 -50 -120.5t-120 -49.5z" />
    <glyph glyph-name="perthousand" unicode="&#x2030;" horiz-adv-x="1710" 
d="M999 391q0 95 -23.5 151t-64.5 56q-42 0 -65 -56t-23 -151t23 -151t65 -56q41 0 64.5 56t23.5 151zM659 391q0 172 71.5 291t180.5 119q110 0 180 -115.5t70 -294.5q0 -178 -70 -293.5t-180 -115.5q-113 0 -182.5 115t-69.5 294zM268 1272q-42 0 -65 -56.5t-23 -150.5
q0 -96 23 -152.5t65 -56.5q39 0 62.5 57.5t23.5 151.5q0 93 -23.5 150t-62.5 57zM268 655q-112 0 -182 116t-70 294q0 180 70 295t182 115q110 0 180 -115.5t70 -294.5q0 -172 -72 -291t-178 -119zM246 0l495 1458h193q-252 -737 -502 -1458h-186zM1456 801
q110 0 180 -115.5t70 -294.5q0 -178 -70 -293.5t-180 -115.5q-113 0 -181.5 115t-68.5 294q0 181 68.5 295.5t181.5 114.5zM1456 184q41 0 63.5 56t22.5 151t-22.5 151t-63.5 56q-43 0 -65.5 -55.5t-22.5 -151.5t22.5 -151.5t65.5 -55.5z" />
    <glyph glyph-name="guilsinglleft" unicode="&#x2039;" horiz-adv-x="413" 
d="M199 262l-191 467l191 481l200 -80l-170 -401q142 -323 170 -387z" />
    <glyph glyph-name="guilsinglright" unicode="&#x203a;" horiz-adv-x="413" 
d="M12 342l170 387l-170 401l201 80l190 -481l-190 -467z" />
    <glyph glyph-name="franc" unicode="&#x20a3;" horiz-adv-x="821" 
d="M39 250v225h70v983h677v-237h-440v-373h299v-234h-299v-139h123v-225h-123v-250h-237v250h-70z" />
    <glyph glyph-name="Euro" unicode="&#x20ac;" horiz-adv-x="991" 
d="M8 487v209h88v66h-88v211h109q15 78 39.5 149t62.5 136.5t84.5 112.5t109.5 75.5t134 28.5q85 0 155 -40.5t118.5 -112t81 -154.5t52.5 -183l-231 -43q-11 54 -25 100.5t-35.5 94t-52.5 75t-67 27.5q-38 0 -70.5 -25t-55 -67t-37 -85t-24.5 -89h240v-211h-268v-66h268
v-209h-240q10 -48 24.5 -91.5t37 -85.5t55 -67.5t70.5 -25.5q36 0 67 27.5t52.5 74.5t35.5 93t25 100l231 -43q-16 -78 -39 -146t-58.5 -132t-79 -109.5t-102.5 -72.5t-128 -27q-71 0 -134 28.5t-110 76t-85 113t-62 137t-39 150.5h-109z" />
    <glyph glyph-name="uni20BD" unicode="&#x20bd;" horiz-adv-x="888" 
d="M109 0v1458h389q110 0 192.5 -76t121 -189t38.5 -241q0 -75 -13.5 -145t-42 -132.5t-69.5 -109t-100.5 -73.5t-130.5 -27h-150v-88h240v-217h-238v-160h-237zM346 692h146q41 0 70.5 39t42.5 97.5t13 127.5q0 108 -34 186.5t-97 78.5h-141v-529z" />
    <glyph glyph-name="uni20BF" unicode="&#x20bf;" horiz-adv-x="909" 
d="M475 -223v223h-90v-223h-190v223h-86v1458h86v223h190v-223h90v223h193v-270q78 -54 122 -156t44 -217q0 -187 -103 -295q60 -55 90.5 -140t30.5 -181q0 -121 -49 -228.5t-135 -158.5v-258h-193zM344 233h178q47 0 73 57.5t26 137.5q0 76 -27.5 134.5t-71.5 58.5h-178
v-388zM344 842h156q45 0 71.5 58t26.5 136t-25 132.5t-73 54.5h-156v-381z" />
    <glyph glyph-name="afii61352" unicode="&#x2116;" horiz-adv-x="1622" 
d="M354 1458l355 -932v932h229v-1458h-246l-352 938v-938h-231v1458h245zM1483 0h-393v233h393v-233zM1284 1260q-37 0 -57.5 -85.5t-20.5 -226.5q0 -139 20.5 -224t57.5 -85q39 0 60.5 86.5t21.5 222.5q0 138 -21.5 225t-60.5 87zM1284 424q-133 0 -210 147.5t-77 376.5
q0 230 77 377.5t210 147.5q134 0 214.5 -148t80.5 -377q0 -149 -35.5 -267.5t-103 -187.5t-156.5 -69z" />
    <glyph glyph-name="trademark" unicode="&#x2122;" horiz-adv-x="876" 
d="M399 905v553h133l89 -325l88 325h133v-553h-117v266l-66 -266h-79l-64 264v-264h-117zM133 905v436h-113v117h347v-117h-113v-436h-121z" />
    <glyph glyph-name="Omega" unicode="&#x2126;" horiz-adv-x="1026" 
d="M49 0v233h174q-77 97 -117 231.5t-40 287.5q0 170 37 309.5t99.5 228.5t142 137t167.5 48t167.5 -48t142 -137t99.5 -228.5t37 -309.5q0 -153 -40 -287.5t-117 -231.5h174v-233h-424v248q86 66 127 198.5t41 288.5q0 234 -61 368t-146 134t-146 -134t-61 -368
q0 -154 41.5 -287.5t126.5 -199.5v-248h-424z" />
    <glyph glyph-name="arrowleft" unicode="&#x2190;" horiz-adv-x="868" 
d="M430 -39l-391 674v186l391 676l201 -119l-320 -530h518v-236h-518l320 -534z" />
    <glyph glyph-name="arrowup" unicode="&#x2191;" horiz-adv-x="1062" 
d="M416 84v836l-213 -388l-197 117q31 53 188 317t240 406h193l430 -723q-40 -23 -110.5 -65t-86.5 -52l-213 388v-836h-231z" />
    <glyph glyph-name="arrowright" unicode="&#x2192;" horiz-adv-x="868" 
d="M238 78l319 534h-518v236h518l-319 530l202 119l389 -676v-186l-389 -674z" />
    <glyph glyph-name="arrowdown" unicode="&#x2193;" horiz-adv-x="1062" 
d="M436 86l-430 721l197 117l213 -385v833h231v-835l213 387l197 -117l-428 -721h-193z" />
    <glyph glyph-name="arrowboth" unicode="&#x2194;" horiz-adv-x="1345" 
d="M922 1497l385 -674v-188l-385 -674l-203 115l317 536h-727l316 -536l-203 -115l-383 674v188l383 674l203 -117l-316 -532h727l-317 532z" />
    <glyph glyph-name="arrowupdn" unicode="&#x2195;" horiz-adv-x="1138" 
d="M45 958l428 723h193l428 -723l-197 -116l-213 391v-1008l213 391l197 -116l-428 -723h-193l-428 723l197 116l211 -389v1004l-211 -389z" />
    <glyph glyph-name="uni2196" unicode="&#x2196;" horiz-adv-x="870" 
d="M223 1286h586v-231h-332l344 -693l-209 -104l-288 600v-686h-228v987z" />
    <glyph glyph-name="uni2197" unicode="&#x2197;" horiz-adv-x="870" 
d="M647 1286l127 -129v-987h-227v688l-289 -600l-209 104l344 693h-332v231h586z" />
    <glyph glyph-name="uni2198" unicode="&#x2198;" horiz-adv-x="870" 
d="M647 172h-586v229h334l-346 693l209 104l289 -600v688h227v-987z" />
    <glyph glyph-name="uni2199" unicode="&#x2199;" horiz-adv-x="870" 
d="M809 172h-586l-127 127v987h228v-688l288 600l209 -104l-344 -693h332v-229z" />
    <glyph glyph-name="Delta" unicode="&#x2206;" horiz-adv-x="899" 
d="M291 231h317q-97 523 -157 863zM49 0v215q179 863 256 1243h291l252 -1241v-217h-799z" />
    <glyph glyph-name="minus" unicode="&#x2212;" horiz-adv-x="696" 
d="M33 602v236h631v-236h-631z" />
    <glyph glyph-name="uni2713" unicode="&#x2713;" horiz-adv-x="972" 
d="M547 106h-223l-322 725l217 97l199 -465l385 1325q38 -10 112.5 -33t112.5 -33z" />
    <glyph glyph-name="uni2715" unicode="&#x2715;" horiz-adv-x="1150" 
d="M717 729l422 -698l-207 -123l-357 596l-358 -596l-207 123l422 698l-422 698l207 125l358 -598l357 598l207 -125z" />
    <glyph glyph-name="uni2717" unicode="&#x2717;" horiz-adv-x="1001" 
d="M987 147l-199 -120q-240 400 -288 479q-128 -211 -289 -479l-199 120l350 582l-350 580l199 121l289 -482l288 482l199 -121l-350 -580z" />
    <glyph glyph-name="songer" unicode="&#x2b24;" horiz-adv-x="2033" 
d="M1511 1853q108 -65 191.5 -191t132 -282.5t72.5 -322t24 -332.5q0 -166 -24 -331.5t-72.5 -322.5t-132 -283t-191.5 -191q-106 -64 -237 -64q-133 0 -266 31q-194 45 -363.5 153.5t-292.5 260t-193.5 345.5t-70.5 402t70.5 402t193.5 345.5t292.5 260.5t363.5 155
q139 29 266 29q131 0 237 -64z" />
    <glyph glyph-name="commaaccent" unicode="&#xf6c3;" horiz-adv-x="415" 
d="M236 -59q74 0 115.5 -55.5t41.5 -137.5q0 -102 -58 -175.5t-169 -139.5l-96 155q101 63 114 76q-44 8 -72 40.5t-28 78.5q0 63 43 110.5t109 47.5z" />
    <glyph glyph-name="uni0414.ss02" horiz-adv-x="1009" 
d="M29 0v233h100l219 1225h316l215 -1225h104v-233h-954zM371 233h272l-137 877z" />
    <glyph glyph-name="uni041B.ss02" horiz-adv-x="942" 
d="M0 0l338 1458h268l336 -1458h-250l-221 1065l-221 -1065h-250z" />
    <glyph glyph-name="uni0426.ss02" horiz-adv-x="1038" 
d="M109 0v1458h237v-1225h297v1225h236v-1225h141v-233h-911z" />
    <glyph glyph-name="uni0429.ss02" horiz-adv-x="1431" 
d="M109 0v1458h235v-1225h229v1225h232v-1225h233v1225h232v-1225h143v-233h-1304z" />
    <glyph glyph-name="zero.slash" horiz-adv-x="903" 
d="M455 205q74 0 118.5 138.5t44.5 354.5q0 223 -26 353l-184 -828q22 -18 47 -18zM455 1251q-78 0 -124 -136t-46 -355q0 -211 24 -346l185 825q-12 12 -39 12zM455 1475q122 0 209.5 -98t130.5 -264.5t43 -383.5q0 -218 -43 -384.5t-130.5 -264.5t-209.5 -98
q-124 0 -213.5 97.5t-134 265t-44.5 384.5q0 216 44.5 383t134 265t213.5 98z" />
    <glyph glyph-name="uni0414.loclBGR" horiz-adv-x="995" 
d="M870 233h105v-391h-234v158h-487v-158h-234v391h101l219 1225h315zM498 1108l-136 -875h273q-84 545 -137 875z" />
    <glyph glyph-name="uni0424.loclBGR" horiz-adv-x="1091" 
d="M662 1227v-1000q72 49 116.5 198t44.5 304t-44.5 302t-116.5 196zM430 227v998q-72 -49 -117 -196t-45 -300q0 -156 45 -304.5t117 -197.5zM664 1622v-166q175 -52 281 -243.5t106 -483.5q0 -294 -106 -486t-281 -243v-166h-236v166q-176 51 -282.5 243t-106.5 486
q0 291 106.5 483t282.5 244v166h236z" />
    <glyph glyph-name="K.ss02" horiz-adv-x="948" 
d="M109 0v1458h237v-610h90l223 610h259l-277 -727l277 -731h-259l-223 612h-90v-612h-237z" />
    <glyph glyph-name="Kcommaaccent.ss02" horiz-adv-x="948" 
d="M109 0v1458h237v-610h90l223 610h259l-277 -727l277 -731h-259l-223 612h-90v-612h-237zM494 -61q74 0 115.5 -55.5t41.5 -137.5q0 -102 -58 -175.5t-169 -139.5l-96 155q101 63 114 76q-44 8 -72 40.5t-28 78.5q0 63 43 110.5t109 47.5z" />
    <glyph glyph-name="brevecyr" horiz-adv-x="626" 
d="M23 1802l192 72q33 -86 54.5 -129t41.5 -43t42.5 42.5t58.5 131.5l190 -74q-118 -303 -289 -303q-170 0 -290 303z" />
    <glyph glyph-name="uni041B.loclBGR" horiz-adv-x="942" 
d="M0 0l338 1458h268l336 -1458h-250l-221 1065l-221 -1065h-250z" />
    <glyph glyph-name="zero.tf" horiz-adv-x="864" 
d="M434 217q70 0 110 143.5t40 368.5q0 226 -40 368t-110 142q-73 0 -112 -140t-39 -370q0 -229 39 -370.5t112 -141.5zM434 -18q-124 0 -213.5 98t-133.5 265t-44 384q0 216 44 382.5t133.5 265t213.5 98.5q122 0 209.5 -98.5t130.5 -265t43 -382.5q0 -218 -43 -384.5
t-130.5 -264.5t-209.5 -98z" />
    <glyph glyph-name="zeroslash.tf" horiz-adv-x="864" 
d="M434 205q79 0 121.5 149.5t42.5 386.5q0 178 -27 310l-184 -828q22 -18 47 -18zM434 1251q-82 0 -126 -146.5t-44 -385.5q0 -170 27 -305q29 137 90.5 412.5t91.5 412.5q-12 12 -39 12zM434 1475q122 0 209.5 -98t130.5 -264.5t43 -383.5q0 -218 -43 -384.5
t-130.5 -264.5t-209.5 -98q-124 0 -213.5 98t-133.5 265t-44 384q0 216 44 383t133.5 265t213.5 98z" />
    <glyph glyph-name="one.tf" horiz-adv-x="864" 
d="M217 1110q-29 49 -119 205l232 143h223v-1222h207v-236h-649v236h206v940z" />
    <glyph glyph-name="two.tf" horiz-adv-x="864" 
d="M92 0v252q82 59 159.5 136.5t144 169t107 195.5t40.5 199q0 133 -30.5 210t-78.5 77q-51 0 -85 -86.5t-42 -232.5l-233 18q18 262 118.5 399.5t241.5 137.5q140 0 241 -145t101 -390q0 -192 -105.5 -371.5t-279.5 -335.5h377v-233h-676z" />
    <glyph glyph-name="three.tf" horiz-adv-x="864" 
d="M47 403l234 39q13 -92 47.5 -158.5t79.5 -66.5q58 0 92.5 61t34.5 136q0 81 -33.5 140.5t-95.5 59.5h-93v234h90q56 0 90.5 55.5t34.5 138.5q0 78 -35.5 137.5t-89.5 59.5q-34 0 -72 -57.5t-57 -155.5l-231 41q20 109 61.5 191.5t92.5 128t102.5 67t103.5 21.5
q104 0 187 -59t127.5 -157.5t44.5 -216.5q0 -187 -115 -309q123 -119 123 -319q0 -185 -105.5 -308.5t-256.5 -123.5q-39 0 -76 9t-82 36.5t-82 72t-70 122.5t-51 181z" />
    <glyph glyph-name="four.tf" horiz-adv-x="864" 
d="M37 252v248l381 958h276v-973h125v-233h-125v-252h-231v252h-426zM256 485h209v562z" />
    <glyph glyph-name="five.tf" horiz-adv-x="864" 
d="M479 1026q90 0 159.5 -70.5t105.5 -185t36 -250.5q0 -103 -22.5 -197.5t-65.5 -171.5t-112.5 -123t-155.5 -46q-70 0 -127 28.5t-94 74.5t-63 110t-39 127.5t-19 134.5q38 2 115.5 8t115.5 8q22 -256 111 -256q57 0 90 88t33 207q0 122 -25.5 204.5t-72.5 82.5
q-31 0 -62 -39.5t-55 -114.5l-211 70l39 743h588v-237h-386l-14 -252q67 57 131 57z" />
    <glyph glyph-name="six.tf" horiz-adv-x="864" 
d="M272 1235l113 270l217 -84l-137 -344q88 3 165.5 -62t126 -191t48.5 -285q0 -106 -23.5 -204t-68.5 -177.5t-117 -127.5t-162 -48t-162.5 47t-117.5 126.5t-69 178t-24 205.5q0 113 38 240.5t173 455.5zM434 217q43 0 74.5 48.5t46 120.5t14.5 155q0 84 -14.5 155
t-46 117.5t-74.5 46.5t-74.5 -46.5t-46 -117.5t-14.5 -155q0 -85 14.5 -157t46 -119.5t74.5 -47.5z" />
    <glyph glyph-name="seven.tf" horiz-adv-x="864" 
d="M184 16l334 1205h-442v237h690v-221q-15 -57 -147 -543t-203 -739z" />
    <glyph glyph-name="eight.tf" horiz-adv-x="864" 
d="M315 1038q0 -90 32 -140t83 -50t84 50.5t33 139.5t-33.5 144t-83.5 55q-49 0 -82 -57.5t-33 -141.5zM297 428q0 -85 39.5 -149t93.5 -64t93.5 64t39.5 149q0 95 -38.5 153t-94.5 58t-94.5 -58t-38.5 -153zM190 739q-43 39 -72.5 113.5t-29.5 177.5q0 194 98.5 319.5
t243.5 125.5q146 0 245 -125.5t99 -319.5q0 -104 -30 -179.5t-74 -113.5q51 -49 89 -127t38 -168q0 -203 -106 -331.5t-261 -128.5q-156 0 -259 128t-103 332q0 93 36 172.5t86 124.5z" />
    <glyph glyph-name="nine.tf" horiz-adv-x="864" 
d="M430 1239q-43 0 -74.5 -47.5t-46 -119t-14.5 -154.5q0 -132 35.5 -227t99.5 -95q42 0 73.5 47t46.5 119t15 156q0 83 -15 155t-46.5 119t-73.5 47zM590 219l-111 -268q-36 15 -108.5 41.5t-108.5 40.5l137 346q-138 0 -240 148t-102 388q0 106 24 204t69 178t117.5 128
t162.5 48t162 -47.5t117 -126.5t68.5 -177.5t23.5 -206.5q0 -113 -38 -240.5t-173 -455.5z" />
    <glyph glyph-name="dollar.tf" horiz-adv-x="864" 
d="M317 -221v227q-135 40 -272 174l160 172q138 -135 241 -135q59 0 94 50.5t35 115.5q0 57 -29 104t-75 80.5t-101.5 66.5t-111 72t-101.5 87t-75 121t-29 165q0 138 73 243t191 136v225h218v-231q115 -34 251 -149l-157 -177q-127 113 -215 113q-60 0 -92.5 -45.5
t-32.5 -114.5q0 -56 29 -101.5t75 -78t102 -64.5t112 -71.5t102 -87.5t75 -123.5t29 -169.5q0 -135 -76.5 -246t-201.5 -143v-215h-218z" />
    <glyph glyph-name="cent.tf" horiz-adv-x="864" 
d="M551 -205h-209v217q-104 54 -158.5 195.5t-54.5 314.5q0 172 54.5 312.5t158.5 193.5v221h209v-213q82 -26 130 -99.5t79 -191.5l-213 -55q-22 90 -44.5 118t-49.5 28q-49 0 -78 -99t-29 -217q0 -120 28 -217.5t79 -97.5q17 0 29.5 7.5t31 42t33.5 97.5l213 -59
q-31 -113 -80.5 -187.5t-128.5 -101.5v-209z" />
    <glyph glyph-name="sterling.tf" horiz-adv-x="864" 
d="M315 233h476v-233h-728v227q39 60 51.5 118.5t20.5 184.5l19 306q4 66 9.5 120.5t17.5 122.5t28.5 121.5t44 107t62 88.5t83.5 57t109 22q52 0 102 -22t94.5 -62.5t79.5 -83.5t72 -99l-194 -129q-50 74 -93 117t-65 43q-31 0 -55.5 -53.5t-37 -135.5t-18.5 -141t-8 -108
h266v-236h-284q-14 -227 -52 -332z" />
    <glyph glyph-name="yen.tf" horiz-adv-x="864" 
d="M117 178v207h192l-18 61h-174v211h116l-225 801h244l178 -663l178 663h244l-225 -801h121v-211h-179l-18 -61h197v-207h-201v-178h-234v178h-196z" />
    <glyph glyph-name="space.tf" horiz-adv-x="864" 
 />
    <glyph glyph-name="uni041B.ss03" horiz-adv-x="1019" 
d="M-37 78q26 48 115 203q59 -41 72 -41q28 0 46 66t30 280t12 590v282h673v-1458h-233v1221h-207v-68q0 -147 -1 -239t-5 -215.5t-12.5 -200.5t-23 -167t-37 -143t-53.5 -101.5t-74 -69.5t-97 -21q-94 0 -205 82z" />
    <glyph glyph-name="uni0409.ss03" horiz-adv-x="1423" 
d="M1055 924q82 0 147 -39t104 -104.5t59.5 -145t20.5 -166.5q0 -121 -35.5 -225.5t-111 -174t-178.5 -69.5h-391v1221h-201v-236q0 -132 -2.5 -233.5t-10.5 -208.5t-21.5 -185t-36.5 -149.5t-54 -116t-75.5 -70.5t-100.5 -26q-94 0 -205 82q26 48 115 203q59 -41 72 -41
q28 0 46 66t30 280t12 590v282h667v-534h150zM1049 233q35 0 60 34.5t35.5 84.5t10.5 109q0 52 -10 102t-34.5 88.5t-59.5 38.5h-148v-457h146z" />
    <glyph glyph-name="dieresiscyr" horiz-adv-x="727" 
d="M539 1548q-66 0 -109 45t-43 113q0 65 43.5 111.5t108.5 46.5q64 0 110.5 -46.5t46.5 -111.5q0 -67 -46 -112.5t-111 -45.5zM184 1864q64 0 110 -46.5t46 -111.5q0 -67 -45.5 -112.5t-110.5 -45.5q-66 0 -109.5 45t-43.5 113q0 65 44 111.5t109 46.5z" />
    <glyph glyph-name="uni0409.ss02" horiz-adv-x="1329" 
d="M961 930q66 0 121.5 -26t94 -69.5t65.5 -102.5t39.5 -124.5t12.5 -134.5q0 -122 -36 -227.5t-112 -175.5t-179 -70h-273l-223 1065l-221 -1065h-250l338 1458h268l121 -528h234zM954 233q52 0 79.5 69t27.5 163q0 54 -10 104t-34.5 88.5t-60.5 38.5h-178l109 -463h67z
" />
    <glyph glyph-name="uni041A.ss02" horiz-adv-x="970" 
d="M109 0v1458h237v-852l330 852h264l-332 -811l324 -647h-266l-201 410l-119 -244v-166h-237z" />
    <glyph glyph-name="uni040C.ss02" horiz-adv-x="970" 
d="M109 0v1458h237v-852l330 852h264l-332 -811l324 -647h-266l-201 410l-119 -244v-166h-237zM344 1595l242 357l184 -133l-264 -340z" />
    <glyph glyph-name="uni0416.ss02" horiz-adv-x="1435" 
d="M600 625v833h236v-833l305 833h264l-318 -811l310 -647h-264q-188 396 -191 403q-75 -155 -106 -213v-190h-236v190q-56 105 -108 213l-191 -403h-264q41 87 146.5 307t162.5 340l-317 811h264z" />
    </font>
</defs>
</svg>
