<?xml version="1.0" standalone="no"?>
<!DOCTYPE svg PUBLIC "-//W3C//DTD SVG 1.1//EN" "http://www.w3.org/Graphics/SVG/1.1/DTD/svg11.dtd" >
<svg xmlns="http://www.w3.org/2000/svg" xmlns:xlink="http://www.w3.org/1999/xlink" version="1.1">
<metadata>
Created by FontForge 20170731 at Thu Nov 26 09:51:22 2020
 By Aleksey,,,
Copyright (c) 2018 by Alexander Pravdin. All rights reserved.
</metadata>
<defs>
<font id="SONGERSemiExpanded" horiz-adv-x="1703" >
  <font-face 
    font-family="SONGER SemiExpanded"
    font-weight="400"
    font-stretch="semi-expanded"
    units-per-em="2048"
    panose-1="2 0 5 3 2 0 0 2 0 4"
    ascent="1638"
    descent="-410"
    x-height="1458"
    cap-height="1458"
    bbox="-209 -606 2828 2046"
    underline-thickness="198"
    underline-position="-439"
    unicode-range="U+0020-F6C3"
  />
<missing-glyph horiz-adv-x="1468" 
d="M135 0v1458h1198v-1458h-1198zM268 131h936v1198h-936v-1198z" />
    <glyph glyph-name=".notdef" horiz-adv-x="1468" 
d="M135 0v1458h1198v-1458h-1198zM268 131h936v1198h-936v-1198z" />
    <glyph glyph-name=".null" horiz-adv-x="0" 
 />
    <glyph glyph-name="nonmarkingreturn" horiz-adv-x="682" 
 />
    <glyph glyph-name="space" unicode=" " horiz-adv-x="972" 
 />
    <glyph glyph-name="exclam" unicode="!" horiz-adv-x="479" 
d="M90 100q0 62 43 106t107 44q61 0 105 -44t44 -106q0 -64 -43.5 -106.5t-105.5 -42.5q-65 0 -107.5 42.5t-42.5 106.5zM139 391v1067h201v-1067h-201z" />
    <glyph glyph-name="quotedbl" unicode="&#x22;" horiz-adv-x="733" 
d="M119 1008v499h200v-499h-200zM416 1008v499h198v-499h-198z" />
    <glyph glyph-name="numbersign" unicode="#" horiz-adv-x="1646" 
d="M256 0l53 293h-254v192h289l86 484h-252v192h285l49 297h197l-52 -297h486l49 297h197l-54 -297h256v-192h-288l-84 -484h251v-192h-288l-49 -293h-197l51 293h-481l-51 -293h-199zM541 485h481l86 484h-485z" />
    <glyph glyph-name="dollar" unicode="$" horiz-adv-x="1402" 
d="M63 184l119 176q301 -206 555 -206q172 0 276.5 65.5t104.5 147.5q0 54 -35.5 96t-96 71t-138.5 54t-164.5 48t-173 48.5t-164.5 61t-138.5 80t-96 110t-35.5 147.5q0 121 69 215t181.5 145.5t251.5 59.5v217h198v-223q237 -38 490 -197l-111 -170q-138 87 -277 133
t-257 46q-160 0 -253.5 -65.5t-93.5 -153.5q0 -43 29.5 -78.5t79.5 -60t117 -48t142 -41.5t154.5 -42.5t154.5 -49.5t142 -63t117 -83t79.5 -110t29.5 -143q0 -168 -149 -288t-394 -130v-213h-198v225q-249 44 -515 219z" />
    <glyph glyph-name="percent" unicode="%" horiz-adv-x="1953" 
d="M61 1102q0 170 118.5 287.5t291.5 117.5q172 0 291 -117.5t119 -287.5q0 -169 -119.5 -289.5t-290.5 -120.5q-172 0 -291 120t-119 290zM1071 360q0 171 118.5 288.5t291.5 117.5q171 0 290 -118t119 -288q0 -169 -119.5 -289t-289.5 -120q-172 0 -291 119.5t-119 289.5z
M446 0l842 1458h217l-837 -1458h-222zM471 877q94 0 159.5 65.5t65.5 159.5t-64.5 157.5t-160.5 63.5q-95 0 -159 -63.5t-64 -157.5t64.5 -159.5t158.5 -65.5zM1481 135q94 0 158.5 65.5t64.5 159.5t-64 158t-159 64q-96 0 -161 -64t-65 -158t66 -159.5t160 -65.5z" />
    <glyph glyph-name="ampersand" unicode="&#x26;" horiz-adv-x="1640" 
d="M1042 844h543v-199h-289q97 -97 97 -231q0 -201 -181 -332t-460 -131q-187 0 -334.5 59.5t-229.5 165t-82 238.5q0 111 58 199.5t164 146.5q-191 101 -191 313q0 82 36 159.5t101 139t167.5 98.5t224.5 37q237 0 495 -129l-86 -178q-228 111 -409 111
q-153 0 -240.5 -72.5t-87.5 -165.5q0 -59 43 -102t108 -66.5t164 -38t187.5 -18.5t201.5 -4zM305 414q0 -82 67.5 -144t166.5 -91t209 -29q76 0 151.5 15.5t142.5 46t108.5 83.5t41.5 119q0 65 -43.5 114t-113 75.5t-142.5 39t-145 12.5q-71 0 -143.5 -12.5t-142 -39
t-113.5 -75.5t-44 -114z" />
    <glyph glyph-name="quotesingle" unicode="'" horiz-adv-x="440" 
d="M119 1008v499h203v-499h-203z" />
    <glyph glyph-name="parenleft" unicode="(" horiz-adv-x="583" 
d="M578 -254l-164 -108q-149 219 -229.5 500.5t-80.5 588.5t80 587.5t230 502.5l164 -113q-132 -197 -203.5 -449t-71.5 -528t71.5 -528.5t203.5 -452.5z" />
    <glyph glyph-name="parenright" unicode=")" horiz-adv-x="583" 
d="M170 -362l-164 108q132 200 203.5 452.5t71.5 528.5t-71.5 528t-203.5 449l164 113q150 -222 229.5 -502.5t79.5 -587.5q0 -308 -80 -589.5t-229 -499.5z" />
    <glyph glyph-name="asterisk" unicode="*" horiz-adv-x="854" 
d="M143 870l172 224l-272 86l47 139l268 -92l-4 280h146l-4 -280l272 88l43 -139l-268 -82l168 -228l-119 -86l-164 232l-164 -228z" />
    <glyph glyph-name="plus" unicode="+" horiz-adv-x="1169" 
d="M106 621v198h379v379h199v-379h379v-198h-379v-379h-199v379h-379z" />
    <glyph glyph-name="comma" unicode="," horiz-adv-x="483" 
d="M141 -303l-92 131q127 82 172 143q-52 -3 -90.5 33t-38.5 92q0 65 42.5 109.5t107.5 44.5q74 0 113.5 -59t39.5 -148q0 -103 -69 -187t-185 -159z" />
    <glyph glyph-name="hyphen" unicode="-" horiz-adv-x="798" 
d="M106 621v198h586v-198h-586z" />
    <glyph glyph-name="period" unicode="." horiz-adv-x="483" 
d="M92 100q0 62 43.5 106t106.5 44q61 0 105 -44t44 -106q0 -64 -43.5 -106.5t-105.5 -42.5q-63 0 -106.5 42.5t-43.5 106.5z" />
    <glyph glyph-name="slash" unicode="/" horiz-adv-x="911" 
d="M39 -49l618 1556h215l-620 -1556h-213z" />
    <glyph glyph-name="zero" unicode="0" horiz-adv-x="1542" 
d="M1233 731q0 157 -55.5 288t-161.5 210.5t-242 79.5q-139 0 -246.5 -78.5t-164 -209.5t-56.5 -290t56.5 -290.5t164 -211t246.5 -79.5q136 0 242.5 80.5t161.5 212t55 288.5zM109 731q0 212 82 388.5t235.5 282t347.5 105.5q191 0 343 -105.5t234.5 -282.5t82.5 -388
q0 -213 -82.5 -391t-234.5 -283.5t-343 -105.5q-195 0 -348 106t-235 283t-82 391z" />
    <glyph glyph-name="one" unicode="1" horiz-adv-x="653" 
d="M289 0v1225l-137 -90l-109 168l242 155h204v-1458h-200z" />
    <glyph glyph-name="two" unicode="2" horiz-adv-x="1382" 
d="M1264 983q0 -449 -707 -784h692v-199h-1095v231q73 27 149.5 60.5t167.5 80t172.5 97t159 112t134 124t90.5 135t34 143.5q0 146 -91 236t-243 90q-140 0 -262 -94.5t-162 -256.5l-197 48q37 152 129.5 266.5t220 174.5t271.5 60q244 0 390.5 -146.5t146.5 -377.5z" />
    <glyph glyph-name="three" unicode="3" horiz-adv-x="1306" 
d="M59 270l172 101q68 -112 176 -165.5t230 -53.5q166 0 261 71t95 172q0 109 -99.5 177.5t-291.5 68.5h-176v201h176q178 0 270.5 66t92.5 165q0 106 -97.5 170t-234.5 64q-108 0 -206.5 -43t-162.5 -131l-160 114q90 129 230 194.5t295 65.5q103 0 199 -30t170.5 -84
t119.5 -137t45 -183q0 -97 -51.5 -188t-136.5 -140q104 -50 160.5 -144.5t56.5 -207.5q0 -86 -37.5 -165t-106 -141t-176 -99t-237.5 -37q-112 0 -216 32.5t-200 105.5t-160 181z" />
    <glyph glyph-name="four" unicode="4" horiz-adv-x="1413" 
d="M82 260v225l819 973h232v-999h198v-199h-198v-260h-199v260h-852zM317 459h617v731z" />
    <glyph glyph-name="five" unicode="5" horiz-adv-x="1343" 
d="M90 375l184 69q34 -86 82.5 -147t103 -91.5t104.5 -43t104 -12.5q92 0 165.5 29t117.5 77.5t66.5 107t22.5 121.5q0 131 -90 218.5t-225 87.5q-198 0 -399 -175l-168 86l63 756h920v-201h-733l-39 -380q163 114 358 114q136 0 254 -65t189 -182t71 -259q0 -108 -40 -205
t-112.5 -170t-181.5 -116t-239 -43q-198 0 -349.5 111.5t-228.5 312.5z" />
    <glyph glyph-name="six" unicode="6" horiz-adv-x="1353" 
d="M582 1323l170 211l157 -123l-301 -375q154 17 283 -23t210.5 -119t126 -180.5t44.5 -211.5q0 -149 -79.5 -276t-217.5 -201t-301 -74q-122 0 -232.5 44t-190 118t-126.5 175.5t-47 213.5q0 42 6 76.5t16 70t38.5 84t58.5 95t92.5 127.5t124 158.5t168.5 209.5zM279 502
q0 -146 116 -249t279 -103q166 0 282.5 103t116.5 249q0 148 -116.5 252t-282.5 104q-163 0 -279 -104t-116 -252z" />
    <glyph glyph-name="seven" unicode="7" horiz-adv-x="1284" 
d="M348 35l641 1222h-905v201h1122v-215l-680 -1302z" />
    <glyph glyph-name="eight" unicode="8" horiz-adv-x="1421" 
d="M334 748q-189 110 -189 303q0 121 76.5 226t207.5 167.5t284 62.5q112 0 216 -37t180 -98.5t121.5 -145.5t45.5 -175q0 -193 -191 -303q109 -55 167.5 -140t58.5 -184q0 -128 -81.5 -237t-219 -172.5t-297.5 -63.5q-161 0 -299.5 63.5t-219.5 172.5t-81 237
q0 100 57 186.5t164 137.5zM309 410q0 -101 116.5 -180.5t287.5 -79.5q168 0 283.5 79.5t115.5 180.5q0 70 -59.5 127t-150.5 87.5t-189 30.5q-99 0 -191.5 -30.5t-152.5 -87.5t-60 -127zM344 1059q0 -65 53.5 -117.5t137.5 -80t178 -27.5q142 0 252 64t110 161
q0 67 -52 124.5t-135 89.5t-175 32q-157 0 -263 -74.5t-106 -171.5z" />
    <glyph glyph-name="nine" unicode="9" horiz-adv-x="1351" 
d="M442 47l301 375q-104 -11 -197.5 3.5t-165 50.5t-129 88t-95 115.5t-57 134t-19.5 142.5q0 149 79.5 276t217.5 201t301 74q122 0 232.5 -44t190 -118t126.5 -175.5t47 -213.5q0 -42 -6 -76.5t-16 -70t-38.5 -84t-58.5 -95t-92.5 -127.5t-124 -158.5t-168.5 -209.5
l-170 -211zM279 958q0 -148 116.5 -252t282.5 -104q163 0 279 104t116 252q0 146 -116 249.5t-279 103.5q-166 0 -282.5 -103.5t-116.5 -249.5z" />
    <glyph glyph-name="colon" unicode=":" horiz-adv-x="503" 
d="M102 100q0 62 43 106t107 44q61 0 105 -44t44 -106q0 -64 -43.5 -106.5t-105.5 -42.5q-65 0 -107.5 42.5t-42.5 106.5zM102 924q0 62 43 105.5t107 43.5q62 0 105.5 -43.5t43.5 -105.5q0 -64 -43.5 -107t-105.5 -43q-64 0 -107 43t-43 107z" />
    <glyph glyph-name="semicolon" unicode=";" horiz-adv-x="503" 
d="M102 924q0 62 43 105.5t107 43.5q62 0 105.5 -43.5t43.5 -105.5q0 -64 -43.5 -107t-105.5 -43q-64 0 -107 43t-43 107zM152 -303l-93 131q128 86 170 143q-52 -3 -89.5 33t-37.5 92q0 66 42 110t108 44q73 0 113.5 -59.5t40.5 -147.5q0 -71 -38.5 -138t-90 -113
t-125.5 -95z" />
    <glyph glyph-name="less" unicode="&#x3c;" horiz-adv-x="1132" 
d="M47 635v180l993 442v-217l-712 -313l712 -307v-217z" />
    <glyph glyph-name="equal" unicode="=" horiz-adv-x="1107" 
d="M117 784v195h874v-195h-874zM117 459v196h874v-196h-874z" />
    <glyph glyph-name="greater" unicode="&#x3e;" horiz-adv-x="1134" 
d="M92 203v217l713 307l-713 313v217l995 -442v-180z" />
    <glyph glyph-name="question" unicode="?" horiz-adv-x="1300" 
d="M426 375v198h145q95 0 173.5 21.5t132 58.5t90.5 86t54 103t17 112q0 142 -97 246.5t-259 104.5q-139 0 -267.5 -95.5t-199.5 -285.5l-188 69q49 130 122.5 229.5t159.5 159.5t178.5 90.5t188.5 30.5q131 0 240 -47t178 -125.5t107 -177t38 -205.5q0 -87 -24.5 -169
t-78 -156t-130.5 -128.5t-189 -87t-246 -32.5h-145zM479 100q0 62 43 106t107 44q61 0 105 -44t44 -106q0 -64 -43.5 -106.5t-105.5 -42.5q-65 0 -107.5 42.5t-42.5 106.5z" />
    <glyph glyph-name="at" unicode="@" horiz-adv-x="2252" 
d="M1487 -82l74 -186q-92 -36 -210.5 -62t-224.5 -26q-144 0 -280.5 37.5t-252.5 105.5t-213 165t-165 213t-105.5 252.5t-37.5 280.5q0 215 83 410.5t224 336.5t336.5 224.5t410.5 83.5t410.5 -83.5t336.5 -224.5t224.5 -336.5t83.5 -410.5q0 -141 -25.5 -257t-67.5 -194
t-98.5 -131.5t-117 -77.5t-123.5 -24q-122 0 -204 74.5t-99 210.5q-148 -168 -363 -168q-154 0 -284.5 76t-206.5 206.5t-76 284.5t76 285t206.5 207t284.5 76q207 0 361 -164v112h198v-839q0 -73 28 -118.5t79 -45.5q50 0 91.5 33t67.5 84t44 117.5t25.5 129.5t7.5 123
q0 174 -68 333t-183.5 274t-274.5 183t-333 68q-175 0 -334 -68t-273.5 -183t-182.5 -274t-68 -333t68 -333t182.5 -274t273.5 -183t334 -68q81 0 181.5 23t179.5 55zM1083 332q152 0 259.5 107t107.5 259t-107.5 259.5t-259.5 107.5t-259 -107.5t-107 -259.5t107 -259
t259 -107z" />
    <glyph glyph-name="A" unicode="A" horiz-adv-x="1503" 
d="M25 0l626 1458h201l627 -1458h-217l-93 217h-833l-94 -217h-217zM420 418h663l-331 768z" />
    <glyph glyph-name="B" unicode="B" horiz-adv-x="1368" 
d="M139 0v1458h684q170 0 292 -122t122 -292q0 -183 -139 -296q82 -55 130 -143t48 -191q0 -171 -121.5 -292.5t-292.5 -121.5h-723zM338 199h524q88 0 150.5 63t62.5 152q0 91 -62.5 155t-150.5 64h-524v-434zM338 831h485q88 0 150.5 62t62.5 151q0 91 -62.5 154.5
t-150.5 63.5h-485v-431z" />
    <glyph glyph-name="C" unicode="C" horiz-adv-x="1595" 
d="M1366 471l178 -90q-97 -195 -282 -312.5t-412 -117.5q-158 0 -301.5 61.5t-247.5 166t-165.5 249t-61.5 303.5q0 157 61.5 300.5t165.5 247.5t247.5 166t301.5 62q227 0 413.5 -117.5t280.5 -310.5l-178 -88q-70 144 -208.5 231t-307.5 87q-156 0 -289 -78t-211 -211
t-78 -289q0 -158 78 -292t211 -211.5t289 -77.5q168 0 305 87.5t211 233.5z" />
    <glyph glyph-name="D" unicode="D" horiz-adv-x="1513" 
d="M139 0v1458h574q148 0 283 -58t232 -156t154.5 -233t57.5 -284q0 -196 -97 -363.5t-264.5 -265.5t-365.5 -98h-574zM338 199h375q146 0 268.5 71.5t193 192.5t70.5 264q0 144 -70.5 266t-193 193t-268.5 71h-375v-1058z" />
    <glyph glyph-name="E" unicode="E" horiz-adv-x="1351" 
d="M139 0v1458h1108v-201h-909v-426h666v-198h-666v-434h909v-199h-1108z" />
    <glyph glyph-name="F" unicode="F" horiz-adv-x="1320" 
d="M139 0v1458h1100v-201h-901v-430h651v-200h-651v-627h-199z" />
    <glyph glyph-name="G" unicode="G" horiz-adv-x="1701" 
d="M1225 631v198h401q4 -31 4 -98q0 -159 -62 -303.5t-166.5 -249t-249 -166t-302.5 -61.5t-301.5 61.5t-247.5 166t-165.5 249t-61.5 303.5q0 157 61.5 300.5t165.5 247.5t247.5 166t301.5 62q155 0 294 -57t247 -160l-138 -143q-80 76 -184 119t-219 43q-156 0 -289 -78
t-211 -211t-78 -289q0 -158 78 -292t211 -211.5t289 -77.5q214 0 375.5 138t197.5 343h-198z" />
    <glyph glyph-name="H" unicode="H" horiz-adv-x="1531" 
d="M139 0v1458h199v-627h856v627h199v-1458h-199v633h-856v-633h-199z" />
    <glyph glyph-name="I" unicode="I" horiz-adv-x="477" 
d="M139 0v1458h199v-1458h-199z" />
    <glyph glyph-name="J" unicode="J" horiz-adv-x="1116" 
d="M29 68l114 159q99 -77 232 -77q171 0 290 113.5t119 277.5v917h199v-919q0 -163 -81 -298.5t-220.5 -212.5t-306.5 -77q-194 0 -346 117z" />
    <glyph glyph-name="K" unicode="K" horiz-adv-x="1533" 
d="M139 0v1458h199v-1001l881 1001h264l-639 -727l639 -731h-269l-505 578l-371 -424v-154h-199z" />
    <glyph glyph-name="L" unicode="L" horiz-adv-x="1325" 
d="M139 0v1458h199v-1259h905v-199h-1104z" />
    <glyph glyph-name="M" unicode="M" horiz-adv-x="1949" 
d="M139 0v1458h260l574 -1227l573 1227h264v-1458h-200v1126l-531 -1126h-213l-528 1118v-1118h-199z" />
    <glyph glyph-name="N" unicode="N" horiz-adv-x="1564" 
d="M139 0v1458h256l832 -1194v1194h198v-1458h-256l-831 1194v-1194h-199z" />
    <glyph glyph-name="O" unicode="O" 
d="M74 731q0 157 61.5 300.5t165.5 247.5t247.5 166t301.5 62q159 0 303.5 -62t249 -166t166 -247.5t61.5 -300.5q0 -159 -61.5 -303.5t-166 -249t-249 -166t-303.5 -61.5q-158 0 -301.5 61.5t-247.5 166t-165.5 249t-61.5 303.5zM1432 731q0 156 -77.5 289t-212 211
t-292.5 78q-156 0 -289 -78t-211 -211t-78 -289q0 -158 78 -292t211 -211.5t289 -77.5q158 0 292 77.5t212 211.5t78 292z" />
    <glyph glyph-name="P" unicode="P" horiz-adv-x="1384" 
d="M139 0v1458h625q151 0 280 -71.5t204 -194.5t75 -268q0 -108 -44.5 -206.5t-119.5 -170t-178.5 -114t-216.5 -42.5h-426v-391h-199zM338 582h426q148 0 254 100t106 242q0 141 -106 241.5t-254 100.5h-426v-684z" />
    <glyph glyph-name="Q" unicode="Q" 
d="M1470 -47l-167 -107l-119 179q-161 -74 -334 -74q-158 0 -301.5 61.5t-247.5 166t-165.5 249t-61.5 303.5q0 157 61.5 300.5t165.5 247.5t247.5 166t301.5 62t302.5 -62t249 -166t166.5 -247.5t62 -300.5q0 -176 -74.5 -333t-203.5 -267zM850 150q158 0 292 77.5
t212 211.5t78 292q0 156 -77.5 289t-212 211t-292.5 78q-156 0 -289 -78t-211 -211t-78 -289q0 -158 78 -292t211 -211.5t289 -77.5z" />
    <glyph glyph-name="R" unicode="R" horiz-adv-x="1429" 
d="M338 582h434q148 0 254.5 100t106.5 242q-2 141 -107.5 241.5t-253.5 100.5h-434v-684zM139 0v1458h633q151 0 280 -71.5t204 -194.5t75 -268q0 -153 -85.5 -281.5t-223.5 -196.5l309 -446h-246l-270 393q-10 -2 -35 -2h-442v-391h-199z" />
    <glyph glyph-name="S" unicode="S" horiz-adv-x="1402" 
d="M66 184l116 176q301 -206 557 -206q171 0 276 66t105 147q0 54 -35.5 96t-96 71t-139 54t-165 48t-173 48.5t-165 61t-139 80t-96 110t-35.5 147.5q0 129 79 227t206 147.5t278 49.5q304 0 627 -207l-111 -170q-137 87 -275.5 133t-258.5 46q-159 0 -253 -65.5
t-94 -153.5q0 -43 29.5 -78.5t79.5 -60t117 -48t142 -41.5t154.5 -42.5t154.5 -49.5t142 -63t117 -83t79.5 -110t29.5 -143q0 -175 -161.5 -297.5t-426.5 -122.5q-313 0 -665 233z" />
    <glyph glyph-name="T" unicode="T" horiz-adv-x="1394" 
d="M596 0v1257h-535v201h1272v-201h-538v-1257h-199z" />
    <glyph glyph-name="U" unicode="U" horiz-adv-x="1515" 
d="M330 1458v-858q0 -186 125 -318t303 -132t303 132t125 318v858h198v-858q0 -133 -50 -253t-134 -207t-199.5 -138t-242.5 -51q-169 0 -313.5 86.5t-229 236t-84.5 326.5v858h199z" />
    <glyph glyph-name="V" unicode="V" horiz-adv-x="1484" 
d="M631 0l-606 1458h221l499 -1216l498 1216h217l-602 -1458h-227z" />
    <glyph glyph-name="W" unicode="W" horiz-adv-x="2009" 
d="M532 0l-507 1458h208l394 -1126l274 1126h207l270 -1126l391 1126h216l-510 -1458h-218l-253 1044l-252 -1044h-220z" />
    <glyph glyph-name="X" unicode="X" horiz-adv-x="1488" 
d="M53 0l565 731l-561 727h252l434 -563l437 563h252l-564 -727l568 -731h-250l-443 569l-440 -569h-250z" />
    <glyph glyph-name="Y" unicode="Y" horiz-adv-x="1402" 
d="M602 0v360l-577 1098h227l448 -862l453 862h225l-577 -1098v-360h-199z" />
    <glyph glyph-name="Z" unicode="Z" horiz-adv-x="1447" 
d="M1321 0h-1194v246l963 1011h-963v201h1194v-246l-963 -1013h963v-199z" />
    <glyph glyph-name="bracketleft" unicode="[" horiz-adv-x="614" 
d="M129 -236v1928h424v-199h-225v-1528h225v-201h-424z" />
    <glyph glyph-name="backslash" unicode="\" horiz-adv-x="911" 
d="M657 -49l-618 1556h213l620 -1556h-215z" />
    <glyph glyph-name="bracketright" unicode="]" horiz-adv-x="614" 
d="M61 -236v201h224v1528h-224v199h424v-1928h-424z" />
    <glyph glyph-name="asciicircum" unicode="^" horiz-adv-x="1169" 
d="M72 727l424 731h168l434 -731h-224l-292 510l-285 -510h-225z" />
    <glyph glyph-name="underscore" unicode="_" horiz-adv-x="1374" 
d="M35 -342v199h1304v-199h-1304z" />
    <glyph glyph-name="grave" unicode="`" horiz-adv-x="626" 
d="M72 1835l133 154l350 -322l-115 -133z" />
    <glyph glyph-name="a" unicode="a" horiz-adv-x="1503" 
d="M25 0l626 1458h201l627 -1458h-217l-93 217h-833l-94 -217h-217zM420 418h663l-331 768z" />
    <glyph glyph-name="b" unicode="b" horiz-adv-x="1368" 
d="M139 0v1458h684q170 0 292 -122t122 -292q0 -183 -139 -296q82 -55 130 -143t48 -191q0 -171 -121.5 -292.5t-292.5 -121.5h-723zM338 199h524q88 0 150.5 63t62.5 152q0 91 -62.5 155t-150.5 64h-524v-434zM338 831h485q88 0 150.5 62t62.5 151q0 91 -62.5 154.5
t-150.5 63.5h-485v-431z" />
    <glyph glyph-name="c" unicode="c" horiz-adv-x="1595" 
d="M1366 471l178 -90q-97 -195 -282 -312.5t-412 -117.5q-158 0 -301.5 61.5t-247.5 166t-165.5 249t-61.5 303.5q0 157 61.5 300.5t165.5 247.5t247.5 166t301.5 62q227 0 413.5 -117.5t280.5 -310.5l-178 -88q-70 144 -208.5 231t-307.5 87q-156 0 -289 -78t-211 -211
t-78 -289q0 -158 78 -292t211 -211.5t289 -77.5q168 0 305 87.5t211 233.5z" />
    <glyph glyph-name="d" unicode="d" horiz-adv-x="1513" 
d="M139 0v1458h574q148 0 283 -58t232 -156t154.5 -233t57.5 -284q0 -196 -97 -363.5t-264.5 -265.5t-365.5 -98h-574zM338 199h375q146 0 268.5 71.5t193 192.5t70.5 264q0 144 -70.5 266t-193 193t-268.5 71h-375v-1058z" />
    <glyph glyph-name="e" unicode="e" horiz-adv-x="1351" 
d="M139 0v1458h1108v-201h-909v-426h666v-198h-666v-434h909v-199h-1108z" />
    <glyph glyph-name="f" unicode="f" horiz-adv-x="1320" 
d="M139 0v1458h1100v-201h-901v-430h651v-200h-651v-627h-199z" />
    <glyph glyph-name="g" unicode="g" horiz-adv-x="1701" 
d="M1225 631v198h401q4 -31 4 -98q0 -159 -62 -303.5t-166.5 -249t-249 -166t-302.5 -61.5t-301.5 61.5t-247.5 166t-165.5 249t-61.5 303.5q0 157 61.5 300.5t165.5 247.5t247.5 166t301.5 62q155 0 294 -57t247 -160l-138 -143q-80 76 -184 119t-219 43q-156 0 -289 -78
t-211 -211t-78 -289q0 -158 78 -292t211 -211.5t289 -77.5q214 0 375.5 138t197.5 343h-198z" />
    <glyph glyph-name="h" unicode="h" horiz-adv-x="1531" 
d="M139 0v1458h199v-627h856v627h199v-1458h-199v633h-856v-633h-199z" />
    <glyph glyph-name="i" unicode="i" horiz-adv-x="477" 
d="M139 0v1458h199v-1458h-199z" />
    <glyph glyph-name="j" unicode="j" horiz-adv-x="1116" 
d="M29 68l114 159q99 -77 232 -77q171 0 290 113.5t119 277.5v917h199v-919q0 -163 -81 -298.5t-220.5 -212.5t-306.5 -77q-194 0 -346 117z" />
    <glyph glyph-name="k" unicode="k" horiz-adv-x="1533" 
d="M139 0v1458h199v-1001l881 1001h264l-639 -727l639 -731h-269l-505 578l-371 -424v-154h-199z" />
    <glyph glyph-name="l" unicode="l" horiz-adv-x="1325" 
d="M139 0v1458h199v-1259h905v-199h-1104z" />
    <glyph glyph-name="m" unicode="m" horiz-adv-x="1949" 
d="M139 0v1458h260l574 -1227l573 1227h264v-1458h-200v1126l-531 -1126h-213l-528 1118v-1118h-199z" />
    <glyph glyph-name="n" unicode="n" horiz-adv-x="1564" 
d="M139 0v1458h256l832 -1194v1194h198v-1458h-256l-831 1194v-1194h-199z" />
    <glyph glyph-name="o" unicode="o" 
d="M74 731q0 157 61.5 300.5t165.5 247.5t247.5 166t301.5 62q159 0 303.5 -62t249 -166t166 -247.5t61.5 -300.5q0 -159 -61.5 -303.5t-166 -249t-249 -166t-303.5 -61.5q-158 0 -301.5 61.5t-247.5 166t-165.5 249t-61.5 303.5zM1432 731q0 156 -77.5 289t-212 211
t-292.5 78q-156 0 -289 -78t-211 -211t-78 -289q0 -158 78 -292t211 -211.5t289 -77.5q158 0 292 77.5t212 211.5t78 292z" />
    <glyph glyph-name="p" unicode="p" horiz-adv-x="1384" 
d="M139 0v1458h625q151 0 280 -71.5t204 -194.5t75 -268q0 -108 -44.5 -206.5t-119.5 -170t-178.5 -114t-216.5 -42.5h-426v-391h-199zM338 582h426q148 0 254 100t106 242q0 141 -106 241.5t-254 100.5h-426v-684z" />
    <glyph glyph-name="q" unicode="q" 
d="M1470 -47l-167 -107l-119 179q-161 -74 -334 -74q-158 0 -301.5 61.5t-247.5 166t-165.5 249t-61.5 303.5q0 157 61.5 300.5t165.5 247.5t247.5 166t301.5 62t302.5 -62t249 -166t166.5 -247.5t62 -300.5q0 -176 -74.5 -333t-203.5 -267zM850 150q158 0 292 77.5
t212 211.5t78 292q0 156 -77.5 289t-212 211t-292.5 78q-156 0 -289 -78t-211 -211t-78 -289q0 -158 78 -292t211 -211.5t289 -77.5z" />
    <glyph glyph-name="r" unicode="r" horiz-adv-x="1429" 
d="M338 582h434q148 0 254.5 100t106.5 242q-2 141 -107.5 241.5t-253.5 100.5h-434v-684zM139 0v1458h633q151 0 280 -71.5t204 -194.5t75 -268q0 -153 -85.5 -281.5t-223.5 -196.5l309 -446h-246l-270 393q-10 -2 -35 -2h-442v-391h-199z" />
    <glyph glyph-name="s" unicode="s" horiz-adv-x="1402" 
d="M66 184l116 176q301 -206 557 -206q171 0 276 66t105 147q0 54 -35.5 96t-96 71t-139 54t-165 48t-173 48.5t-165 61t-139 80t-96 110t-35.5 147.5q0 129 79 227t206 147.5t278 49.5q304 0 627 -207l-111 -170q-137 87 -275.5 133t-258.5 46q-159 0 -253 -65.5
t-94 -153.5q0 -43 29.5 -78.5t79.5 -60t117 -48t142 -41.5t154.5 -42.5t154.5 -49.5t142 -63t117 -83t79.5 -110t29.5 -143q0 -175 -161.5 -297.5t-426.5 -122.5q-313 0 -665 233z" />
    <glyph glyph-name="t" unicode="t" horiz-adv-x="1394" 
d="M596 0v1257h-535v201h1272v-201h-538v-1257h-199z" />
    <glyph glyph-name="u" unicode="u" horiz-adv-x="1515" 
d="M330 1458v-858q0 -186 125 -318t303 -132t303 132t125 318v858h198v-858q0 -133 -50 -253t-134 -207t-199.5 -138t-242.5 -51q-169 0 -313.5 86.5t-229 236t-84.5 326.5v858h199z" />
    <glyph glyph-name="v" unicode="v" horiz-adv-x="1484" 
d="M631 0l-606 1458h221l499 -1216l498 1216h217l-602 -1458h-227z" />
    <glyph glyph-name="w" unicode="w" horiz-adv-x="2009" 
d="M532 0l-507 1458h208l394 -1126l274 1126h207l270 -1126l391 1126h216l-510 -1458h-218l-253 1044l-252 -1044h-220z" />
    <glyph glyph-name="x" unicode="x" horiz-adv-x="1488" 
d="M53 0l565 731l-561 727h252l434 -563l437 563h252l-564 -727l568 -731h-250l-443 569l-440 -569h-250z" />
    <glyph glyph-name="y" unicode="y" horiz-adv-x="1402" 
d="M602 0v360l-577 1098h227l448 -862l453 862h225l-577 -1098v-360h-199z" />
    <glyph glyph-name="z" unicode="z" horiz-adv-x="1447" 
d="M1321 0h-1194v246l963 1011h-963v201h1194v-246l-963 -1013h963v-199z" />
    <glyph glyph-name="braceleft" unicode="{" horiz-adv-x="706" 
d="M645 -35v-201q-116 0 -195 17.5t-135.5 59t-82 113t-25.5 177.5v172q0 56 -4 100t-15 88.5t-29.5 73.5t-49 47.5t-72.5 18.5v196q42 0 72.5 18t49 47.5t29.5 73.5t15 89t4 102v172q0 97 20.5 162.5t70 112t134 67.5t211.5 21v-199q-59 0 -98 -2.5t-65.5 -12t-40.5 -18.5
t-21 -32t-8.5 -41.5t-1.5 -57.5v-172q0 -54 -1 -85.5t-8.5 -85t-22 -91t-43.5 -82.5t-71 -82q42 -37 71 -82.5t43.5 -83.5t22 -91.5t8.5 -85t1 -85.5v-172q0 -38 1.5 -58.5t9.5 -42.5t22.5 -31.5t41.5 -19t65.5 -12t96.5 -2.5z" />
    <glyph glyph-name="bar" unicode="|" horiz-adv-x="477" 
d="M139 -276v1892h199v-1892h-199z" />
    <glyph glyph-name="braceright" unicode="}" horiz-adv-x="706" 
d="M61 -236v201q43 0 75 1.5t57.5 6.5t42.5 10t29 16t18.5 21.5t10 29.5t4.5 36t1 45v172q0 69 2.5 109t15 103.5t44.5 116.5t83 99q-42 37 -71 82t-43 82.5t-21.5 91.5t-8.5 84.5t-1 85.5v172q0 29 -0.5 44.5t-4 35.5t-9.5 29t-17.5 21t-28 16.5t-42 9.5t-58 6.5t-76.5 1.5
v199q127 0 211.5 -21t134.5 -67.5t70.5 -112t20.5 -162.5v-172q0 -56 4 -101.5t15.5 -89.5t30 -73.5t49 -47.5t71.5 -18v-196q-51 0 -86 -26.5t-52.5 -75t-24.5 -102.5t-7 -124v-172q0 -106 -26 -177.5t-82 -113t-135.5 -59t-195.5 -17.5z" />
    <glyph glyph-name="asciitilde" unicode="~" horiz-adv-x="1226" 
d="M254 547l-154 123q75 96 168 166.5t183 70.5q51 0 104.5 -28.5t90 -63.5t73.5 -63.5t59 -28.5q25 0 81 44t114 120l153 -121q-74 -98 -166.5 -169t-181.5 -71q-50 0 -104 29t-91.5 63.5t-74.5 63.5t-57 29q-25 0 -80 -41.5t-117 -122.5z" />
    <glyph glyph-name="exclamdown" unicode="&#xa1;" horiz-adv-x="479" 
d="M90 1358q0 64 44 106.5t106 42.5q64 0 106.5 -42.5t42.5 -106.5q0 -62 -42.5 -106t-106.5 -44q-62 0 -106 44t-44 106zM139 0v1065h201v-1065h-201z" />
    <glyph glyph-name="cent" unicode="&#xa2;" horiz-adv-x="1206" 
d="M535 -242v203q-198 34 -330.5 191.5t-132.5 361.5q0 205 132.5 362t330.5 193v207h192v-203q128 -19 234 -92.5t174 -189.5l-168 -93q-51 90 -137 139.5t-191 49.5q-155 0 -265 -109.5t-110 -263.5t110 -262.5t265 -108.5q104 0 188.5 49t135.5 140l167 -96
q-61 -112 -166 -184.5t-237 -94.5v-199h-192z" />
    <glyph glyph-name="sterling" unicode="&#xa3;" horiz-adv-x="1333" 
d="M403 596q-3 -30 -9.5 -89.5t-9 -79t-9.5 -59t-15 -60t-22.5 -50t-34.5 -59.5h920v-199h-1153v199q67 57 90 131.5t39 224.5l32 309q11 102 36.5 193t69 174.5t101 144t138.5 96t176 35.5q233 0 512 -225l-127 -156q-91 77 -192.5 130t-192.5 53q-272 0 -328 -514h561
v-199h-582z" />
    <glyph glyph-name="currency" unicode="&#xa4;" horiz-adv-x="1409" 
d="M238 14l-140 144l142 139q-103 144 -103 326q0 176 101 323l-140 141l140 142l141 -142q150 103 326 103q177 0 323 -100l139 139l144 -142l-142 -141q103 -150 103 -323q0 -177 -103 -324l142 -141l-144 -144l-141 142q-145 -99 -321 -99q-177 0 -324 101zM326 623
q0 -157 110.5 -267t268.5 -110q155 0 265.5 110t110.5 267q0 155 -110.5 266.5t-265.5 111.5q-158 0 -268.5 -111t-110.5 -267z" />
    <glyph glyph-name="yen" unicode="&#xa5;" horiz-adv-x="1454" 
d="M227 172v188h400l-31 64h-369v192h265l-443 842h230l448 -862l453 862h225l-447 -842h269v-192h-369l-31 -64h400v-188h-400v-172h-200v172h-400z" />
    <glyph glyph-name="brokenbar" unicode="&#xa6;" horiz-adv-x="477" 
d="M139 827v789h199v-789h-199zM139 -276v790h199v-790h-199z" />
    <glyph glyph-name="section" unicode="&#xa7;" horiz-adv-x="1460" 
d="M152 -129l110 172q135 -87 274.5 -132.5t260.5 -45.5q158 0 251 65.5t93 151.5q0 44 -29 79.5t-79.5 60t-117 48t-141.5 42t-154.5 42.5t-154.5 49t-141.5 63t-117 83t-79.5 109.5t-29 142.5q0 87 43.5 163.5t126.5 133.5q-145 97 -145 266q0 130 79 228t205.5 147
t278.5 49q302 0 627 -205l-111 -172q-283 178 -534 178q-159 0 -252.5 -65.5t-93.5 -151.5q0 -48 35.5 -86.5t96 -65t138.5 -50t164 -47t172 -49.5t164 -64t138.5 -85t96 -117.5t35.5 -156.5q0 -178 -168 -299q147 -96 147 -264q0 -129 -79 -227t-206 -147.5t-278 -49.5
q-303 0 -626 207zM991 457q80 31 126 85t46 107q0 58 -40.5 102t-118.5 76t-156 55t-191 54t-186 57q-81 -29 -127.5 -82.5t-46.5 -105.5q0 -50 31.5 -90.5t79.5 -67t122.5 -52.5t143.5 -44t160.5 -44t156.5 -50z" />
    <glyph glyph-name="dieresis" unicode="&#xa8;" horiz-adv-x="843" 
d="M72 1733q0 62 42.5 105.5t106.5 43.5q62 0 106 -44t44 -105q0 -64 -44 -107t-106 -43q-64 0 -106.5 42.5t-42.5 107.5zM473 1733q0 62 43 105.5t107 43.5q61 0 105 -44t44 -105q0 -64 -43.5 -107t-105.5 -43q-65 0 -107.5 42.5t-42.5 107.5z" />
    <glyph glyph-name="copyright" unicode="&#xa9;" 
d="M1161 584l146 -74q-62 -124 -180.5 -197t-258.5 -73q-133 0 -246 65t-179 178t-66 248q0 133 66 245.5t179 177.5t246 65q139 0 258 -74.5t181 -196.5l-146 -71q-41 79 -120 128.5t-173 49.5q-133 0 -228 -95t-95 -229q0 -137 95 -234.5t228 -97.5q94 0 171.5 51
t121.5 134zM850 92q175 0 323 85t234 231.5t86 318.5q0 175 -86 321.5t-234 231t-323 84.5q-172 0 -317.5 -84.5t-230.5 -231t-85 -321.5q0 -129 50.5 -246.5t135.5 -202.5t202 -135.5t245 -50.5zM74 727q0 158 62 302.5t166 249t247.5 166.5t300.5 62q159 0 303.5 -62
t249 -166.5t166 -249t61.5 -302.5t-61.5 -301.5t-166 -247.5t-249 -165.5t-303.5 -61.5q-157 0 -300.5 61.5t-247.5 165.5t-166 247.5t-62 301.5z" />
    <glyph glyph-name="guillemotleft" unicode="&#xab;" horiz-adv-x="1011" 
d="M383 231l-334 500l334 498l158 -103l-273 -395l273 -395zM770 250l-317 481l317 481l160 -104l-264 -377l264 -379z" />
    <glyph glyph-name="registered" unicode="&#xae;" horiz-adv-x="1101" 
d="M549 578q-126 0 -232.5 62.5t-168.5 170t-62 233.5q0 192 135.5 327.5t327.5 135.5q195 0 331 -135.5t136 -327.5q0 -193 -136.5 -329.5t-330.5 -136.5zM549 678q152 0 259 107t107 259q0 150 -107 256.5t-259 106.5q-149 0 -256 -107t-107 -256q0 -152 106.5 -259
t256.5 -107zM346 805v477h238q97 0 152 -57.5t55 -134.5q0 -45 -25.5 -88t-73.5 -68l88 -129h-139l-74 104h-110v-104h-111zM457 1016h127q45 0 67.5 22.5t22.5 48.5q0 34 -25 59t-67 25h-125v-155z" />
    <glyph glyph-name="macron" unicode="&#xaf;" horiz-adv-x="808" 
d="M72 1606v192h665v-192h-665z" />
    <glyph glyph-name="degree" unicode="&#xb0;" horiz-adv-x="933" 
d="M467 737q-163 0 -274 111t-111 274t111 274t274 111t274 -111t111 -274t-111 -274t-274 -111zM467 905q89 0 153 64.5t64 152.5q0 89 -64 153t-153 64q-88 0 -152.5 -64t-64.5 -153q0 -88 64.5 -152.5t152.5 -64.5z" />
    <glyph glyph-name="plusminus" unicode="&#xb1;" horiz-adv-x="1167" 
d="M117 117v200h934v-200h-934zM117 727v199h366v354h201v-354h367v-199h-367v-350h-201v350h-366z" />
    <glyph glyph-name="acute" unicode="&#xb4;" horiz-adv-x="626" 
d="M186 1534l-114 133l350 322l133 -154z" />
    <glyph glyph-name="mu" unicode="&#xb5;" horiz-adv-x="1230" 
d="M125 -541v1575h197v-571q0 -121 85.5 -208t206.5 -87q122 0 208.5 87t86.5 208v571h197v-1034h-197v100q-113 -125 -295 -125q-169 0 -292 107v-623h-197z" />
    <glyph glyph-name="paragraph" unicode="&#xb6;" horiz-adv-x="1255" 
d="M633 0v350q-155 0 -286.5 72.5t-208.5 198.5t-77 276q0 153 77 282t208.5 204t286.5 75h483v-1458h-186v1262h-111v-1262h-186z" />
    <glyph glyph-name="periodcentered" unicode="&#xb7;" horiz-adv-x="464" 
d="M82 731q0 62 43 106t106 44q61 0 105.5 -44.5t44.5 -105.5q0 -64 -44 -106.5t-106 -42.5q-63 0 -106 42.5t-43 106.5z" />
    <glyph glyph-name="cedilla" unicode="&#xb8;" horiz-adv-x="745" 
d="M72 -506l63 144q100 -44 189 -44q91 0 141.5 24t50.5 54t-46 49t-108 19q-63 0 -124 -25l-56 138q79 36 185 36q131 0 219 -57.5t88 -155.5q0 -97 -93.5 -168t-256.5 -71q-126 0 -252 57z" />
    <glyph glyph-name="guillemotright" unicode="&#xbb;" horiz-adv-x="1011" 
d="M963 731l-334 -500l-158 105l272 395l-272 395l158 103zM559 731l-317 -481l-160 102l264 379l-264 377l160 104z" />
    <glyph glyph-name="questiondown" unicode="&#xbf;" horiz-adv-x="1300" 
d="M729 881h145v198h-145q-134 0 -246 -32.5t-189 -87t-130.5 -128.5t-78 -156t-24.5 -169q0 -107 38 -205.5t107.5 -177t178.5 -125.5t240 -47q96 0 188.5 30t178.5 90t159.5 159t122.5 229l-189 71q-36 -98 -90.5 -173t-117.5 -119t-128 -66t-131 -22q-110 0 -193 51
t-123 129.5t-40 169.5q0 58 17 112t54 103t90.5 86t132 58.5t173.5 21.5zM522 1358q0 64 44 106.5t106 42.5q63 0 106 -42.5t43 -106.5q0 -62 -43 -106t-106 -44q-62 0 -106 44t-44 106z" />
    <glyph glyph-name="Agrave" unicode="&#xc0;" horiz-adv-x="1503" 
d="M25 0l626 1458h201l627 -1458h-217l-93 217h-833l-94 -217h-217zM420 418h663l-331 768zM401 1835l134 154l350 -322l-115 -133z" />
    <glyph glyph-name="Aacute" unicode="&#xc1;" horiz-adv-x="1503" 
d="M25 0l626 1458h201l627 -1458h-217l-93 217h-833l-94 -217h-217zM420 418h663l-331 768zM711 1534l-115 133l350 322l133 -154z" />
    <glyph glyph-name="Acircumflex" unicode="&#xc2;" horiz-adv-x="1503" 
d="M25 0l626 1458h201l627 -1458h-217l-93 217h-833l-94 -217h-217zM420 418h663l-331 768zM483 1534l-118 154l387 299l389 -299l-117 -154l-272 217z" />
    <glyph glyph-name="Atilde" unicode="&#xc3;" horiz-adv-x="1503" 
d="M25 0l626 1458h201l627 -1458h-217l-93 217h-833l-94 -217h-217zM420 418h663l-331 768zM469 1573l-164 106q67 101 138 158t165 57q52 0 100.5 -21t78 -45.5t62 -45.5t54.5 -21q8 0 16.5 2.5t17.5 9t16.5 12t16.5 17t14.5 17.5t15 19.5t12.5 18t12 18.5t10 15l166 -108
q-69 -101 -137.5 -157t-161.5 -56q-52 0 -100.5 21t-78 45.5t-62 45.5t-56.5 21q-18 0 -37 -12t-40.5 -38.5t-29.5 -38t-28 -40.5z" />
    <glyph glyph-name="Adieresis" unicode="&#xc4;" horiz-adv-x="1503" 
d="M25 0l626 1458h201l627 -1458h-217l-93 217h-833l-94 -217h-217zM420 418h663l-331 768zM403 1733q0 62 43 105.5t107 43.5q61 0 105 -44t44 -105q0 -64 -43.5 -107t-105.5 -43q-65 0 -107.5 42.5t-42.5 107.5zM805 1733q0 62 42.5 105.5t106.5 43.5q62 0 106 -44
t44 -105q0 -64 -44 -107t-106 -43q-64 0 -106.5 42.5t-42.5 107.5z" />
    <glyph glyph-name="Aring" unicode="&#xc5;" horiz-adv-x="1503" 
d="M25 0l626 1458h201l627 -1458h-217l-93 217h-833l-94 -217h-217zM420 418h663l-331 768zM752 1694q40 0 70 30t30 70q0 41 -30 71.5t-70 30.5q-41 0 -72 -30.5t-31 -71.5q0 -40 31 -70t72 -30zM500 1794q0 104 74 178t178 74t176.5 -73.5t72.5 -178.5q0 -104 -72.5 -177
t-176.5 -73t-178 73t-74 177z" />
    <glyph glyph-name="AE" unicode="&#xc6;" horiz-adv-x="2203" 
d="M12 0l877 1458h1212v-201h-899v-426h656v-198h-656v-434h899v-199h-1093v217h-635l-129 -217h-232zM494 418h514v850z" />
    <glyph glyph-name="Ccedilla" unicode="&#xc7;" horiz-adv-x="1595" 
d="M1366 471l178 -90q-97 -195 -282 -312.5t-412 -117.5q-158 0 -301.5 61.5t-247.5 166t-165.5 249t-61.5 303.5q0 157 61.5 300.5t165.5 247.5t247.5 166t301.5 62q227 0 413.5 -117.5t280.5 -310.5l-178 -88q-70 144 -208.5 231t-307.5 87q-156 0 -289 -78t-211 -211
t-78 -289q0 -158 78 -292t211 -211.5t289 -77.5q168 0 305 87.5t211 233.5zM559 -506l64 144q100 -44 188 -44q91 0 142 24t51 54t-46 49t-108 19q-64 0 -125 -25l-55 138q79 36 184 36q131 0 219 -57.5t88 -155.5q0 -97 -93.5 -168t-256.5 -71q-126 0 -252 57z" />
    <glyph glyph-name="Egrave" unicode="&#xc8;" horiz-adv-x="1351" 
d="M139 0v1458h1108v-201h-909v-426h666v-198h-666v-434h909v-199h-1108zM332 1835l133 154l350 -322l-115 -133z" />
    <glyph glyph-name="Eacute" unicode="&#xc9;" horiz-adv-x="1351" 
d="M139 0v1458h1108v-201h-909v-426h666v-198h-666v-434h909v-199h-1108zM641 1534l-115 133l351 322l133 -154z" />
    <glyph glyph-name="Ecircumflex" unicode="&#xca;" horiz-adv-x="1351" 
d="M139 0v1458h1108v-201h-909v-426h666v-198h-666v-434h909v-199h-1108zM414 1534l-119 154l387 299l389 -299l-117 -154l-272 217z" />
    <glyph glyph-name="Edieresis" unicode="&#xcb;" horiz-adv-x="1351" 
d="M139 0v1458h1108v-201h-909v-426h666v-198h-666v-434h909v-199h-1108zM334 1733q0 62 42.5 105.5t106.5 43.5q62 0 106 -44t44 -105q0 -64 -44 -107t-106 -43q-64 0 -106.5 42.5t-42.5 107.5zM735 1733q0 62 43 105.5t107 43.5q61 0 105 -44t44 -105q0 -64 -43.5 -107
t-105.5 -43q-65 0 -107.5 42.5t-42.5 107.5z" />
    <glyph glyph-name="Igrave" unicode="&#xcc;" horiz-adv-x="477" 
d="M139 0v1458h199v-1458h-199zM-113 1835l133 154l351 -322l-115 -133z" />
    <glyph glyph-name="Iacute" unicode="&#xcd;" horiz-adv-x="477" 
d="M139 0v1458h199v-1458h-199zM197 1534l-115 133l350 322l133 -154z" />
    <glyph glyph-name="Icircumflex" unicode="&#xce;" horiz-adv-x="477" 
d="M139 0v1458h199v-1458h-199zM-31 1534l-119 154l388 299l389 -299l-117 -154l-272 217z" />
    <glyph glyph-name="Idieresis" unicode="&#xcf;" horiz-adv-x="477" 
d="M139 0v1458h199v-1458h-199zM-111 1733q0 62 43 105.5t107 43.5q61 0 105 -44t44 -105q0 -64 -43.5 -107t-105.5 -43q-65 0 -107.5 42.5t-42.5 107.5zM291 1733q0 62 42.5 105.5t106.5 43.5q62 0 106 -44t44 -105q0 -64 -44 -107t-106 -43q-64 0 -106.5 42.5t-42.5 107.5
z" />
    <glyph glyph-name="Eth" unicode="&#xd0;" horiz-adv-x="1521" 
d="M35 635v196h112v627h574q148 0 283 -58t232 -156t154.5 -233t57.5 -284q0 -196 -97 -363.5t-264.5 -265.5t-365.5 -98h-574v635h-112zM346 199h375q146 0 268.5 71.5t193 192.5t70.5 264q0 144 -70.5 266t-193 193t-268.5 71h-375v-426h426v-196h-426v-436z" />
    <glyph glyph-name="Ntilde" unicode="&#xd1;" horiz-adv-x="1564" 
d="M139 0v1458h256l832 -1194v1194h198v-1458h-256l-831 1194v-1194h-199zM514 1573l-164 106q67 101 138 158t165 57q52 0 100.5 -21t78 -45.5t62 -45.5t54.5 -21q8 0 16.5 2.5t17.5 9t16.5 12t16.5 17t14.5 17.5t15 19.5t12.5 18t12 18.5t10 15l166 -108
q-69 -101 -137.5 -157t-161.5 -56q-52 0 -100.5 21t-78 45.5t-62 45.5t-56.5 21q-18 0 -37 -12t-40.5 -38.5t-29.5 -38t-28 -40.5z" />
    <glyph glyph-name="Ograve" unicode="&#xd2;" 
d="M74 731q0 157 61.5 300.5t165.5 247.5t247.5 166t301.5 62q159 0 303.5 -62t249 -166t166 -247.5t61.5 -300.5q0 -159 -61.5 -303.5t-166 -249t-249 -166t-303.5 -61.5q-158 0 -301.5 61.5t-247.5 166t-165.5 249t-61.5 303.5zM1432 731q0 156 -77.5 289t-212 211
t-292.5 78q-156 0 -289 -78t-211 -211t-78 -289q0 -158 78 -292t211 -211.5t289 -77.5q158 0 292 77.5t212 211.5t78 292zM500 1835l133 154l350 -322l-115 -133z" />
    <glyph glyph-name="Oacute" unicode="&#xd3;" 
d="M74 731q0 157 61.5 300.5t165.5 247.5t247.5 166t301.5 62q159 0 303.5 -62t249 -166t166 -247.5t61.5 -300.5q0 -159 -61.5 -303.5t-166 -249t-249 -166t-303.5 -61.5q-158 0 -301.5 61.5t-247.5 166t-165.5 249t-61.5 303.5zM1432 731q0 156 -77.5 289t-212 211
t-292.5 78q-156 0 -289 -78t-211 -211t-78 -289q0 -158 78 -292t211 -211.5t289 -77.5q158 0 292 77.5t212 211.5t78 292zM809 1534l-115 133l350 322l134 -154z" />
    <glyph glyph-name="Ocircumflex" unicode="&#xd4;" 
d="M74 731q0 157 61.5 300.5t165.5 247.5t247.5 166t301.5 62q159 0 303.5 -62t249 -166t166 -247.5t61.5 -300.5q0 -159 -61.5 -303.5t-166 -249t-249 -166t-303.5 -61.5q-158 0 -301.5 61.5t-247.5 166t-165.5 249t-61.5 303.5zM1432 731q0 156 -77.5 289t-212 211
t-292.5 78q-156 0 -289 -78t-211 -211t-78 -289q0 -158 78 -292t211 -211.5t289 -77.5q158 0 292 77.5t212 211.5t78 292zM582 1534l-119 154l387 299l389 -299l-117 -154l-272 217z" />
    <glyph glyph-name="Otilde" unicode="&#xd5;" 
d="M74 731q0 157 61.5 300.5t165.5 247.5t247.5 166t301.5 62q159 0 303.5 -62t249 -166t166 -247.5t61.5 -300.5q0 -159 -61.5 -303.5t-166 -249t-249 -166t-303.5 -61.5q-158 0 -301.5 61.5t-247.5 166t-165.5 249t-61.5 303.5zM1432 731q0 156 -77.5 289t-212 211
t-292.5 78q-156 0 -289 -78t-211 -211t-78 -289q0 -158 78 -292t211 -211.5t289 -77.5q158 0 292 77.5t212 211.5t78 292zM567 1573l-164 106q67 101 138.5 158t165.5 57q52 0 100 -21t78 -45.5t62 -45.5t54 -21t48.5 23.5t42.5 45t36 52.5q3 5 5 8l165 -108
q-69 -101 -137.5 -157t-161.5 -56q-52 0 -100.5 21t-78 45.5t-62 45.5t-56.5 21q-18 0 -37 -12t-40.5 -38.5t-29.5 -38t-28 -40.5z" />
    <glyph glyph-name="Odieresis" unicode="&#xd6;" 
d="M74 731q0 157 61.5 300.5t165.5 247.5t247.5 166t301.5 62q159 0 303.5 -62t249 -166t166 -247.5t61.5 -300.5q0 -159 -61.5 -303.5t-166 -249t-249 -166t-303.5 -61.5q-158 0 -301.5 61.5t-247.5 166t-165.5 249t-61.5 303.5zM1432 731q0 156 -77.5 289t-212 211
t-292.5 78q-156 0 -289 -78t-211 -211t-78 -289q0 -158 78 -292t211 -211.5t289 -77.5q158 0 292 77.5t212 211.5t78 292zM502 1733q0 62 42.5 105.5t106.5 43.5q62 0 106 -44t44 -105q0 -64 -44 -107t-106 -43q-64 0 -106.5 42.5t-42.5 107.5zM903 1733q0 62 43 105.5
t107 43.5q61 0 105 -44t44 -105q0 -64 -43.5 -107t-105.5 -43q-65 0 -107.5 42.5t-42.5 107.5z" />
    <glyph glyph-name="multiply" unicode="&#xd7;" horiz-adv-x="1085" 
d="M274 309l-141 144l270 266l-270 268l141 143l269 -272l266 272l143 -143l-270 -268l270 -266l-143 -144l-266 273z" />
    <glyph glyph-name="Oslash" unicode="&#xd8;" 
d="M850 -49q-95 0 -197 26l-30 -79h-203l59 147q-185 102 -295 284.5t-110 401.5q0 209 104.5 388t283.5 283.5t388 104.5q104 0 207 -28l33 82h202l-61 -152q181 -101 290 -282.5t109 -395.5q0 -159 -61.5 -303.5t-166 -249t-249 -166t-303.5 -61.5zM274 731
q0 -161 75.5 -293t203.5 -207l428 1063q-77 15 -131 15q-155 0 -288 -78t-210.5 -211t-77.5 -289zM850 150q158 0 292 77.5t212 211.5t78 292q0 156 -74.5 286.5t-200.5 207.5l-428 -1063q59 -12 121 -12z" />
    <glyph glyph-name="Ugrave" unicode="&#xd9;" horiz-adv-x="1515" 
d="M330 1458v-858q0 -186 125 -318t303 -132t303 132t125 318v858h198v-858q0 -133 -50 -253t-134 -207t-199.5 -138t-242.5 -51q-169 0 -313.5 86.5t-229 236t-84.5 326.5v858h199zM408 1835l133 154l350 -322l-115 -133z" />
    <glyph glyph-name="Uacute" unicode="&#xda;" horiz-adv-x="1515" 
d="M330 1458v-858q0 -186 125 -318t303 -132t303 132t125 318v858h198v-858q0 -133 -50 -253t-134 -207t-199.5 -138t-242.5 -51q-169 0 -313.5 86.5t-229 236t-84.5 326.5v858h199zM717 1534l-115 133l350 322l133 -154z" />
    <glyph glyph-name="Ucircumflex" unicode="&#xdb;" horiz-adv-x="1515" 
d="M330 1458v-858q0 -186 125 -318t303 -132t303 132t125 318v858h198v-858q0 -133 -50 -253t-134 -207t-199.5 -138t-242.5 -51q-169 0 -313.5 86.5t-229 236t-84.5 326.5v858h199zM489 1534l-118 154l387 299l389 -299l-117 -154l-272 217z" />
    <glyph glyph-name="Udieresis" unicode="&#xdc;" horiz-adv-x="1515" 
d="M330 1458v-858q0 -186 125 -318t303 -132t303 132t125 318v858h198v-858q0 -133 -50 -253t-134 -207t-199.5 -138t-242.5 -51q-169 0 -313.5 86.5t-229 236t-84.5 326.5v858h199zM406 1733q0 62 42.5 105.5t106.5 43.5q62 0 106 -44t44 -105q0 -64 -44 -107t-106 -43
q-64 0 -106.5 42.5t-42.5 107.5zM807 1733q0 62 42.5 105.5t106.5 43.5q62 0 106 -44t44 -105q0 -64 -44 -107t-106 -43q-64 0 -106.5 42.5t-42.5 107.5z" />
    <glyph glyph-name="Yacute" unicode="&#xdd;" horiz-adv-x="1402" 
d="M602 0v360l-577 1098h227l448 -862l453 862h225l-577 -1098v-360h-199zM659 1534l-114 133l350 322l133 -154z" />
    <glyph glyph-name="Thorn" unicode="&#xde;" horiz-adv-x="1394" 
d="M139 0v1458h201v-196h424q113 0 217 -42.5t179 -114t120 -170.5t45 -208q0 -144 -75.5 -266t-205 -193t-280.5 -71h-424v-197h-201zM340 385h424q148 0 254 100.5t106 241.5t-106 241.5t-254 100.5h-424v-684z" />
    <glyph glyph-name="germandbls" unicode="&#xdf;" horiz-adv-x="1619" 
d="M109 0v573q0 187 39 342.5t106 263.5t158 183t194 110t215 35q193 0 369.5 -112.5t282.5 -319.5l-467 -219q528 -141 528 -532q0 -154 -137 -263.5t-340 -109.5q-148 0 -309 66t-316 204l133 150q238 -217 498 -217q114 0 192 52.5t78 117.5q0 74 -42 137.5t-107.5 106
t-148.5 74.5t-160.5 48.5t-149.5 22.5v188l483 244q-73 77 -172 120.5t-205 43.5q-79 0 -153 -25t-142 -82t-118.5 -140.5t-80.5 -209t-30 -279.5v-573h-198z" />
    <glyph glyph-name="agrave" unicode="&#xe0;" horiz-adv-x="1503" 
d="M25 0l626 1458h201l627 -1458h-217l-93 217h-833l-94 -217h-217zM420 418h663l-331 768zM401 1835l134 154l350 -322l-115 -133z" />
    <glyph glyph-name="aacute" unicode="&#xe1;" horiz-adv-x="1503" 
d="M25 0l626 1458h201l627 -1458h-217l-93 217h-833l-94 -217h-217zM420 418h663l-331 768zM711 1534l-115 133l350 322l133 -154z" />
    <glyph glyph-name="acircumflex" unicode="&#xe2;" horiz-adv-x="1503" 
d="M25 0l626 1458h201l627 -1458h-217l-93 217h-833l-94 -217h-217zM420 418h663l-331 768zM483 1534l-118 154l387 299l389 -299l-117 -154l-272 217z" />
    <glyph glyph-name="atilde" unicode="&#xe3;" horiz-adv-x="1503" 
d="M25 0l626 1458h201l627 -1458h-217l-93 217h-833l-94 -217h-217zM420 418h663l-331 768zM469 1573l-164 106q67 101 138 158t165 57q52 0 100.5 -21t78 -45.5t62 -45.5t54.5 -21q8 0 16.5 2.5t17.5 9t16.5 12t16.5 17t14.5 17.5t15 19.5t12.5 18t12 18.5t10 15l166 -108
q-69 -101 -137.5 -157t-161.5 -56q-52 0 -100.5 21t-78 45.5t-62 45.5t-56.5 21q-18 0 -37 -12t-40.5 -38.5t-29.5 -38t-28 -40.5z" />
    <glyph glyph-name="adieresis" unicode="&#xe4;" horiz-adv-x="1503" 
d="M25 0l626 1458h201l627 -1458h-217l-93 217h-833l-94 -217h-217zM420 418h663l-331 768zM403 1733q0 62 43 105.5t107 43.5q61 0 105 -44t44 -105q0 -64 -43.5 -107t-105.5 -43q-65 0 -107.5 42.5t-42.5 107.5zM805 1733q0 62 42.5 105.5t106.5 43.5q62 0 106 -44
t44 -105q0 -64 -44 -107t-106 -43q-64 0 -106.5 42.5t-42.5 107.5z" />
    <glyph glyph-name="aring" unicode="&#xe5;" horiz-adv-x="1503" 
d="M25 0l626 1458h201l627 -1458h-217l-93 217h-833l-94 -217h-217zM420 418h663l-331 768zM752 1694q40 0 70 30t30 70q0 41 -30 71.5t-70 30.5q-41 0 -72 -30.5t-31 -71.5q0 -40 31 -70t72 -30zM500 1794q0 104 74 178t178 74t176.5 -73.5t72.5 -178.5q0 -104 -72.5 -177
t-176.5 -73t-178 73t-74 177z" />
    <glyph glyph-name="ae" unicode="&#xe6;" horiz-adv-x="2203" 
d="M12 0l877 1458h1212v-201h-899v-426h656v-198h-656v-434h899v-199h-1093v217h-635l-129 -217h-232zM494 418h514v850z" />
    <glyph glyph-name="ccedilla" unicode="&#xe7;" horiz-adv-x="1595" 
d="M1366 471l178 -90q-97 -195 -282 -312.5t-412 -117.5q-158 0 -301.5 61.5t-247.5 166t-165.5 249t-61.5 303.5q0 157 61.5 300.5t165.5 247.5t247.5 166t301.5 62q227 0 413.5 -117.5t280.5 -310.5l-178 -88q-70 144 -208.5 231t-307.5 87q-156 0 -289 -78t-211 -211
t-78 -289q0 -158 78 -292t211 -211.5t289 -77.5q168 0 305 87.5t211 233.5zM559 -506l64 144q100 -44 188 -44q91 0 142 24t51 54t-46 49t-108 19q-64 0 -125 -25l-55 138q79 36 184 36q131 0 219 -57.5t88 -155.5q0 -97 -93.5 -168t-256.5 -71q-126 0 -252 57z" />
    <glyph glyph-name="egrave" unicode="&#xe8;" horiz-adv-x="1351" 
d="M139 0v1458h1108v-201h-909v-426h666v-198h-666v-434h909v-199h-1108zM332 1835l133 154l350 -322l-115 -133z" />
    <glyph glyph-name="eacute" unicode="&#xe9;" horiz-adv-x="1351" 
d="M139 0v1458h1108v-201h-909v-426h666v-198h-666v-434h909v-199h-1108zM641 1534l-115 133l351 322l133 -154z" />
    <glyph glyph-name="ecircumflex" unicode="&#xea;" horiz-adv-x="1351" 
d="M139 0v1458h1108v-201h-909v-426h666v-198h-666v-434h909v-199h-1108zM414 1534l-119 154l387 299l389 -299l-117 -154l-272 217z" />
    <glyph glyph-name="edieresis" unicode="&#xeb;" horiz-adv-x="1351" 
d="M139 0v1458h1108v-201h-909v-426h666v-198h-666v-434h909v-199h-1108zM334 1733q0 62 42.5 105.5t106.5 43.5q62 0 106 -44t44 -105q0 -64 -44 -107t-106 -43q-64 0 -106.5 42.5t-42.5 107.5zM735 1733q0 62 43 105.5t107 43.5q61 0 105 -44t44 -105q0 -64 -43.5 -107
t-105.5 -43q-65 0 -107.5 42.5t-42.5 107.5z" />
    <glyph glyph-name="igrave" unicode="&#xec;" horiz-adv-x="477" 
d="M139 0v1458h199v-1458h-199zM-113 1835l133 154l351 -322l-115 -133z" />
    <glyph glyph-name="iacute" unicode="&#xed;" horiz-adv-x="477" 
d="M139 0v1458h199v-1458h-199zM197 1534l-115 133l350 322l133 -154z" />
    <glyph glyph-name="icircumflex" unicode="&#xee;" horiz-adv-x="477" 
d="M139 0v1458h199v-1458h-199zM-31 1534l-119 154l388 299l389 -299l-117 -154l-272 217z" />
    <glyph glyph-name="idieresis" unicode="&#xef;" horiz-adv-x="477" 
d="M139 0v1458h199v-1458h-199zM-111 1733q0 62 43 105.5t107 43.5q61 0 105 -44t44 -105q0 -64 -43.5 -107t-105.5 -43q-65 0 -107.5 42.5t-42.5 107.5zM291 1733q0 62 42.5 105.5t106.5 43.5q62 0 106 -44t44 -105q0 -64 -44 -107t-106 -43q-64 0 -106.5 42.5t-42.5 107.5
z" />
    <glyph glyph-name="eth" unicode="&#xf0;" horiz-adv-x="1521" 
d="M35 635v196h112v627h574q148 0 283 -58t232 -156t154.5 -233t57.5 -284q0 -196 -97 -363.5t-264.5 -265.5t-365.5 -98h-574v635h-112zM346 199h375q146 0 268.5 71.5t193 192.5t70.5 264q0 144 -70.5 266t-193 193t-268.5 71h-375v-426h426v-196h-426v-436z" />
    <glyph glyph-name="ntilde" unicode="&#xf1;" horiz-adv-x="1564" 
d="M139 0v1458h256l832 -1194v1194h198v-1458h-256l-831 1194v-1194h-199zM514 1573l-164 106q67 101 138 158t165 57q52 0 100.5 -21t78 -45.5t62 -45.5t54.5 -21q8 0 16.5 2.5t17.5 9t16.5 12t16.5 17t14.5 17.5t15 19.5t12.5 18t12 18.5t10 15l166 -108
q-69 -101 -137.5 -157t-161.5 -56q-52 0 -100.5 21t-78 45.5t-62 45.5t-56.5 21q-18 0 -37 -12t-40.5 -38.5t-29.5 -38t-28 -40.5z" />
    <glyph glyph-name="ograve" unicode="&#xf2;" 
d="M74 731q0 157 61.5 300.5t165.5 247.5t247.5 166t301.5 62q159 0 303.5 -62t249 -166t166 -247.5t61.5 -300.5q0 -159 -61.5 -303.5t-166 -249t-249 -166t-303.5 -61.5q-158 0 -301.5 61.5t-247.5 166t-165.5 249t-61.5 303.5zM1432 731q0 156 -77.5 289t-212 211
t-292.5 78q-156 0 -289 -78t-211 -211t-78 -289q0 -158 78 -292t211 -211.5t289 -77.5q158 0 292 77.5t212 211.5t78 292zM500 1835l133 154l350 -322l-115 -133z" />
    <glyph glyph-name="oacute" unicode="&#xf3;" 
d="M74 731q0 157 61.5 300.5t165.5 247.5t247.5 166t301.5 62q159 0 303.5 -62t249 -166t166 -247.5t61.5 -300.5q0 -159 -61.5 -303.5t-166 -249t-249 -166t-303.5 -61.5q-158 0 -301.5 61.5t-247.5 166t-165.5 249t-61.5 303.5zM1432 731q0 156 -77.5 289t-212 211
t-292.5 78q-156 0 -289 -78t-211 -211t-78 -289q0 -158 78 -292t211 -211.5t289 -77.5q158 0 292 77.5t212 211.5t78 292zM809 1534l-115 133l350 322l134 -154z" />
    <glyph glyph-name="ocircumflex" unicode="&#xf4;" 
d="M74 731q0 157 61.5 300.5t165.5 247.5t247.5 166t301.5 62q159 0 303.5 -62t249 -166t166 -247.5t61.5 -300.5q0 -159 -61.5 -303.5t-166 -249t-249 -166t-303.5 -61.5q-158 0 -301.5 61.5t-247.5 166t-165.5 249t-61.5 303.5zM1432 731q0 156 -77.5 289t-212 211
t-292.5 78q-156 0 -289 -78t-211 -211t-78 -289q0 -158 78 -292t211 -211.5t289 -77.5q158 0 292 77.5t212 211.5t78 292zM582 1534l-119 154l387 299l389 -299l-117 -154l-272 217z" />
    <glyph glyph-name="otilde" unicode="&#xf5;" 
d="M74 731q0 157 61.5 300.5t165.5 247.5t247.5 166t301.5 62q159 0 303.5 -62t249 -166t166 -247.5t61.5 -300.5q0 -159 -61.5 -303.5t-166 -249t-249 -166t-303.5 -61.5q-158 0 -301.5 61.5t-247.5 166t-165.5 249t-61.5 303.5zM1432 731q0 156 -77.5 289t-212 211
t-292.5 78q-156 0 -289 -78t-211 -211t-78 -289q0 -158 78 -292t211 -211.5t289 -77.5q158 0 292 77.5t212 211.5t78 292zM567 1573l-164 106q67 101 138.5 158t165.5 57q52 0 100 -21t78 -45.5t62 -45.5t54 -21t48.5 23.5t42.5 45t36 52.5q3 5 5 8l165 -108
q-69 -101 -137.5 -157t-161.5 -56q-52 0 -100.5 21t-78 45.5t-62 45.5t-56.5 21q-18 0 -37 -12t-40.5 -38.5t-29.5 -38t-28 -40.5z" />
    <glyph glyph-name="odieresis" unicode="&#xf6;" 
d="M74 731q0 157 61.5 300.5t165.5 247.5t247.5 166t301.5 62q159 0 303.5 -62t249 -166t166 -247.5t61.5 -300.5q0 -159 -61.5 -303.5t-166 -249t-249 -166t-303.5 -61.5q-158 0 -301.5 61.5t-247.5 166t-165.5 249t-61.5 303.5zM1432 731q0 156 -77.5 289t-212 211
t-292.5 78q-156 0 -289 -78t-211 -211t-78 -289q0 -158 78 -292t211 -211.5t289 -77.5q158 0 292 77.5t212 211.5t78 292zM502 1733q0 62 42.5 105.5t106.5 43.5q62 0 106 -44t44 -105q0 -64 -44 -107t-106 -43q-64 0 -106.5 42.5t-42.5 107.5zM903 1733q0 62 43 105.5
t107 43.5q61 0 105 -44t44 -105q0 -64 -43.5 -107t-105.5 -43q-65 0 -107.5 42.5t-42.5 107.5z" />
    <glyph glyph-name="divide" unicode="&#xf7;" horiz-adv-x="1169" 
d="M106 621v198h957v-198h-957zM434 1065q0 62 43.5 105.5t106.5 43.5q62 0 105.5 -44t43.5 -105q0 -64 -43.5 -107t-105.5 -43q-63 0 -106.5 43t-43.5 107zM434 377q0 62 43.5 106.5t106.5 44.5q61 0 105 -44.5t44 -106.5q0 -63 -43.5 -106.5t-105.5 -43.5
q-63 0 -106.5 43.5t-43.5 106.5z" />
    <glyph glyph-name="oslash" unicode="&#xf8;" 
d="M850 -49q-95 0 -197 26l-30 -79h-203l59 147q-185 102 -295 284.5t-110 401.5q0 209 104.5 388t283.5 283.5t388 104.5q104 0 207 -28l33 82h202l-61 -152q181 -101 290 -282.5t109 -395.5q0 -159 -61.5 -303.5t-166 -249t-249 -166t-303.5 -61.5zM274 731
q0 -161 75.5 -293t203.5 -207l428 1063q-77 15 -131 15q-155 0 -288 -78t-210.5 -211t-77.5 -289zM850 150q158 0 292 77.5t212 211.5t78 292q0 156 -74.5 286.5t-200.5 207.5l-428 -1063q59 -12 121 -12z" />
    <glyph glyph-name="ugrave" unicode="&#xf9;" horiz-adv-x="1515" 
d="M330 1458v-858q0 -186 125 -318t303 -132t303 132t125 318v858h198v-858q0 -133 -50 -253t-134 -207t-199.5 -138t-242.5 -51q-169 0 -313.5 86.5t-229 236t-84.5 326.5v858h199zM408 1835l133 154l350 -322l-115 -133z" />
    <glyph glyph-name="uacute" unicode="&#xfa;" horiz-adv-x="1515" 
d="M330 1458v-858q0 -186 125 -318t303 -132t303 132t125 318v858h198v-858q0 -133 -50 -253t-134 -207t-199.5 -138t-242.5 -51q-169 0 -313.5 86.5t-229 236t-84.5 326.5v858h199zM717 1534l-115 133l350 322l133 -154z" />
    <glyph glyph-name="ucircumflex" unicode="&#xfb;" horiz-adv-x="1515" 
d="M330 1458v-858q0 -186 125 -318t303 -132t303 132t125 318v858h198v-858q0 -133 -50 -253t-134 -207t-199.5 -138t-242.5 -51q-169 0 -313.5 86.5t-229 236t-84.5 326.5v858h199zM489 1534l-118 154l387 299l389 -299l-117 -154l-272 217z" />
    <glyph glyph-name="udieresis" unicode="&#xfc;" horiz-adv-x="1515" 
d="M330 1458v-858q0 -186 125 -318t303 -132t303 132t125 318v858h198v-858q0 -133 -50 -253t-134 -207t-199.5 -138t-242.5 -51q-169 0 -313.5 86.5t-229 236t-84.5 326.5v858h199zM410 1733q0 62 42.5 105.5t106.5 43.5q62 0 106 -44t44 -105q0 -64 -44 -107t-106 -43
q-64 0 -106.5 42.5t-42.5 107.5zM811 1733q0 62 43 105.5t107 43.5q61 0 105 -44t44 -105q0 -64 -43.5 -107t-105.5 -43q-65 0 -107.5 42.5t-42.5 107.5z" />
    <glyph glyph-name="yacute" unicode="&#xfd;" horiz-adv-x="1402" 
d="M602 0v360l-577 1098h227l448 -862l453 862h225l-577 -1098v-360h-199zM659 1534l-114 133l350 322l133 -154z" />
    <glyph glyph-name="thorn" unicode="&#xfe;" horiz-adv-x="1394" 
d="M139 0v1458h201v-196h424q113 0 217 -42.5t179 -114t120 -170.5t45 -208q0 -144 -75.5 -266t-205 -193t-280.5 -71h-424v-197h-201zM340 385h424q148 0 254 100.5t106 241.5t-106 241.5t-254 100.5h-424v-684z" />
    <glyph glyph-name="ydieresis" unicode="&#xff;" horiz-adv-x="1402" 
d="M602 0v360l-577 1098h227l448 -862l453 862h225l-577 -1098v-360h-199zM352 1733q0 62 43 105.5t107 43.5q62 0 105.5 -44t43.5 -105q0 -64 -43.5 -107t-105.5 -43q-64 0 -107 42.5t-43 107.5zM754 1733q0 62 42.5 105.5t106.5 43.5q62 0 106 -44t44 -105q0 -64 -44 -107
t-106 -43q-64 0 -106.5 42.5t-42.5 107.5z" />
    <glyph glyph-name="Amacron" unicode="&#x100;" horiz-adv-x="1503" 
d="M25 0l626 1458h201l627 -1458h-217l-93 217h-833l-94 -217h-217zM420 418h663l-331 768zM420 1606v192h665v-192h-665z" />
    <glyph glyph-name="amacron" unicode="&#x101;" horiz-adv-x="1503" 
d="M25 0l626 1458h201l627 -1458h-217l-93 217h-833l-94 -217h-217zM420 418h663l-331 768zM420 1606v192h665v-192h-665z" />
    <glyph glyph-name="Abreve" unicode="&#x102;" horiz-adv-x="1503" 
d="M25 0l626 1458h201l627 -1458h-217l-93 217h-833l-94 -217h-217zM420 418h663l-331 768zM334 1862l166 102q15 -23 36.5 -51t57.5 -68.5t78.5 -67t79.5 -26.5t80 27t78 66t58.5 69.5t35.5 50.5l165 -102q-72 -119 -185 -210t-232 -91t-232.5 91t-185.5 210z" />
    <glyph glyph-name="abreve" unicode="&#x103;" horiz-adv-x="1503" 
d="M25 0l626 1458h201l627 -1458h-217l-93 217h-833l-94 -217h-217zM420 418h663l-331 768zM334 1862l166 102q15 -23 36.5 -51t57.5 -68.5t78.5 -67t79.5 -26.5t80 27t78 66t58.5 69.5t35.5 50.5l165 -102q-72 -119 -185 -210t-232 -91t-232.5 91t-185.5 210z" />
    <glyph glyph-name="Aogonek" unicode="&#x104;" horiz-adv-x="1640" 
d="M1522 -156l94 -149q-140 -90 -273 -90q-124 0 -199 63.5t-75 145.5q0 126 178 217l-78 186h-833l-94 -217h-217l626 1458h201l627 -1458q-115 -40 -172.5 -85.5t-57.5 -82.5q0 -49 74 -49q45 0 102.5 18t96.5 43zM420 418h663l-331 768z" />
    <glyph glyph-name="aogonek" unicode="&#x105;" horiz-adv-x="1640" 
d="M1522 -156l94 -149q-140 -90 -273 -90q-124 0 -199 63.5t-75 145.5q0 126 178 217l-78 186h-833l-94 -217h-217l626 1458h201l627 -1458q-115 -40 -172.5 -85.5t-57.5 -82.5q0 -49 74 -49q45 0 102.5 18t96.5 43zM420 418h663l-331 768z" />
    <glyph glyph-name="Cacute" unicode="&#x106;" horiz-adv-x="1595" 
d="M1366 471l178 -90q-97 -195 -282 -312.5t-412 -117.5q-158 0 -301.5 61.5t-247.5 166t-165.5 249t-61.5 303.5q0 157 61.5 300.5t165.5 247.5t247.5 166t301.5 62q227 0 413.5 -117.5t280.5 -310.5l-178 -88q-70 144 -208.5 231t-307.5 87q-156 0 -289 -78t-211 -211
t-78 -289q0 -158 78 -292t211 -211.5t289 -77.5q168 0 305 87.5t211 233.5zM807 1534l-115 133l350 322l134 -154z" />
    <glyph glyph-name="cacute" unicode="&#x107;" horiz-adv-x="1595" 
d="M1366 471l178 -90q-97 -195 -282 -312.5t-412 -117.5q-158 0 -301.5 61.5t-247.5 166t-165.5 249t-61.5 303.5q0 157 61.5 300.5t165.5 247.5t247.5 166t301.5 62q227 0 413.5 -117.5t280.5 -310.5l-178 -88q-70 144 -208.5 231t-307.5 87q-156 0 -289 -78t-211 -211
t-78 -289q0 -158 78 -292t211 -211.5t289 -77.5q168 0 305 87.5t211 233.5zM807 1534l-115 133l350 322l134 -154z" />
    <glyph glyph-name="Ccircumflex" unicode="&#x108;" horiz-adv-x="1595" 
d="M1366 471l178 -90q-97 -195 -282 -312.5t-412 -117.5q-158 0 -301.5 61.5t-247.5 166t-165.5 249t-61.5 303.5q0 157 61.5 300.5t165.5 247.5t247.5 166t301.5 62q227 0 413.5 -117.5t280.5 -310.5l-178 -88q-70 144 -208.5 231t-307.5 87q-156 0 -289 -78t-211 -211
t-78 -289q0 -158 78 -292t211 -211.5t289 -77.5q168 0 305 87.5t211 233.5zM580 1534l-119 154l387 299l389 -299l-117 -154l-272 217z" />
    <glyph glyph-name="ccircumflex" unicode="&#x109;" horiz-adv-x="1595" 
d="M1366 471l178 -90q-97 -195 -282 -312.5t-412 -117.5q-158 0 -301.5 61.5t-247.5 166t-165.5 249t-61.5 303.5q0 157 61.5 300.5t165.5 247.5t247.5 166t301.5 62q227 0 413.5 -117.5t280.5 -310.5l-178 -88q-70 144 -208.5 231t-307.5 87q-156 0 -289 -78t-211 -211
t-78 -289q0 -158 78 -292t211 -211.5t289 -77.5q168 0 305 87.5t211 233.5zM580 1534l-119 154l387 299l389 -299l-117 -154l-272 217z" />
    <glyph glyph-name="Cdotaccent" unicode="&#x10a;" horiz-adv-x="1595" 
d="M1366 471l178 -90q-97 -195 -282 -312.5t-412 -117.5q-158 0 -301.5 61.5t-247.5 166t-165.5 249t-61.5 303.5q0 157 61.5 300.5t165.5 247.5t247.5 166t301.5 62q227 0 413.5 -117.5t280.5 -310.5l-178 -88q-70 144 -208.5 231t-307.5 87q-156 0 -289 -78t-211 -211
t-78 -289q0 -158 78 -292t211 -211.5t289 -77.5q168 0 305 87.5t211 233.5zM698 1733q0 62 43 105.5t107 43.5q62 0 105.5 -44t43.5 -105q0 -64 -43.5 -107t-105.5 -43q-64 0 -107 42.5t-43 107.5z" />
    <glyph glyph-name="cdotaccent" unicode="&#x10b;" horiz-adv-x="1595" 
d="M1366 471l178 -90q-97 -195 -282 -312.5t-412 -117.5q-158 0 -301.5 61.5t-247.5 166t-165.5 249t-61.5 303.5q0 157 61.5 300.5t165.5 247.5t247.5 166t301.5 62q227 0 413.5 -117.5t280.5 -310.5l-178 -88q-70 144 -208.5 231t-307.5 87q-156 0 -289 -78t-211 -211
t-78 -289q0 -158 78 -292t211 -211.5t289 -77.5q168 0 305 87.5t211 233.5zM698 1733q0 62 43 105.5t107 43.5q62 0 105.5 -44t43.5 -105q0 -64 -43.5 -107t-105.5 -43q-64 0 -107 42.5t-43 107.5z" />
    <glyph glyph-name="Ccaron" unicode="&#x10c;" horiz-adv-x="1595" 
d="M1366 471l178 -90q-97 -195 -282 -312.5t-412 -117.5q-158 0 -301.5 61.5t-247.5 166t-165.5 249t-61.5 303.5q0 157 61.5 300.5t165.5 247.5t247.5 166t301.5 62q227 0 413.5 -117.5t280.5 -310.5l-178 -88q-70 144 -208.5 231t-307.5 87q-156 0 -289 -78t-211 -211
t-78 -289q0 -158 78 -292t211 -211.5t289 -77.5q168 0 305 87.5t211 233.5zM848 1538l-387 299l119 154l268 -217l272 217l117 -154z" />
    <glyph glyph-name="ccaron" unicode="&#x10d;" horiz-adv-x="1595" 
d="M1366 471l178 -90q-97 -195 -282 -312.5t-412 -117.5q-158 0 -301.5 61.5t-247.5 166t-165.5 249t-61.5 303.5q0 157 61.5 300.5t165.5 247.5t247.5 166t301.5 62q227 0 413.5 -117.5t280.5 -310.5l-178 -88q-70 144 -208.5 231t-307.5 87q-156 0 -289 -78t-211 -211
t-78 -289q0 -158 78 -292t211 -211.5t289 -77.5q168 0 305 87.5t211 233.5zM848 1538l-387 299l119 154l268 -217l272 217l117 -154z" />
    <glyph glyph-name="Dcaron" unicode="&#x10e;" horiz-adv-x="1513" 
d="M139 0v1458h574q148 0 283 -58t232 -156t154.5 -233t57.5 -284q0 -196 -97 -363.5t-264.5 -265.5t-365.5 -98h-574zM338 199h375q146 0 268.5 71.5t193 192.5t70.5 264q0 144 -70.5 266t-193 193t-268.5 71h-375v-1058zM713 1538l-387 299l118 154l269 -217l272 217
l117 -154z" />
    <glyph glyph-name="dcaron" unicode="&#x10f;" horiz-adv-x="1513" 
d="M139 0v1458h574q148 0 283 -58t232 -156t154.5 -233t57.5 -284q0 -196 -97 -363.5t-264.5 -265.5t-365.5 -98h-574zM338 199h375q146 0 268.5 71.5t193 192.5t70.5 264q0 144 -70.5 266t-193 193t-268.5 71h-375v-1058zM709 1538l-387 299l118 154l269 -217l272 217
l117 -154z" />
    <glyph glyph-name="Dcroat" unicode="&#x110;" horiz-adv-x="1521" 
d="M35 635v196h112v627h574q148 0 283 -58t232 -156t154.5 -233t57.5 -284q0 -196 -97 -363.5t-264.5 -265.5t-365.5 -98h-574v635h-112zM346 199h375q146 0 268.5 71.5t193 192.5t70.5 264q0 144 -70.5 266t-193 193t-268.5 71h-375v-426h426v-196h-426v-436z" />
    <glyph glyph-name="dcroat" unicode="&#x111;" horiz-adv-x="1521" 
d="M35 635v196h112v627h574q148 0 283 -58t232 -156t154.5 -233t57.5 -284q0 -196 -97 -363.5t-264.5 -265.5t-365.5 -98h-574v635h-112zM346 199h375q146 0 268.5 71.5t193 192.5t70.5 264q0 144 -70.5 266t-193 193t-268.5 71h-375v-426h426v-196h-426v-436z" />
    <glyph glyph-name="Emacron" unicode="&#x112;" horiz-adv-x="1351" 
d="M139 0v1458h1108v-201h-909v-426h666v-198h-666v-434h909v-199h-1108zM350 1606v192h666v-192h-666z" />
    <glyph glyph-name="emacron" unicode="&#x113;" horiz-adv-x="1351" 
d="M139 0v1458h1108v-201h-909v-426h666v-198h-666v-434h909v-199h-1108zM350 1606v192h666v-192h-666z" />
    <glyph glyph-name="Ebreve" unicode="&#x114;" horiz-adv-x="1351" 
d="M139 0v1458h1108v-201h-909v-426h666v-198h-666v-434h909v-199h-1108zM264 1862l166 102q15 -23 36.5 -51t57.5 -68.5t78.5 -67t79.5 -26.5t80 27t78 66t58.5 69.5t35.5 50.5l166 -102q-72 -119 -185.5 -210t-232.5 -91t-232.5 91t-185.5 210z" />
    <glyph glyph-name="ebreve" unicode="&#x115;" horiz-adv-x="1351" 
d="M139 0v1458h1108v-201h-909v-426h666v-198h-666v-434h909v-199h-1108zM264 1862l166 102q15 -23 36.5 -51t57.5 -68.5t78.5 -67t79.5 -26.5t80 27t78 66t58.5 69.5t35.5 50.5l166 -102q-72 -119 -185.5 -210t-232.5 -91t-232.5 91t-185.5 210z" />
    <glyph glyph-name="Edotaccent" unicode="&#x116;" horiz-adv-x="1351" 
d="M139 0v1458h1108v-201h-909v-426h666v-198h-666v-434h909v-199h-1108zM532 1733q0 62 43 105.5t107 43.5q62 0 105.5 -44t43.5 -105q0 -64 -43.5 -107t-105.5 -43q-64 0 -107 42.5t-43 107.5z" />
    <glyph glyph-name="edotaccent" unicode="&#x117;" horiz-adv-x="1351" 
d="M139 0v1458h1108v-201h-909v-426h666v-198h-666v-434h909v-199h-1108zM532 1733q0 62 43 105.5t107 43.5q62 0 105.5 -44t43.5 -105q0 -64 -43.5 -107t-105.5 -43q-64 0 -107 42.5t-43 107.5z" />
    <glyph glyph-name="Eogonek" unicode="&#x118;" horiz-adv-x="1351" 
d="M139 0v1458h1108v-201h-909v-426h666v-198h-666v-434h909v-199q-115 -40 -172 -85.5t-57 -82.5q0 -49 74 -49q45 0 102 18t96 43l94 -149q-140 -90 -272 -90q-124 0 -199 63.5t-75 145.5q0 102 123 186h-822z" />
    <glyph glyph-name="eogonek" unicode="&#x119;" horiz-adv-x="1351" 
d="M139 0v1458h1108v-201h-909v-426h666v-198h-666v-434h909v-199q-115 -40 -172 -85.5t-57 -82.5q0 -49 74 -49q45 0 102 18t96 43l94 -149q-140 -90 -272 -90q-124 0 -199 63.5t-75 145.5q0 102 123 186h-822z" />
    <glyph glyph-name="Ecaron" unicode="&#x11a;" horiz-adv-x="1351" 
d="M139 0v1458h1108v-201h-909v-426h666v-198h-666v-434h909v-199h-1108zM682 1538l-387 299l119 154l268 -217l272 217l117 -154z" />
    <glyph glyph-name="ecaron" unicode="&#x11b;" horiz-adv-x="1351" 
d="M139 0v1458h1108v-201h-909v-426h666v-198h-666v-434h909v-199h-1108zM682 1538l-387 299l119 154l268 -217l272 217l117 -154z" />
    <glyph glyph-name="Gcircumflex" unicode="&#x11c;" horiz-adv-x="1701" 
d="M1225 631v198h401q4 -31 4 -98q0 -159 -62 -303.5t-166.5 -249t-249 -166t-302.5 -61.5t-301.5 61.5t-247.5 166t-165.5 249t-61.5 303.5q0 157 61.5 300.5t165.5 247.5t247.5 166t301.5 62q155 0 294 -57t247 -160l-138 -143q-80 76 -184 119t-219 43q-156 0 -289 -78
t-211 -211t-78 -289q0 -158 78 -292t211 -211.5t289 -77.5q214 0 375.5 138t197.5 343h-198zM582 1534l-119 154l387 299l389 -299l-117 -154l-272 217z" />
    <glyph glyph-name="gcircumflex" unicode="&#x11d;" horiz-adv-x="1701" 
d="M1225 631v198h401q4 -31 4 -98q0 -159 -62 -303.5t-166.5 -249t-249 -166t-302.5 -61.5t-301.5 61.5t-247.5 166t-165.5 249t-61.5 303.5q0 157 61.5 300.5t165.5 247.5t247.5 166t301.5 62q155 0 294 -57t247 -160l-138 -143q-80 76 -184 119t-219 43q-156 0 -289 -78
t-211 -211t-78 -289q0 -158 78 -292t211 -211.5t289 -77.5q214 0 375.5 138t197.5 343h-198zM582 1534l-119 154l387 299l389 -299l-117 -154l-272 217z" />
    <glyph glyph-name="Gbreve" unicode="&#x11e;" horiz-adv-x="1701" 
d="M1225 631v198h401q4 -31 4 -98q0 -159 -62 -303.5t-166.5 -249t-249 -166t-302.5 -61.5t-301.5 61.5t-247.5 166t-165.5 249t-61.5 303.5q0 157 61.5 300.5t165.5 247.5t247.5 166t301.5 62q155 0 294 -57t247 -160l-138 -143q-80 76 -184 119t-219 43q-156 0 -289 -78
t-211 -211t-78 -289q0 -158 78 -292t211 -211.5t289 -77.5q214 0 375.5 138t197.5 343h-198zM432 1862l166 102q15 -23 36.5 -51t57.5 -68.5t78.5 -67t79.5 -26.5t80 27t78 66t58.5 69.5t35.5 50.5l166 -102q-72 -119 -185.5 -210t-232.5 -91t-232.5 91t-185.5 210z" />
    <glyph glyph-name="gbreve" unicode="&#x11f;" horiz-adv-x="1701" 
d="M1225 631v198h401q4 -31 4 -98q0 -159 -62 -303.5t-166.5 -249t-249 -166t-302.5 -61.5t-301.5 61.5t-247.5 166t-165.5 249t-61.5 303.5q0 157 61.5 300.5t165.5 247.5t247.5 166t301.5 62q155 0 294 -57t247 -160l-138 -143q-80 76 -184 119t-219 43q-156 0 -289 -78
t-211 -211t-78 -289q0 -158 78 -292t211 -211.5t289 -77.5q214 0 375.5 138t197.5 343h-198zM432 1862l166 102q15 -23 36.5 -51t57.5 -68.5t78.5 -67t79.5 -26.5t80 27t78 66t58.5 69.5t35.5 50.5l166 -102q-72 -119 -185.5 -210t-232.5 -91t-232.5 91t-185.5 210z" />
    <glyph glyph-name="Gdotaccent" unicode="&#x120;" horiz-adv-x="1701" 
d="M1225 631v198h401q4 -31 4 -98q0 -159 -62 -303.5t-166.5 -249t-249 -166t-302.5 -61.5t-301.5 61.5t-247.5 166t-165.5 249t-61.5 303.5q0 157 61.5 300.5t165.5 247.5t247.5 166t301.5 62q155 0 294 -57t247 -160l-138 -143q-80 76 -184 119t-219 43q-156 0 -289 -78
t-211 -211t-78 -289q0 -158 78 -292t211 -211.5t289 -77.5q214 0 375.5 138t197.5 343h-198zM700 1733q0 62 43 105.5t107 43.5q62 0 105.5 -44t43.5 -105q0 -64 -43.5 -107t-105.5 -43q-64 0 -107 42.5t-43 107.5z" />
    <glyph glyph-name="gdotaccent" unicode="&#x121;" horiz-adv-x="1701" 
d="M1225 631v198h401q4 -31 4 -98q0 -159 -62 -303.5t-166.5 -249t-249 -166t-302.5 -61.5t-301.5 61.5t-247.5 166t-165.5 249t-61.5 303.5q0 157 61.5 300.5t165.5 247.5t247.5 166t301.5 62q155 0 294 -57t247 -160l-138 -143q-80 76 -184 119t-219 43q-156 0 -289 -78
t-211 -211t-78 -289q0 -158 78 -292t211 -211.5t289 -77.5q214 0 375.5 138t197.5 343h-198zM700 1733q0 62 43 105.5t107 43.5q62 0 105.5 -44t43.5 -105q0 -64 -43.5 -107t-105.5 -43q-64 0 -107 42.5t-43 107.5z" />
    <glyph glyph-name="Gcommaaccent" unicode="&#x122;" horiz-adv-x="1701" 
d="M1225 631v198h401q4 -31 4 -98q0 -159 -62 -303.5t-166.5 -249t-249 -166t-302.5 -61.5t-301.5 61.5t-247.5 166t-165.5 249t-61.5 303.5q0 157 61.5 300.5t165.5 247.5t247.5 166t301.5 62q155 0 294 -57t247 -160l-138 -143q-80 76 -184 119t-219 43q-156 0 -289 -78
t-211 -211t-78 -289q0 -158 78 -292t211 -211.5t289 -77.5q214 0 375.5 138t197.5 343h-198zM850 -109q72 0 110.5 -54t38.5 -136q0 -98 -55.5 -169t-161.5 -138l-86 131q96 58 123 94q-47 0 -82 35t-35 88q0 58 41.5 103.5t106.5 45.5z" />
    <glyph glyph-name="gcommaaccent" unicode="&#x123;" horiz-adv-x="1701" 
d="M1225 631v198h401q4 -31 4 -98q0 -159 -62 -303.5t-166.5 -249t-249 -166t-302.5 -61.5t-301.5 61.5t-247.5 166t-165.5 249t-61.5 303.5q0 157 61.5 300.5t165.5 247.5t247.5 166t301.5 62q155 0 294 -57t247 -160l-138 -143q-80 76 -184 119t-219 43q-156 0 -289 -78
t-211 -211t-78 -289q0 -158 78 -292t211 -211.5t289 -77.5q214 0 375.5 138t197.5 343h-198zM850 -109q72 0 110.5 -54t38.5 -136q0 -98 -55.5 -169t-161.5 -138l-86 131q96 58 123 94q-47 0 -82 35t-35 88q0 58 41.5 103.5t106.5 45.5z" />
    <glyph glyph-name="Hcircumflex" unicode="&#x124;" horiz-adv-x="1531" 
d="M139 0v1458h199v-627h856v627h199v-1458h-199v633h-856v-633h-199zM498 1534l-119 154l387 299l389 -299l-117 -154l-272 217z" />
    <glyph glyph-name="hcircumflex" unicode="&#x125;" horiz-adv-x="1531" 
d="M139 0v1458h199v-627h856v627h199v-1458h-199v633h-856v-633h-199zM498 1534l-119 154l387 299l389 -299l-117 -154l-272 217z" />
    <glyph glyph-name="Hbar" unicode="&#x126;" horiz-adv-x="1531" 
d="M43 1028v191h96v239h199v-239h856v239h199v-239h96v-191h-96v-1028h-199v633h-856v-633h-199v1028h-96zM338 831h856v197h-856v-197z" />
    <glyph glyph-name="hbar" unicode="&#x127;" horiz-adv-x="1531" 
d="M43 1028v191h96v239h199v-239h856v239h199v-239h96v-191h-96v-1028h-199v633h-856v-633h-199v1028h-96zM338 831h856v197h-856v-197z" />
    <glyph glyph-name="Itilde" unicode="&#x128;" horiz-adv-x="477" 
d="M139 0v1458h199v-1458h-199zM-45 1573l-164 106q67 101 138 158t165 57q52 0 100.5 -21t78 -45.5t62 -45.5t54.5 -21q8 0 16.5 2.5t17.5 9t16.5 12t16.5 17t14.5 17.5t15 19.5t12.5 18t12 18.5t10 15l166 -108q-69 -101 -137.5 -157t-161.5 -56q-52 0 -100.5 21t-78 45.5
t-62 45.5t-56.5 21q-18 0 -37 -12t-40.5 -38.5t-29.5 -38t-28 -40.5z" />
    <glyph glyph-name="itilde" unicode="&#x129;" horiz-adv-x="477" 
d="M139 0v1458h199v-1458h-199zM-45 1573l-164 106q67 101 138 158t165 57q52 0 100.5 -21t78 -45.5t62 -45.5t54.5 -21q8 0 16.5 2.5t17.5 9t16.5 12t16.5 17t14.5 17.5t15 19.5t12.5 18t12 18.5t10 15l166 -108q-69 -101 -137.5 -157t-161.5 -56q-52 0 -100.5 21t-78 45.5
t-62 45.5t-56.5 21q-18 0 -37 -12t-40.5 -38.5t-29.5 -38t-28 -40.5z" />
    <glyph glyph-name="Imacron" unicode="&#x12a;" horiz-adv-x="477" 
d="M139 0v1458h199v-1458h-199zM-94 1606v192h665v-192h-665z" />
    <glyph glyph-name="imacron" unicode="&#x12b;" horiz-adv-x="477" 
d="M139 0v1458h199v-1458h-199zM-94 1606v192h665v-192h-665z" />
    <glyph glyph-name="Ibreve" unicode="&#x12c;" horiz-adv-x="477" 
d="M139 0v1458h199v-1458h-199zM-180 1862l166 102q15 -23 36.5 -51t57.5 -68.5t78.5 -67t79.5 -26.5t79.5 27t78 66t58.5 69.5t35 50.5l166 -102q-72 -119 -185 -210t-232 -91t-232.5 91t-185.5 210z" />
    <glyph glyph-name="ibreve" unicode="&#x12d;" horiz-adv-x="477" 
d="M139 0v1458h199v-1458h-199zM-180 1862l166 102q15 -23 36.5 -51t57.5 -68.5t78.5 -67t79.5 -26.5t79.5 27t78 66t58.5 69.5t35 50.5l166 -102q-72 -119 -185 -210t-232 -91t-232.5 91t-185.5 210z" />
    <glyph glyph-name="Iogonek" unicode="&#x12e;" horiz-adv-x="477" 
d="M381 -156l94 -149q-140 -90 -272 -90q-124 0 -199.5 63.5t-75.5 145.5q0 135 211 233v1411h199v-1458q-115 -40 -172 -85.5t-57 -82.5q0 -49 73 -49q45 0 102.5 18t96.5 43z" />
    <glyph glyph-name="iogonek" unicode="&#x12f;" horiz-adv-x="477" 
d="M381 -156l94 -149q-140 -90 -272 -90q-124 0 -199.5 63.5t-75.5 145.5q0 135 211 233v1411h199v-1458q-115 -40 -172 -85.5t-57 -82.5q0 -49 73 -49q45 0 102.5 18t96.5 43z" />
    <glyph glyph-name="Idotaccent" unicode="&#x130;" horiz-adv-x="477" 
d="M139 0v1458h199v-1458h-199zM88 1733q0 62 43 105.5t107 43.5q62 0 105.5 -44t43.5 -105q0 -64 -43.5 -107t-105.5 -43q-64 0 -107 42.5t-43 107.5z" />
    <glyph glyph-name="dotlessi" unicode="&#x131;" horiz-adv-x="477" 
d="M139 0v1458h199v-1458h-199z" />
    <glyph glyph-name="Jcircumflex" unicode="&#x134;" horiz-adv-x="1116" 
d="M29 68l114 159q99 -77 232 -77q171 0 290 113.5t119 277.5v917h199v-919q0 -163 -81 -298.5t-220.5 -212.5t-306.5 -77q-194 0 -346 117zM614 1534l-118 154l387 299l389 -299l-117 -154l-272 217z" />
    <glyph glyph-name="jcircumflex" unicode="&#x135;" horiz-adv-x="1116" 
d="M29 68l114 159q99 -77 232 -77q171 0 290 113.5t119 277.5v917h199v-919q0 -163 -81 -298.5t-220.5 -212.5t-306.5 -77q-194 0 -346 117zM614 1534l-118 154l387 299l389 -299l-117 -154l-272 217z" />
    <glyph glyph-name="Kcommaaccent" unicode="&#x136;" horiz-adv-x="1533" 
d="M139 0v1458h199v-1001l881 1001h264l-639 -727l639 -731h-269l-505 578l-371 -424v-154h-199zM750 -109q72 0 110.5 -54t38.5 -136q0 -98 -55.5 -169t-161.5 -138l-86 131q96 58 123 94q-47 0 -82 35t-35 88q0 58 41.5 103.5t106.5 45.5z" />
    <glyph glyph-name="kcommaaccent" unicode="&#x137;" horiz-adv-x="1533" 
d="M139 0v1458h199v-1001l881 1001h264l-639 -727l639 -731h-269l-505 578l-371 -424v-154h-199zM750 -109q72 0 110.5 -54t38.5 -136q0 -98 -55.5 -169t-161.5 -138l-86 131q96 58 123 94q-47 0 -82 35t-35 88q0 58 41.5 103.5t106.5 45.5z" />
    <glyph glyph-name="Lacute" unicode="&#x139;" horiz-adv-x="1325" 
d="M139 0v1458h199v-1259h905v-199h-1104zM195 1534l-115 133l350 322l133 -154z" />
    <glyph glyph-name="lacute" unicode="&#x13a;" horiz-adv-x="1325" 
d="M139 0v1458h199v-1259h905v-199h-1104zM195 1534l-115 133l350 322l133 -154z" />
    <glyph glyph-name="Lcommaaccent" unicode="&#x13b;" horiz-adv-x="1325" 
d="M139 0v1458h199v-1259h905v-199h-1104zM680 -109q72 0 110.5 -54t38.5 -136q0 -98 -55.5 -169t-161.5 -138l-86 131q96 58 123 94q-47 0 -82 35t-35 88q0 58 41.5 103.5t106.5 45.5z" />
    <glyph glyph-name="lcommaaccent" unicode="&#x13c;" horiz-adv-x="1325" 
d="M139 0v1458h199v-1259h905v-199h-1104zM680 -109q72 0 110.5 -54t38.5 -136q0 -98 -55.5 -169t-161.5 -138l-86 131q96 58 123 94q-47 0 -82 35t-35 88q0 58 41.5 103.5t106.5 45.5z" />
    <glyph glyph-name="Lcaron" unicode="&#x13d;" horiz-adv-x="1325" 
d="M653 1507q71 0 109.5 -53t38.5 -135q0 -102 -58 -174.5t-172 -143.5l-84 134q110 68 134 102q-46 0 -81.5 35t-35.5 86q0 60 41.5 104.5t107.5 44.5zM139 0v1458h199v-1259h905v-199h-1104z" />
    <glyph glyph-name="lcaron" unicode="&#x13e;" horiz-adv-x="1325" 
d="M653 1507q71 0 109.5 -53t38.5 -135q0 -102 -58 -174.5t-172 -143.5l-84 134q110 68 134 102q-46 0 -81.5 35t-35.5 86q0 60 41.5 104.5t107.5 44.5zM139 0v1458h199v-1259h905v-199h-1104z" />
    <glyph glyph-name="Ldot" unicode="&#x13f;" horiz-adv-x="1325" 
d="M553 563q0 62 42.5 106t106.5 44q62 0 106 -44.5t44 -105.5q0 -64 -44 -106.5t-106 -42.5q-64 0 -106.5 42t-42.5 107zM139 0v1458h199v-1259h905v-199h-1104z" />
    <glyph glyph-name="ldot" unicode="&#x140;" horiz-adv-x="1325" 
d="M553 563q0 62 42.5 106t106.5 44q62 0 106 -44.5t44 -105.5q0 -64 -44 -106.5t-106 -42.5q-64 0 -106.5 42t-42.5 107zM139 0v1458h199v-1259h905v-199h-1104z" />
    <glyph glyph-name="Lslash" unicode="&#x141;" horiz-adv-x="1333" 
d="M84 367l-66 182l129 45v864h199v-796l281 98l61 -182l-342 -119v-260h905v-199h-1104v389z" />
    <glyph glyph-name="lslash" unicode="&#x142;" horiz-adv-x="1333" 
d="M84 367l-66 182l129 45v864h199v-796l281 98l61 -182l-342 -119v-260h905v-199h-1104v389z" />
    <glyph glyph-name="Nacute" unicode="&#x143;" horiz-adv-x="1564" 
d="M139 0v1458h256l832 -1194v1194h198v-1458h-256l-831 1194v-1194h-199zM756 1534l-115 133l350 322l133 -154z" />
    <glyph glyph-name="nacute" unicode="&#x144;" horiz-adv-x="1564" 
d="M139 0v1458h256l832 -1194v1194h198v-1458h-256l-831 1194v-1194h-199zM756 1534l-115 133l350 322l133 -154z" />
    <glyph glyph-name="Ncommaaccent" unicode="&#x145;" horiz-adv-x="1564" 
d="M139 0v1458h256l832 -1194v1194h198v-1458h-256l-831 1194v-1194h-199zM750 -109q72 0 110.5 -54t38.5 -136q0 -98 -55.5 -169t-161.5 -138l-86 131q96 58 123 94q-47 0 -82 35t-35 88q0 58 41.5 103.5t106.5 45.5z" />
    <glyph glyph-name="ncommaaccent" unicode="&#x146;" horiz-adv-x="1564" 
d="M139 0v1458h256l832 -1194v1194h198v-1458h-256l-831 1194v-1194h-199zM750 -109q72 0 110.5 -54t38.5 -136q0 -98 -55.5 -169t-161.5 -138l-86 131q96 58 123 94q-47 0 -82 35t-35 88q0 58 41.5 103.5t106.5 45.5z" />
    <glyph glyph-name="Ncaron" unicode="&#x147;" horiz-adv-x="1564" 
d="M139 0v1458h256l832 -1194v1194h198v-1458h-256l-831 1194v-1194h-199zM797 1538l-387 299l118 154l269 -217l272 217l117 -154z" />
    <glyph glyph-name="ncaron" unicode="&#x148;" horiz-adv-x="1564" 
d="M139 0v1458h256l832 -1194v1194h198v-1458h-256l-831 1194v-1194h-199zM797 1538l-387 299l118 154l269 -217l272 217l117 -154z" />
    <glyph glyph-name="Eng" unicode="&#x14a;" horiz-adv-x="1564" 
d="M139 0v1458h256l832 -1194v1194h198v-1214q0 -163 -81 -298.5t-220.5 -212.5t-306.5 -77q-194 0 -346 117l115 159q99 -77 231 -77q102 0 192.5 47.5t147.5 124.5l-819 1167v-1194h-199z" />
    <glyph glyph-name="eng" unicode="&#x14b;" horiz-adv-x="1564" 
d="M139 0v1458h256l832 -1194v1194h198v-1214q0 -163 -81 -298.5t-220.5 -212.5t-306.5 -77q-194 0 -346 117l115 159q99 -77 231 -77q102 0 192.5 47.5t147.5 124.5l-819 1167v-1194h-199z" />
    <glyph glyph-name="Omacron" unicode="&#x14c;" 
d="M74 731q0 157 61.5 300.5t165.5 247.5t247.5 166t301.5 62q159 0 303.5 -62t249 -166t166 -247.5t61.5 -300.5q0 -159 -61.5 -303.5t-166 -249t-249 -166t-303.5 -61.5q-158 0 -301.5 61.5t-247.5 166t-165.5 249t-61.5 303.5zM1432 731q0 156 -77.5 289t-212 211
t-292.5 78q-156 0 -289 -78t-211 -211t-78 -289q0 -158 78 -292t211 -211.5t289 -77.5q158 0 292 77.5t212 211.5t78 292zM518 1606v192h666v-192h-666z" />
    <glyph glyph-name="omacron" unicode="&#x14d;" 
d="M74 731q0 157 61.5 300.5t165.5 247.5t247.5 166t301.5 62q159 0 303.5 -62t249 -166t166 -247.5t61.5 -300.5q0 -159 -61.5 -303.5t-166 -249t-249 -166t-303.5 -61.5q-158 0 -301.5 61.5t-247.5 166t-165.5 249t-61.5 303.5zM1432 731q0 156 -77.5 289t-212 211
t-292.5 78q-156 0 -289 -78t-211 -211t-78 -289q0 -158 78 -292t211 -211.5t289 -77.5q158 0 292 77.5t212 211.5t78 292zM518 1606v192h666v-192h-666z" />
    <glyph glyph-name="Obreve" unicode="&#x14e;" 
d="M74 731q0 157 61.5 300.5t165.5 247.5t247.5 166t301.5 62q159 0 303.5 -62t249 -166t166 -247.5t61.5 -300.5q0 -159 -61.5 -303.5t-166 -249t-249 -166t-303.5 -61.5q-158 0 -301.5 61.5t-247.5 166t-165.5 249t-61.5 303.5zM1432 731q0 156 -77.5 289t-212 211
t-292.5 78q-156 0 -289 -78t-211 -211t-78 -289q0 -158 78 -292t211 -211.5t289 -77.5q158 0 292 77.5t212 211.5t78 292zM434 1862l166 102q15 -23 36.5 -51t57.5 -68.5t78.5 -67t79.5 -26.5t80 27t78 66t58.5 69.5t35.5 50.5l166 -102q-72 -119 -185.5 -210t-232.5 -91
t-232.5 91t-185.5 210z" />
    <glyph glyph-name="obreve" unicode="&#x14f;" 
d="M74 731q0 157 61.5 300.5t165.5 247.5t247.5 166t301.5 62q159 0 303.5 -62t249 -166t166 -247.5t61.5 -300.5q0 -159 -61.5 -303.5t-166 -249t-249 -166t-303.5 -61.5q-158 0 -301.5 61.5t-247.5 166t-165.5 249t-61.5 303.5zM1432 731q0 156 -77.5 289t-212 211
t-292.5 78q-156 0 -289 -78t-211 -211t-78 -289q0 -158 78 -292t211 -211.5t289 -77.5q158 0 292 77.5t212 211.5t78 292zM432 1862l166 102q15 -23 36.5 -51t57.5 -68.5t78.5 -67t79.5 -26.5t80 27t78 66t58.5 69.5t35.5 50.5l166 -102q-72 -119 -185.5 -210t-232.5 -91
t-232.5 91t-185.5 210z" />
    <glyph glyph-name="Ohungarumlaut" unicode="&#x150;" 
d="M74 731q0 157 61.5 300.5t165.5 247.5t247.5 166t301.5 62q159 0 303.5 -62t249 -166t166 -247.5t61.5 -300.5q0 -159 -61.5 -303.5t-166 -249t-249 -166t-303.5 -61.5q-158 0 -301.5 61.5t-247.5 166t-165.5 249t-61.5 303.5zM1432 731q0 156 -77.5 289t-212 211
t-292.5 78q-156 0 -289 -78t-211 -211t-78 -289q0 -158 78 -292t211 -211.5t289 -77.5q158 0 292 77.5t212 211.5t78 292zM557 1634l270 394l162 -119l-293 -375zM905 1634l269 394l161 -119l-291 -375z" />
    <glyph glyph-name="ohungarumlaut" unicode="&#x151;" 
d="M74 731q0 157 61.5 300.5t165.5 247.5t247.5 166t301.5 62q159 0 303.5 -62t249 -166t166 -247.5t61.5 -300.5q0 -159 -61.5 -303.5t-166 -249t-249 -166t-303.5 -61.5q-158 0 -301.5 61.5t-247.5 166t-165.5 249t-61.5 303.5zM1432 731q0 156 -77.5 289t-212 211
t-292.5 78q-156 0 -289 -78t-211 -211t-78 -289q0 -158 78 -292t211 -211.5t289 -77.5q158 0 292 77.5t212 211.5t78 292zM557 1634l270 394l162 -119l-293 -375zM905 1634l269 394l161 -119l-291 -375z" />
    <glyph glyph-name="OE" unicode="&#x152;" horiz-adv-x="2310" 
d="M1311 199h897v-199h-1084q-128 -49 -274 -49q-158 0 -301.5 61.5t-247.5 166t-165.5 249t-61.5 303.5q0 157 61.5 300.5t165.5 247.5t247.5 166t301.5 62q138 0 274 -49h1084v-201h-897v-426h653v-198h-653v-434zM1110 211v1036q-124 62 -260 62q-156 0 -289 -78
t-211 -211t-78 -289q0 -158 78 -292t211 -211.5t289 -77.5q138 0 260 61z" />
    <glyph glyph-name="oe" unicode="&#x153;" horiz-adv-x="2310" 
d="M1311 199h897v-199h-1084q-128 -49 -274 -49q-158 0 -301.5 61.5t-247.5 166t-165.5 249t-61.5 303.5q0 157 61.5 300.5t165.5 247.5t247.5 166t301.5 62q138 0 274 -49h1084v-201h-897v-426h653v-198h-653v-434zM1110 211v1036q-124 62 -260 62q-156 0 -289 -78
t-211 -211t-78 -289q0 -158 78 -292t211 -211.5t289 -77.5q138 0 260 61z" />
    <glyph glyph-name="Racute" unicode="&#x154;" horiz-adv-x="1429" 
d="M338 582h434q148 0 254.5 100t106.5 242q-2 141 -107.5 241.5t-253.5 100.5h-434v-684zM139 0v1458h633q151 0 280 -71.5t204 -194.5t75 -268q0 -153 -85.5 -281.5t-223.5 -196.5l309 -446h-246l-270 393q-10 -2 -35 -2h-442v-391h-199zM690 1534l-115 133l351 322
l133 -154z" />
    <glyph glyph-name="racute" unicode="&#x155;" horiz-adv-x="1429" 
d="M338 582h434q148 0 254.5 100t106.5 242q-2 141 -107.5 241.5t-253.5 100.5h-434v-684zM139 0v1458h633q151 0 280 -71.5t204 -194.5t75 -268q0 -153 -85.5 -281.5t-223.5 -196.5l309 -446h-246l-270 393q-10 -2 -35 -2h-442v-391h-199zM690 1534l-115 133l351 322
l133 -154z" />
    <glyph glyph-name="Rcommaaccent" unicode="&#x156;" horiz-adv-x="1429" 
d="M338 582h434q148 0 254.5 100t106.5 242q-2 141 -107.5 241.5t-253.5 100.5h-434v-684zM139 0v1458h633q151 0 280 -71.5t204 -194.5t75 -268q0 -153 -85.5 -281.5t-223.5 -196.5l309 -446h-246l-270 393q-10 -2 -35 -2h-442v-391h-199zM680 -109q72 0 110.5 -54
t38.5 -136q0 -98 -55.5 -169t-161.5 -138l-86 131q96 58 123 94q-47 0 -82 35t-35 88q0 58 41.5 103.5t106.5 45.5z" />
    <glyph glyph-name="rcommaaccent" unicode="&#x157;" horiz-adv-x="1429" 
d="M338 582h434q148 0 254.5 100t106.5 242q-2 141 -107.5 241.5t-253.5 100.5h-434v-684zM139 0v1458h633q151 0 280 -71.5t204 -194.5t75 -268q0 -153 -85.5 -281.5t-223.5 -196.5l309 -446h-246l-270 393q-10 -2 -35 -2h-442v-391h-199zM680 -109q72 0 110.5 -54
t38.5 -136q0 -98 -55.5 -169t-161.5 -138l-86 131q96 58 123 94q-47 0 -82 35t-35 88q0 58 41.5 103.5t106.5 45.5z" />
    <glyph glyph-name="Rcaron" unicode="&#x158;" horiz-adv-x="1429" 
d="M338 582h434q148 0 254.5 100t106.5 242q-2 141 -107.5 241.5t-253.5 100.5h-434v-684zM139 0v1458h633q151 0 280 -71.5t204 -194.5t75 -268q0 -153 -85.5 -281.5t-223.5 -196.5l309 -446h-246l-270 393q-10 -2 -35 -2h-442v-391h-199zM725 1538l-387 299l119 154
l268 -217l272 217l117 -154z" />
    <glyph glyph-name="rcaron" unicode="&#x159;" horiz-adv-x="1429" 
d="M338 582h434q148 0 254.5 100t106.5 242q-2 141 -107.5 241.5t-253.5 100.5h-434v-684zM139 0v1458h633q151 0 280 -71.5t204 -194.5t75 -268q0 -153 -85.5 -281.5t-223.5 -196.5l309 -446h-246l-270 393q-10 -2 -35 -2h-442v-391h-199zM725 1538l-387 299l119 154
l268 -217l272 217l117 -154z" />
    <glyph glyph-name="Sacute" unicode="&#x15a;" horiz-adv-x="1402" 
d="M182 360l-116 -176q352 -233 665 -233q265 0 426.5 122.5t161.5 297.5q0 78 -29.5 143t-79.5 110t-117 83t-142 63t-154.5 49.5t-154.5 42.5t-142 41.5t-117 48t-79.5 60t-29.5 78.5q0 88 94 153.5t253 65.5q120 0 258.5 -46t275.5 -133l111 170q-323 207 -627 207
q-151 0 -278 -49.5t-206 -147.5t-79 -227q0 -82 35.5 -147.5t96 -110t139 -80t165 -61t173 -48.5t165 -48t139 -54t96 -71t35.5 -96q0 -81 -105 -147t-276 -66q-256 0 -557 206zM618 1534l-114 133l350 322l133 -154z" />
    <glyph glyph-name="sacute" unicode="&#x15b;" horiz-adv-x="1402" 
d="M182 360l-116 -176q352 -233 665 -233q265 0 426.5 122.5t161.5 297.5q0 78 -29.5 143t-79.5 110t-117 83t-142 63t-154.5 49.5t-154.5 42.5t-142 41.5t-117 48t-79.5 60t-29.5 78.5q0 88 94 153.5t253 65.5q120 0 258.5 -46t275.5 -133l111 170q-323 207 -627 207
q-151 0 -278 -49.5t-206 -147.5t-79 -227q0 -82 35.5 -147.5t96 -110t139 -80t165 -61t173 -48.5t165 -48t139 -54t96 -71t35.5 -96q0 -81 -105 -147t-276 -66q-256 0 -557 206zM618 1534l-114 133l350 322l133 -154z" />
    <glyph glyph-name="Scircumflex" unicode="&#x15c;" horiz-adv-x="1402" 
d="M182 360l-116 -176q352 -233 665 -233q265 0 426.5 122.5t161.5 297.5q0 78 -29.5 143t-79.5 110t-117 83t-142 63t-154.5 49.5t-154.5 42.5t-142 41.5t-117 48t-79.5 60t-29.5 78.5q0 88 94 153.5t253 65.5q120 0 258.5 -46t275.5 -133l111 170q-323 207 -627 207
q-151 0 -278 -49.5t-206 -147.5t-79 -227q0 -82 35.5 -147.5t96 -110t139 -80t165 -61t173 -48.5t165 -48t139 -54t96 -71t35.5 -96q0 -81 -105 -147t-276 -66q-256 0 -557 206zM391 1534l-119 154l387 299l390 -299l-117 -154l-273 217z" />
    <glyph glyph-name="scircumflex" unicode="&#x15d;" horiz-adv-x="1402" 
d="M182 360l-116 -176q352 -233 665 -233q265 0 426.5 122.5t161.5 297.5q0 78 -29.5 143t-79.5 110t-117 83t-142 63t-154.5 49.5t-154.5 42.5t-142 41.5t-117 48t-79.5 60t-29.5 78.5q0 88 94 153.5t253 65.5q120 0 258.5 -46t275.5 -133l111 170q-323 207 -627 207
q-151 0 -278 -49.5t-206 -147.5t-79 -227q0 -82 35.5 -147.5t96 -110t139 -80t165 -61t173 -48.5t165 -48t139 -54t96 -71t35.5 -96q0 -81 -105 -147t-276 -66q-256 0 -557 206zM391 1534l-119 154l387 299l390 -299l-117 -154l-273 217z" />
    <glyph glyph-name="Scedilla" unicode="&#x15e;" horiz-adv-x="1402" 
d="M66 184l116 176q301 -206 557 -206q171 0 276 66t105 147q0 54 -35.5 96t-96 71t-139 54t-165 48t-173 48.5t-165 61t-139 80t-96 110t-35.5 147.5q0 129 79 227t206 147.5t278 49.5q304 0 627 -207l-111 -170q-137 87 -275.5 133t-258.5 46q-159 0 -253 -65.5
t-94 -153.5q0 -43 29.5 -78.5t79.5 -60t117 -48t142 -41.5t154.5 -42.5t154.5 -49.5t142 -63t117 -83t79.5 -110t29.5 -143q0 -175 -161.5 -297.5t-426.5 -122.5q-313 0 -665 233zM420 -506l63 144q100 -44 189 -44q91 0 141.5 24t50.5 54t-45.5 49t-107.5 19
q-64 0 -125 -25l-56 138q79 36 185 36q131 0 219 -57.5t88 -155.5q0 -97 -93.5 -168t-256.5 -71q-126 0 -252 57z" />
    <glyph glyph-name="scedilla" unicode="&#x15f;" horiz-adv-x="1402" 
d="M66 184l116 176q301 -206 557 -206q171 0 276 66t105 147q0 54 -35.5 96t-96 71t-139 54t-165 48t-173 48.5t-165 61t-139 80t-96 110t-35.5 147.5q0 129 79 227t206 147.5t278 49.5q304 0 627 -207l-111 -170q-137 87 -275.5 133t-258.5 46q-159 0 -253 -65.5
t-94 -153.5q0 -43 29.5 -78.5t79.5 -60t117 -48t142 -41.5t154.5 -42.5t154.5 -49.5t142 -63t117 -83t79.5 -110t29.5 -143q0 -175 -161.5 -297.5t-426.5 -122.5q-313 0 -665 233zM420 -506l63 144q100 -44 189 -44q91 0 141.5 24t50.5 54t-45.5 49t-107.5 19
q-64 0 -125 -25l-56 138q79 36 185 36q131 0 219 -57.5t88 -155.5q0 -97 -93.5 -168t-256.5 -71q-126 0 -252 57z" />
    <glyph glyph-name="Scaron" unicode="&#x160;" horiz-adv-x="1402" 
d="M66 184l116 176q301 -206 557 -206q171 0 276 66t105 147q0 54 -35.5 96t-96 71t-139 54t-165 48t-173 48.5t-165 61t-139 80t-96 110t-35.5 147.5q0 129 79 227t206 147.5t278 49.5q304 0 627 -207l-111 -170q-137 87 -275.5 133t-258.5 46q-159 0 -253 -65.5
t-94 -153.5q0 -43 29.5 -78.5t79.5 -60t117 -48t142 -41.5t154.5 -42.5t154.5 -49.5t142 -63t117 -83t79.5 -110t29.5 -143q0 -175 -161.5 -297.5t-426.5 -122.5q-313 0 -665 233zM659 1538l-387 299l119 154l268 -217l273 217l117 -154z" />
    <glyph glyph-name="scaron" unicode="&#x161;" horiz-adv-x="1402" 
d="M66 184l116 176q301 -206 557 -206q171 0 276 66t105 147q0 54 -35.5 96t-96 71t-139 54t-165 48t-173 48.5t-165 61t-139 80t-96 110t-35.5 147.5q0 129 79 227t206 147.5t278 49.5q304 0 627 -207l-111 -170q-137 87 -275.5 133t-258.5 46q-159 0 -253 -65.5
t-94 -153.5q0 -43 29.5 -78.5t79.5 -60t117 -48t142 -41.5t154.5 -42.5t154.5 -49.5t142 -63t117 -83t79.5 -110t29.5 -143q0 -175 -161.5 -297.5t-426.5 -122.5q-313 0 -665 233zM659 1538l-387 299l119 154l268 -217l273 217l117 -154z" />
    <glyph glyph-name="Tcommaaccent" unicode="&#x162;" horiz-adv-x="1394" 
d="M596 0v1257h-535v201h1272v-201h-538v-1257h-199zM403 -506l64 144q100 -44 188 -44q91 0 142 24t51 54t-46 49t-108 19q-64 0 -125 -25l-55 138q79 36 184 36q131 0 219.5 -57.5t88.5 -155.5q0 -97 -94 -168t-257 -71q-126 0 -252 57z" />
    <glyph glyph-name="tcommaaccent" unicode="&#x163;" horiz-adv-x="1394" 
d="M596 0v1257h-535v201h1272v-201h-538v-1257h-199zM403 -506l64 144q100 -44 188 -44q91 0 142 24t51 54t-46 49t-108 19q-64 0 -125 -25l-55 138q79 36 184 36q131 0 219.5 -57.5t88.5 -155.5q0 -97 -94 -168t-257 -71q-126 0 -252 57z" />
    <glyph glyph-name="Tcaron" unicode="&#x164;" horiz-adv-x="1394" 
d="M596 0v1257h-535v201h1272v-201h-538v-1257h-199zM694 1538l-387 299l119 154l268 -217l273 217l116 -154z" />
    <glyph glyph-name="tcaron" unicode="&#x165;" horiz-adv-x="1394" 
d="M596 0v1257h-535v201h1272v-201h-538v-1257h-199zM694 1538l-387 299l119 154l268 -217l273 217l116 -154z" />
    <glyph glyph-name="Tbar" unicode="&#x166;" horiz-adv-x="1394" 
d="M336 750v192h260v315h-535v201h1272v-201h-538v-315h264v-192h-264v-750h-199v750h-260z" />
    <glyph glyph-name="tbar" unicode="&#x167;" horiz-adv-x="1394" 
d="M336 750v192h260v315h-535v201h1272v-201h-538v-315h264v-192h-264v-750h-199v750h-260z" />
    <glyph glyph-name="Utilde" unicode="&#x168;" horiz-adv-x="1515" 
d="M330 1458v-858q0 -186 125 -318t303 -132t303 132t125 318v858h198v-858q0 -133 -50 -253t-134 -207t-199.5 -138t-242.5 -51q-169 0 -313.5 86.5t-229 236t-84.5 326.5v858h199zM475 1573l-164 106q67 101 138 158t165 57q52 0 100.5 -21t78 -45.5t62 -45.5t54.5 -21
q8 0 16.5 2.5t17.5 9t16.5 12t16.5 17t14.5 17.5t15 19.5t12.5 18t12 18.5t10 15l166 -108q-69 -101 -137.5 -157t-161.5 -56q-52 0 -100.5 21t-78 45.5t-62 45.5t-56.5 21q-18 0 -37 -12t-40.5 -38.5t-29.5 -38t-28 -40.5z" />
    <glyph glyph-name="utilde" unicode="&#x169;" horiz-adv-x="1515" 
d="M330 1458v-858q0 -186 125 -318t303 -132t303 132t125 318v858h198v-858q0 -133 -50 -253t-134 -207t-199.5 -138t-242.5 -51q-169 0 -313.5 86.5t-229 236t-84.5 326.5v858h199zM475 1573l-164 106q67 101 138 158t165 57q52 0 100.5 -21t78 -45.5t62 -45.5t54.5 -21
q8 0 16.5 2.5t17.5 9t16.5 12t16.5 17t14.5 17.5t15 19.5t12.5 18t12 18.5t10 15l166 -108q-69 -101 -137.5 -157t-161.5 -56q-52 0 -100.5 21t-78 45.5t-62 45.5t-56.5 21q-18 0 -37 -12t-40.5 -38.5t-29.5 -38t-28 -40.5z" />
    <glyph glyph-name="Umacron" unicode="&#x16a;" horiz-adv-x="1515" 
d="M330 1458v-858q0 -186 125 -318t303 -132t303 132t125 318v858h198v-858q0 -133 -50 -253t-134 -207t-199.5 -138t-242.5 -51q-169 0 -313.5 86.5t-229 236t-84.5 326.5v858h199zM426 1606v192h666v-192h-666z" />
    <glyph glyph-name="umacron" unicode="&#x16b;" horiz-adv-x="1515" 
d="M330 1458v-858q0 -186 125 -318t303 -132t303 132t125 318v858h198v-858q0 -133 -50 -253t-134 -207t-199.5 -138t-242.5 -51q-169 0 -313.5 86.5t-229 236t-84.5 326.5v858h199zM426 1606v192h666v-192h-666z" />
    <glyph glyph-name="Ubreve" unicode="&#x16c;" horiz-adv-x="1515" 
d="M330 1458v-858q0 -186 125 -318t303 -132t303 132t125 318v858h198v-858q0 -133 -50 -253t-134 -207t-199.5 -138t-242.5 -51q-169 0 -313.5 86.5t-229 236t-84.5 326.5v858h199zM340 1862l166 102q15 -23 36.5 -51t57.5 -68.5t78.5 -67t79.5 -26.5t80 27t78 66
t58.5 69.5t35.5 50.5l166 -102q-72 -119 -185.5 -210t-232.5 -91t-232.5 91t-185.5 210z" />
    <glyph glyph-name="ubreve" unicode="&#x16d;" horiz-adv-x="1515" 
d="M330 1458v-858q0 -186 125 -318t303 -132t303 132t125 318v858h198v-858q0 -133 -50 -253t-134 -207t-199.5 -138t-242.5 -51q-169 0 -313.5 86.5t-229 236t-84.5 326.5v858h199zM340 1862l166 102q15 -23 36.5 -51t57.5 -68.5t78.5 -67t79.5 -26.5t80 27t78 66
t58.5 69.5t35.5 50.5l166 -102q-72 -119 -185.5 -210t-232.5 -91t-232.5 91t-185.5 210z" />
    <glyph glyph-name="Uring" unicode="&#x16e;" horiz-adv-x="1515" 
d="M330 1458v-858q0 -186 125 -318t303 -132t303 132t125 318v858h198v-858q0 -133 -50 -253t-134 -207t-199.5 -138t-242.5 -51q-169 0 -313.5 86.5t-229 236t-84.5 326.5v858h199zM758 1694q40 0 70 30t30 70q0 41 -30 71.5t-70 30.5q-41 0 -72 -30.5t-31 -71.5
q0 -40 31 -70t72 -30zM506 1794q0 104 74 178t178 74t177 -74t73 -178t-73 -177t-177 -73t-178 73t-74 177z" />
    <glyph glyph-name="uring" unicode="&#x16f;" horiz-adv-x="1515" 
d="M330 1458v-858q0 -186 125 -318t303 -132t303 132t125 318v858h198v-858q0 -133 -50 -253t-134 -207t-199.5 -138t-242.5 -51q-169 0 -313.5 86.5t-229 236t-84.5 326.5v858h199zM758 1694q40 0 70 30t30 70q0 41 -30 71.5t-70 30.5q-41 0 -72 -30.5t-31 -71.5
q0 -40 31 -70t72 -30zM506 1794q0 104 74 178t178 74t177 -74t73 -178t-73 -177t-177 -73t-178 73t-74 177z" />
    <glyph glyph-name="Uhungarumlaut" unicode="&#x170;" horiz-adv-x="1515" 
d="M330 1458v-858q0 -186 125 -318t303 -132t303 132t125 318v858h198v-858q0 -133 -50 -253t-134 -207t-199.5 -138t-242.5 -51q-169 0 -313.5 86.5t-229 236t-84.5 326.5v858h199zM465 1634l270 394l162 -119l-293 -375zM813 1634l268 394l162 -119l-291 -375z" />
    <glyph glyph-name="uhungarumlaut" unicode="&#x171;" horiz-adv-x="1515" 
d="M330 1458v-858q0 -186 125 -318t303 -132t303 132t125 318v858h198v-858q0 -133 -50 -253t-134 -207t-199.5 -138t-242.5 -51q-169 0 -313.5 86.5t-229 236t-84.5 326.5v858h199zM465 1634l270 394l162 -119l-293 -375zM813 1634l268 394l162 -119l-291 -375z" />
    <glyph glyph-name="Uogonek" unicode="&#x172;" horiz-adv-x="1515" 
d="M958 -156l95 -149q-140 -90 -273 -90q-124 0 -199 63.5t-75 145.5q0 85 88 159q-202 56 -332.5 230t-130.5 397v858h199v-858q0 -186 125 -318t303 -132t303 132t125 318v858h198v-858q0 -169 -77.5 -313.5t-210.5 -233t-293 -100.5q-59 -31 -88 -63t-29 -58
q0 -49 74 -49q45 0 102 18t96 43z" />
    <glyph glyph-name="uogonek" unicode="&#x173;" horiz-adv-x="1515" 
d="M958 -156l95 -149q-140 -90 -273 -90q-124 0 -199 63.5t-75 145.5q0 85 88 159q-202 56 -332.5 230t-130.5 397v858h199v-858q0 -186 125 -318t303 -132t303 132t125 318v858h198v-858q0 -169 -77.5 -313.5t-210.5 -233t-293 -100.5q-59 -31 -88 -63t-29 -58
q0 -49 74 -49q45 0 102 18t96 43z" />
    <glyph glyph-name="Wcircumflex" unicode="&#x174;" horiz-adv-x="2009" 
d="M532 0l-507 1458h208l394 -1126l274 1126h207l270 -1126l391 1126h216l-510 -1458h-218l-253 1044l-252 -1044h-220zM735 1534l-119 154l388 299l389 -299l-117 -154l-272 217z" />
    <glyph glyph-name="wcircumflex" unicode="&#x175;" horiz-adv-x="2009" 
d="M532 0l-507 1458h208l394 -1126l274 1126h207l270 -1126l391 1126h216l-510 -1458h-218l-253 1044l-252 -1044h-220zM735 1534l-119 154l388 299l389 -299l-117 -154l-272 217z" />
    <glyph glyph-name="Ycircumflex" unicode="&#x176;" horiz-adv-x="1402" 
d="M602 0v360l-577 1098h227l448 -862l453 862h225l-577 -1098v-360h-199zM432 1534l-119 154l387 299l390 -299l-117 -154l-273 217z" />
    <glyph glyph-name="ycircumflex" unicode="&#x177;" horiz-adv-x="1402" 
d="M602 0v360l-577 1098h227l448 -862l453 862h225l-577 -1098v-360h-199zM432 1534l-119 154l387 299l390 -299l-117 -154l-273 217z" />
    <glyph glyph-name="Ydieresis" unicode="&#x178;" horiz-adv-x="1402" 
d="M602 0v360l-577 1098h227l448 -862l453 862h225l-577 -1098v-360h-199zM350 1733q0 62 43 105.5t107 43.5q62 0 105.5 -44t43.5 -105q0 -64 -43.5 -107t-105.5 -43q-64 0 -107 42.5t-43 107.5zM752 1733q0 62 42.5 105.5t106.5 43.5q62 0 106 -44t44 -105q0 -64 -44 -107
t-106 -43q-64 0 -106.5 42.5t-42.5 107.5z" />
    <glyph glyph-name="Zacute" unicode="&#x179;" horiz-adv-x="1447" 
d="M127 0h1194v199h-963l963 1013v246h-1194v-201h963l-963 -1011v-246zM682 1534l-115 133l351 322l133 -154z" />
    <glyph glyph-name="zacute" unicode="&#x17a;" horiz-adv-x="1447" 
d="M127 0h1194v199h-963l963 1013v246h-1194v-201h963l-963 -1011v-246zM682 1534l-115 133l351 322l133 -154z" />
    <glyph glyph-name="Zdotaccent" unicode="&#x17b;" horiz-adv-x="1447" 
d="M127 0h1194v199h-963l963 1013v246h-1194v-201h963l-963 -1011v-246zM573 1733q0 62 43 105.5t107 43.5q61 0 105 -44t44 -105q0 -64 -43.5 -107t-105.5 -43q-65 0 -107.5 42.5t-42.5 107.5z" />
    <glyph glyph-name="zdotaccent" unicode="&#x17c;" horiz-adv-x="1447" 
d="M127 0h1194v199h-963l963 1013v246h-1194v-201h963l-963 -1011v-246zM573 1733q0 62 43 105.5t107 43.5q61 0 105 -44t44 -105q0 -64 -43.5 -107t-105.5 -43q-65 0 -107.5 42.5t-42.5 107.5z" />
    <glyph glyph-name="Zcaron" unicode="&#x17d;" horiz-adv-x="1447" 
d="M1321 0h-1194v246l963 1011h-963v201h1194v-246l-963 -1013h963v-199zM723 1538l-387 299l119 154l268 -217l272 217l117 -154z" />
    <glyph glyph-name="zcaron" unicode="&#x17e;" horiz-adv-x="1447" 
d="M1321 0h-1194v246l963 1011h-963v201h1194v-246l-963 -1013h963v-199zM723 1538l-387 299l119 154l268 -217l272 217l117 -154z" />
    <glyph glyph-name="Gcaron" unicode="&#x1e6;" horiz-adv-x="1701" 
d="M1225 631v198h401q4 -31 4 -98q0 -159 -62 -303.5t-166.5 -249t-249 -166t-302.5 -61.5t-301.5 61.5t-247.5 166t-165.5 249t-61.5 303.5q0 157 61.5 300.5t165.5 247.5t247.5 166t301.5 62q155 0 294 -57t247 -160l-138 -143q-80 76 -184 119t-219 43q-156 0 -289 -78
t-211 -211t-78 -289q0 -158 78 -292t211 -211.5t289 -77.5q214 0 375.5 138t197.5 343h-198zM850 1538l-387 299l119 154l268 -217l272 217l117 -154z" />
    <glyph glyph-name="gcaron" unicode="&#x1e7;" horiz-adv-x="1701" 
d="M1225 631v198h401q4 -31 4 -98q0 -159 -62 -303.5t-166.5 -249t-249 -166t-302.5 -61.5t-301.5 61.5t-247.5 166t-165.5 249t-61.5 303.5q0 157 61.5 300.5t165.5 247.5t247.5 166t301.5 62q155 0 294 -57t247 -160l-138 -143q-80 76 -184 119t-219 43q-156 0 -289 -78
t-211 -211t-78 -289q0 -158 78 -292t211 -211.5t289 -77.5q214 0 375.5 138t197.5 343h-198zM850 1538l-387 299l119 154l268 -217l272 217l117 -154z" />
    <glyph glyph-name="uni01EA" unicode="&#x1ea;" 
d="M1059 -156l94 -149q-140 -90 -272 -90q-124 0 -199.5 63.5t-75.5 145.5q0 85 82 153q-266 56 -440 270t-174 494q0 157 61.5 300.5t165.5 247.5t247.5 166t301.5 62q159 0 303.5 -62t249 -166t166 -247.5t61.5 -300.5q0 -153 -56.5 -292t-153.5 -242t-231 -168t-284 -76
q-60 -31 -89.5 -62.5t-29.5 -58.5q0 -49 74 -49q45 0 102.5 18t96.5 43zM1432 731q0 156 -77.5 289t-212 211t-292.5 78q-156 0 -289 -78t-211 -211t-78 -289q0 -158 78 -292t211 -211.5t289 -77.5q158 0 292 77.5t212 211.5t78 292z" />
    <glyph glyph-name="uni01EB" unicode="&#x1eb;" 
d="M1059 -156l94 -149q-140 -90 -272 -90q-124 0 -199.5 63.5t-75.5 145.5q0 85 82 153q-266 56 -440 270t-174 494q0 157 61.5 300.5t165.5 247.5t247.5 166t301.5 62q159 0 303.5 -62t249 -166t166 -247.5t61.5 -300.5q0 -153 -56.5 -292t-153.5 -242t-231 -168t-284 -76
q-60 -31 -89.5 -62.5t-29.5 -58.5q0 -49 74 -49q45 0 102.5 18t96.5 43zM1432 731q0 156 -77.5 289t-212 211t-292.5 78q-156 0 -289 -78t-211 -211t-78 -289q0 -158 78 -292t211 -211.5t289 -77.5q158 0 292 77.5t212 211.5t78 292z" />
    <glyph glyph-name="AEacute" unicode="&#x1fc;" horiz-adv-x="2203" 
d="M12 0l877 1458h1212v-201h-899v-426h656v-198h-656v-434h899v-199h-1093v217h-635l-129 -217h-232zM494 418h514v850zM1194 1534l-115 133l351 322l133 -154z" />
    <glyph glyph-name="aeacute" unicode="&#x1fd;" horiz-adv-x="2203" 
d="M12 0l877 1458h1212v-201h-899v-426h656v-198h-656v-434h899v-199h-1093v217h-635l-129 -217h-232zM494 418h514v850zM1194 1534l-115 133l351 322l133 -154z" />
    <glyph glyph-name="Oslashacute" unicode="&#x1fe;" 
d="M850 -49q-95 0 -197 26l-30 -79h-203l59 147q-185 102 -295 284.5t-110 401.5q0 209 104.5 388t283.5 283.5t388 104.5q104 0 207 -28l33 82h202l-61 -152q181 -101 290 -282.5t109 -395.5q0 -159 -61.5 -303.5t-166 -249t-249 -166t-303.5 -61.5zM274 731
q0 -161 75.5 -293t203.5 -207l428 1063q-77 15 -131 15q-155 0 -288 -78t-210.5 -211t-77.5 -289zM850 150q158 0 292 77.5t212 211.5t78 292q0 156 -74.5 286.5t-200.5 207.5l-428 -1063q59 -12 121 -12zM809 1534l-115 133l350 322l134 -154z" />
    <glyph glyph-name="oslashacute" unicode="&#x1ff;" 
d="M850 -49q-95 0 -197 26l-30 -79h-203l59 147q-185 102 -295 284.5t-110 401.5q0 209 104.5 388t283.5 283.5t388 104.5q104 0 207 -28l33 82h202l-61 -152q181 -101 290 -282.5t109 -395.5q0 -159 -61.5 -303.5t-166 -249t-249 -166t-303.5 -61.5zM274 731
q0 -161 75.5 -293t203.5 -207l428 1063q-77 15 -131 15q-155 0 -288 -78t-210.5 -211t-77.5 -289zM850 150q158 0 292 77.5t212 211.5t78 292q0 156 -74.5 286.5t-200.5 207.5l-428 -1063q59 -12 121 -12zM809 1534l-115 133l350 322l134 -154z" />
    <glyph glyph-name="Scommaaccent" unicode="&#x218;" horiz-adv-x="1402" 
d="M66 184l116 176q301 -206 557 -206q171 0 276 66t105 147q0 54 -35.5 96t-96 71t-139 54t-165 48t-173 48.5t-165 61t-139 80t-96 110t-35.5 147.5q0 129 79 227t206 147.5t278 49.5q304 0 627 -207l-111 -170q-137 87 -275.5 133t-258.5 46q-159 0 -253 -65.5
t-94 -153.5q0 -43 29.5 -78.5t79.5 -60t117 -48t142 -41.5t154.5 -42.5t154.5 -49.5t142 -63t117 -83t79.5 -110t29.5 -143q0 -175 -161.5 -297.5t-426.5 -122.5q-313 0 -665 233zM711 -109q72 0 110.5 -54t38.5 -136q0 -98 -55.5 -169t-161.5 -138l-86 131q96 58 123 94
q-47 0 -82 35t-35 88q0 58 41.5 103.5t106.5 45.5z" />
    <glyph glyph-name="scommaaccent" unicode="&#x219;" horiz-adv-x="1402" 
d="M66 184l116 176q301 -206 557 -206q171 0 276 66t105 147q0 54 -35.5 96t-96 71t-139 54t-165 48t-173 48.5t-165 61t-139 80t-96 110t-35.5 147.5q0 129 79 227t206 147.5t278 49.5q304 0 627 -207l-111 -170q-137 87 -275.5 133t-258.5 46q-159 0 -253 -65.5
t-94 -153.5q0 -43 29.5 -78.5t79.5 -60t117 -48t142 -41.5t154.5 -42.5t154.5 -49.5t142 -63t117 -83t79.5 -110t29.5 -143q0 -175 -161.5 -297.5t-426.5 -122.5q-313 0 -665 233zM711 -109q72 0 110.5 -54t38.5 -136q0 -98 -55.5 -169t-161.5 -138l-86 131q96 58 123 94
q-47 0 -82 35t-35 88q0 58 41.5 103.5t106.5 45.5z" />
    <glyph glyph-name="uni021A" unicode="&#x21a;" horiz-adv-x="1394" 
d="M596 0v1257h-535v201h1272v-201h-538v-1257h-199zM694 -109q72 0 111 -54t39 -136q0 -98 -55.5 -169t-161.5 -138l-86 131q96 58 123 94q-47 0 -82 35t-35 88q0 59 41 104t106 45z" />
    <glyph glyph-name="uni021B" unicode="&#x21b;" horiz-adv-x="1394" 
d="M596 0v1257h-535v201h1272v-201h-538v-1257h-199zM694 -109q72 0 111 -54t39 -136q0 -98 -55.5 -169t-161.5 -138l-86 131q96 58 123 94q-47 0 -82 35t-35 88q0 59 41 104t106 45z" />
    <glyph glyph-name="uni0232" unicode="&#x232;" horiz-adv-x="1402" 
d="M602 0v360l-577 1098h227l448 -862l453 862h225l-577 -1098v-360h-199zM369 1606v192h665v-192h-665z" />
    <glyph glyph-name="uni0233" unicode="&#x233;" horiz-adv-x="1402" 
d="M602 0v360l-577 1098h227l448 -862l453 862h225l-577 -1098v-360h-199zM369 1606v192h665v-192h-665z" />
    <glyph glyph-name="circumflex" unicode="&#x2c6;" horiz-adv-x="919" 
d="M190 1534l-118 154l387 299l389 -299l-117 -154l-272 217z" />
    <glyph glyph-name="caron" unicode="&#x2c7;" horiz-adv-x="919" 
d="M459 1538l-387 299l118 154l269 -217l272 217l117 -154z" />
    <glyph glyph-name="breve" unicode="&#x2d8;" horiz-adv-x="978" 
d="M72 1862l166 102q15 -23 36.5 -51t57.5 -68.5t78 -67t79 -26.5t80 27t78 66t58.5 69.5t35.5 50.5l166 -102q-72 -119 -185.5 -210t-232.5 -91t-232 91t-185 210z" />
    <glyph glyph-name="dotaccent" unicode="&#x2d9;" horiz-adv-x="442" 
d="M72 1733q0 62 42.5 105.5t106.5 43.5q62 0 106 -44t44 -105q0 -64 -44 -107t-106 -43q-64 0 -106.5 42.5t-42.5 107.5z" />
    <glyph glyph-name="ring" unicode="&#x2da;" horiz-adv-x="645" 
d="M324 1694q40 0 70 30t30 70q0 41 -30 71.5t-70 30.5q-41 0 -72 -30.5t-31 -71.5q0 -40 31 -70t72 -30zM72 1794q0 104 74 178t178 74t176.5 -73.5t72.5 -178.5q0 -104 -72.5 -177t-176.5 -73t-178 73t-74 177z" />
    <glyph glyph-name="ogonek" unicode="&#x2db;" horiz-adv-x="690" 
d="M524 -156l94 -149q-140 -90 -272 -90q-124 0 -199 63.5t-75 145.5q0 26 8 51t23 46t31.5 39.5t40 34.5t42.5 28.5t43 24.5t38 18t32 13.5t20 8.5l131 -78q-115 -40 -172 -85.5t-57 -82.5q0 -49 74 -49q45 0 102 18t96 43z" />
    <glyph glyph-name="tilde" unicode="&#x2dc;" horiz-adv-x="1038" 
d="M236 1573l-164 106q67 101 138 158t165 57q52 0 100.5 -21t78 -45.5t62 -45.5t54.5 -21q8 0 16.5 2.5t17.5 9t16.5 12t16.5 17t14.5 17.5t15 19.5t12.5 18t12 18.5t10 15l166 -108q-69 -101 -137.5 -157t-161.5 -56q-52 0 -100.5 21t-78 45.5t-62 45.5t-56.5 21
q-18 0 -37 -12t-40.5 -38.5t-29.5 -38t-28 -40.5z" />
    <glyph glyph-name="hungarumlaut" unicode="&#x2dd;" horiz-adv-x="921" 
d="M72 1634l270 394l162 -119l-293 -375zM420 1634l268 394l162 -119l-291 -375z" />
    <glyph glyph-name="tonos" unicode="&#x384;" horiz-adv-x="329" 
d="M72 1036v471h219l-72 -471h-147z" />
    <glyph glyph-name="Alphatonos" unicode="&#x386;" horiz-adv-x="1503" 
d="M25 0l628 1458h199l627 -1458h-217l-93 217h-833l-94 -217h-217zM420 418h663l-331 768zM240 1036v471h217l-72 -471h-145z" />
    <glyph glyph-name="Epsilontonos" unicode="&#x388;" horiz-adv-x="1564" 
d="M72 1036v471h217l-72 -471h-145zM352 0v1458h1108v-201h-909v-426h666v-198h-666v-434h909v-199h-1108z" />
    <glyph glyph-name="Etatonos" unicode="&#x389;" horiz-adv-x="1746" 
d="M72 1036v471h217l-72 -471h-145zM354 0v1458h199v-627h856v627h199v-1458h-199v633h-856v-633h-199z" />
    <glyph glyph-name="Iotatonos" unicode="&#x38a;" horiz-adv-x="692" 
d="M72 1036v471h217l-72 -471h-145zM352 0v1458h201v-1458h-201z" />
    <glyph glyph-name="Omicrontonos" unicode="&#x38c;" horiz-adv-x="1869" 
d="M72 1036v471h217l-72 -471h-145zM1016 -49q158 0 302.5 61.5t249 166t166.5 249t62 303.5q0 157 -62 300.5t-166.5 247.5t-249 166t-302.5 62t-301.5 -62t-247.5 -166t-165.5 -247.5t-61.5 -300.5q0 -159 61.5 -303.5t165.5 -249t247.5 -166t301.5 -61.5zM1016 150
q-156 0 -289 77.5t-211 211.5t-78 292q0 156 78 289t211 211t289 78q158 0 292 -78t211.5 -211t77.5 -289q0 -158 -77.5 -292t-211.5 -211.5t-292 -77.5z" />
    <glyph glyph-name="Upsilontonos" unicode="&#x38e;" horiz-adv-x="1695" 
d="M72 1036v471h217l-72 -471h-145zM895 0v367l-578 1091h228l448 -860l453 860h225l-577 -1106v-352h-199z" />
    <glyph glyph-name="Omegatonos" unicode="&#x38f;" horiz-adv-x="1849" 
d="M72 1036v471h217l-70 -471h-147zM248 0v199h280q-280 218 -280 553q0 206 101 379.5t274 274.5t378 101q154 0 293.5 -59.5t240.5 -160.5t160.5 -241t59.5 -294q0 -337 -278 -553h280v-199h-670v213q211 60 341.5 200.5t130.5 338.5q0 151 -75 279.5t-203.5 203
t-279.5 74.5q-112 0 -215 -44t-177.5 -119t-118.5 -178t-44 -216q0 -199 129.5 -339.5t342.5 -199.5v-213h-670z" />
    <glyph glyph-name="Alpha" unicode="&#x391;" horiz-adv-x="1503" 
d="M25 0l626 1458h201l627 -1458h-217l-93 217h-833l-94 -217h-217zM420 418h663l-331 768z" />
    <glyph glyph-name="Beta" unicode="&#x392;" horiz-adv-x="1368" 
d="M139 0v1458h684q170 0 292 -122t122 -292q0 -183 -139 -296q82 -55 130 -143t48 -191q0 -171 -121.5 -292.5t-292.5 -121.5h-723zM338 199h524q88 0 150.5 63t62.5 152q0 91 -62.5 155t-150.5 64h-524v-434zM338 831h485q88 0 150.5 62t62.5 151q0 91 -62.5 154.5
t-150.5 63.5h-485v-431z" />
    <glyph glyph-name="Gamma" unicode="&#x393;" horiz-adv-x="1263" 
d="M139 0v1458h1063v-201h-862v-1257h-201z" />
    <glyph glyph-name="uni0394" unicode="&#x394;" horiz-adv-x="1507" 
d="M299 199h909l-454 1036zM872 1458l568 -1288v-170h-1372v170l567 1288h237z" />
    <glyph glyph-name="Epsilon" unicode="&#x395;" horiz-adv-x="1351" 
d="M139 0v1458h1108v-201h-909v-426h666v-198h-666v-434h909v-199h-1108z" />
    <glyph glyph-name="Zeta" unicode="&#x396;" horiz-adv-x="1447" 
d="M1321 0h-1194v246l963 1011h-963v201h1194v-246l-963 -1013h963v-199z" />
    <glyph glyph-name="Eta" unicode="&#x397;" horiz-adv-x="1531" 
d="M139 0v1458h199v-627h856v627h199v-1458h-199v633h-856v-633h-199z" />
    <glyph glyph-name="Theta" unicode="&#x398;" 
d="M850 -49q-157 0 -300.5 61.5t-247.5 166t-166 249t-62 303.5q0 209 104.5 388t283.5 283.5t388 104.5q159 0 303.5 -62t249 -166t166 -247.5t61.5 -300.5q0 -159 -61.5 -303.5t-166 -249t-249 -166t-303.5 -61.5zM850 150q158 0 292 77.5t212 211.5t78 292
q0 156 -77.5 289t-212 211t-292.5 78q-155 0 -288 -78t-210.5 -211t-77.5 -289q0 -158 78 -292t210.5 -211.5t287.5 -77.5zM1317 627h-926v200h926v-200z" />
    <glyph glyph-name="Iota" unicode="&#x399;" horiz-adv-x="477" 
d="M139 0v1458h199v-1458h-199z" />
    <glyph glyph-name="Kappa" unicode="&#x39a;" horiz-adv-x="1449" 
d="M139 0v1458h201v-629h344l442 629h244l-514 -727l514 -731h-244l-444 631h-342v-631h-201z" />
    <glyph glyph-name="Lambda" unicode="&#x39b;" horiz-adv-x="1503" 
d="M25 0l626 1458h201l627 -1458h-226l-501 1180l-502 -1180h-225z" />
    <glyph glyph-name="Mu" unicode="&#x39c;" horiz-adv-x="1949" 
d="M139 0v1458h260l574 -1227l573 1227h264v-1458h-200v1126l-531 -1126h-213l-528 1118v-1118h-199z" />
    <glyph glyph-name="Nu" unicode="&#x39d;" horiz-adv-x="1564" 
d="M139 0v1458h256l832 -1194v1194h198v-1458h-256l-831 1194v-1194h-199z" />
    <glyph glyph-name="Xi" unicode="&#x39e;" horiz-adv-x="1312" 
d="M100 0v199h1112v-199h-1112zM100 1260v198h1112v-198h-1112zM254 633v198h803v-198h-803z" />
    <glyph glyph-name="Omicron" unicode="&#x39f;" 
d="M850 -49q-158 0 -301.5 61.5t-247.5 166t-165.5 249t-61.5 303.5q0 157 61.5 300.5t165.5 247.5t247.5 166t301.5 62q159 0 303.5 -62t249 -166t166 -247.5t61.5 -300.5q0 -159 -61.5 -303.5t-166 -249t-249 -166t-303.5 -61.5zM850 150q158 0 292 77.5t212 211.5t78 292
q0 156 -77.5 289t-212 211t-292.5 78q-156 0 -289 -78t-211 -211t-78 -289q0 -158 78 -292t211 -211.5t289 -77.5z" />
    <glyph glyph-name="Pi" unicode="&#x3a0;" horiz-adv-x="1521" 
d="M139 0v1458h1243v-1458h-198v1257h-844v-1257h-201z" />
    <glyph glyph-name="Rho" unicode="&#x3a1;" horiz-adv-x="1384" 
d="M139 0v1458h625q151 0 280 -71.5t204 -194.5t75 -268q0 -108 -44.5 -206.5t-119.5 -170t-178.5 -114t-216.5 -42.5h-426v-391h-199zM338 582h426q148 0 254 100t106 242q0 141 -106 241.5t-254 100.5h-426v-684z" />
    <glyph glyph-name="Sigma" unicode="&#x3a3;" horiz-adv-x="1388" 
d="M115 0v250l477 477l-477 485v246h1179v-201h-948l520 -530l-520 -528h948v-199h-1179z" />
    <glyph glyph-name="Tau" unicode="&#x3a4;" horiz-adv-x="1394" 
d="M795 0h-199v1257h-535v201h1272v-201h-538v-1257z" />
    <glyph glyph-name="Upsilon" unicode="&#x3a5;" horiz-adv-x="1402" 
d="M602 0v360l-577 1098h227l448 -862l453 862h225l-577 -1098v-360h-199z" />
    <glyph glyph-name="Phi" unicode="&#x3a6;" horiz-adv-x="1763" 
d="M782 0v158q-210 17 -372 106.5t-251 236.5t-89 328q0 194 102.5 349t288 242t420.5 87t421 -87t289 -242t103 -349q0 -181 -89.5 -328t-251.5 -236.5t-372 -106.5v-158h-199zM782 356v944q-106 -11 -198 -47t-163 -94t-112 -143t-41 -187q0 -104 40.5 -189t112 -142.5
t163 -93t198.5 -48.5zM981 1300v-944q105 13 196 48.5t163 93t113.5 143t41.5 188.5q0 101 -41.5 186.5t-113 143.5t-163.5 94t-196 47z" />
    <glyph glyph-name="Chi" unicode="&#x3a7;" horiz-adv-x="1488" 
d="M53 0l565 731l-561 727h252l434 -563l437 563h252l-564 -727l568 -731h-250l-443 569l-440 -569h-250z" />
    <glyph glyph-name="Psi" unicode="&#x3a8;" horiz-adv-x="1757" 
d="M778 0v172q-140 17 -263.5 83t-212.5 166t-141 232.5t-52 276.5v528h200v-528q0 -209 134 -366t335 -193v1087h201v-1087q201 36 335 193t134 366v528h201v-528q0 -192 -88.5 -358.5t-242 -272t-339.5 -127.5v-172h-201z" />
    <glyph glyph-name="uni03A9" unicode="&#x3a9;" horiz-adv-x="1695" 
d="M94 0v199h283q-283 218 -283 553q0 154 60 294t161 241t241 160.5t294 59.5t293.5 -59.5t240 -160.5t159.5 -241t59 -294q0 -339 -279 -553h283v-199h-670v213q209 60 339 200.5t130 338.5q0 113 -44 216t-118 178t-177 119t-216 44t-216 -44t-178 -119t-119 -178
t-44 -216q0 -198 130 -338.5t341 -200.5v-213h-670z" />
    <glyph glyph-name="Iotadieresis" unicode="&#x3aa;" horiz-adv-x="477" 
d="M139 0v1458h199v-1458h-199zM-111 1733q0 62 43 105.5t107 43.5q61 0 105 -44t44 -105q0 -64 -43.5 -107t-105.5 -43q-65 0 -107.5 42.5t-42.5 107.5zM291 1733q0 62 42.5 105.5t106.5 43.5q62 0 106 -44t44 -105q0 -64 -44 -107t-106 -43q-64 0 -106.5 42.5t-42.5 107.5
z" />
    <glyph glyph-name="Upsilondieresis" unicode="&#x3ab;" horiz-adv-x="1402" 
d="M602 0v360l-577 1098h227l448 -862l453 862h225l-577 -1098v-360h-199zM352 1733q0 62 43 105.5t107 43.5q62 0 105.5 -44t43.5 -105q0 -64 -43.5 -107t-105.5 -43q-64 0 -107 42.5t-43 107.5zM754 1733q0 62 42.5 105.5t106.5 43.5q62 0 106 -44t44 -105q0 -64 -44 -107
t-106 -43q-64 0 -106.5 42.5t-42.5 107.5z" />
    <glyph glyph-name="alphatonos" unicode="&#x3ac;" horiz-adv-x="1503" 
d="M25 0l628 1458h199l627 -1458h-217l-93 217h-833l-94 -217h-217zM420 418h663l-331 768zM240 1036v471h217l-72 -471h-145z" />
    <glyph glyph-name="epsilontonos" unicode="&#x3ad;" horiz-adv-x="1564" 
d="M72 1036v471h217l-72 -471h-145zM352 0v1458h1108v-201h-909v-426h666v-198h-666v-434h909v-199h-1108z" />
    <glyph glyph-name="etatonos" unicode="&#x3ae;" horiz-adv-x="1746" 
d="M72 1036v471h217l-72 -471h-145zM354 0v1458h199v-627h856v627h199v-1458h-199v633h-856v-633h-199z" />
    <glyph glyph-name="iotatonos" unicode="&#x3af;" horiz-adv-x="692" 
d="M72 1036v471h217l-72 -471h-145zM352 0v1458h201v-1458h-201z" />
    <glyph glyph-name="alpha" unicode="&#x3b1;" horiz-adv-x="1503" 
d="M25 0l626 1458h201l627 -1458h-217l-93 217h-833l-94 -217h-217zM420 418h663l-331 768z" />
    <glyph glyph-name="beta" unicode="&#x3b2;" horiz-adv-x="1368" 
d="M139 0v1458h684q170 0 292 -122t122 -292q0 -183 -139 -296q82 -55 130 -143t48 -191q0 -171 -121.5 -292.5t-292.5 -121.5h-723zM338 199h524q88 0 150.5 63t62.5 152q0 91 -62.5 155t-150.5 64h-524v-434zM338 831h485q88 0 150.5 62t62.5 151q0 91 -62.5 154.5
t-150.5 63.5h-485v-431z" />
    <glyph glyph-name="gamma" unicode="&#x3b3;" horiz-adv-x="1263" 
d="M139 0v1458h1063v-201h-862v-1257h-201z" />
    <glyph glyph-name="delta" unicode="&#x3b4;" horiz-adv-x="1507" 
d="M299 199h909l-454 1036zM872 1458l568 -1288v-170h-1372v170l567 1288h237z" />
    <glyph glyph-name="epsilon" unicode="&#x3b5;" horiz-adv-x="1351" 
d="M139 0v1458h1108v-201h-909v-426h666v-198h-666v-434h909v-199h-1108z" />
    <glyph glyph-name="zeta" unicode="&#x3b6;" horiz-adv-x="1447" 
d="M1321 0h-1194v246l963 1011h-963v201h1194v-246l-963 -1013h963v-199z" />
    <glyph glyph-name="eta" unicode="&#x3b7;" horiz-adv-x="1531" 
d="M139 0v1458h199v-627h856v627h199v-1458h-199v633h-856v-633h-199z" />
    <glyph glyph-name="theta" unicode="&#x3b8;" 
d="M850 -49q-157 0 -300.5 61.5t-247.5 166t-166 249t-62 303.5q0 209 104.5 388t283.5 283.5t388 104.5q159 0 303.5 -62t249 -166t166 -247.5t61.5 -300.5q0 -159 -61.5 -303.5t-166 -249t-249 -166t-303.5 -61.5zM850 150q158 0 292 77.5t212 211.5t78 292
q0 156 -77.5 289t-212 211t-292.5 78q-155 0 -288 -78t-210.5 -211t-77.5 -289q0 -158 78 -292t210.5 -211.5t287.5 -77.5zM1317 627h-926v200h926v-200z" />
    <glyph glyph-name="iota" unicode="&#x3b9;" horiz-adv-x="477" 
d="M139 0v1458h199v-1458h-199z" />
    <glyph glyph-name="kappa" unicode="&#x3ba;" horiz-adv-x="1449" 
d="M139 0v1458h201v-629h344l442 629h244l-514 -727l514 -731h-244l-444 631h-342v-631h-201z" />
    <glyph glyph-name="lambda" unicode="&#x3bb;" horiz-adv-x="1503" 
d="M25 0l626 1458h201l627 -1458h-226l-501 1180l-502 -1180h-225z" />
    <glyph glyph-name="uni03BC" unicode="&#x3bc;" horiz-adv-x="1949" 
d="M139 0v1458h260l574 -1227l573 1227h264v-1458h-200v1126l-531 -1126h-213l-528 1118v-1118h-199z" />
    <glyph glyph-name="nu" unicode="&#x3bd;" horiz-adv-x="1564" 
d="M139 0v1458h256l832 -1194v1194h198v-1458h-256l-831 1194v-1194h-199z" />
    <glyph glyph-name="xi" unicode="&#x3be;" horiz-adv-x="1312" 
d="M100 0v199h1112v-199h-1112zM100 1260v198h1112v-198h-1112zM254 633v198h803v-198h-803z" />
    <glyph glyph-name="omicron" unicode="&#x3bf;" 
d="M74 731q0 157 61.5 300.5t165.5 247.5t247.5 166t301.5 62q159 0 303.5 -62t249 -166t166 -247.5t61.5 -300.5q0 -159 -61.5 -303.5t-166 -249t-249 -166t-303.5 -61.5q-158 0 -301.5 61.5t-247.5 166t-165.5 249t-61.5 303.5zM1432 731q0 156 -77.5 289t-212 211
t-292.5 78q-156 0 -289 -78t-211 -211t-78 -289q0 -158 78 -292t211 -211.5t289 -77.5q158 0 292 77.5t212 211.5t78 292z" />
    <glyph glyph-name="pi" unicode="&#x3c0;" horiz-adv-x="1521" 
d="M139 0v1458h1243v-1458h-198v1257h-844v-1257h-201z" />
    <glyph glyph-name="rho" unicode="&#x3c1;" horiz-adv-x="1384" 
d="M139 0v1458h625q151 0 280 -71.5t204 -194.5t75 -268q0 -108 -44.5 -206.5t-119.5 -170t-178.5 -114t-216.5 -42.5h-426v-391h-199zM338 582h426q148 0 254 100t106 242q0 141 -106 241.5t-254 100.5h-426v-684z" />
    <glyph glyph-name="uni03C2" unicode="&#x3c2;" horiz-adv-x="1388" 
d="M115 0v250l477 477l-477 485v246h1179v-201h-948l520 -530l-520 -528h948v-199h-1179z" />
    <glyph glyph-name="sigma" unicode="&#x3c3;" horiz-adv-x="1388" 
d="M115 0v250l477 477l-477 485v246h1179v-201h-948l520 -530l-520 -528h948v-199h-1179z" />
    <glyph glyph-name="tau" unicode="&#x3c4;" horiz-adv-x="1394" 
d="M596 0v1257h-535v201h1272v-201h-538v-1257h-199z" />
    <glyph glyph-name="upsilon" unicode="&#x3c5;" horiz-adv-x="1402" 
d="M602 0v360l-577 1098h227l448 -862l453 862h225l-577 -1098v-360h-199z" />
    <glyph glyph-name="phi" unicode="&#x3c6;" horiz-adv-x="1763" 
d="M782 0v158q-210 17 -372 106.5t-251 236.5t-89 328q0 194 102.5 349t288 242t420.5 87t421 -87t289 -242t103 -349q0 -181 -89.5 -328t-251.5 -236.5t-372 -106.5v-158h-199zM782 356v944q-106 -11 -198 -47t-163 -94t-112 -143t-41 -187q0 -104 40.5 -189t112 -142.5
t163 -93t198.5 -48.5zM981 1300v-944q105 13 196 48.5t163 93t113.5 143t41.5 188.5q0 101 -41.5 186.5t-113 143.5t-163.5 94t-196 47z" />
    <glyph glyph-name="chi" unicode="&#x3c7;" horiz-adv-x="1488" 
d="M53 0l565 731l-561 727h252l434 -563l437 563h252l-564 -727l568 -731h-250l-443 569l-440 -569h-250z" />
    <glyph glyph-name="psi" unicode="&#x3c8;" horiz-adv-x="1757" 
d="M778 0v172q-140 17 -263.5 83t-212.5 166t-141 232.5t-52 276.5v528h200v-528q0 -209 134 -366t335 -193v1087h201v-1087q201 36 335 193t134 366v528h201v-528q0 -192 -88.5 -358.5t-242 -272t-339.5 -127.5v-172h-201z" />
    <glyph glyph-name="omega" unicode="&#x3c9;" horiz-adv-x="1695" 
d="M94 0v199h283q-283 218 -283 553q0 154 60 294t161 241t241 160.5t294 59.5t293.5 -59.5t240 -160.5t159.5 -241t59 -294q0 -339 -279 -553h283v-199h-670v213q209 60 339 200.5t130 338.5q0 113 -44 216t-118 178t-177 119t-216 44t-216 -44t-178 -119t-119 -178
t-44 -216q0 -198 130 -338.5t341 -200.5v-213h-670z" />
    <glyph glyph-name="iotadieresis" unicode="&#x3ca;" horiz-adv-x="477" 
d="M139 0v1458h199v-1458h-199zM-111 1733q0 62 43 105.5t107 43.5q61 0 105 -44t44 -105q0 -64 -43.5 -107t-105.5 -43q-65 0 -107.5 42.5t-42.5 107.5zM291 1733q0 62 42.5 105.5t106.5 43.5q62 0 106 -44t44 -105q0 -64 -44 -107t-106 -43q-64 0 -106.5 42.5t-42.5 107.5
z" />
    <glyph glyph-name="upsilondieresis" unicode="&#x3cb;" horiz-adv-x="1402" 
d="M602 0v360l-577 1098h227l448 -862l453 862h225l-577 -1098v-360h-199zM352 1733q0 62 43 105.5t107 43.5q62 0 105.5 -44t43.5 -105q0 -64 -43.5 -107t-105.5 -43q-64 0 -107 42.5t-43 107.5zM754 1733q0 62 42.5 105.5t106.5 43.5q62 0 106 -44t44 -105q0 -64 -44 -107
t-106 -43q-64 0 -106.5 42.5t-42.5 107.5z" />
    <glyph glyph-name="omicrontonos" unicode="&#x3cc;" horiz-adv-x="1869" 
d="M72 1036v471h217l-72 -471h-145zM1016 -49q158 0 302.5 61.5t249 166t166.5 249t62 303.5q0 157 -62 300.5t-166.5 247.5t-249 166t-302.5 62t-301.5 -62t-247.5 -166t-165.5 -247.5t-61.5 -300.5q0 -159 61.5 -303.5t165.5 -249t247.5 -166t301.5 -61.5zM1016 150
q-156 0 -289 77.5t-211 211.5t-78 292q0 156 78 289t211 211t289 78q158 0 292 -78t211.5 -211t77.5 -289q0 -158 -77.5 -292t-211.5 -211.5t-292 -77.5z" />
    <glyph glyph-name="upsilontonos" unicode="&#x3cd;" horiz-adv-x="1695" 
d="M72 1036v471h217l-72 -471h-145zM895 0v367l-578 1091h228l448 -860l453 860h225l-577 -1106v-352h-199z" />
    <glyph glyph-name="omegatonos" unicode="&#x3ce;" horiz-adv-x="1849" 
d="M72 1036v471h217l-70 -471h-147zM248 0v199h280q-280 218 -280 553q0 206 101 379.5t274 274.5t378 101q154 0 293.5 -59.5t240.5 -160.5t160.5 -241t59.5 -294q0 -337 -278 -553h280v-199h-670v213q211 60 341.5 200.5t130.5 338.5q0 151 -75 279.5t-203.5 203
t-279.5 74.5q-112 0 -215 -44t-177.5 -119t-118.5 -178t-44 -216q0 -199 129.5 -339.5t342.5 -199.5v-213h-670z" />
    <glyph glyph-name="uni0401" unicode="&#x401;" horiz-adv-x="1351" 
d="M139 0v1458h1108v-201h-909v-426h666v-198h-666v-434h909v-199h-1108zM334 1726q0 62 42.5 106t106.5 44q61 0 105.5 -44t44.5 -106q0 -64 -44 -106.5t-106 -42.5q-65 0 -107 42.5t-42 106.5zM735 1726q0 62 43 106t107 44q61 0 105 -44t44 -106q0 -64 -43.5 -106.5
t-105.5 -42.5q-65 0 -107.5 42.5t-42.5 106.5z" />
    <glyph glyph-name="uni0402" unicode="&#x402;" horiz-adv-x="1722" 
d="M578 0v1257h-517v201h1239v-201h-522v-294q138 77 309 77q132 0 241 -43t178.5 -115.5t107 -164.5t37.5 -193q0 -81 -23 -156.5t-72.5 -143.5t-120.5 -118.5t-174.5 -80t-226.5 -29.5h-92v201h92q103 0 185 28t131.5 74.5t75.5 104t26 120.5q0 137 -96 227.5t-269 90.5
q-162 0 -309 -90v-752h-200z" />
    <glyph glyph-name="uni0403" unicode="&#x403;" horiz-adv-x="1263" 
d="M139 0v1458h1063v-201h-862v-1257h-201zM629 1526l-115 133l350 321l133 -153z" />
    <glyph glyph-name="uni0404" unicode="&#x404;" horiz-adv-x="1597" 
d="M281 827h823v-200h-823q37 -204 198.5 -340.5t370.5 -136.5q168 0 306 87.5t212 233.5l178 -90q-99 -196 -284.5 -313t-411.5 -117q-157 0 -300.5 61.5t-247.5 166t-166 249t-62 303.5q0 209 104.5 388t283.5 283.5t388 104.5q227 0 414 -117t282 -311l-178 -88
q-72 144 -210.5 231t-307.5 87q-211 0 -372 -138.5t-197 -343.5z" />
    <glyph glyph-name="uni0405" unicode="&#x405;" horiz-adv-x="1402" 
d="M66 184l116 176q301 -206 557 -206q171 0 276 66t105 147q0 54 -35.5 96t-96 71t-139 54t-165 48t-173 48.5t-165 61t-139 80t-96 110t-35.5 147.5q0 129 79 227t206 147.5t278 49.5q304 0 627 -207l-111 -170q-137 87 -275.5 133t-258.5 46q-159 0 -253 -65.5
t-94 -153.5q0 -43 29.5 -78.5t79.5 -60t117 -48t142 -41.5t154.5 -42.5t154.5 -49.5t142 -63t117 -83t79.5 -110t29.5 -143q0 -175 -161.5 -297.5t-426.5 -122.5q-313 0 -665 233z" />
    <glyph glyph-name="uni0406" unicode="&#x406;" horiz-adv-x="477" 
d="M139 0v1458h199v-1458h-199z" />
    <glyph glyph-name="uni0407" unicode="&#x407;" horiz-adv-x="477" 
d="M139 0v1458h199v-1458h-199zM-111 1726q0 62 43 106t107 44q61 0 105 -44t44 -106q0 -64 -43.5 -106.5t-105.5 -42.5q-65 0 -107.5 42.5t-42.5 106.5zM291 1726q0 62 42.5 106t106.5 44q62 0 106 -44t44 -106q0 -64 -44 -106.5t-106 -42.5q-64 0 -106.5 42.5t-42.5 106.5
z" />
    <glyph glyph-name="uni0408" unicode="&#x408;" horiz-adv-x="1116" 
d="M29 68l114 159q99 -77 232 -77q171 0 290 113.5t119 277.5v917h199v-919q0 -163 -81 -298.5t-220.5 -212.5t-306.5 -77q-194 0 -346 117z" />
    <glyph glyph-name="uni0409" unicode="&#x409;" horiz-adv-x="2330" 
d="M1817 870q185 0 314.5 -123.5t129.5 -304.5q0 -184 -129.5 -313t-314.5 -129h-664v1257h-612q-2 -274 -13 -453.5t-43 -318.5q-48 -207 -150 -331.5t-278 -182.5l-65 189q123 41 193.5 128.5t105.5 241.5q23 104 34.5 260.5t13 282t1.5 385.5h1012v-588h465zM1817 199
q101 0 173 68t72 165q0 98 -72 168t-173 70h-465v-471h465z" />
    <glyph glyph-name="uni040A" unicode="&#x40a;" horiz-adv-x="2351" 
d="M139 0v1458h201v-627h834v627h198v-627h483q179 0 304 -115t125 -290q0 -177 -126 -301.5t-303 -124.5h-681v633h-834v-633h-201zM1372 199h483q94 0 161 64t67 153q0 90 -67 153.5t-161 63.5h-483v-434z" />
    <glyph glyph-name="uni040B" unicode="&#x40b;" horiz-adv-x="1720" 
d="M580 0v1257h-517v201h1240v-201h-523v-299q212 86 396 86q206 0 325 -109.5t119 -338.5v-596h-199v596q0 131 -67 191.5t-183 60.5q-146 0 -391 -103v-745h-200z" />
    <glyph glyph-name="uni040C" unicode="&#x40c;" horiz-adv-x="1449" 
d="M139 0v1458h201v-629h344l442 629h244l-514 -727l514 -731h-244l-444 631h-342v-631h-201zM692 1513l-114 134l350 321l133 -153z" />
    <glyph glyph-name="uni040E" unicode="&#x40e;" horiz-adv-x="1413" 
d="M406 0l196 375l-559 1083h223l447 -866l452 866h224l-758 -1458h-225zM307 1774l162 98q13 -21 34.5 -49.5t56.5 -67t76.5 -64.5t76.5 -26q36 0 78 26.5t76 64t56.5 68t32.5 48.5l162 -98q-71 -116 -180 -204.5t-225 -88.5q-115 0 -225.5 89t-180.5 204z" />
    <glyph glyph-name="uni040F" unicode="&#x40f;" horiz-adv-x="1523" 
d="M139 0v1458h201v-1259h844v1259h200v-1458h-524v-193h-201v193h-520z" />
    <glyph glyph-name="uni0410" unicode="&#x410;" horiz-adv-x="1503" 
d="M25 0l626 1458h201l627 -1458h-217l-93 217h-833l-94 -217h-217zM420 418h663l-331 768z" />
    <glyph glyph-name="uni0411" unicode="&#x411;" horiz-adv-x="1357" 
d="M139 0v1458h1030v-201h-829v-278h424q136 0 252.5 -64.5t185 -176t68.5 -242.5q0 -134 -68.5 -248.5t-185 -181t-252.5 -66.5h-625zM340 199h424q126 0 215.5 85.5t89.5 202.5q0 121 -89.5 207t-215.5 86h-424v-581z" />
    <glyph glyph-name="uni0412" unicode="&#x412;" horiz-adv-x="1368" 
d="M139 0v1458h684q170 0 292 -122t122 -292q0 -183 -139 -296q82 -55 130 -143t48 -191q0 -171 -121.5 -292.5t-292.5 -121.5h-723zM338 199h524q88 0 150.5 63t62.5 152q0 91 -62.5 155t-150.5 64h-524v-434zM338 831h485q88 0 150.5 62t62.5 151q0 91 -62.5 154.5
t-150.5 63.5h-485v-431z" />
    <glyph glyph-name="uni0413" unicode="&#x413;" horiz-adv-x="1263" 
d="M139 0v1458h1063v-201h-862v-1257h-201z" />
    <glyph glyph-name="uni0414" unicode="&#x414;" horiz-adv-x="1611" 
d="M57 -193v392h152q52 98 86.5 294t45.5 364t11 312v289h1020v-1259h182v-392h-198v193h-1100v-193h-199zM551 1169q0 -237 -32 -513.5t-105 -456.5h760v1058h-623v-88z" />
    <glyph glyph-name="uni0415" unicode="&#x415;" horiz-adv-x="1351" 
d="M139 0v1458h1108v-201h-909v-426h666v-198h-666v-434h909v-199h-1108z" />
    <glyph glyph-name="uni0416" unicode="&#x416;" horiz-adv-x="2318" 
d="M1729 731l514 -731h-244l-445 631h-294v-631h-201v631h-295l-447 -631h-241l512 731l-512 727h241l443 -629h299v629h201v-629h299l440 629h244z" />
    <glyph glyph-name="uni0417" unicode="&#x417;" horiz-adv-x="1370" 
d="M43 227l131 148q144 -127 275.5 -176t234.5 -49q161 0 271 76t110 194q0 37 -16 72.5t-49.5 69t-96.5 54.5t-147 21h-346v201h342q75 0 132.5 20.5t89 53t47 67.5t15.5 70q0 104 -94 182t-264 78q-219 0 -447 -168l-116 159q268 207 563 207q129 0 236.5 -38.5t177 -103
t107.5 -146.5t38 -170q0 -90 -42.5 -169.5t-121.5 -134.5q92 -56 142.5 -142.5t50.5 -182.5q0 -133 -76.5 -240.5t-210 -168t-295.5 -60.5q-58 0 -122 11t-148 38.5t-180.5 85.5t-190.5 141z" />
    <glyph glyph-name="uni0418" unicode="&#x418;" horiz-adv-x="1564" 
d="M139 0v1458h201v-1204l829 1204h256v-1458h-198v1204l-830 -1204h-258z" />
    <glyph glyph-name="uni0419" unicode="&#x419;" horiz-adv-x="1564" 
d="M139 0v1458h201v-1204l829 1204h256v-1458h-198v1204l-830 -1204h-258zM377 1774l162 98q13 -21 34.5 -49t56 -67t76 -65t76.5 -26q36 0 78.5 26.5t76 64t56.5 68t33 48.5l162 -98q-71 -116 -180.5 -204.5t-225.5 -88.5q-60 0 -122 27t-114.5 71t-94.5 93.5t-74 101.5z
" />
    <glyph glyph-name="uni041A" unicode="&#x41a;" horiz-adv-x="1449" 
d="M139 0v1458h201v-629h344l442 629h244l-514 -727l514 -731h-244l-444 631h-342v-631h-201z" />
    <glyph glyph-name="uni041B" unicode="&#x41b;" horiz-adv-x="1538" 
d="M342 1458h1057v-1458h-201v1257h-655q-2 -274 -13 -453.5t-43 -318.5q-48 -207 -150 -331.5t-278 -182.5l-65 189q123 41 193.5 128.5t105.5 241.5q23 104 34.5 260.5t13 282t1.5 385.5z" />
    <glyph glyph-name="uni041C" unicode="&#x41c;" horiz-adv-x="1949" 
d="M139 0v1458h260l574 -1227l575 1227h262v-1458h-198v1126l-531 -1126h-215l-526 1118v-1118h-201z" />
    <glyph glyph-name="uni041D" unicode="&#x41d;" horiz-adv-x="1531" 
d="M139 0v1458h199v-627h856v627h199v-1458h-199v633h-856v-633h-199z" />
    <glyph glyph-name="uni041E" unicode="&#x41e;" 
d="M850 -49q-158 0 -301.5 61.5t-247.5 166t-165.5 249t-61.5 303.5q0 157 61.5 300.5t165.5 247.5t247.5 166t301.5 62q159 0 303.5 -62t249 -166t166 -247.5t61.5 -300.5q0 -159 -61.5 -303.5t-166 -249t-249 -166t-303.5 -61.5zM850 150q158 0 292 77.5t212 211.5t78 292
q0 156 -77.5 289t-212 211t-292.5 78q-156 0 -289 -78t-211 -211t-78 -289q0 -158 78 -292t211 -211.5t289 -77.5z" />
    <glyph glyph-name="uni041F" unicode="&#x41f;" horiz-adv-x="1521" 
d="M139 0v1458h1243v-1458h-198v1257h-844v-1257h-201z" />
    <glyph glyph-name="uni0420" unicode="&#x420;" horiz-adv-x="1384" 
d="M139 0v1458h625q151 0 280 -71.5t204 -194.5t75 -268q0 -108 -44.5 -206.5t-119.5 -170t-178.5 -114t-216.5 -42.5h-426v-391h-199zM338 582h426q148 0 254 100t106 242q0 141 -106 241.5t-254 100.5h-426v-684z" />
    <glyph glyph-name="uni0421" unicode="&#x421;" horiz-adv-x="1595" 
d="M1366 471l178 -90q-97 -195 -282 -312.5t-412 -117.5q-158 0 -301.5 61.5t-247.5 166t-165.5 249t-61.5 303.5q0 157 61.5 300.5t165.5 247.5t247.5 166t301.5 62q227 0 413.5 -117.5t280.5 -310.5l-178 -88q-70 144 -208.5 231t-307.5 87q-156 0 -289 -78t-211 -211
t-78 -289q0 -158 78 -292t211 -211.5t289 -77.5q168 0 305 87.5t211 233.5z" />
    <glyph glyph-name="uni0422" unicode="&#x422;" horiz-adv-x="1394" 
d="M795 0h-199v1257h-535v201h1272v-201h-538v-1257z" />
    <glyph glyph-name="uni0423" unicode="&#x423;" horiz-adv-x="1413" 
d="M406 0l196 375l-559 1083h223l447 -866l452 866h224l-758 -1458h-225z" />
    <glyph glyph-name="uni0424" unicode="&#x424;" horiz-adv-x="1763" 
d="M782 0v158q-210 17 -372 106.5t-251 236.5t-89 328q0 194 102.5 349t288 242t420.5 87t421 -87t289 -242t103 -349q0 -181 -89.5 -328t-251.5 -236.5t-372 -106.5v-158h-199zM782 356v944q-106 -11 -198 -47t-163 -94t-112 -143t-41 -187q0 -104 40.5 -189t112 -142.5
t163 -93t198.5 -48.5zM981 1300v-944q105 13 196 48.5t163 93t113.5 143t41.5 188.5q0 101 -41.5 186.5t-113 143.5t-163.5 94t-196 47z" />
    <glyph glyph-name="uni0425" unicode="&#x425;" horiz-adv-x="1488" 
d="M53 0l565 731l-561 727h252l434 -563l437 563h252l-564 -727l568 -731h-250l-443 569l-440 -569h-250z" />
    <glyph glyph-name="uni0426" unicode="&#x426;" horiz-adv-x="1601" 
d="M139 0v1458h201v-1259h823v1259h199v-1259h182v-392h-201v193h-1204z" />
    <glyph glyph-name="uni0427" unicode="&#x427;" horiz-adv-x="1439" 
d="M1102 1458h198v-1458h-198v553q-289 -162 -539 -162q-102 0 -184.5 28t-144.5 84.5t-96 148t-34 212.5v594h199v-594q0 -276 264 -276q229 0 535 188v682z" />
    <glyph glyph-name="uni0428" unicode="&#x428;" horiz-adv-x="2189" 
d="M139 0v1458h201v-1259h655v1259h199v-1259h655v1259h201v-1458h-1911z" />
    <glyph glyph-name="uni0429" unicode="&#x429;" horiz-adv-x="2289" 
d="M139 0v1458h201v-1259h655v1259h199v-1259h657v1259h199v-1259h182v-392h-200v193h-1893z" />
    <glyph glyph-name="uni042A" unicode="&#x42a;" horiz-adv-x="1423" 
d="M238 0v1257h-185v201h383v-479h426q136 0 252.5 -65.5t185 -177.5t68.5 -244q0 -134 -68.5 -247.5t-185 -179t-252.5 -65.5h-624zM436 193h426q124 0 214.5 87t90.5 207q0 123 -90 212t-215 89h-426v-595z" />
    <glyph glyph-name="uni042B" unicode="&#x42b;" horiz-adv-x="1757" 
d="M139 0v1458h201v-479h405q137 0 252.5 -65.5t182.5 -177.5t67 -244q0 -205 -146.5 -348.5t-355.5 -143.5h-606zM340 193h405q126 0 215 87t89 207q0 123 -89 212t-215 89h-405v-595zM1419 0h199v1458h-199v-1458z" />
    <glyph glyph-name="uni042C" unicode="&#x42c;" horiz-adv-x="1325" 
d="M340 193h424q126 0 215.5 87t89.5 207q0 123 -89.5 212t-215.5 89h-424v-595zM139 0v1458h201v-479h424q136 0 252.5 -65.5t185 -177.5t68.5 -244q0 -134 -68.5 -247.5t-185 -179t-252.5 -65.5h-625z" />
    <glyph glyph-name="uni042D" unicode="&#x42d;" horiz-adv-x="1595" 
d="M51 381l178 90q73 -145 211 -233t305 -88q211 0 371.5 136.5t196.5 340.5h-819v200h823q-36 205 -198 343.5t-374 138.5q-168 0 -307 -87.5t-209 -230.5l-178 88q95 193 281.5 310.5t412.5 117.5q158 0 301.5 -62t248 -166t166 -247.5t61.5 -300.5q0 -159 -61.5 -303.5
t-166 -249t-248 -166t-301.5 -61.5q-225 0 -410.5 117.5t-283.5 312.5z" />
    <glyph glyph-name="uni042E" unicode="&#x42e;" horiz-adv-x="2080" 
d="M139 0v1458h201v-629h131q25 190 131 344.5t272.5 244t360.5 89.5q158 0 301.5 -62t246.5 -166t163.5 -247.5t60.5 -300.5q0 -159 -60.5 -303.5t-163.5 -249t-246.5 -166t-301.5 -61.5q-146 0 -279 52.5t-233.5 143t-167.5 216t-84 268.5h-131v-631h-201zM1235 150
q118 0 224 46t182.5 123.5t121.5 185t45 226.5q0 156 -76 289t-208 211t-289 78q-156 0 -286.5 -78t-205.5 -211t-75 -289q0 -159 75 -292.5t205.5 -211t286.5 -77.5z" />
    <glyph glyph-name="uni042F" unicode="&#x42f;" horiz-adv-x="1427" 
d="M657 582h433v684h-433q-148 0 -253 -100.5t-107 -241.5q0 -142 106 -242t254 -100zM1288 1458v-1458h-198v391h-441q-23 0 -31 2l-270 -393h-246l310 444q-140 68 -227 196.5t-87 283.5q0 145 75 268t204 194.5t280 71.5h631z" />
    <glyph glyph-name="uni0430" unicode="&#x430;" horiz-adv-x="1503" 
d="M25 0l626 1458h201l627 -1458h-217l-93 217h-833l-94 -217h-217zM420 418h663l-331 768z" />
    <glyph glyph-name="uni0431" unicode="&#x431;" horiz-adv-x="1357" 
d="M139 0v1458h1030v-201h-829v-278h424q136 0 252.5 -64.5t185 -176t68.5 -242.5q0 -134 -68.5 -248.5t-185 -181t-252.5 -66.5h-625zM340 199h424q126 0 215.5 85.5t89.5 202.5q0 121 -89.5 207t-215.5 86h-424v-581z" />
    <glyph glyph-name="uni0432" unicode="&#x432;" horiz-adv-x="1368" 
d="M139 0v1458h684q170 0 292 -122t122 -292q0 -183 -139 -296q82 -55 130 -143t48 -191q0 -171 -121.5 -292.5t-292.5 -121.5h-723zM338 199h524q88 0 150.5 63t62.5 152q0 91 -62.5 155t-150.5 64h-524v-434zM338 831h485q88 0 150.5 62t62.5 151q0 91 -62.5 154.5
t-150.5 63.5h-485v-431z" />
    <glyph glyph-name="uni0433" unicode="&#x433;" horiz-adv-x="1263" 
d="M139 0v1458h1063v-201h-862v-1257h-201z" />
    <glyph glyph-name="uni0434" unicode="&#x434;" horiz-adv-x="1611" 
d="M57 -193v392h152q52 98 86.5 294t45.5 364t11 312v289h1020v-1259h182v-392h-198v193h-1100v-193h-199zM551 1169q0 -237 -32 -513.5t-105 -456.5h760v1058h-623v-88z" />
    <glyph glyph-name="uni0435" unicode="&#x435;" horiz-adv-x="1351" 
d="M139 0v1458h1108v-201h-909v-426h666v-198h-666v-434h909v-199h-1108z" />
    <glyph glyph-name="uni0436" unicode="&#x436;" horiz-adv-x="2318" 
d="M1729 731l514 -731h-244l-445 631h-294v-631h-201v631h-295l-447 -631h-241l512 731l-512 727h241l443 -629h299v629h201v-629h299l440 629h244z" />
    <glyph glyph-name="uni0437" unicode="&#x437;" horiz-adv-x="1370" 
d="M43 227l131 148q144 -127 275.5 -176t234.5 -49q161 0 271 76t110 194q0 37 -16 72.5t-49.5 69t-96.5 54.5t-147 21h-346v201h342q75 0 132.5 20.5t89 53t47 67.5t15.5 70q0 104 -94 182t-264 78q-219 0 -447 -168l-116 159q268 207 563 207q129 0 236.5 -38.5t177 -103
t107.5 -146.5t38 -170q0 -90 -42.5 -169.5t-121.5 -134.5q92 -56 142.5 -142.5t50.5 -182.5q0 -133 -76.5 -240.5t-210 -168t-295.5 -60.5q-58 0 -122 11t-148 38.5t-180.5 85.5t-190.5 141z" />
    <glyph glyph-name="uni0438" unicode="&#x438;" horiz-adv-x="1564" 
d="M139 0v1458h201v-1204l829 1204h256v-1458h-198v1204l-830 -1204h-258z" />
    <glyph glyph-name="uni0439" unicode="&#x439;" horiz-adv-x="1564" 
d="M139 0v1458h201v-1204l829 1204h256v-1458h-198v1204l-830 -1204h-258zM377 1774l162 98q13 -21 34.5 -49t56 -67t76 -65t76.5 -26q36 0 78.5 26.5t76 64t56.5 68t33 48.5l162 -98q-71 -116 -180.5 -204.5t-225.5 -88.5q-60 0 -122 27t-114.5 71t-94.5 93.5t-74 101.5z
" />
    <glyph glyph-name="uni043A" unicode="&#x43a;" horiz-adv-x="1449" 
d="M139 0v1458h201v-629h344l442 629h244l-514 -727l514 -731h-244l-444 631h-342v-631h-201z" />
    <glyph glyph-name="uni043B" unicode="&#x43b;" horiz-adv-x="1538" 
d="M342 1458h1057v-1458h-201v1257h-655q-2 -274 -13 -453.5t-43 -318.5q-48 -207 -150 -331.5t-278 -182.5l-65 189q123 41 193.5 128.5t105.5 241.5q23 104 34.5 260.5t13 282t1.5 385.5z" />
    <glyph glyph-name="uni043C" unicode="&#x43c;" horiz-adv-x="1949" 
d="M139 0v1458h260l574 -1227l573 1227h264v-1458h-200v1126l-531 -1126h-213l-528 1118v-1118h-199z" />
    <glyph glyph-name="uni043D" unicode="&#x43d;" horiz-adv-x="1531" 
d="M139 0v1458h199v-627h856v627h199v-1458h-199v633h-856v-633h-199z" />
    <glyph glyph-name="uni043E" unicode="&#x43e;" 
d="M74 731q0 157 61.5 300.5t165.5 247.5t247.5 166t301.5 62q159 0 303.5 -62t249 -166t166 -247.5t61.5 -300.5q0 -159 -61.5 -303.5t-166 -249t-249 -166t-303.5 -61.5q-158 0 -301.5 61.5t-247.5 166t-165.5 249t-61.5 303.5zM1432 731q0 156 -77.5 289t-212 211
t-292.5 78q-156 0 -289 -78t-211 -211t-78 -289q0 -158 78 -292t211 -211.5t289 -77.5q158 0 292 77.5t212 211.5t78 292z" />
    <glyph glyph-name="uni043F" unicode="&#x43f;" horiz-adv-x="1521" 
d="M139 0v1458h1243v-1458h-198v1257h-844v-1257h-201z" />
    <glyph glyph-name="uni0440" unicode="&#x440;" horiz-adv-x="1384" 
d="M139 0v1458h625q151 0 280 -71.5t204 -194.5t75 -268q0 -108 -44.5 -206.5t-119.5 -170t-178.5 -114t-216.5 -42.5h-426v-391h-199zM338 582h426q148 0 254 100t106 242q0 141 -106 241.5t-254 100.5h-426v-684z" />
    <glyph glyph-name="uni0441" unicode="&#x441;" horiz-adv-x="1595" 
d="M1366 471l178 -90q-97 -195 -282 -312.5t-412 -117.5q-158 0 -301.5 61.5t-247.5 166t-165.5 249t-61.5 303.5q0 157 61.5 300.5t165.5 247.5t247.5 166t301.5 62q227 0 413.5 -117.5t280.5 -310.5l-178 -88q-70 144 -208.5 231t-307.5 87q-156 0 -289 -78t-211 -211
t-78 -289q0 -158 78 -292t211 -211.5t289 -77.5q168 0 305 87.5t211 233.5z" />
    <glyph glyph-name="uni0442" unicode="&#x442;" horiz-adv-x="1394" 
d="M596 0v1257h-535v201h1272v-201h-538v-1257h-199z" />
    <glyph glyph-name="uni0443" unicode="&#x443;" horiz-adv-x="1413" 
d="M406 0l196 375l-559 1083h223l447 -866l452 866h224l-758 -1458h-225z" />
    <glyph glyph-name="uni0444" unicode="&#x444;" horiz-adv-x="1763" 
d="M782 0v158q-210 17 -372 106.5t-251 236.5t-89 328q0 194 102.5 349t288 242t420.5 87t421 -87t289 -242t103 -349q0 -181 -89.5 -328t-251.5 -236.5t-372 -106.5v-158h-199zM782 356v944q-106 -11 -198 -47t-163 -94t-112 -143t-41 -187q0 -104 40.5 -189t112 -142.5
t163 -93t198.5 -48.5zM981 1300v-944q105 13 196 48.5t163 93t113.5 143t41.5 188.5q0 101 -41.5 186.5t-113 143.5t-163.5 94t-196 47z" />
    <glyph glyph-name="uni0445" unicode="&#x445;" horiz-adv-x="1488" 
d="M53 0l565 731l-561 727h252l434 -563l437 563h252l-564 -727l568 -731h-250l-443 569l-440 -569h-250z" />
    <glyph glyph-name="uni0446" unicode="&#x446;" horiz-adv-x="1601" 
d="M139 0v1458h201v-1259h823v1259h199v-1259h182v-392h-201v193h-1204z" />
    <glyph glyph-name="uni0447" unicode="&#x447;" horiz-adv-x="1439" 
d="M1102 1458h198v-1458h-198v553q-289 -162 -539 -162q-102 0 -184.5 28t-144.5 84.5t-96 148t-34 212.5v594h199v-594q0 -276 264 -276q229 0 535 188v682z" />
    <glyph glyph-name="uni0448" unicode="&#x448;" horiz-adv-x="2189" 
d="M139 0v1458h201v-1259h655v1259h199v-1259h655v1259h201v-1458h-1911z" />
    <glyph glyph-name="uni0449" unicode="&#x449;" horiz-adv-x="2289" 
d="M139 0v1458h201v-1259h655v1259h199v-1259h657v1259h199v-1259h182v-392h-200v193h-1893z" />
    <glyph glyph-name="uni044A" unicode="&#x44a;" horiz-adv-x="1423" 
d="M238 0v1257h-185v201h383v-479h426q136 0 252.5 -65.5t185 -177.5t68.5 -244q0 -134 -68.5 -247.5t-185 -179t-252.5 -65.5h-624zM436 193h426q124 0 214.5 87t90.5 207q0 123 -90 212t-215 89h-426v-595z" />
    <glyph glyph-name="uni044B" unicode="&#x44b;" horiz-adv-x="1757" 
d="M139 0v1458h201v-479h405q137 0 252.5 -65.5t182.5 -177.5t67 -244q0 -205 -146.5 -348.5t-355.5 -143.5h-606zM340 193h405q126 0 215 87t89 207q0 123 -89 212t-215 89h-405v-595zM1419 0h199v1458h-199v-1458z" />
    <glyph glyph-name="uni044C" unicode="&#x44c;" horiz-adv-x="1325" 
d="M340 193h424q126 0 215.5 87t89.5 207q0 123 -89.5 212t-215.5 89h-424v-595zM139 0v1458h201v-479h424q136 0 252.5 -65.5t185 -177.5t68.5 -244q0 -134 -68.5 -247.5t-185 -179t-252.5 -65.5h-625z" />
    <glyph glyph-name="uni044D" unicode="&#x44d;" horiz-adv-x="1595" 
d="M51 381l178 90q73 -145 211 -233t305 -88q211 0 371.5 136.5t196.5 340.5h-819v200h823q-36 205 -198 343.5t-374 138.5q-168 0 -307 -87.5t-209 -230.5l-178 88q95 193 281.5 310.5t412.5 117.5q158 0 301.5 -62t248 -166t166 -247.5t61.5 -300.5q0 -159 -61.5 -303.5
t-166 -249t-248 -166t-301.5 -61.5q-225 0 -410.5 117.5t-283.5 312.5z" />
    <glyph glyph-name="uni044E" unicode="&#x44e;" horiz-adv-x="2080" 
d="M139 0v1458h201v-629h131q25 190 131 344.5t272.5 244t360.5 89.5q158 0 301.5 -62t246.5 -166t163.5 -247.5t60.5 -300.5q0 -159 -60.5 -303.5t-163.5 -249t-246.5 -166t-301.5 -61.5q-146 0 -279 52.5t-233.5 143t-167.5 216t-84 268.5h-131v-631h-201zM1235 150
q118 0 224 46t182.5 123.5t121.5 185t45 226.5q0 156 -76 289t-208 211t-289 78q-156 0 -286.5 -78t-205.5 -211t-75 -289q0 -159 75 -292.5t205.5 -211t286.5 -77.5z" />
    <glyph glyph-name="uni044F" unicode="&#x44f;" horiz-adv-x="1427" 
d="M657 582h433v684h-433q-148 0 -253 -100.5t-107 -241.5q0 -142 106 -242t254 -100zM1288 1458v-1458h-198v391h-441q-23 0 -31 2l-270 -393h-246l310 444q-140 68 -227 196.5t-87 283.5q0 145 75 268t204 194.5t280 71.5h631z" />
    <glyph glyph-name="uni0451" unicode="&#x451;" horiz-adv-x="1351" 
d="M139 0v1458h1108v-201h-909v-426h666v-198h-666v-434h909v-199h-1108zM334 1726q0 62 42.5 106t106.5 44q61 0 105.5 -44t44.5 -106q0 -64 -44 -106.5t-106 -42.5q-65 0 -107 42.5t-42 106.5zM735 1726q0 62 43 106t107 44q61 0 105 -44t44 -106q0 -64 -43.5 -106.5
t-105.5 -42.5q-65 0 -107.5 42.5t-42.5 106.5z" />
    <glyph glyph-name="uni0452" unicode="&#x452;" horiz-adv-x="1722" 
d="M578 0v1257h-517v201h1239v-201h-522v-294q138 77 309 77q132 0 241 -43t178.5 -115.5t107 -164.5t37.5 -193q0 -81 -23 -156.5t-72.5 -143.5t-120.5 -118.5t-174.5 -80t-226.5 -29.5h-92v201h92q103 0 185 28t131.5 74.5t75.5 104t26 120.5q0 137 -96 227.5t-269 90.5
q-162 0 -309 -90v-752h-200z" />
    <glyph glyph-name="uni0453" unicode="&#x453;" horiz-adv-x="1263" 
d="M139 0v1458h1063v-201h-862v-1257h-201zM629 1526l-115 133l350 321l133 -153z" />
    <glyph glyph-name="uni0454" unicode="&#x454;" horiz-adv-x="1597" 
d="M281 827h823v-200h-823q37 -204 198.5 -340.5t370.5 -136.5q168 0 306 87.5t212 233.5l178 -90q-99 -196 -284.5 -313t-411.5 -117q-157 0 -300.5 61.5t-247.5 166t-166 249t-62 303.5q0 209 104.5 388t283.5 283.5t388 104.5q227 0 414 -117t282 -311l-178 -88
q-72 144 -210.5 231t-307.5 87q-211 0 -372 -138.5t-197 -343.5z" />
    <glyph glyph-name="uni0455" unicode="&#x455;" horiz-adv-x="1402" 
d="M66 184l116 176q301 -206 557 -206q171 0 276 66t105 147q0 54 -35.5 96t-96 71t-139 54t-165 48t-173 48.5t-165 61t-139 80t-96 110t-35.5 147.5q0 129 79 227t206 147.5t278 49.5q304 0 627 -207l-111 -170q-137 87 -275.5 133t-258.5 46q-159 0 -253 -65.5
t-94 -153.5q0 -43 29.5 -78.5t79.5 -60t117 -48t142 -41.5t154.5 -42.5t154.5 -49.5t142 -63t117 -83t79.5 -110t29.5 -143q0 -175 -161.5 -297.5t-426.5 -122.5q-313 0 -665 233z" />
    <glyph glyph-name="uni0456" unicode="&#x456;" horiz-adv-x="477" 
d="M139 0v1458h199v-1458h-199z" />
    <glyph glyph-name="uni0457" unicode="&#x457;" horiz-adv-x="477" 
d="M139 0v1458h199v-1458h-199zM-111 1726q0 62 43 106t107 44q61 0 105 -44t44 -106q0 -64 -43.5 -106.5t-105.5 -42.5q-65 0 -107.5 42.5t-42.5 106.5zM291 1726q0 62 42.5 106t106.5 44q62 0 106 -44t44 -106q0 -64 -44 -106.5t-106 -42.5q-64 0 -106.5 42.5t-42.5 106.5
z" />
    <glyph glyph-name="uni0458" unicode="&#x458;" horiz-adv-x="1116" 
d="M29 68l114 159q99 -77 232 -77q171 0 290 113.5t119 277.5v917h199v-919q0 -163 -81 -298.5t-220.5 -212.5t-306.5 -77q-194 0 -346 117z" />
    <glyph glyph-name="uni0459" unicode="&#x459;" horiz-adv-x="2330" 
d="M1817 870q185 0 314.5 -123.5t129.5 -304.5q0 -184 -129.5 -313t-314.5 -129h-664v1257h-612q-2 -274 -13 -453.5t-43 -318.5q-48 -207 -150 -331.5t-278 -182.5l-65 189q123 41 193.5 128.5t105.5 241.5q23 104 34.5 260.5t13 282t1.5 385.5h1012v-588h465zM1817 199
q101 0 173 68t72 165q0 98 -72 168t-173 70h-465v-471h465z" />
    <glyph glyph-name="uni045A" unicode="&#x45a;" horiz-adv-x="2351" 
d="M139 0v1458h201v-627h834v627h198v-627h483q179 0 304 -115t125 -290q0 -177 -126 -301.5t-303 -124.5h-681v633h-834v-633h-201zM1372 199h483q94 0 161 64t67 153q0 90 -67 153.5t-161 63.5h-483v-434z" />
    <glyph glyph-name="uni045B" unicode="&#x45b;" horiz-adv-x="1720" 
d="M580 0v1257h-517v201h1240v-201h-523v-299q212 86 396 86q206 0 325 -109.5t119 -338.5v-596h-199v596q0 131 -67 191.5t-183 60.5q-146 0 -391 -103v-745h-200z" />
    <glyph glyph-name="uni045C" unicode="&#x45c;" horiz-adv-x="1449" 
d="M139 0v1458h201v-629h344l442 629h244l-514 -727l514 -731h-244l-444 631h-342v-631h-201zM692 1513l-114 134l350 321l133 -153z" />
    <glyph glyph-name="uni045E" unicode="&#x45e;" horiz-adv-x="1413" 
d="M406 0l196 375l-559 1083h223l447 -866l452 866h224l-758 -1458h-225zM307 1774l162 98q13 -21 34.5 -49.5t56.5 -67t76.5 -64.5t76.5 -26q36 0 78 26.5t76 64t56.5 68t32.5 48.5l162 -98q-71 -116 -180 -204.5t-225 -88.5q-115 0 -225.5 89t-180.5 204z" />
    <glyph glyph-name="uni045F" unicode="&#x45f;" horiz-adv-x="1523" 
d="M139 0v1458h201v-1259h844v1259h200v-1458h-524v-193h-201v193h-520z" />
    <glyph glyph-name="uni0490" unicode="&#x490;" horiz-adv-x="1263" 
d="M139 0v1458h862v189h201v-390h-862v-1257h-201z" />
    <glyph glyph-name="uni0491" unicode="&#x491;" horiz-adv-x="1263" 
d="M139 0v1458h862v189h201v-390h-862v-1257h-201z" />
    <glyph glyph-name="Wgrave" unicode="&#x1e80;" horiz-adv-x="2009" 
d="M532 0l-507 1458h208l394 -1126l274 1126h207l270 -1126l391 1126h216l-510 -1458h-218l-253 1044l-252 -1044h-220zM653 1835l133 154l351 -322l-115 -133z" />
    <glyph glyph-name="wgrave" unicode="&#x1e81;" horiz-adv-x="2009" 
d="M532 0l-507 1458h208l394 -1126l274 1126h207l270 -1126l391 1126h216l-510 -1458h-218l-253 1044l-252 -1044h-220zM653 1835l133 154l351 -322l-115 -133z" />
    <glyph glyph-name="Wacute" unicode="&#x1e82;" horiz-adv-x="2009" 
d="M532 0l-507 1458h208l394 -1126l274 1126h207l270 -1126l391 1126h216l-510 -1458h-218l-253 1044l-252 -1044h-220zM963 1534l-115 133l350 322l133 -154z" />
    <glyph glyph-name="wacute" unicode="&#x1e83;" horiz-adv-x="2009" 
d="M532 0l-507 1458h208l394 -1126l274 1126h207l270 -1126l391 1126h216l-510 -1458h-218l-253 1044l-252 -1044h-220zM963 1534l-115 133l350 322l133 -154z" />
    <glyph glyph-name="Wdieresis" unicode="&#x1e84;" horiz-adv-x="2009" 
d="M532 0l-507 1458h208l394 -1126l274 1126h207l270 -1126l391 1126h216l-510 -1458h-218l-253 1044l-252 -1044h-220zM655 1733q0 62 43 105.5t107 43.5q61 0 105 -44t44 -105q0 -64 -43.5 -107t-105.5 -43q-65 0 -107.5 42.5t-42.5 107.5zM1057 1733q0 62 42.5 105.5
t106.5 43.5q62 0 106 -44t44 -105q0 -64 -44 -107t-106 -43q-64 0 -106.5 42.5t-42.5 107.5z" />
    <glyph glyph-name="wdieresis" unicode="&#x1e85;" horiz-adv-x="2009" 
d="M532 0l-507 1458h208l394 -1126l274 1126h207l270 -1126l391 1126h216l-510 -1458h-218l-253 1044l-252 -1044h-220zM655 1733q0 62 43 105.5t107 43.5q61 0 105 -44t44 -105q0 -64 -43.5 -107t-105.5 -43q-65 0 -107.5 42.5t-42.5 107.5zM1057 1733q0 62 42.5 105.5
t106.5 43.5q62 0 106 -44t44 -105q0 -64 -44 -107t-106 -43q-64 0 -106.5 42.5t-42.5 107.5z" />
    <glyph glyph-name="uni1E9E" unicode="&#x1e9e;" horiz-adv-x="1619" 
d="M109 0v573q0 187 39 342.5t106 263.5t158 183t194 110t215 35q193 0 369.5 -112.5t282.5 -319.5l-467 -219q528 -141 528 -532q0 -154 -137 -263.5t-340 -109.5q-148 0 -309 66t-316 204l133 150q238 -217 498 -217q114 0 192 52.5t78 117.5q0 74 -42 137.5t-107.5 106
t-148.5 74.5t-160.5 48.5t-149.5 22.5v188l483 244q-73 77 -172 120.5t-205 43.5q-79 0 -153 -25t-142 -82t-118.5 -140.5t-80.5 -209t-30 -279.5v-573h-198z" />
    <glyph glyph-name="Ygrave" unicode="&#x1ef2;" horiz-adv-x="1402" 
d="M602 0v360l-577 1098h227l448 -862l453 862h225l-577 -1098v-360h-199zM350 1835l133 154l351 -322l-115 -133z" />
    <glyph glyph-name="ygrave" unicode="&#x1ef3;" horiz-adv-x="1402" 
d="M602 0v360l-577 1098h227l448 -862l453 862h225l-577 -1098v-360h-199zM350 1835l133 154l351 -322l-115 -133z" />
    <glyph glyph-name="endash" unicode="&#x2013;" horiz-adv-x="1118" 
d="M106 621v198h906v-198h-906z" />
    <glyph glyph-name="emdash" unicode="&#x2014;" horiz-adv-x="1572" 
d="M106 621v198h1360v-198h-1360z" />
    <glyph glyph-name="quoteleft" unicode="&#x2018;" horiz-adv-x="473" 
d="M356 1645l72 -142q-128 -67 -158 -104q45 -3 78 -37.5t33 -83.5q0 -59 -42 -104.5t-106 -45.5q-70 0 -108.5 50t-38.5 129q0 61 19 111.5t57.5 90.5t83.5 71t110 65z" />
    <glyph glyph-name="quoteright" unicode="&#x2019;" horiz-adv-x="471" 
d="M115 1065l-72 141q126 66 158 105q-45 3 -78 37.5t-33 83.5q0 59 42 104t106 45q70 0 108.5 -49.5t38.5 -128.5q0 -61 -19 -111.5t-57.5 -90.5t-83.5 -71t-110 -65z" />
    <glyph glyph-name="quotesinglbase" unicode="&#x201a;" horiz-adv-x="473" 
d="M117 -272l-72 141q128 67 158 104q-45 3 -78 37.5t-33 83.5q0 59 42 104.5t106 45.5q70 0 108.5 -49.5t38.5 -128.5q0 -61 -19 -111.5t-57.5 -90.5t-83.5 -71t-110 -65z" />
    <glyph glyph-name="quotedblleft" unicode="&#x201c;" horiz-adv-x="800" 
d="M684 1645l72 -142q-128 -67 -158 -104q45 -3 78 -37.5t33 -83.5q0 -59 -42 -104.5t-106 -45.5q-70 0 -108.5 50t-38.5 129q0 61 19 111.5t57.5 90.5t83.5 71t110 65zM356 1645l72 -142q-128 -67 -158 -104q45 -3 76 -37.5t31 -83.5q0 -60 -40.5 -105t-103.5 -45
q-70 0 -108.5 50t-38.5 129q0 61 19 111.5t57.5 90.5t83.5 71t110 65z" />
    <glyph glyph-name="quotedblright" unicode="&#x201d;" horiz-adv-x="798" 
d="M115 1065l-72 141q126 66 158 105q-45 3 -78 37.5t-33 83.5q0 59 42 104t106 45q70 0 108.5 -49.5t38.5 -128.5q0 -61 -19 -111.5t-57.5 -90.5t-83.5 -71t-110 -65zM442 1065l-71 141q124 66 157 105q-45 3 -75.5 37.5t-30.5 83.5q0 60 40 104.5t103 44.5q70 0 109 -49.5
t39 -128.5q0 -61 -19 -111.5t-58 -91t-84 -71t-110 -64.5z" />
    <glyph glyph-name="quotedblbase" unicode="&#x201e;" horiz-adv-x="800" 
d="M117 -272l-72 141q128 67 158 104q-45 3 -78 37.5t-33 83.5q0 59 42 104.5t106 45.5q70 0 108.5 -49.5t38.5 -128.5q0 -61 -19 -111.5t-57.5 -90.5t-83.5 -71t-110 -65zM444 -272l-71 141q126 66 157 104q-45 3 -75.5 37.5t-30.5 83.5q0 60 40 105t103 45q70 0 109 -49.5
t39 -128.5q0 -61 -19 -111.5t-58 -91t-84 -71t-110 -64.5z" />
    <glyph glyph-name="dagger" unicode="&#x2020;" horiz-adv-x="1259" 
d="M530 -276v1232h-456v199h456v461h199v-461h457v-199h-457v-1232h-199z" />
    <glyph glyph-name="daggerdbl" unicode="&#x2021;" horiz-adv-x="1292" 
d="M547 -276v458h-457v201h457v573h-457v199h457v461h198v-461h457v-199h-457v-573h457v-201h-457v-458h-198z" />
    <glyph glyph-name="bullet" unicode="&#x2022;" horiz-adv-x="763" 
d="M94 731q0 119 84.5 204t202.5 85q119 0 204 -85t85 -204q0 -118 -85 -202.5t-204 -84.5t-203 84t-84 203z" />
    <glyph glyph-name="ellipsis" unicode="&#x2026;" horiz-adv-x="1339" 
d="M92 100q0 62 43.5 106t106.5 44q61 0 105 -44t44 -106q0 -64 -43.5 -106.5t-105.5 -42.5q-63 0 -106.5 42.5t-43.5 106.5zM520 100q0 62 43 106t107 44q61 0 105 -44t44 -106q0 -64 -43.5 -106.5t-105.5 -42.5q-65 0 -107.5 42.5t-42.5 106.5zM948 100q0 62 43 106
t107 44q61 0 105 -44t44 -106q0 -64 -43.5 -106.5t-105.5 -42.5q-65 0 -107.5 42.5t-42.5 106.5z" />
    <glyph glyph-name="perthousand" unicode="&#x2030;" horiz-adv-x="2871" 
d="M80 1102q0 171 118 288t291 117q172 0 291 -117.5t119 -287.5q0 -169 -119.5 -289.5t-290.5 -120.5q-172 0 -290.5 120t-118.5 290zM1090 360q0 171 118 288.5t291 117.5q171 0 290.5 -118t119.5 -288q0 -169 -120 -289t-290 -120q-172 0 -290.5 119.5t-118.5 289.5z
M465 0l842 1458h217l-838 -1458h-221zM489 877q94 0 160 65.5t66 159.5t-64.5 157.5t-161.5 63.5q-95 0 -159 -63.5t-64 -157.5t64.5 -159.5t158.5 -65.5zM1499 135q94 0 158.5 65.5t64.5 159.5t-64 158t-159 64q-96 0 -160.5 -64t-64.5 -158t65.5 -159.5t159.5 -65.5z
M2007 360q0 171 119 288.5t293 117.5q171 0 290 -118t119 -288q0 -169 -119.5 -289t-289.5 -120q-174 0 -293 119.5t-119 289.5zM2419 135q92 0 157.5 65.5t65.5 159.5t-64 158t-159 64q-96 0 -161 -64t-65 -158t66 -159.5t160 -65.5z" />
    <glyph glyph-name="guilsinglleft" unicode="&#x2039;" horiz-adv-x="608" 
d="M367 250l-318 481l318 481l159 -104l-260 -377l260 -379z" />
    <glyph glyph-name="guilsinglright" unicode="&#x203a;" horiz-adv-x="608" 
d="M82 352l260 379l-260 377l160 104l317 -481l-317 -481z" />
    <glyph glyph-name="franc" unicode="&#x20a3;" horiz-adv-x="1323" 
d="M39 285v194h100v979h1100v-201h-901v-428h651v-198h-651v-152h274v-194h-274v-285h-199v285h-100z" />
    <glyph glyph-name="Euro" unicode="&#x20ac;" horiz-adv-x="1699" 
d="M57 502v192h111v72h-111v192h140q73 241 277.5 395t463.5 154q227 0 413 -117t281 -311l-178 -88q-70 143 -209 230.5t-307 87.5q-175 0 -319 -97t-211 -254h647v-192h-690v-72h690v-192h-645q69 -158 211.5 -255t316.5 -97q167 0 305 88t211 233l178 -90
q-97 -195 -282 -312.5t-412 -117.5q-257 0 -461 154.5t-280 396.5h-140z" />
    <glyph glyph-name="uni20BD" unicode="&#x20bd;" horiz-adv-x="1357" 
d="M139 0v1458h658q136 0 252.5 -66t185 -180.5t68.5 -248.5q0 -98 -40.5 -186t-109 -150t-161.5 -98.5t-195 -36.5h-457v-117h395v-197h-395v-178h-201zM340 692h457q127 0 216 79t89 198t-89.5 203.5t-215.5 84.5h-457v-565z" />
    <glyph glyph-name="uni20BF" unicode="&#x20bf;" horiz-adv-x="1363" 
d="M127 0v1458h182v246h197v-246h209v246h196v-258q136 -34 225 -146.5t89 -255.5q0 -185 -140 -299q82 -56 130.5 -142t48.5 -189q0 -156 -101.5 -272t-251.5 -138v-246h-196v242h-209v-242h-197v242h-182zM328 199h522q89 0 152 63t63 152q0 91 -63 154t-152 63h-522v-432
zM328 829h483q89 0 152 63t63 152q0 91 -63 154.5t-152 63.5h-483v-433z" />
    <glyph glyph-name="afii61352" unicode="&#x2116;" horiz-adv-x="2621" 
d="M139 0v1458h256l817 -1194v1194h199v-1458h-256l-817 1194v-1194h-199zM2351 987q0 140 -87 234t-222 94t-222 -93.5t-87 -234.5q0 -140 87 -234t222 -94t222 93.5t87 234.5zM1542 987q0 145 65 264.5t180 187.5t255 68q214 0 358 -149.5t144 -370.5t-144 -370.5
t-358 -149.5q-140 0 -255 68t-180 187.5t-65 264.5zM1763 0v199h557v-199h-557z" />
    <glyph glyph-name="trademark" unicode="&#x2122;" horiz-adv-x="1556" 
d="M719 813v645h174l184 -465l178 465h168v-645h-125v399l-170 -399h-114l-160 387v-387h-135zM305 813v512h-217v133h561v-133h-209v-512h-135z" />
    <glyph glyph-name="Omega" unicode="&#x2126;" horiz-adv-x="1695" 
d="M94 0v199h283q-283 218 -283 553q0 154 60 294t161 241t241 160.5t294 59.5t293.5 -59.5t240 -160.5t159.5 -241t59 -294q0 -339 -279 -553h283v-199h-670v213q209 60 339 200.5t130 338.5q0 113 -44 216t-118 178t-177 119t-216 44t-216 -44t-178 -119t-119 -178
t-44 -216q0 -198 130 -338.5t341 -200.5v-213h-670z" />
    <glyph glyph-name="arrowleft" unicode="&#x2190;" horiz-adv-x="1454" 
d="M791 -55l-705 706v160l705 705l139 -140l-557 -547h995v-198h-995l557 -545z" />
    <glyph glyph-name="arrowup" unicode="&#x2191;" horiz-adv-x="1656" 
d="M43 666l705 704h159l707 -704l-141 -140l-545 557v-995h-199v995l-547 -557z" />
    <glyph glyph-name="arrowright" unicode="&#x2192;" horiz-adv-x="1454" 
d="M664 -55l-140 141l557 545h-995v198h995l-557 547l140 140l704 -705v-160z" />
    <glyph glyph-name="arrowdown" unicode="&#x2193;" horiz-adv-x="1656" 
d="M748 88l-705 705l139 139l547 -557v995h199v-995l545 557l141 -139l-707 -705h-159z" />
    <glyph glyph-name="arrowboth" unicode="&#x2194;" horiz-adv-x="2224" 
d="M1434 1516l704 -705v-160l-704 -706l-140 141l557 545h-1478l557 -545l-139 -141l-705 706v160l705 705l139 -140l-557 -547h1478l-557 547z" />
    <glyph glyph-name="arrowupdn" unicode="&#x2195;" horiz-adv-x="1755" 
d="M1663 410l-705 -705h-159l-707 705l141 139l545 -557v1478l-545 -557l-141 140l707 704h159l705 -704l-139 -140l-547 557v-1478l547 557z" />
    <glyph glyph-name="uni2196" unicode="&#x2196;" horiz-adv-x="1353" 
d="M260 1284h997v-194h-780l703 -701l-140 -139l-700 704v-780h-193v995z" />
    <glyph glyph-name="uni2197" unicode="&#x2197;" horiz-adv-x="1353" 
d="M1094 1284l112 -115v-995h-192v780l-701 -704l-139 139l703 701h-781v194h998z" />
    <glyph glyph-name="uni2198" unicode="&#x2198;" horiz-adv-x="1353" 
d="M1094 174h-998v195h781l-703 700l139 139l701 -704v780h192v-995z" />
    <glyph glyph-name="uni2199" unicode="&#x2199;" horiz-adv-x="1353" 
d="M1257 174h-997l-113 115v995h193v-780l700 704l140 -139l-703 -700h780v-195z" />
    <glyph glyph-name="Delta" unicode="&#x2206;" horiz-adv-x="1507" 
d="M299 199h909l-454 1036zM872 1458l568 -1288v-170h-1372v170l567 1288h237z" />
    <glyph glyph-name="minus" unicode="&#x2212;" horiz-adv-x="1169" 
d="M106 621v198h957v-198h-957z" />
    <glyph glyph-name="uni2713" unicode="&#x2713;" horiz-adv-x="1560" 
d="M1450 1876l176 -96l-893 -1674h-178l-485 703l163 115l400 -582z" />
    <glyph glyph-name="uni2715" unicode="&#x2715;" horiz-adv-x="1826" 
d="M76 33l700 696l-700 694l143 144l694 -701l695 701l145 -144l-700 -694l700 -696l-145 -144l-695 703l-694 -703z" />
    <glyph glyph-name="uni2717" unicode="&#x2717;" horiz-adv-x="1658" 
d="M113 150l581 579l-581 580l137 137l579 -582l578 582l139 -137l-581 -580l581 -579l-139 -140l-578 584l-579 -584z" />
    <glyph glyph-name="songer" unicode="&#x2b24;" horiz-adv-x="2205" 
d="M1620 1905q113 -68 200 -200t137.5 -296t75.5 -337t25 -347t-25 -347t-75.5 -337t-137.5 -296t-200 -200q-110 -67 -250 -67q-143 0 -278 30q-203 48 -380 162t-305 272.5t-202 361.5t-74 421q0 217 74 420t202 361t305 272t380 161q140 31 278 31t250 -65z" />
    <glyph glyph-name="commaaccent" unicode="&#xf6c3;" horiz-adv-x="485" 
d="M264 -109q72 0 111 -54t39 -136q0 -98 -55.5 -169t-161.5 -138l-86 131q94 57 122 94q-47 0 -81.5 35t-34.5 88q0 59 41 104t106 45z" />
    <glyph glyph-name="uni041B.ss02" horiz-adv-x="1503" 
d="M25 0l626 1458h201l627 -1458h-226l-501 1180l-502 -1180h-225z" />
    <glyph glyph-name="uni0414.ss02" horiz-adv-x="1689" 
d="M57 0v199h168l496 1259h248l495 -1259h168v-199h-1575zM438 199h813l-407 1034z" />
    <glyph glyph-name="uni0426.ss02" horiz-adv-x="1644" 
d="M139 0v1458h201v-1259h823v1259h199v-1259h225v-199h-1448z" />
    <glyph glyph-name="uni0429.ss02" horiz-adv-x="2330" 
d="M139 0v1458h201v-1259h655v1259h199v-1259h655v1259h201v-1259h223v-199h-2134z" />
    <glyph glyph-name="zero.slash" horiz-adv-x="1542" 
d="M774 -49q-195 0 -348 106t-235 283t-82 391q0 212 82 388.5t235.5 282t347.5 105.5q191 0 343 -105.5t234.5 -282.5t82.5 -388q0 -213 -82.5 -391t-234.5 -283.5t-343 -105.5zM446 295l488 981q-74 33 -160 33q-139 0 -246.5 -78.5t-164 -209.5t-56.5 -290
q0 -268 139 -436zM1096 1157l-490 -975q71 -32 168 -32q136 0 242.5 80.5t161.5 212t55 288.5q0 128 -35.5 239t-101.5 187z" />
    <glyph glyph-name="K.ss02" horiz-adv-x="1449" 
d="M139 0v1458h201v-629h344l442 629h244l-514 -727l514 -731h-244l-444 631h-342v-631h-201z" />
    <glyph glyph-name="uni0414.loclBGR" horiz-adv-x="1689" 
d="M57 -193v392h168l496 1259h248l495 -1259h168v-392h-198v193h-1178v-193h-199zM438 199h813l-407 1034z" />
    <glyph glyph-name="uni041B.loclBGR" horiz-adv-x="1503" 
d="M25 0l626 1458h201l627 -1458h-226l-501 1180l-502 -1180h-225z" />
    <glyph glyph-name="uni0424.loclBGR" horiz-adv-x="1771" 
d="M786 -193v150q-151 17 -283 83t-226.5 167.5t-148.5 237t-54 286.5q0 197 92.5 365.5t255 275t364.5 129.5v150h199v-150q150 -17 282 -83t227 -167t149.5 -236t54.5 -284q0 -151 -54.5 -287.5t-149.5 -237.5t-226.5 -167t-282.5 -82v-150h-199zM985 1303v-1147
q223 31 368.5 192t145.5 383q0 218 -145.5 379t-368.5 193zM786 156v1144q-224 -32 -369 -192t-145 -377q0 -223 145 -382t369 -193z" />
    <glyph glyph-name="Kcommaaccent.ss02" horiz-adv-x="1449" 
d="M139 0v1458h201v-629h344l442 629h244l-514 -727l514 -731h-244l-444 631h-342v-631h-201zM684 -109q72 0 111 -54t39 -136q0 -98 -55.5 -169t-162.5 -138l-86 131q96 58 123 94q-47 0 -81.5 35t-34.5 88q0 59 41 104t106 45z" />
    <glyph glyph-name="brevecyr" horiz-adv-x="954" 
d="M72 1792l161 98q13 -21 34.5 -49.5t56.5 -67t76.5 -64.5t76.5 -26q36 0 78.5 26.5t76 64t56.5 68t33 48.5l162 -98q-71 -116 -180.5 -204.5t-225.5 -88.5q-60 0 -122 27t-114.5 71t-94.5 93.5t-74 101.5z" />
    <glyph glyph-name="zero.tf" horiz-adv-x="1392" 
d="M1157 731q0 157 -55.5 288t-161.5 210.5t-242 79.5q-139 0 -246.5 -78.5t-164 -209.5t-56.5 -290t56.5 -290.5t164 -211t246.5 -79.5q136 0 242.5 80.5t161.5 212t55 288.5zM33 731q0 212 82 388.5t235.5 282t347.5 105.5q191 0 343 -105.5t234.5 -282.5t82.5 -388
q0 -213 -82.5 -391t-234.5 -283.5t-343 -105.5q-195 0 -348 106t-235 283t-82 391z" />
    <glyph glyph-name="zeroslash.tf" horiz-adv-x="1392" 
d="M698 -49q-195 0 -348 106t-235 283t-82 391q0 212 82 388.5t235.5 282t347.5 105.5q191 0 343 -105.5t234.5 -282.5t82.5 -388q0 -213 -82.5 -391t-234.5 -283.5t-343 -105.5zM371 295l487 981q-74 33 -160 33q-139 0 -246.5 -78.5t-164 -209.5t-56.5 -290
q0 -266 140 -436zM1020 1157l-490 -975q71 -32 168 -32q136 0 242.5 80.5t161.5 212t55 288.5q0 128 -35.5 239t-101.5 187z" />
    <glyph glyph-name="one.tf" horiz-adv-x="1392" 
d="M799 201h446v-201h-1091v201h444v1024l-145 -97l-109 168l250 162h205v-1257z" />
    <glyph glyph-name="two.tf" horiz-adv-x="1392" 
d="M1264 983q0 -449 -707 -784h692v-199h-1095v231q73 27 149.5 60.5t167.5 80t172.5 97t159 112t134 124t90.5 135t34 143.5q0 146 -91 236t-243 90q-140 0 -262 -94.5t-162 -256.5l-197 48q37 152 129.5 266.5t220 174.5t271.5 60q244 0 390.5 -146.5t146.5 -377.5z" />
    <glyph glyph-name="three.tf" horiz-adv-x="1392" 
d="M84 270l172 101q68 -112 176 -165.5t230 -53.5q166 0 261 71t95 172q0 109 -99.5 177.5t-291.5 68.5h-176v201h176q178 0 270 66t92 165q0 106 -97.5 170t-234.5 64q-108 0 -206 -43t-162 -131l-160 114q90 129 229.5 194.5t294.5 65.5q104 0 199.5 -30t170.5 -84
t120 -137t45 -183q0 -96 -52 -187.5t-137 -140.5q104 -50 161 -144.5t57 -207.5q0 -86 -37.5 -165t-106.5 -141t-176.5 -99t-237.5 -37q-112 0 -216 32.5t-199.5 105.5t-159.5 181z" />
    <glyph glyph-name="four.tf" horiz-adv-x="1392" 
d="M309 459h590v723zM78 260v225l788 973h232v-999h194v-199h-194v-260h-199v260h-821z" />
    <glyph glyph-name="five.tf" horiz-adv-x="1392" 
d="M111 375l184 69q117 -294 393 -294q92 0 165.5 29t117.5 77.5t67 107t23 121.5q0 131 -90.5 218.5t-225.5 87.5q-198 0 -399 -175l-168 86l64 756h919v-201h-733l-39 -380q163 114 359 114q136 0 254 -65t189 -182t71 -259q0 -108 -40 -205t-112.5 -170t-182 -116
t-239.5 -43q-198 0 -349 111.5t-228 312.5z" />
    <glyph glyph-name="six.tf" horiz-adv-x="1392" 
d="M604 1323l170 211l158 -123l-301 -375q104 11 197.5 -3.5t165 -50.5t129 -88t95 -115.5t57 -134t19.5 -142.5q0 -149 -79.5 -276t-217.5 -201t-301 -74q-122 0 -232.5 44t-190 118t-126.5 175.5t-47 213.5q0 42 6 76.5t16 70t38.5 84t58.5 95t92.5 127.5t124 158.5
t168.5 209.5zM301 502q0 -146 116 -249t279 -103q166 0 283 103t117 249q0 148 -117 252t-283 104q-163 0 -279 -104t-116 -252z" />
    <glyph glyph-name="seven.tf" horiz-adv-x="1392" 
d="M385 35l641 1222h-909v201h1126v-215l-680 -1302z" />
    <glyph glyph-name="eight.tf" horiz-adv-x="1392" 
d="M317 748q-188 110 -188 303q0 121 76 226t207.5 167.5t283.5 62.5q150 0 280 -62t207 -167.5t77 -226.5q0 -193 -191 -303q109 -55 167 -140t58 -184q0 -128 -81.5 -237t-219 -172.5t-297.5 -63.5q-161 0 -299.5 63.5t-219.5 172.5t-81 237q0 100 57 186.5t164 137.5z
M293 410q0 -101 116 -180.5t287 -79.5q168 0 284 80t116 180q0 70 -59.5 127t-151 87.5t-189.5 30.5q-99 0 -191 -30.5t-152 -87.5t-60 -127zM328 1059q0 -65 53.5 -117.5t137 -80t177.5 -27.5q142 0 252.5 64t110.5 161q0 67 -52.5 124.5t-135.5 89.5t-175 32
q-157 0 -262.5 -74.5t-105.5 -171.5z" />
    <glyph glyph-name="nine.tf" horiz-adv-x="1392" 
d="M459 47l301 375q-154 -17 -283 23t-210.5 119t-126 180.5t-44.5 211.5q0 149 79.5 276t217.5 201t301 74q122 0 232.5 -44t190 -118t126.5 -175.5t47 -213.5q0 -42 -6 -76.5t-16 -70t-38.5 -84t-58.5 -95t-92.5 -127.5t-124 -158.5t-168.5 -209.5l-170 -211zM295 958
q0 -148 116.5 -252t282.5 -104q163 0 279.5 104.5t116.5 251.5q0 146 -116.5 249.5t-279.5 103.5q-166 0 -282.5 -103.5t-116.5 -249.5z" />
    <glyph glyph-name="dollar.tf" horiz-adv-x="1392" 
d="M57 184l119 176q301 -206 555 -206q172 0 276.5 65.5t104.5 147.5q0 54 -35.5 96t-96 71t-138.5 54t-164.5 48t-173 48.5t-164.5 61t-138.5 80t-96 110t-35.5 147.5q0 121 68.5 215t181 145.5t251.5 59.5v217h199v-223q237 -38 490 -197l-111 -170q-138 87 -277.5 133
t-257.5 46q-160 0 -253 -65.5t-93 -153.5q0 -43 29.5 -78.5t79.5 -60t117 -48t142 -41.5t154.5 -42.5t154.5 -49.5t142 -63t117 -83t79.5 -110t29.5 -143q0 -168 -149 -288t-394 -130v-213h-199v225q-247 44 -514 219z" />
    <glyph glyph-name="cent.tf" horiz-adv-x="1392" 
d="M629 -242v203q-198 34 -330.5 191.5t-132.5 361.5q0 205 132.5 362t330.5 193v207h192v-203q128 -19 234 -92.5t174 -189.5l-168 -93q-51 90 -137 139.5t-191 49.5q-155 0 -265 -109.5t-110 -263.5t110 -262.5t265 -108.5q104 0 188.5 49t135.5 140l168 -96
q-61 -112 -166.5 -184.5t-237.5 -94.5v-199h-192z" />
    <glyph glyph-name="sterling.tf" horiz-adv-x="1392" 
d="M446 596q-3 -30 -9.5 -89.5t-9 -79t-9.5 -59t-15 -60t-22.5 -50t-34.5 -59.5h920v-199h-1153v199q67 57 90 131.5t39 224.5l32 309q11 102 36.5 193t69 174.5t101 144t138.5 96t176 35.5q233 0 512 -225l-127 -156q-91 77 -192.5 130t-192.5 53q-272 0 -328 -514h561
v-199h-582z" />
    <glyph glyph-name="yen.tf" horiz-adv-x="1392" 
d="M197 172v188h399l-31 64h-368v192h264l-443 842h230l448 -862l453 862h225l-446 -842h268v-192h-369l-30 -64h399v-188h-399v-172h-201v172h-399z" />
    <glyph glyph-name="space.tf" horiz-adv-x="1392" 
 />
    <glyph glyph-name="uni041B.ss03" horiz-adv-x="1585" 
d="M-2 47l86 178q81 -41 143 -41q33 0 60 26.5t45.5 77t32 109t20.5 137.5t11.5 147.5t5.5 153t1 140t-1 123t-1 88.5v272h1045v-1458h-201v1257h-645v-71q0 -37 1 -118q2 -82 0.5 -172t-3.5 -181.5t-13 -181t-26 -170.5t-44 -150t-67 -119.5t-94.5 -79t-126.5 -28.5
q-113 0 -229 61z" />
    <glyph glyph-name="uni0409.ss03" horiz-adv-x="2377" 
d="M-2 47l86 178q81 -41 143 -41q33 0 60 26.5t45.5 77t32 109t20.5 137.5t11.5 147.5t5.5 153t1 140t-1 123t-1 88.5v272h998v-588h465q185 0 314.5 -123.5t129.5 -304.5q0 -184 -129.5 -313t-314.5 -129h-664v1257h-600v-71q0 -37 1 -118q2 -82 0.5 -172t-3.5 -181.5
t-13 -181t-26 -170.5t-44 -150t-67 -119.5t-94.5 -79t-126.5 -28.5q-113 0 -229 61zM1399 199h465q101 0 173 68t72 165q0 98 -72 168t-173 70h-465v-471z" />
    <glyph glyph-name="uni0409.ss02" horiz-adv-x="2205" 
d="M1694 870q185 0 314.5 -123.5t129.5 -304.5q0 -184 -129.5 -313t-314.5 -129h-441l-501 1180l-502 -1180h-225l626 1458h201l252 -588h590zM1694 199q101 0 173 68t72 165q0 98 -72 168t-173 70h-506l205 -471h301z" />
    <glyph glyph-name="uni041A.ss02" horiz-adv-x="1533" 
d="M139 0v1458h199v-1001l881 1001h264l-639 -727l639 -731h-269l-505 578l-371 -424v-154h-199z" />
    <glyph glyph-name="uni040C.ss02" horiz-adv-x="1533" 
d="M139 0v1458h199v-1001l881 1001h264l-639 -727l639 -731h-269l-505 578l-371 -424v-154h-199zM731 1513l-115 134l351 321l133 -153z" />
    <glyph glyph-name="uni0416.ss02" horiz-adv-x="2490" 
d="M664 731l-615 727h262l834 -991v991h201v-991l833 991h262l-614 -727l614 -731h-262l-481 575l-352 -399v-176h-201v176l-352 399l-482 -575h-262z" />
    </font>
</defs>
</svg>
